<?xml version="1.0" encoding="utf-8"?>
<!-- Generator: Adobe Illustrator 21.0.0, SVG Export Plug-In . SVG Version: 6.00 Build 0)  -->
<svg version="1.1" xmlns="http://www.w3.org/2000/svg" xmlns:xlink="http://www.w3.org/1999/xlink" x="0px" y="0px"
	 viewBox="0 0 80 140" style="enable-background:new 0 0 80 140;" xml:space="preserve">
<style type="text/css">
	.st0{fill:#2A2C29;}
	.st1{fill:#334656;}
	.st2{fill:#202120;}
	.st3{fill:#363835;}
	.st4{fill:#FFC197;}
	.st5{fill:#F4F4F4;}
	.st6{fill:#B4C7E2;}
	.st7{display:none;}
	.st8{display:inline;}
	.st9{fill-rule:evenodd;clip-rule:evenodd;fill:#FFC197;}
	.st10{fill:#C17614;}
	.st11{fill:#AA6511;}
	.st12{fill:#F7B68B;}
	.st13{fill:#202020;}
	.st14{fill:#4CF2C3;}
	.st15{fill:#183666;}
	.st16{fill:#50E3C2;}
	.st17{clip-path:url(#SVGID_2_);}
	.st18{clip-path:url(#SVGID_4_);fill:#4CF2C3;}
	.st19{clip-path:url(#SVGID_4_);fill:#F389B8;}
	.st20{clip-path:url(#SVGID_4_);fill:#202020;}
	.st21{clip-path:url(#SVGID_4_);fill:#FFFFFF;}
	.st22{clip-path:url(#SVGID_4_);fill:#71CAFF;}
	.st23{clip-path:url(#SVGID_4_);fill:#A158DF;}
	.st24{clip-path:url(#SVGID_6_);}
	.st25{clip-path:url(#SVGID_8_);fill:#4CF2C3;}
	.st26{clip-path:url(#SVGID_8_);fill:#F389B8;}
	.st27{clip-path:url(#SVGID_8_);fill:#202020;}
	.st28{clip-path:url(#SVGID_8_);fill:#FFFFFF;}
	.st29{clip-path:url(#SVGID_8_);fill:#71CAFF;}
	.st30{clip-path:url(#SVGID_8_);fill:#A158DF;}
	.st31{clip-path:url(#SVGID_10_);}
	.st32{clip-path:url(#SVGID_12_);fill:#4CF2C3;}
	.st33{clip-path:url(#SVGID_12_);fill:#F389B8;}
	.st34{clip-path:url(#SVGID_12_);fill:#202020;}
	.st35{clip-path:url(#SVGID_12_);fill:#FFFFFF;}
	.st36{clip-path:url(#SVGID_12_);fill:#71CAFF;}
	.st37{clip-path:url(#SVGID_12_);fill:#A158DF;}
	.st38{clip-path:url(#SVGID_14_);}
	.st39{clip-path:url(#SVGID_16_);fill:#4CF2C3;}
	.st40{clip-path:url(#SVGID_16_);fill:#F389B8;}
	.st41{clip-path:url(#SVGID_16_);fill:#202020;}
	.st42{clip-path:url(#SVGID_16_);fill:#FFFFFF;}
	.st43{clip-path:url(#SVGID_16_);fill:#71CAFF;}
	.st44{clip-path:url(#SVGID_16_);fill:#A158DF;}
	.st45{clip-path:url(#SVGID_18_);}
	.st46{clip-path:url(#SVGID_20_);fill:#4CF2C3;}
	.st47{clip-path:url(#SVGID_20_);fill:#F389B8;}
	.st48{clip-path:url(#SVGID_20_);fill:#202020;}
	.st49{clip-path:url(#SVGID_20_);fill:#FFFFFF;}
	.st50{clip-path:url(#SVGID_20_);fill:#71CAFF;}
	.st51{clip-path:url(#SVGID_20_);fill:#A158DF;}
	.st52{fill:#305489;}
	.st53{fill:#FFFFFF;}
	.st54{fill:#C48233;}
	.st55{fill:#F3889A;}
	.st56{opacity:0.22;}
	.st57{clip-path:url(#SVGID_22_);}
	.st58{clip-path:url(#SVGID_24_);fill:#4CF2C3;}
	.st59{clip-path:url(#SVGID_24_);fill:#F389B8;}
	.st60{clip-path:url(#SVGID_24_);fill:#202020;}
	.st61{clip-path:url(#SVGID_24_);fill:#FFFFFF;}
	.st62{clip-path:url(#SVGID_24_);fill:#71CAFF;}
	.st63{clip-path:url(#SVGID_24_);fill:#A158DF;}
	.st64{fill:#F41414;}
</style>
<g id="Layer_35">
</g>
<g id="Layer_97">
	<g id="shadow">
		<g id="Layer_34">
		</g>
	</g>
</g>
<g id="Layer_96">
	<g id="right_leg">
		<g id="Layer_33">
		</g>
	</g>
</g>
<g id="Layer_95">
	<g id="right_shoes">
		<g id="Layer_32">
		</g>
	</g>
</g>
<g id="Layer_94">
	<g id="right_shoe_base">
		<g id="Layer_31">
		</g>
	</g>
</g>
<g id="Layer_93">
	<g id="left_leg">
		<g id="Layer_30">
		</g>
	</g>
</g>
<g id="Layer_92">
	<g id="left_shoes">
		<g id="Layer_29">
		</g>
	</g>
</g>
<g id="Layer_91">
	<g id="left_shoe_base">
		<g id="Layer_28">
		</g>
	</g>
</g>
<g id="Layer_90">
	<g id="hand">
		<g id="Layer_27">
		</g>
	</g>
</g>
<g id="Layer_89">
	<g id="Layer_60" class="st7">
		<g id="Layer_26" class="st8">
		</g>
	</g>
</g>
<g id="hand_1_">
</g>
<g id="shoulder">
</g>
<g id="palm">
	<g id="hand_bone">
		<g id="Layer_22">
		</g>
	</g>
	<g id="Layer_21">
	</g>
</g>
<g id="Layer_20">
</g>
<g id="Layer_82">
	<g id="finger_2">
		<g id="Layer_19">
		</g>
	</g>
</g>
<g id="Layer_81">
	<g id="finger">
		<g id="Layer_18">
		</g>
	</g>
</g>
<g id="Layer_80">
	<g id="left_hand">
		<g id="Layer_17">
		</g>
	</g>
</g>
<g id="Layer_79">
	<g id="pants">
		<g id="Layer_16">
		</g>
	</g>
</g>
<g id="Layer_78">
	<g id="brscelet">
		<g id="Layer_15">
		</g>
	</g>
</g>
<g id="Layer_77">
	<g id="tee">
		<g id="Layer_14">
		</g>
	</g>
</g>
<g id="Layer_99">
	<g id="tee_design">
		<g id="Layer_13">
		</g>
	</g>
</g>
<g id="Layer_75">
	<g id="Layer_46">
		<g id="Layer_12">
		</g>
	</g>
</g>
<g id="Layer_45">
	<g id="Layer_11">
	</g>
</g>
<g id="Layer_72">
	<g id="left_eye">
		<g id="Layer_9">
		</g>
	</g>
</g>
<g id="Layer_71">
	<g id="left_pupil">
		<g id="Layer_8">
		</g>
	</g>
</g>
<g id="Layer_70">
	<g id="right_eye">
		<g id="Layer_7">
		</g>
	</g>
</g>
<g id="Layer_68">
	<g id="right_pupil">
		<g id="Layer_6">
		</g>
	</g>
</g>
<g id="fridge">
	<g id="Layer_5">
	</g>
</g>
<g id="Layer_66">
	<g id="lips">
		<g id="Layer_4">
		</g>
	</g>
	<g>
		<ellipse class="st2" cx="40" cy="135.4" rx="37.6" ry="3.1"/>
		<rect x="45.9" y="113.7" class="st4" width="3.5" height="19.9"/>
		<path class="st5" d="M45.2,131.6v3.5h13.9c0,0-4.5-1.6-7.8-3.6c-0.1-0.1-1.9-0.1-2,0c-1.5,1.5-1.5,1.4-2.1,1.4
			C46.1,132.9,46.2,131.5,45.2,131.6z"/>
		
			<rect x="45.2" y="135.2" transform="matrix(-1 -4.495927e-11 4.495927e-11 -1 104.3655 271.3986)" class="st6" width="14" height="1.1"/>
		<polygon class="st4" points="28.5,112.7 28,132.8 31.5,132.8 31.5,113 		"/>
		<path class="st5" d="M32.2,131v3.5H18.3c0,0,4.5-1.6,7.8-3.6c0.1-0.1,1.9-0.1,2,0c1.5,1.5,1.5,1.4,2.1,1.4
			C31.3,132.2,31.3,130.8,32.2,131z"/>
		<rect x="18.3" y="134.5" class="st6" width="14" height="1.1"/>
		<path class="st11" d="M47.9,17.3c0.2-17.4-7.4-13-7.4-13l0-0.3c0,0-7.3-4-7.3,12.7l0.5,9.4h13.3"/>
		<path class="st4" d="M50.8,60.6c-1.4,4.3-2,8.9-2,13.4c0,0.4,0.2,1,0.5,0.7c1.2-2.3,1.5-4.9,2.3-7.4c0.9-2.8,2.2-5.6,3.4-8.3
			c1.2-2.4,2.4-4.9,2.7-7.7c0.2-1.6,0-3.2-0.2-4.8c-0.5-3.9-0.9-7.9-1.8-11.7c-0.4-2-0.9-3.9-1.7-5.7c-0.1-0.2-1.8-3.1-1.8-2.9
			c-0.4,3.3-1.5,7.1-0.8,10.2c0.3,1.3,0.6,2.6,1,3.9c0.9,3.3,1.8,6.5,1.3,10.5C53.2,54.2,51.8,57.3,50.8,60.6z"/>
		<path class="st4" d="M31.4,38.5c0,3.5-0.7,7.1-1,10.5c-0.5,5.7-0.9,11.3-1.4,17c-0.2,2.7-0.6,5.4-0.6,8.1c0,2.6-0.3,5.3-1.1,7.7
			c-0.5,0.2-0.9-0.3-1.2-0.8c-1.3-2.5-1.3-5-1.2-7.7c0.4-7.1,0.5-14.2,0.8-21.3c0.3-6.9,0.5-13.9,0.8-20.8c0-1.3,0.7-2.6,1.7-3.5
			l2.8-1.6C31,26.3,31.4,38.5,31.4,38.5z"/>
		<polygon class="st13" points="49.8,68.3 50.4,125.7 45.5,125.7 40,72.4 38.1,72.4 31.6,125.5 26.8,125.7 28.1,72.4 		"/>
		<g>
			<defs>
				<path id="SVGID_21_" d="M50.7,34.3l5.7-0.2L55.8,30c-0.4-1.9-1.7-3.5-3.4-4.3l-9.5-4.5l-5.5,0l-9.9,5.5c-0.5,0.3-0.9,1-1,1.6
					c0,0,0,0,0,0l-0.8,5.4l4.2,0.1l-0.2,2.6l-0.2,3.1l-0.1,1.6L29,45.5l-0.3,4.7l-0.3,4.2l-0.3,4.7l-0.6,13.3L50.9,72"/>
			</defs>
			<clipPath id="SVGID_2_">
				<use xlink:href="#SVGID_21_"  style="overflow:visible;"/>
			</clipPath>
			<g id="XMLID_76_" class="st17">
				<defs>
					<polygon id="SVGID_23_" points="-15.4,20.4 -14,83.1 102.5,83.1 101.1,20.4 					"/>
				</defs>
				<clipPath id="SVGID_4_">
					<use xlink:href="#SVGID_23_"  style="overflow:visible;"/>
				</clipPath>
				<polygon class="st18" points="-44.7,9.7 -41.6,94.6 130.4,94.6 124.6,9.7 				"/>
				<path class="st19" d="M69.6,47.9c-0.2-1.5-1-3.7-1.7-2.9c-0.1-3.5-0.3-7-0.8-10.4c-0.3-1.8-0.6-3.8-1.2-5.6
					c-0.1-0.7-0.2-1.5-0.3-2.2c-0.4-2.1-1-5.7-2.1-6.4c-0.1,0-0.1-0.1-0.2-0.1c-0.1-1.2-0.4-3.2-1.1-3.3c-0.1-1.1-0.3-2.1-0.6-2.9
					c-0.2-0.6-0.6-0.8-0.8-0.6c-0.4-1-1.2-1.7-1.6-0.4c-0.3-1.1-0.7-1.9-1.2-2.2c-0.8-0.5-1.3,1.3-0.9,2.8c0,0.1,0.1,0.3,0.1,0.4
					c0,0,0,0,0,0.1c0,0.2,0,0.3,0.1,0.5c0,0,0,0.1,0,0.2c0,0.1,0,0.4,0,0.5c0,0.1,0,0.1,0,0.1c0,0,0,0,0,0c0,0.4,0,0.9-0.1,1.3
					c0,0.6,0.1,1.3,0.4,1.8c0,0.4-0.1,0.8-0.1,1.3c-0.2,0.3-0.3,0.7-0.3,1.2c0,1.2-0.1,2.4-0.1,3.6c-0.4-2.8-0.8-5.6-1.2-8.5
					c-0.2-1.6-0.9-3-1.7-2.8c-0.8,0.1-1.2,1.8-1,3.3c0,0,0,0,0,0c0,0,0,0-0.1,0c-0.2-0.1-0.4,0-0.6,0.2c-0.1-0.5-0.1-1.1-0.2-1.6
					c-0.2-1.3-0.8-2.5-1.4-2.6c-0.6-0.1-1.1,0.8-1,2.1c0.1,0.9,0.1,1.9,0.2,2.8c-0.9-1.4-2.5-1.1-2.4,1.6c0,0.1,0,0.1,0,0.2
					c0,0.7,0,1.2,0.2,1.7c-0.5-1.4-1-2.9-1.9-2.8c-0.3,0-0.5,0.4-0.6,0.8c0-0.5-0.1-1.1-0.2-1.6c-0.3-1.6-1.6-1.8-2-0.4
					c-0.2,0.2-0.4,0.5-0.5,0.9c-0.3,1-0.2,2.3-0.2,3.5c0,0.8-0.6,0.6-0.7,1.4c-1-0.8-1.2,2.2-1,4.5c0.2,1.7,0.7,3.3,1.2,4.8
					c0,0.2,0,0.4,0,0.6c-0.1,0.8-0.1,1.7-0.1,2.5c-0.1,0.1-0.2,0.3-0.2,0.5c-0.1-0.2-0.3-0.3-0.5-0.5c-0.6-1.6-1.7-1.7-1.8,0.9
					c-0.1,2.1,0.4,4.4,0.7,6.3c0.3,2.1,0.7,4.2,1.1,6.1c0.1,0.3,0.2,0.6,0.3,0.8c0,3.3,0.1,6.7,0.4,9.8c0.1,0.8,0.3,1.7,0.5,2.4
					c0,0.1-0.1,0.3-0.1,0.4c-0.4,2.6-0.2,5.4-0.2,8c0,2.7,0.1,5.4,0.2,8.1c0.1,2.3,1,2.9,1.5,1.9c0.1,0.5,0.3,1,0.4,1.4
					c0.4,3.8,6.9,7.4,8.1,10.3c0.4,0.9,1.2,1.7,1.8,0.9c0.1-0.2,0.2-0.4,0.3-0.6c0.1,0.7,0.2,1.3,0.4,2c-0.1,0.5-0.2,1-0.3,1.4
					c-0.4,1.7-0.9,3-1.4,4.5c-0.5,1.8-0.5,5,0.7,5.4c0.9,0.3,1.8-2,2.3-3.3c0.5-1.4,0.9-3,1.2-4.7c0.1,1,0.2,2,0.5,3
					c0.4,1.4,1.3,1.5,1.5-0.3c0.1-0.8,0.1-1.6,0.1-2.4c0.2,0.1,0.4,0.1,0.6,0c0.2-0.2,0.4-0.5,0.6-0.9c0.4-0.2,0.7-0.6,0.9-1.2
					c0.4,0.4,0.7,0.8,1.2,1c0.2,0.1,0.3,0.1,0.5,0c0.1,0.2,0.3,0.5,0.4,0.6c0.3,0.3,0.5,0.3,0.7,0.2c0.1,0.2,0.1,0.4,0.2,0.6
					c0.3,0.9,0.8,2.3,1.4,2.5c0.5,0.2,0.8-0.7,0.9-1.7c0.4-0.2,0.6-0.9,0.7-1.7c0.1,0,0.2,0,0.3-0.1c0.1,0.1,0.1,0.2,0.2,0.3
					c0.1,0.1,0.2,0.1,0.3,0.1c0.1,0,0.2,0,0.3-0.1c0.1-0.1,0.2-0.2,0.3-0.3c0.1-0.1,0.2-0.3,0.3-0.5c0,0.1,0.1,0.2,0.1,0.2
					c0.1,0.2,0.2,0.3,0.3,0.4c0.1,0.1,0.2,0.2,0.3,0.2c0.1,0,0.1,0,0.2,0c0,0,0.1,0,0.1,0c0.1,0.6,0.4,1,0.7,1.1
					c0.2,0,0.4-0.1,0.6-0.3c0.1-0.2,0.3-0.5,0.3-0.9c0.5,0.9,1,1.8,1.5,2.5c0.3,0.4,0.9,0.5,1.2-0.1c0.3-0.6,0.2-1.6,0-2.2
					c-0.6-1.4-1.4-2.6-2.1-3.8c0.1,0,0.2,0,0.3-0.1c0.7-0.4,0.9-2.3,0.7-3.6c0-0.3-0.1-0.6-0.1-0.9c0-1.2-0.1-2.5-0.2-3.8
					c-0.1-1.5-6-2.9-6.1-4.4c0.8,0.1,1.6-1.2,1.7-3.6c0-0.6,0-1.2,0-1.8c0-0.2,0-0.5,0-0.7c0-4.4,0.1-8.9,0.2-13.3
					c0.1-2.1,0.1-4.2,0.2-6.3C69.7,52.7,69.9,50.2,69.6,47.9z M70.1,90.6c0-0.2,0-0.4,0-0.6c0,0,0-0.1,0-0.1
					c0.1,0.1,0.2,0.1,0.3,0.1c0,0.1,0,0.3,0,0.4C70.3,90.4,70.2,90.5,70.1,90.6z"/>
				<path class="st20" d="M13.1,17.3c0.1,0.2,0.1,0.4,0.1,0.4c0,0.1-0.1,0-0.3-0.2c0.2,0.3,0.3,0.4,0.4,0.4c0.1,0.1,0.1,0.2,0.3,0.5
					c0,0.1-0.1,0-0.2-0.1c0.3,0.6,0.3,0.4,0.5,0.8c0.2,0.1,0.4,0.2,0.5,0.3l-0.1-0.2c0.1,0.1,0.1,0.2,0.2,0.3c0,0,0.1,0.1,0.1,0.1
					c0,0,0.1,0.1,0.1,0.1c0.1,0.1,0.2,0.3,0.2,0.4l0,0l0.2,0.3l0,0.1l0.3,0.4l0-0.1c0.1,0.1,0.3,0.4,0.4,0.6l0,0
					c0.2,0.6,0.6,1,1,1.6l-0.1,0c0.1,0.3,0.1,0,0.3,0.3l-0.1,0.1c0.2,0.1,0.2,0.3,0.2,0.5l0.1-0.2l0.2,0.3c0.2,0.4,0,0.3-0.1,0.3
					l0.2,0.2l-0.1,0.1c0.2,0.1,0.1,0.2,0.3,0.4c0,0.1-0.1,0,0,0.1c0,0,0.1,0.1,0.2,0.2c0.1,0.1,0.1,0.1,0.2,0.1c0,0,0.1,0.1,0.1,0.1
					s-0.1-0.1-0.1-0.1c-0.1-0.1-0.1-0.1-0.1-0.1l0.1-0.1c0.2,0.1,0.2,0.2,0.3,0.3c0.1,0.1,0.1,0.2,0.2,0.3c0,0,0,0-0.1,0
					c0,0-0.1-0.1-0.1-0.1c0.1,0.2,0.2,0.2,0.3,0.3c0,0.1,0.1,0.2,0.1,0.3c0-0.1-0.1-0.2,0.1-0.1c0.1,0.1,0,0.1,0.1,0.2
					c0,0,0.1,0,0.2,0.1c0.1,0.1,0.2,0.2,0.3,0.3c0,0,0,0,0,0c0.1,0,0.1,0,0.2,0.1l-0.1,0.1l0.2,0.1c0.1,0.1,0.3,0.2,0.2,0.3l-0.1,0
					c0,0,0.2,0.2,0.4,0.4c0.2,0.2,0.4,0.4,0.4,0.4l-0.1,0.1c0.2,0,0.4,0.5,0.4,0.3c0,0.1,0.2,0.3,0.3,0.4c0.1,0.1,0.2,0.2,0.1,0.2
					c0,0.1,0.1,0.1,0.1,0.2c0,0.1,0.1,0.1,0.1,0.2c0.1,0.1,0.2,0.2,0.2,0.3c0.2,0.2,0.3,0.5,0.4,0.9c0,0.1,0,0.2,0,0.4
					c0,0.2,0.1,0.3,0.1,0.5c0.1,0.4,0.2,0.8,0.3,1.1c0.2,0.6,0.5,1.1,0.7,1.6c0.2,0.5,0.5,1,0.9,1.5c0.1,0.2,0.1,0.4,0.2,0.6
					c0.1,0.2,0.2,0.4,0.4,0.6c0.1,0.2,0.3,0.4,0.4,0.6c0,0.1,0.1,0.1,0.1,0.1c0,0.1,0.1,0.2,0.1,0.2c0.1,0.2,0.2,0.3,0.3,0.5
					c0,0,0.1,0.1,0.1,0.1c0.1,0.1,0.1,0.1,0.1,0.1c0.1,0.2,0.2,0.5,0.4,0.7c0.1,0.1,0.2,0.3,0.2,0.4c0,0,0,0.1,0.1,0.1l0,0l0,0
					c0,0,0,0,0,0l0,0c0.1-0.1,0.1-0.1,0.2-0.2c0.4-0.5,0.9-1,1.3-1.5c0.1-0.2,0.2-0.3,0.2-0.4c0-0.1,0.1-0.1,0.1-0.1c0,0,0,0-0.1,0
					c0,0,0,0,0,0c0,0,0,0,0,0c0,0,0,0,0,0c0,0,0,0,0,0c0,0,0-0.1,0.1-0.1c0-0.1,0.1-0.1,0.1-0.2c0.1-0.1,0.2-0.2,0.2-0.1l0,0.1
					c0,0.1,0.1-0.1,0.2-0.3c0.1-0.2,0.2-0.4,0.3-0.5l-0.2,0l0.3-0.4l0,0.1c0.2-0.4,0.4-0.8,0.6-1.1c0-0.1,0.1-0.2,0.1-0.2l0-0.1l0,0
					c0,0,0,0,0,0c0,0,0,0,0,0l0,0c0.1-0.1,0.2-0.3,0.4-0.4c0.5-0.5,0.9-1.1,1.2-2c0,0.3,0.1-0.4,0.2-0.3c0.4-0.3,0.3-0.8,0.4-1.2
					c0,0,0,0,0,0c0,0,0.1-0.2,0.1-0.3c0.1-0.2,0.1-0.3,0.1-0.3c0,0.4,0-0.5,0-0.1c0.4-0.8,0.7-1.7,1-2.6c0-0.1,0.1-0.2,0.1-0.3
					l0.1-0.2l0-0.1l0-0.1c0.1-0.2,0.1-0.4,0.2-0.6c0.2-0.4,0.5-0.7,0.8-1l-0.1,0c0.1-0.2,0.3-0.3,0.5-0.5c0.2-0.2,0.4-0.3,0.5-0.4
					c0.3-0.2,0.5-0.7,0.6-0.8c0.2-0.3,0.5-0.5,0.5-0.5c0.1-0.2,0.2-0.4,0.3-0.6c0.1-0.1,0.1-0.2,0.2-0.3c0.1-0.1,0.2-0.2,0.3-0.4
					c0.1,0,0.3-0.4,0.5-0.8c0.2-0.4,0.3-0.7,0.4-0.6l0,0c0.5-0.6,0.7-1.3,1.2-2c0,0,0,0,0,0.1l0.3-1.1c0,0,0,0,0,0c0,0,0,0,0,0
					l0.1-0.6l-0.1,0c0,0,0,0,0-0.1c-1.3,0-2.5,0-3.7,0c-0.5-0.1-1.1-0.2-1.3-0.2c-0.3-0.1-0.7,0-1.1,0c-0.6,0-0.3-0.1-0.6-0.2
					c-0.1,0-0.1,0-0.1,0c0,0,0,0,0,0c0,0,0,0,0,0c0,0,0.1,0.1,0,0.1c0,0-0.1,0-0.2-0.1c-0.1,0-0.2-0.1-0.2-0.1c0.3,0,0.1,0,0.1-0.1
					c-0.4-0.1-1.1-0.3-1.2-0.2C31,16,31,15.9,30.7,15.9C30.8,16,31,16,31,16c-0.2-0.1-0.1,0,0,0c-0.1,0-0.2,0-0.4,0
					c-0.2,0-0.4-0.1-0.6-0.1c-0.2,0-0.4-0.1-0.6-0.1c-0.2,0-0.3,0-0.3,0l0,0c-0.1,0.1,0,0.2-0.2,0.3l-0.2,0c0,0-0.1,0-0.1,0
					c-0.1,0-0.1,0-0.1,0c-0.2,0-0.1-0.1-0.1-0.1c-0.2,0-0.4,0-0.7,0.1c-0.2,0-0.5,0-0.7,0c0,0,0.1,0.1,0.3,0.1
					c0.1,0.1,0.3,0.1,0.3,0.1c-0.4,0-1.1-0.1-1.2,0L26,16.4c-0.8-0.1-0.5,0.2-0.9,0.2l-0.4-0.1l0.4-0.1c-0.4,0-0.6,0-0.9,0
					c0,0,0,0,0,0c0,0,0,0,0,0l-0.1,0c0,0.1-0.2,0.1-0.5,0.2c-0.4,0.1-0.7,0.2-1.3,0.2L22.3,17l-0.5,0l0-0.1c0.4-0.1,1.3-0.3,1.9-0.4
					l0,0c-0.3,0.1-0.7,0.2-1,0.2c-0.1,0-0.3,0-0.2-0.1l-0.2,0.1c-0.1,0-0.3,0-0.4,0.1c-0.1,0-0.1,0-0.2,0c0,0,0,0-0.1,0c0,0,0,0,0,0
					c-0.1,0-0.2,0-0.2,0c-0.1,0-0.1,0-0.2,0c-0.3,0-0.6,0-1.2,0l0.1,0c-0.2,0-0.5,0.1-0.5,0c-0.7,0-1.4,0-1.9-0.1l-0.1,0.1
					c-0.1,0-0.4-0.2-0.4,0L17,16.8c-0.2,0-0.3,0.1-0.5,0v0c0,0,0,0,0,0c0,0,0,0,0,0c0,0,0,0,0,0c0,0-0.1,0-0.2,0c-0.1,0-0.1,0-0.1,0
					c0,0-0.1,0-0.1,0c0,0,0,0-0.1,0c-0.1,0-0.2,0-0.4,0c-0.2,0-0.2,0-0.3,0c-0.1,0-0.2,0.1-0.4,0.1c0,0-0.1,0-0.3-0.1
					c-0.1,0-0.3-0.1-0.3-0.1c-0.4,0-0.6,0-0.8,0c-0.2,0-0.4,0-0.7,0.1C12.9,16.9,13,17.1,13.1,17.3z"/>
				<path class="st21" d="M47,76.6c-0.1-1.5-0.5-3.1-0.8-3c-0.1-0.6-0.1-0.8,0-0.8c0.1,0,0.2,0.1,0.3,0.4c0.3,0.6,0.6,1.6,0.8,2
					c-0.3-1.2-0.4-1.8-0.6-2.4c0-0.2-0.1-0.3-0.2-0.5c-0.1-0.2-0.1-0.3-0.2-0.5c-0.1-0.2-0.2-0.3-0.3-0.5c-0.1-0.2-0.2-0.4-0.4-0.6
					c0,0,0-0.1-0.1-0.4c0-0.2-0.1-0.5-0.2-0.8c-0.1-0.3-0.2-0.6-0.3-0.8c-0.1-0.2-0.1-0.4-0.1-0.4s-0.2-0.3-0.6-0.7
					c-0.2-0.2-0.4-0.4-0.7-0.7c-0.1-0.1-0.3-0.2-0.4-0.4c-0.1-0.1-0.3-0.2-0.4-0.3c-0.6-0.5-1.2-0.8-1.6-1.1
					c-0.2-0.1-0.4-0.2-0.5-0.3c-0.1-0.1-0.2-0.1-0.2-0.1c0.3,0.1,0-0.1,0.2,0c-0.3-0.1-0.6-0.3-1-0.4c-0.2-0.2-0.4-0.4-0.5-0.5
					c0.2,0,0.3,0,0.5-0.1c0.1,0,0.1,0.1,0.2,0.1c0-0.1-0.1-0.1-0.1-0.2c0.1,0,0.1,0,0.2-0.1c-0.1-0.1-0.3-0.2-0.4-0.3
					c-0.5-0.9-1.1-1.4-1.6-1.8c-0.3-0.3-0.7-0.5-1.1-0.8c-0.4-0.3-0.8-0.6-1.3-1c0,0,0,0,0.1,0c0.1,0.1,0.2,0.2,0.3,0.3
					c0.1,0.1,0.2,0.2,0.3,0.3c0.1,0.1,0.1,0.1,0.1,0.1c-0.5-0.2-1.2-0.5-1.9-0.7c0.3,0.1,0.5,0.1,0.7,0.2c0.2,0,0.3,0.1,0.4,0.1
					c0.1,0,0.1,0,0.1,0c-1.1-0.7-2.5-1.3-3.9-1.5c-0.2,0-0.3,0-0.5,0c0.1,0,0.1,0,0.2-0.1l-0.2,0.1c-1.2-0.1-2.5,0.1-3.6,0.4
					c-0.5,0.1-0.9,0.3-1.3,0.5c-0.1,0-0.1,0-0.2,0c-0.5,0-0.7,0.1-0.9,0.2C25.3,59.9,25.1,60,25,60l0-0.4c-0.5,0.1-1,0.3-1.4,0.4
					c0,0,0.1,0,0.1-0.1c0.2-0.1,0.4-0.3,0.5-0.3c0.1-0.1,0.2-0.1,0.2-0.1c-0.9,0.1-1.5,0.3-1.8,0.4c-0.3,0.1-0.4,0.2-0.5,0.3
					c-0.1,0.1-0.2,0.1-0.5,0.3c-0.2,0.1-0.4,0.1-0.6,0.2c-0.3,0.1-0.6,0.3-1.1,0.5c0.5-0.3,0-0.2-0.2-0.2c-0.1,0-0.2,0-0.2,0
					c0,0,0.1-0.1,0.2-0.2c0.1-0.1,0.3-0.2,0.6-0.3c-0.6,0.2-1.1,0.4-1.5,0.6c-0.4,0.2-0.8,0.4-1.1,0.6c-0.3,0.2-0.5,0.4-0.8,0.5
					c-0.1,0.1-0.2,0.2-0.3,0.2c-0.1,0.1-0.2,0.2-0.3,0.2c-0.4,0.3-0.7,0.6-1.1,1c-0.4,0.4-1,1-1.7,1.9c0,0,0.1,0.2,0.2,0.4
					c0.1,0.2,0.2,0.4,0.2,0.4c-0.4,0.6-0.7,1-1,1.3c-0.3,0.3-0.5,0.4-0.7,0.6c0.3-0.6,0.8-1.4,0.7-1.4c-0.4,0.3-0.6,0.6-0.8,0.9
					c-0.2,0.3-0.3,0.7-0.5,1.1c-0.1,0.4-0.3,0.8-0.4,1.1c-0.1,0.2-0.2,0.4-0.3,0.6c-0.1,0.2-0.3,0.4-0.4,0.6
					c0.2-0.2,0.4-0.4,0.5-0.3c0,0,0.1,0.2,0,0.4c0,0.1,0,0.2-0.1,0.3c-0.1,0.2-0.2,0.4-0.2,0.6c-0.1-0.3-0.5,0.3-0.8,1.1
					C9.7,74,9.4,74.7,9.3,75c0.2-0.2,0,0.7-0.2,1.8C9.1,77.2,9,77.7,9,78.1c-0.1,0.6-0.2,1.1-0.2,1.6c0-0.4,0-0.9-0.1-1
					c0.1,0.3,0.1,0.7,0.1,1.2c0,0.3,0,0.6-0.1,0.9c0,0.8,1.4,1.5,1.6,2.2c0,0.1,0,0.1,0,0.2c-0.1-0.2,2.6,0.2,2.6,0.9
					c0,0.8,1.8,1.9,1.9,2.8c0.2,0,0.4,0.2,0.4,0.4c0.5,1.1,1.3,2.8,2.5,4.1c-0.1,0-0.2,0.1-0.3,0.1c-0.1-0.1-0.2-0.3-0.3-0.4
					C17.1,91.1,17,91,17,90.9c-0.1-0.1-0.1-0.1-0.2-0.2c-0.1-0.1-0.2-0.3-0.3-0.4c-0.2-0.3-0.4-0.5-0.5-0.6
					c-0.1-0.1-0.2-0.1-0.1,0.1c0.5,0.6,1,1.2,1.5,1.8c-0.3,0.2-0.3,0.4,0.7,1.3c0.1,0,0.2,0,0.4,0c0.4,0.9,0.9,1.7,1.3,2.4
					c0,0,0-0.2,0-0.3c0-0.2,0.1-0.3,0.1-0.3s0.1,0.1,0.2,0.2c0.1,0.1,0.3,0.3,0.4,0.4c0.4,0.4,0.9,0.8,1.5,1.2
					c0.3,0.2,0.6,0.3,0.9,0.5c0.1,0.1,0.3,0.1,0.4,0.2c0.1,0.1,0.3,0.1,0.4,0.1c0.2,0.1,0.4,0.2,0.5,0.2c0.1,0,0.1,0,0.2,0.1
					c0,0,0.1,0,0.1,0s0,0-0.1,0c-0.1,0-0.2,0-0.3-0.1c-0.1,0-0.3-0.1-0.5-0.1c-0.1,0-0.2,0-0.3,0c-0.1,0-0.2-0.1-0.3-0.1
					c-0.2-0.1-0.4-0.1-0.6-0.2c-0.1,0-0.2-0.1-0.3-0.1C22,97,21.9,97,21.8,97c-0.3-0.1-0.5-0.2-0.5-0.2c0.4,0.2,1.2,0.6,2.2,0.9
					c0.5,0.2,1,0.2,1.5,0.3c0.1,0,0.2,0,0.3,0c0,0,0,0,0.1,0.1c0.1,0.1,0.2,0.1,0.4,0.2c0.2,0.1,0.4,0.1,0.7,0.1
					c0,0.1,0.1,0.2,0.1,0.3c0.1,0,0.2,0,0.3,0c0.1,0,0.2,0,0.4,0.1c0.3,0.1,0.6,0.2,1,0.3c0.4,0.1,0.8,0.3,1.2,0.4
					c0.2,0.1,0.4,0.1,0.7,0.2c0.2,0,0.5,0.1,0.7,0.1c0,0-0.2,0.1-0.4,0.3c-0.2,0.1-0.4,0.3-0.4,0.3s-0.1,0-0.2-0.1
					c-0.1-0.1-0.3-0.1-0.4-0.2c-0.2-0.1-0.3-0.1-0.4-0.2c-0.1,0-0.2-0.1-0.2-0.1c0.1,0.2,0.3,0.4,0.6,0.5c0.2,0.1,0.5,0.2,0.9,0.2
					c0.3,0,0.7,0,1,0c0.3,0,0.7,0,1,0c0.7-0.1,0.9-0.3,1-0.5c0,0,0-0.1,0-0.1c0.1,0.1,0.2,0.2,0.4,0.2c-0.1-0.1-0.2-0.2-0.4-0.3
					c0.1-0.1,0.1-0.3,0.4-0.3c0.1,0,0.2,0,0.3,0c0.2,0.1,0.4,0.2,0.7,0.2c0,0-0.2-0.1-0.4-0.3c0,0,0.1,0,0.1,0c0.3,0,0.5-0.1,0.7,0
					c0.6,0,0.6,0.2,0.5,0.5c0,0,0,0,0,0.1c0,0,0,0,0,0c0,0,0,0,0,0c-0.1,0.1-0.2,0.2-0.3,0.3c-0.1,0.1-0.3,0.2-0.3,0.3
					c0.2-0.2,0.4-0.4,0.6-0.5c0,0,0.1,0,0.1-0.1c0.1,0.1,0.3,0.1,0.5,0.1c-0.2,0.1-0.3,0.2-0.4,0.3c0.2-0.1,0.4-0.2,0.5-0.2
					c0,0,0.1,0,0.2-0.1c0,0,0,0,0,0c0,0,0,0,0,0c0.1-0.1,0.3-0.1,0.4-0.2c0,0,0,0,0,0c0,0,0.1,0,0.1,0c-0.1,0.1-0.3,0.1-0.5,0.1
					c0.3,0.1,0.6,0.2,0.9,0.3c0.3,0.1,0.6,0.2,1,0.2c0.7,0.1,1.4,0.1,2.2-0.3l-0.1,0.1c0.7-0.2,1-0.4,1.1-0.6c0.1-0.1,0-0.2-0.1-0.3
					c-0.1-0.1-0.2-0.2,0-0.3c0.1-0.2,0.5-0.3,1.2-0.8c0.3-0.1,0.4,0,0.5,0.1c0.1,0.1,0.2,0.3,0.2,0.4c0.1,0.1,0.2,0.2,0.5,0.1
					c0.2-0.1,0.6-0.3,1.1-1c-0.3,0.2-0.4,0.1-0.4-0.1c0-0.1,0.1-0.2,0.1-0.4c0.1-0.2,0.2-0.3,0.3-0.5c0.1-0.2,0.2-0.4,0.3-0.6
					c0.1-0.2,0.2-0.5,0.3-0.7c0.1-0.2,0.2-0.5,0.2-0.7c0.1-0.2,0.1-0.4,0.2-0.6c0,0,0,0.1,0,0.3c0,0.2,0,0.4,0,0.7
					c0,0.5-0.1,1-0.1,1c0.2-0.3,0.4-0.7,0.5-1.2c0.1-0.4,0.2-0.8,0.3-0.9l-0.2,0c-0.4-0.1-0.2-0.6,0.1-1.2c0.1-0.1,0.1-0.3,0.2-0.5
					c0,0,0,0,0,0c0.3,0,0.7,0.1,0.6,0.5c0.1-0.1,0.2-0.2,0.3-0.4c0.1,0.2,0.3,0.3,0.7,0.5c-0.1-0.4-0.2-0.8-0.2-1.3
					c0.1-0.3,0.1-0.4,0-0.6c-0.1-0.3-0.2-0.6,0.1-1.4c0,0,0-0.1,0-0.1c0,0,0,0,0,0c0,0,0,0.1,0,0.1c0,0.1,0.1,0.3,0.1,0.4
					c0.1,0.3,0.1,0.6,0.1,0.6c0.2-0.5,0.3-0.8,0.3-1c0-0.2,0-0.3,0-0.4c0-0.1,0-0.2,0-0.4c0.3-0.3,0.5-0.6,0.6-0.9
					c-0.2,0.2-0.3,0.3-0.4,0.3c0-0.1,0.1-0.1,0.1-0.2c0.1,0.3,0.5-0.8,0.3,0.4c0.2-0.3,0.3-0.6,0.4-0.8c0.1-0.2,0.2-0.4,0.3-0.6
					c0.1-0.2,0.1-0.4,0.2-0.5c0,0,0.1-0.1,0.1-0.1c0.4-0.4,0.8-0.8,1-1.4c0.1-0.3-0.1-0.2-0.3-0.1c-0.1,0-0.1,0-0.2-0.1
					c0.1-0.2,0.1-0.4,0.2-0.7L51,84.9c0,0,0.1-0.1,0.1-0.2c0,0-1.7-0.1-1.7-0.3c0,0,0-0.1,0-0.1c0-0.1,0.1-0.2,0.1-0.3
					c0,0,0.1,0.1,0.1,0.2c0.1,0.2,1.8,0.6,2,0.6c0.1-0.6-4.2-1.2-4.3-1.7c0.1,0,0.1,0,0.2,0c0.2-0.1,0.4-0.1,0.4-0.1
					s0.1-0.2,0.1-0.6c0.1-0.4-1.2-0.9-1.1-1.4c0.1-0.5,0.1-1,0.1-1.4c0-0.4,0-0.6,0-0.6C46.8,79.4,47.1,78.1,47,76.6z M36.3,100.2
					c-0.2-0.1-0.4-0.1-0.5-0.1c0.1-0.1,0.3-0.2,0.5-0.2c0,0,0,0,0,0c0.2,0.1,0.3,0.2,0.5,0.2C36.6,100.1,36.4,100.2,36.3,100.2z"/>
				<path class="st18" d="M43.8,87.8c-0.1-0.2-0.4-0.4-0.6-0.4c-0.3,0.1-0.3,0.4-0.3,0.6c0,0.4,0.1,0.6-0.1,1
					c-0.1,0.3-0.3,0.6-0.6,0.8c-0.6,0.5-1.5,0.5-2.2,0.2c0,0-0.2-0.1-0.3-0.2c0-0.1,0-0.1,0-0.1c0.1-0.4,0.3-0.7,0.5-1
					c0.5-0.6,1.1-0.9,1.8-1.1c0.5-0.1,0.1-0.9-0.2-1c-0.8-0.1-1.5,0.2-2.1,0.8c-0.6,0.6-1.1,1.5-1,2.5c0.2,1.1,1.3,1.5,2.2,1.6
					c0.9,0.1,1.8-0.1,2.4-0.8C43.9,90.1,44.3,88.8,43.8,87.8z"/>
				<path class="st18" d="M38.9,92.6c-0.5-0.8-1.3-1.3-2.1-1.3c-0.7,0-2.1,0.4-1.8,1.4c0.1,0.3,0.6,0.7,0.7,0.3
					c0.1-0.2,0.5-0.2,0.7-0.3c0.3-0.1,0.7-0.1,1,0c0.1,0,0.2,0.1,0.3,0.1c0.1,0,0.1,0.1,0.2,0.1c0,0,0,0.1,0.1,0.1
					c0,0,0,0.1,0.1,0.1c0,0,0,0,0,0c0,0,0,0,0,0.1c0,0,0,0.2,0,0.3c-0.2,0.5-0.7,0.9-1.2,1.1c-0.3,0.2-0.7,0.3-1,0.4
					c-0.2,0-0.3,0.1-0.5,0.1c0,0,0,0-0.1,0c0,0-0.2,0-0.1,0c-0.2-0.1-0.4-0.1-0.5,0.1c0,0,0,0,0,0.1c-0.1,0.2-0.1,0.5,0,0.7
					c0.6,0.9,1.6,0.6,2.4,0.3c0.7-0.3,1.5-0.6,1.9-1.3C39.4,94.3,39.4,93.4,38.9,92.6z"/>
				<path class="st18" d="M45.7,96.3c-0.2,0-0.3-0.1-0.6,0c-0.2,0.1-0.3,0.1-0.5,0.1c-0.3,0-0.6,0.1-0.9,0c-0.3,0-0.6-0.1-0.8-0.2
					c0,0,0,0,0,0c0-0.1,0-0.3,0-0.4c0.1-0.6,0.4-1.1,0.9-1.5c0.3-0.2,0.5-0.3,0.8-0.3c0.3-0.1,0.6,0,0.9,0c0.4,0,0.3-0.5,0.1-0.6
					c-0.7-0.6-1.8-0.5-2.5,0c-0.7,0.5-1.2,1.3-1.4,2.3c-0.1,0.6,0,1.1,0.4,1.6c0.4,0.4,0.9,0.5,1.4,0.6c0.4,0.1,0.9,0.1,1.3,0.1
					c0.2,0,0.4-0.1,0.6-0.2c0.3-0.1,0.5-0.2,0.6-0.5C46.3,96.8,46,96.4,45.7,96.3z"/>
				<path class="st18" d="M44.3,83.3c-0.8-0.4-1.6-0.6-2.4-0.5c-0.6,0.1,0.7,0.4,1,1.4c0.1,0.3,0.5,0.7,0.8,0.4
					c0.2-0.2,0.4-0.3,0.7-0.4c0.3-0.1,0.7-0.1,1-0.1c0.6,0,3,0.2,3.4,0.6c0,0,0.1,0.1,0.1,0.1c0,0.1-0.1,0.2-0.1,0.3
					c-0.2,0.3-0.5,0.5-0.7,0.7c-0.3,0.2-0.6,0.4-0.9,0.5c-0.3,0.1-0.9,0.1-1.1,0.4c-0.2,0.4,0,0.7,0.3,0.9c0.4,0.3,0.9,0.2,1.3,0.1
					c0.4-0.1,0.7-0.3,1.1-0.5c0.6-0.4,1.4-1.1,1.4-1.9C50.3,84.4,45,83.7,44.3,83.3z"/>
				<path class="st18" d="M38.8,82.6c-0.1-0.4-0.4-0.4-0.6-0.1c-0.1,0.1-0.1,0.2-0.2,0.3c0,0-0.1,0.1-0.1,0.1
					c-0.1,0.1-0.2,0.2-0.3,0.3c-0.3,0.1-0.6,0.2-0.9,0.2c-0.7,0.1-1.7,0-2.3-0.4c-0.2-0.2-0.4-0.4-0.4-0.7c0-0.3-1.2-0.6-1-0.9
					c0.4-0.6,1-0.9,1.7-1.1c0.3-0.1,0.4-0.8,0.1-0.8c-1.6-0.2-1.7,1.5-1.7,3.3c0,2.1,7.1,2.3,8.4,2c0.4-0.1-0.9-0.3-0.6-0.5
					C41.3,83.9,39,83.2,38.8,82.6z"/>
				<path class="st18" d="M36.6,86.3c-0.4-1-1.3-1.4-2.2-1.3c-0.4,0.1-0.9,0.2-1.3,0.5c-0.4,0.3-0.6,0.8-0.5,1.4
					c0.1,0.5,0.6,0.2,0.7-0.1c0,0,0,0,0.1,0c0.1,0,0.2-0.1,0.3-0.1c0.3-0.1,0.6-0.1,0.9-0.1c0.4,0,0.9,0.3,1,0.8c0,0,0,0.1,0,0.1
					c0,0,0,0,0,0c0,0-0.1,0.1-0.1,0.1c-0.1,0.2-0.3,0.3-0.5,0.4c-0.6,0.3-1.5,0-2,0.6c-0.2,0.2-0.2,0.5-0.1,0.8
					c0.2,0.5,1,0.5,1.4,0.4c0.5-0.1,0.9-0.2,1.3-0.5C36.5,88.5,37,87.3,36.6,86.3z"/>
				<path class="st18" d="M51.1,92.9c-0.3,0-0.5,0.2-0.8,0.2c-0.2,0-0.5,0-0.7,0c-0.5-0.1-0.9-0.4-1.1-0.9c-0.2-0.4-0.2-0.9,0.1-1.3
					c0.3-0.4,0.8-0.6,1.2-0.4c0.4,0.2,0.6-0.6,0.3-0.8c-0.6-0.4-1.3-0.3-1.8,0.2c-0.6,0.6-0.8,1.6-0.6,2.4c0.2,0.9,0.8,1.6,1.5,1.9
					c0.7,0.3,1.8,0.4,2.3-0.3C51.6,93.7,51.6,92.9,51.1,92.9z"/>
				<path class="st18" d="M33.4,93.8c-0.3,0-0.5,0.2-0.8,0.2c-0.2,0-0.5,0-0.7,0c-0.5-0.1-0.9-0.4-1.1-0.9c-0.2-0.4-0.2-0.9,0.1-1.3
					c0.3-0.4,0.8-0.6,1.2-0.4c0.4,0.2,0.6-0.6,0.3-0.8c-0.6-0.4-1.3-0.3-1.8,0.2c-0.6,0.6-0.8,1.6-0.6,2.4c0.2,0.9,0.8,1.6,1.5,1.9
					c0.7,0.3,1.8,0.4,2.3-0.3C33.9,94.6,33.9,93.8,33.4,93.8z"/>
				<path class="st18" d="M40.9,100c-0.1-0.9-0.5-1.8-1.3-2.2c-0.7-0.4-1.7-0.3-2.4,0.2c-0.7,0.5-1.2,1.6-0.7,2.4
					c0.2,0.4,0.6,0.1,0.5-0.3c0-0.2,0-0.4,0.1-0.5c0.2-0.2,0.4-0.3,0.6-0.3c0.5-0.2,1-0.3,1.5,0c0.2,0.1,0.3,0.2,0.4,0.4
					c0.1,0.2,0.1,0.3,0.1,0.4c0,0.1,0,0.3-0.1,0.5c-0.1,0.2-0.3,0.4-0.4,0.6c-0.4,0.4-0.1,1.6,0.5,1.3C40.6,102,40.9,100.9,40.9,100
					z"/>
				<path class="st22" d="M8.5,48.6c-1.4,0.2-0.5,1.1,0.2,1.9c-3.1,0.1-6.3,0.3-9.2,0.9c-1.6,0.3-3.4,0.7-5,1.3
					c-0.7,0.1-1.3,0.2-2,0.4c-1.9,0.4-5.1,1.1-5.7,2.4c0,0.1,0,0.2-0.1,0.2c-1.1,0.1-2.9,0.5-2.9,1.2c-1,0.1-1.9,0.3-2.6,0.6
					c-0.6,0.3-0.7,0.6-0.5,0.9c-0.9,0.4-1.5,1.4-0.3,1.8c-1,0.3-1.7,0.8-2,1.4c-0.4,0.9,1.1,1.4,2.5,1c0.1,0,0.2-0.1,0.4-0.1
					c0,0,0,0,0,0c0.2,0,0.3,0,0.5-0.1c0,0,0.1,0,0.2,0c0.1,0,0.3,0,0.5,0c0.1,0,0.1,0,0.1,0c0,0,0,0,0,0c0.4,0,0.8,0,1.2,0.1
					c0.5,0,1.1-0.2,1.6-0.4c0.4,0,0.8,0.1,1.1,0.1c0.3,0.2,0.6,0.3,1,0.3c1.1,0,2.1,0.1,3.2,0.2c-2.5,0.4-5,0.9-7.5,1.3
					c-1.4,0.3-2.7,1-2.5,1.9c0.1,0.9,1.6,1.4,2.9,1.1c0,0,0,0,0,0c0,0,0,0,0,0.1c-0.1,0.2,0,0.5,0.2,0.7c-0.5,0.1-0.9,0.2-1.4,0.2
					c-1.1,0.2-2.2,0.9-2.3,1.6c-0.1,0.6,0.7,1.2,1.8,1.1c0.8-0.1,1.7-0.2,2.5-0.2c-1.2,1-1,2.8,1.4,2.7c0.1,0,0.1,0,0.2,0
					c0.6,0,1.1-0.1,1.5-0.2c-1.2,0.5-2.6,1.1-2.5,2.1c0,0.3,0.3,0.6,0.8,0.7c-0.5,0-0.9,0.1-1.4,0.2c-1.5,0.4-1.6,1.8-0.4,2.3
					c0.2,0.2,0.4,0.4,0.8,0.6c0.9,0.4,2.1,0.2,3.1,0.2c0.7,0,1.4,0,2,0c-0.7,1.2,1.1,2.1,3.2,1.8c1.5-0.2,2.9-0.8,4.3-1.3
					c0.2,0,0.4,0,0.5,0c0.7,0.1,1.5,0.1,2.2,0.2c0.1,0.1,0.3,0.2,0.4,0.3c-0.2,0.2-0.3,0.3-0.4,0.5c-1.4,0.7-1.5,1.9,0.8,2.1
					c1.8,0.1,3.9-0.4,5.6-0.8c1.8-0.4,1-0.7,2.7-1.3c0.3-0.1-1.1-0.2-0.9-0.3c3,0,4.5-0.1,7.3-0.5c0.8-0.1,1.5-0.3,2.1-0.6
					c0.1,0,0.3,0.1,0.4,0.1c2.3,0.4,4.8,0.2,7.1,0.2c2.4,0,4.8-0.1,7.2-0.2c2.1-0.1,2.6-1.1,1.7-1.7c0.5-0.1,0.9-0.3,1.2-0.5
					c3.4-0.5,6.6-1.3,9.1-2.7c0.8-0.5,0.7-1.9,1-1c0.3,0.9,1,0.3,0.7,0.2c0.6-0.1,0-0.4,0.6-0.5c0.4,0.1,0.7,0.1,1.1,0.2
					c1.5,0.4,2.5-0.3,3.9,0.2c1.6,0.6,4.5,0.6,4.8-0.8c0.2-1-1.8-2.1-3-2.6c-1.2-0.6-2.7-1-4.2-1.4c0.9-0.1,1.8-0.2,2.6-0.5
					c1.3-0.4,1.3-1.5-0.3-1.7c-0.7-0.1-1.4-0.1-2.1-0.1c0.1-0.2,0.1-0.4,0-0.6c-0.2-0.3-0.4-0.5-0.8-0.7c-0.2-0.4-0.5-0.8-1.1-1
					c0.4-0.4,0.7-0.8,0.9-1.3c0.1-0.2,0.1-0.4,0-0.6c0.2-0.1,0.4-0.3,0.6-0.5c0.3-0.3,0.3-0.6,0.2-0.8c0.2-0.1,0.3-0.2,0.5-0.2
					c0.8-0.4,2-0.9,2.2-1.6c0.2-0.6-0.6-0.9-1.5-1c-0.2-0.4-0.8-0.7-1.5-0.8c0-0.1,0-0.2-0.1-0.4c0.1-0.1,0.2-0.2,0.2-0.2
					c0.1-0.1,0.1-0.2,0.1-0.3c0-0.1,0-0.2-0.1-0.3c0-0.1-0.1-0.2-0.2-0.3c-0.1-0.1-0.3-0.2-0.5-0.3c0.1,0,0.1-0.1,0.2-0.1
					c0.1-0.1,0.3-0.2,0.4-0.3c0.1-0.1,0.2-0.2,0.2-0.4c0-0.1,0-0.2,0-0.2c0,0,0-0.1,0-0.1c0.5-0.2,0.9-0.4,0.9-0.8
					c0-0.2-0.1-0.5-0.3-0.6c-0.2-0.2-0.5-0.3-0.8-0.4c0.8-0.5,1.6-1.1,2.2-1.7c0.4-0.4,0.4-1-0.1-1.4c-0.5-0.3-1.4-0.3-2,0
					c-1.3,0.7-2.3,1.5-3.4,2.3c0-0.1,0-0.2-0.1-0.3c-0.3-0.8-2.1-1-3.2-0.8c-0.3,0-0.5,0.1-0.8,0.1c-1.1,0-2.2,0.1-3.4,0.2
					c-1.3,0.1-2.6,0.3-3.9,0.4c0.1-0.9-1.1-1.8-3.2-1.9c-0.5,0-1.1,0-1.6,0c-0.2,0-0.4-0.1-0.6-0.1c-3.9,0-7.9-0.1-11.8-0.3
					c-1.9-0.1-3.7-0.2-5.6-0.3C9.8,48.5,10.6,48.3,8.5,48.6z M43.4,54.5c-0.2,0-0.3,0-0.5,0c0,0-0.1,0-0.1,0c0-0.1,0.1-0.2,0.1-0.3
					c0.1,0,0.3,0,0.4,0C43.3,54.3,43.3,54.4,43.4,54.5z"/>
				<path class="st22" d="M-18.7,28.4c-1.5,0.2-3.5,1.1-2.8,2c-3.4,0.1-6.8,0.3-9.9,0.9c-1.7,0.3-3.7,0.8-5.3,1.4
					c-0.7,0.1-1.4,0.3-2.1,0.4c-2.1,0.5-5.5,1.1-6.1,2.5c0,0.1-0.1,0.2-0.1,0.2c-1.2,0.1-3.1,0.5-3.1,1.3c-1,0.1-2,0.3-2.8,0.7
					c-0.6,0.3-0.7,0.7-0.6,1c-1,0.5-1.7,1.5-0.4,1.9c-1,0.3-1.9,0.8-2.1,1.4c-0.4,1,1.2,1.5,2.7,1.1c0.1,0,0.3-0.1,0.4-0.1
					c0,0,0,0,0.1,0c0.2,0,0.3,0,0.5-0.1c0,0,0.1,0,0.2,0c0.1,0,0.3,0,0.5,0c0.1,0,0.1,0,0.1,0c0,0,0,0,0,0c0.4,0,0.8,0.1,1.3,0.1
					c0.6,0,1.2-0.2,1.7-0.5c0.4,0.1,0.8,0.1,1.2,0.1c0.3,0.2,0.7,0.3,1.1,0.3c1.2,0,2.3,0.1,3.5,0.2c-2.7,0.5-5.4,0.9-8.1,1.4
					c-1.5,0.3-2.9,1-2.7,2c0.1,0.9,1.7,1.4,3.1,1.2c0,0,0,0,0,0c0,0,0,0,0,0.1c-0.1,0.2,0,0.5,0.2,0.7c-0.5,0.1-1,0.2-1.5,0.2
					c-1.2,0.2-2.4,0.9-2.5,1.7c-0.1,0.7,0.7,1.3,2,1.2c0.9-0.1,1.8-0.2,2.7-0.2c-1.3,1.1-1.1,2.9,1.5,2.8c0.1,0,0.1,0,0.2,0
					c0.7,0,1.2-0.1,1.7-0.2c-1.3,0.6-2.8,1.1-2.7,2.2c0,0.3,0.4,0.6,0.8,0.7c-0.5,0-1,0.1-1.5,0.2c-1.6,0.4-1.7,1.8-0.4,2.4
					c0.2,0.2,0.5,0.5,0.8,0.6c1,0.4,2.2,0.3,3.4,0.2c0.7,0,1.5,0,2.2,0c-0.8,1.2,1.2,2.2,3.4,1.9c1.6-0.2,3.1-0.8,4.6-1.4
					c0.2,0,0.4,0,0.6,0c0.8,0.1,1.6,0.1,2.4,0.2c0.1,0.1,0.3,0.2,0.5,0.3c-0.2,0.2-0.3,0.3-0.4,0.5c-1.6,0.7-1.6,2,0.9,2.2
					c2,0.1,4.2-0.5,6.1-0.8c2-0.4,4-0.8,5.9-1.3c0.3-0.1,0.6-0.2,0.8-0.4c3.2,0,6.4-0.1,9.4-0.5c0.8-0.1,1.7-0.3,2.3-0.6
					c0.1,0,0.3,0.1,0.4,0.1c2.5,0.4,5.1,0.3,7.7,0.2c2.6,0,2.4-0.1,5-0.2c-2,0.1,2.6-1.3,1.8-1.8c-1.1,0.3-1.7,0.5-0.1-0.5
					c3.6-0.5,5.5-1.4,8.2-2.8c0.9-0.5,1.7-1.5,0.9-2.1c-0.2-0.2-0.4-0.3-0.6-0.4c0.6-0.1,1.3-0.3,1.9-0.4c0.5,0.1,0.9,0.2,1.4,0.3
					c1.6,0.5,2.9,1.1,4.4,1.7c1.7,0.6,4.8,0.6,5.2-0.9c0.3-1-1.9-2.2-3.2-2.7c-1.3-0.6-2.9-1.1-4.5-1.4c1-0.1,1.9-0.3,2.8-0.6
					c1.4-0.4,1.4-1.6-0.3-1.8c-0.8-0.1-1.5-0.1-2.3-0.1c0.1-0.2,0.1-0.4,0-0.7c-0.2-0.3-0.5-0.5-0.9-0.7c-0.2-0.5-0.6-0.8-1.2-1.1
					c0.4-0.4,0.8-0.9,1-1.4c0.1-0.2,0.1-0.4,0-0.6c0.2-0.1,0.4-0.3,0.6-0.5c0.3-0.3,0.3-0.6,0.2-0.9c0.2-0.1,0.4-0.2,0.6-0.2
					c0.9-0.4,2.2-1,2.4-1.6c0.2-0.6-0.7-1-1.6-1c-0.2-0.4-0.9-0.7-1.6-0.8c0-0.1,0-0.3-0.1-0.4c0.1-0.1,0.2-0.2,0.3-0.3
					c0.1-0.1,0.1-0.2,0.1-0.3c0-0.1,0-0.3-0.1-0.4c-0.1-0.1-0.2-0.2-0.3-0.3c-0.1-0.1-0.3-0.2-0.5-0.3c0.1,0,0.2-0.1,0.2-0.1
					c0.2-0.1,0.3-0.2,0.4-0.3c0.1-0.1,0.2-0.3,0.2-0.4c0-0.1,0-0.2,0-0.3c0-0.1,0-0.1,0-0.2c0.6-0.2,1-0.5,1-0.8
					c0-0.2-0.1-0.5-0.3-0.7c-0.2-0.2-0.5-0.3-0.8-0.4c0.9-0.6,1.7-1.2,2.4-1.8c0.4-0.4,0.4-1.1-0.1-1.4c-0.6-0.4-1.5-0.3-2.1,0
					c-1.4,0.7-2.5,1.6-3.7,2.4c0-0.1,0-0.2-0.1-0.3c-0.4-0.9-2.2-1-3.5-0.9c-0.3,0-0.6,0.1-0.9,0.1c-1.2,0-2.4,0.1-3.6,0.2
					c-1.4,0.1-1.4,0.3-2.8,0.4c0.1-0.9-2.1-2-0.7-2c-0.6,0,0.5,0-0.1,0C7.6,29,7.3,29,7.1,29c-4.3,0-8.5-0.1-12.8-0.3
					c-2-0.1-4-0.2-6.1-0.3C-14,28.3-16.5,28-18.7,28.4z M16.5,34.6c-0.2,0-0.4,0-0.5,0c0,0-0.1,0-0.1,0c0.1-0.1,0.1-0.2,0.1-0.3
					c0.1,0,0.3,0,0.4,0C16.3,34.4,16.4,34.5,16.5,34.6z"/>
				<path class="st21" d="M4.5,24.7c-0.1-2.1-0.7-4.4-1.2-4.3c-0.1-0.8-0.2-1.1-0.1-1.2c0.1,0,0.3,0.2,0.5,0.6
					c0.4,0.8,0.9,2.2,1.2,2.8C4.5,21,4.3,20.1,4,19.3c-0.1-0.2-0.1-0.4-0.2-0.6c-0.1-0.2-0.2-0.4-0.3-0.7c-0.1-0.2-0.2-0.5-0.4-0.7
					c-0.2-0.3-0.3-0.5-0.6-0.8c0,0,0-0.2-0.1-0.5c-0.1-0.3-0.2-0.7-0.3-1.1c-0.1-0.4-0.3-0.8-0.4-1.1c-0.1-0.3-0.2-0.5-0.2-0.5
					s-0.4-0.4-0.9-1c-0.3-0.3-0.6-0.6-1-0.9c-0.2-0.2-0.4-0.3-0.5-0.5c-0.2-0.2-0.4-0.3-0.6-0.5C-2.2,9.6-3,9.1-3.6,8.7
					c-0.3-0.2-0.6-0.3-0.8-0.4c-0.2-0.1-0.3-0.2-0.3-0.2c0.4,0.1,0-0.2,0.3-0.1c-0.6-0.2-1.2-0.5-1.9-0.8c0.3,0,0.6,0.1,0.8,0.1
					C-5.2,7.4-5,7.4-5,7.4C-5.3,7.2-5.6,6.9-6,6.7c0.2,0,0.4-0.1,0.7-0.2c-0.3-0.3-0.7-0.5-1-0.7c-0.3-0.2-0.7-0.5-1-0.7
					c-0.4-0.2-0.7-0.5-1.1-0.7C-8.8,4.3-9.2,4-9.6,3.8c0,0,0,0-0.1,0C-10.1,3-10.4,2.3-10.9,2c-0.4-0.2-0.3,0.2-0.3,0.4
					c0,0.2-0.1,0.4-0.7,0.2c-0.1,0-0.2-0.1-0.2-0.1c-0.1-0.1-0.1-0.3-0.3-0.4c0,0-0.2,0-0.4,0c0,0-0.1,0-0.1,0
					C-13,2-13.2,2-13.3,1.9c0,0,0,0,0,0c0.2,0,0.3,0.1,0.5,0.1c-0.2-0.1-0.3-0.2-0.5-0.2c0.1-0.1,0.2-0.1,0.4-0.2
					c0.3-0.1,0.6-0.1,0.7-0.2c0.1,0,0.1,0,0.2,0c0.2,0.1,0.4,0.1,0.5,0.1c0.1,0,0.2,0.1,0.2,0.1c-1.6-1-3.5-1.8-5.4-2.1
					c-1.1-0.1-2.2-0.1-3.3,0c-0.1,0-0.3-0.1-0.4-0.1c-0.4-0.2-0.9-0.2-1.3-0.2c-0.2,0-0.4,0-0.5,0.1c-0.1,0.1-0.2,0.1-0.3,0.2
					C-23.1-0.9-23-1-22.6-1.1c0.2,0,0.4-0.1,0.6-0.1c0.2,0,0.4-0.1,0.4-0.1c-0.4,0.1-0.9,0.2-1.5,0.2c-0.3,0-0.6,0-1,0
					c-0.3,0-0.7,0-1,0c-0.6,0-1.3,0.1-1.8,0.1c-0.1,0-0.3,0-0.4,0.1c-0.1,0-0.2,0.1-0.3,0.1c-0.2,0.1-0.4,0.2-0.5,0.3
					c0-0.1-0.1-0.1-0.1-0.2c-0.4,0.2-0.8,0.4-1.3,0.6c-0.5,0.3-1,0.5-1.5,0.8c-0.7,0.4-1.5,0.9-2.3,1.6c-0.2,0.1-0.5,0.2-0.7,0.3
					c0.1-0.2,0.2-0.4,0.2-0.4c-0.6,0.3-1,0.6-1.3,0.8c-0.6,0.3-1.1,0.6-1.5,0.8c-0.4,0.2-0.6,0.4-0.9,0.6c-0.2-0.2,0.3-0.5,0.8-0.7
					c-0.8-0.1-1.5-0.1-2.1,0c-0.6,0.1-1.3,0.3-1.9,0.5c-0.6,0.2-1.2,0.5-1.9,0.9c-0.3,0.2-0.7,0.4-1.1,0.7c-0.2,0.1-0.4,0.3-0.6,0.5
					c-0.1,0.1-0.2,0.2-0.3,0.3c-0.1,0.1-0.2,0.2-0.3,0.2c0,0,0.1-0.1,0.2-0.2c0.1-0.1,0.4-0.3,0.6-0.4c0.2-0.2,0.5-0.3,0.6-0.4
					c0.2-0.1,0.3-0.2,0.3-0.2c-0.2,0.3-0.5,0.6-0.8,0.9c-0.1,0.2-0.3,0.3-0.4,0.5c-0.1,0.2-0.2,0.3-0.3,0.5c-0.2,0.3-0.5,0.7-0.7,1
					c-0.2,0.4-0.5,0.7-0.6,1.1c-0.2,0.4-0.4,0.7-0.6,1.1c-0.2,0.4-0.4,0.7-0.5,1.1c-0.3,0.7-0.7,1.3-0.9,1.8c0,0,0-0.2,0-0.4
					c0-0.2,0-0.4,0-0.4c-0.1,1.2-0.5,2.7-0.7,4c-0.1,0.6-0.2,1.3-0.3,1.8c0,0.5,0,0.9,0.1,1.1c0.3-0.9,0.5,0,0.8-1.4
					c0,0,0.1,1.4,0.3,2.7c0,0.1,0,0.1,0,0.2c-0.2,0.5-0.3,0.9-0.4,1.1c0.2-0.2-0.1,1-0.3,2.6c-0.1,0.6-0.1,1.2-0.2,1.8
					c-0.1,0.8-0.3,1.5-0.3,2.3c0-0.6-0.1-1.3-0.2-1.4c0.1,0.4,0.1,1,0.2,1.7c0,0.4-0.1,0.9-0.1,1.3c0,1.1,0.1,2.2,0.3,3
					c0,0.1,0,0.2,0,0.2c-0.1-0.2-0.2,0.3-0.2,1.3c0,1.1,0.2,2.7,0.4,3.9c0.2-0.1,0.6,0.3,0.6,0.5c0.7,1.6,1.9,4.1,3.8,6.1
					c0.1,0.3,0.2,0.6,0.3,0.9c0.6,1.7,1.5,3.2,2.3,4.4c0,0,0-0.2,0.1-0.5c0-0.2,0.1-0.5,0.1-0.5s0.1,0.1,0.2,0.2
					c0.1,0.2,0.4,0.4,0.6,0.6c0.5,0.5,1.3,1.1,2.1,1.6c0.4,0.3,0.8,0.5,1.2,0.7c0.2,0.1,0.4,0.2,0.6,0.3c0.2,0.1,0.4,0.1,0.5,0.2
					c0.3,0.1,0.6,0.2,0.8,0.3c0.1,0,0.2,0.1,0.2,0.1c0.1,0,0.1,0,0.1,0s-0.1,0-0.2,0c-0.1,0-0.3,0-0.5-0.1c-0.2,0-0.4-0.1-0.7-0.1
					c-0.1,0-0.3,0-0.4-0.1c-0.1,0-0.3-0.1-0.4-0.1c-0.3-0.1-0.5-0.2-0.8-0.2c-0.1,0-0.2-0.1-0.4-0.1c-0.1,0-0.2-0.1-0.3-0.1
					c-0.4-0.2-0.7-0.3-0.7-0.3c0.6,0.3,1.7,0.9,3.1,1.3c0.7,0.2,1.4,0.3,2.1,0.5c0.3,0.1,0.7,0.1,1,0.1c0.3,0,0.6,0,0.9,0
					c1.8,0.1,3,0,3.8,0.1c0.8,0,1.3,0.1,1.7,0.2c0.4,0.1,0.8,0.2,1.4,0.1c0.3-0.1,0.7-0.2,1.1-0.4c0.3-0.1,0.6-0.3,0.9-0.4
					c0.4-0.1,0.7-0.1,1.1-0.2c-0.1,0.1-0.2,0.3-0.3,0.4c0.5-0.2,0.6-0.4,0.6-0.5c0.3-0.1,0.7-0.2,1-0.3c0.1,0.3-0.5,0.6-0.8,0.8
					c-0.1,0.1-0.1,0.1,0.1,0.2c0.2,0,0.7,0,1.6-0.1c-0.4-0.1-0.7-0.2-0.6-0.5c0.1-0.2,0.6-0.5,1.8-1c-0.5,0.6,0,0.5,0.9,0.1
					c0.1,0,0.2-0.1,0.3-0.2c1.5,0,3-0.3,4.2-0.4l-0.5-0.6c0,0,0.2-0.1,0.5-0.3c0.3-0.2,0.7-0.4,1.1-0.7c0.4-0.3,0.8-0.5,1-0.7
					C-11.1,50.2-11,50-11,50s-0.1,0.1-0.2,0.3c-0.1,0.2-0.3,0.5-0.5,0.7c-0.4,0.5-0.7,1-0.7,1c0.2-0.3,0.7-0.7,1.2-1.3
					c0.5-0.6,1.1-1.1,1.4-1.7c0.2-0.2,0.3-0.3,0.4-0.4c0.4-0.1,0.7-0.2,1-0.3c0,0-0.2,0.2-0.4,0.4c-0.2,0.2-0.5,0.4-0.5,0.4
					c1.6-1.1,3.7-2.3,5.5-3.7c1.8-1.4,3.2-2.8,3.6-3.7c-0.6,0.5-0.7,0.4-0.9,0.4c-0.2,0-0.4,0.1-1.3,0.9c0,0,0.1-0.1,0.3-0.3
					c0.2-0.2,0.4-0.5,0.7-0.9c0.6-0.8,1.3-1.8,1.9-2.9c0.6-1.1,1.1-2.3,1.5-3.2C2.4,34.7,2.6,34,2.6,34s0.3-0.1,0.6-0.2
					c0.3-0.1,0.6-0.2,0.6-0.2s0.1-0.3,0.2-0.9c0.1-0.5,0.2-1.2,0.3-1.9c0.1-0.7,0.2-1.4,0.2-2c0-0.5,0-0.9,0-0.9
					C4.3,28.7,4.6,26.8,4.5,24.7z M-33.6,2.5c-0.2,0.1-0.3,0.3-0.5,0.4c-0.1,0-0.1,0,0-0.1c0-0.1,0.1-0.1,0.3-0.3
					C-33.7,2.6-33.7,2.6-33.6,2.5z"/>
				<path class="st22" d="M8.9,69.5c0-1.3-0.5-2.8-0.7-2.7c-0.1-0.5-0.1-0.7,0-0.7c0.1,0,0.2,0.1,0.3,0.4c0.3,0.5,0.6,1.4,0.7,1.8
					c-0.2-1-0.4-1.6-0.5-2.1c0-0.1-0.1-0.3-0.1-0.4c-0.1-0.1-0.1-0.3-0.2-0.4C8.2,65,8.1,64.9,8,64.7c-0.1-0.2-0.2-0.3-0.4-0.5
					c0,0,0-0.1-0.1-0.3c0-0.2-0.1-0.5-0.2-0.7c-0.1-0.3-0.2-0.5-0.2-0.7c-0.1-0.2-0.1-0.3-0.1-0.3s-0.2-0.3-0.6-0.6
					c-0.2-0.2-0.4-0.4-0.6-0.6c-0.1-0.1-0.2-0.2-0.3-0.3c-0.1-0.1-0.3-0.2-0.4-0.3c-0.5-0.4-1-0.7-1.4-1c-0.2-0.1-0.4-0.2-0.5-0.3
					c-0.1-0.1-0.2-0.1-0.2-0.1c0.2,0.1,0-0.1,0.2,0c-0.4-0.1-0.8-0.3-1.2-0.5c0.2,0,0.4,0,0.5,0.1c0.1,0,0.2,0,0.2,0
					c-0.2-0.2-0.4-0.3-0.6-0.4c0.1,0,0.3-0.1,0.4-0.1c-0.2-0.2-0.4-0.3-0.6-0.4c-0.2-0.2-0.4-0.3-0.7-0.4c-0.2-0.1-0.5-0.3-0.7-0.4
					c-0.2-0.1-0.5-0.3-0.8-0.5c0,0,0,0,0,0c-0.2-0.5-0.4-0.9-0.8-1.1c-0.2-0.1-0.2,0.1-0.2,0.3c0,0.2-0.1,0.3-0.4,0.1
					c0,0-0.1-0.1-0.2-0.1c-0.1-0.1-0.1-0.2-0.2-0.3c0,0-0.1,0-0.2,0c0,0-0.1,0-0.1,0c-0.1,0-0.1-0.1-0.2-0.1c0,0,0,0,0,0
					c0.1,0,0.2,0,0.3,0.1c-0.1-0.1-0.2-0.1-0.3-0.2c0,0,0.1-0.1,0.2-0.1c0.2,0,0.4-0.1,0.5-0.1c0,0,0.1,0,0.1,0
					c0.1,0,0.3,0.1,0.3,0.1c0.1,0,0.1,0,0.1,0c-1-0.7-2.2-1.1-3.4-1.3c-0.7-0.1-1.4-0.1-2.1,0c-0.1,0-0.2,0-0.2-0.1
					c-0.3-0.1-0.6-0.1-0.8-0.1c-0.1,0-0.2,0-0.3,0c-0.1,0-0.1,0.1-0.2,0.1c-0.5-0.2-0.4-0.3-0.2-0.4c0.1,0,0.3,0,0.4-0.1
					c0.1,0,0.2,0,0.3-0.1C-7.9,53-8.3,53-8.7,53c-0.2,0-0.4,0-0.6,0c-0.2,0-0.4,0-0.6,0c-0.4,0-0.8,0.1-1.2,0.1c-0.1,0-0.2,0-0.2,0
					c-0.1,0-0.2,0-0.2,0.1c-0.1,0-0.2,0.1-0.3,0.2c0,0-0.1-0.1-0.1-0.1c-0.2,0.1-0.5,0.3-0.8,0.4c-0.3,0.2-0.6,0.3-1,0.5
					c-0.5,0.3-1,0.6-1.5,1c-0.2,0.1-0.3,0.1-0.4,0.2c0.1-0.1,0.1-0.2,0.1-0.2c-0.4,0.2-0.7,0.4-0.8,0.5c-0.4,0.2-0.7,0.4-0.9,0.5
					c-0.2,0.1-0.4,0.3-0.6,0.4c-0.2-0.2,0.2-0.3,0.5-0.4c-0.5-0.1-0.9-0.1-1.3,0c-0.4,0.1-0.8,0.2-1.2,0.3c-0.4,0.1-0.8,0.3-1.2,0.6
					c-0.2,0.1-0.5,0.3-0.7,0.5c-0.1,0.1-0.3,0.2-0.4,0.3c-0.1,0.1-0.1,0.1-0.2,0.2c-0.1,0-0.1,0.1-0.2,0.1c0,0,0.1,0,0.1-0.1
					c0.1-0.1,0.2-0.2,0.4-0.3c0.1-0.1,0.3-0.2,0.4-0.2c0.1-0.1,0.2-0.1,0.2-0.1c-0.2,0.2-0.3,0.4-0.5,0.6c-0.1,0.1-0.2,0.2-0.2,0.3
					c-0.1,0.1-0.1,0.2-0.2,0.3c-0.1,0.2-0.3,0.4-0.4,0.7c-0.1,0.2-0.3,0.4-0.4,0.7c-0.1,0.2-0.3,0.5-0.4,0.7
					c-0.1,0.2-0.2,0.5-0.3,0.7c-0.2,0.4-0.4,0.8-0.6,1.1c0,0,0-0.1,0-0.2c0-0.1,0-0.2,0-0.2c0,0.8-0.3,1.7-0.5,2.5
					c-0.1,0.4-0.1,0.8-0.2,1.1c0,0.3,0,0.6,0.1,0.7c0.2-0.6,0.3,0,0.5-0.9c0,0,0.1,0.9,0.2,1.7c0,0,0,0.1,0,0.1
					c-0.1,0.3-0.2,0.6-0.3,0.7c0.1-0.2,0,0.7-0.2,1.6c-0.1,0.4-0.1,0.8-0.1,1.1c-0.1,0.5-0.2,1-0.2,1.5c0-0.4,0-0.8-0.1-0.9
					c0.1,0.3,0.1,0.7,0.1,1.1c0,0.3,0,0.5,0,0.8c0,0.7,0,1.4,0.2,1.9c0,0.1,0,0.1,0,0.2c-0.1-0.1-0.1,0.2-0.1,0.8
					c0,0.7,0.1,1.7,0.3,2.5c0.1,0,0.4,0.2,0.4,0.3c0.4,1,1.2,2.6,2.4,3.9c0.1,0.2,0.1,0.4,0.2,0.6c0.4,1.1,0.9,2,1.4,2.8
					c0,0,0-0.2,0-0.3c0-0.2,0-0.3,0-0.3s0,0.1,0.1,0.2c0.1,0.1,0.2,0.2,0.4,0.4c0.3,0.3,0.8,0.7,1.3,1c0.2,0.2,0.5,0.3,0.8,0.4
					c0.1,0.1,0.2,0.1,0.4,0.2c0.1,0,0.2,0.1,0.3,0.1c0.2,0.1,0.4,0.1,0.5,0.2c0.1,0,0.1,0,0.1,0c0,0,0,0,0,0s0,0-0.1,0
					c-0.1,0-0.2,0-0.3,0c-0.1,0-0.3,0-0.4-0.1c-0.1,0-0.2,0-0.2,0c-0.1,0-0.2,0-0.2-0.1c-0.2-0.1-0.3-0.1-0.5-0.1
					c-0.1,0-0.2,0-0.2-0.1c-0.1,0-0.1-0.1-0.2-0.1c-0.3-0.1-0.4-0.2-0.4-0.2c0.4,0.2,1.1,0.6,2,0.8c0.4,0.1,0.9,0.2,1.3,0.3
					c0.2,0,0.4,0,0.7,0.1c0.2,0,0.4,0,0.6,0c1.2,0.1,1.9,0,2.4,0c0.5,0,0.8,0.1,1.1,0.2c0.3,0.1,0.5,0.1,0.9,0.1
					c0.2,0,0.4-0.1,0.7-0.2c0.2-0.1,0.4-0.2,0.6-0.3c0.2,0,0.5-0.1,0.7-0.2c-0.1,0.1-0.1,0.2-0.2,0.2c0.3-0.2,0.4-0.2,0.4-0.3
					c0.2-0.1,0.4-0.1,0.6-0.2c0.1,0.2-0.3,0.4-0.5,0.5c-0.1,0.1-0.1,0.1,0.1,0.1c0.2,0,0.5,0,1-0.1c-0.2,0-0.5-0.2-0.4-0.3
					c0.1-0.2,0.4-0.3,1.1-0.7c-0.3,0.4,0,0.3,0.6,0.1c0.1,0,0.1-0.1,0.2-0.1c1,0,1.9-0.2,2.7-0.2l-0.3-0.4c0,0,0.1-0.1,0.3-0.2
					c0.2-0.1,0.5-0.2,0.7-0.4c0.2-0.2,0.5-0.3,0.7-0.5c0.2-0.1,0.3-0.2,0.3-0.2s0,0.1-0.1,0.2c-0.1,0.1-0.2,0.3-0.3,0.4
					c-0.2,0.3-0.5,0.6-0.5,0.6c0.1-0.2,0.4-0.5,0.8-0.8c0.3-0.4,0.7-0.7,0.9-1.1c0.1-0.1,0.2-0.2,0.3-0.3c0.2-0.1,0.5-0.2,0.7-0.2
					c0,0-0.1,0.1-0.3,0.2C0.4,84.9,0.3,85,0.3,85c1-0.7,2.4-1.5,3.5-2.4c1.1-0.9,2.1-1.8,2.3-2.4c-0.4,0.3-0.5,0.3-0.5,0.3
					c-0.1,0-0.2,0-0.8,0.5c0,0,0.1-0.1,0.2-0.2c0.1-0.1,0.3-0.3,0.4-0.6c0.4-0.5,0.8-1.2,1.2-1.9c0.4-0.7,0.7-1.5,0.9-2.1
					c0.2-0.6,0.3-1,0.3-1s0.2-0.1,0.4-0.1c0.2-0.1,0.4-0.1,0.4-0.1s0.1-0.2,0.1-0.6c0.1-0.3,0.2-0.8,0.2-1.2
					c0.1-0.5,0.1-0.9,0.1-1.2c0-0.3,0-0.6,0-0.6C8.8,72,9,70.8,8.9,69.5z M-15.3,55.3c-0.1,0.1-0.2,0.2-0.3,0.3c0,0-0.1,0,0,0
					c0,0,0.1-0.1,0.2-0.2C-15.4,55.4-15.4,55.4-15.3,55.3z"/>
				<path class="st22" d="M89.2,14.1c-0.2-1.7-1-4-1.8-3.1c-0.1-3.8-0.3-7.6-0.8-11.2c-0.3-1.9,2.1-4.1,1.5-6
					C88-7,87.9-7.8,87.8-8.6c-0.4-2.3,0.4-6.2-0.9-6.9c-0.1,0-0.1-0.1-0.2-0.1c-0.1-1.3-0.5-3.5-1.1-3.5c-0.1-1.2-0.3-2.3-0.6-3.1
					c-0.3-0.7-0.6-0.8-0.9-0.6c-0.4-1.1-1.3-1.9-1.7-0.4c-0.3-1.2-0.7-2.1-1.3-2.4c-0.9-0.5-1.3,1.4-1,3c0,0.1,0.1,0.3,0.1,0.4
					c0,0,0,0,0,0.1c0,0.2,0,0.4,0.1,0.6c0,0,0,0.1,0,0.2c0,0.1,0,0.4,0,0.6c0,0.1,0,0.1,0,0.1c0,0,0,0,0,0c0,0.5,0,0.9-0.1,1.4
					c0,0.7,0.2,1.4,0.4,1.9c0,0.5-0.1,0.9-0.1,1.4c-0.2,0.3-0.3,0.7-0.3,1.3c0,1.3-1.5,2.6-1.5,3.9c-0.4-3,0.5-6.1,0.1-9.1
					c-0.2-1.7-0.9-3.2-1.8-3.1c-0.8,0.1-1.3,1.9-1.1,3.5c0,0,0,0,0,0c0,0,0,0-0.1,0c-0.2-0.1-0.4,0-0.6,0.2
					c-0.1-0.6-0.1-1.2-0.2-1.7c-0.2-1.4-0.8-2.7-1.5-2.8c-0.6-0.1-1.1,0.8-1,2.2c0.1,1,0.1,2,0.2,3c-1-1.5-2.6-1.2-2.5,1.7
					c0,0.1,0,0.2,0,0.2c0,0.7,0,1.3,0.2,1.9c-0.5-1.5-1-3.1-1.9-3.1c-0.3,0-0.5,0.4-0.6,0.9c0-0.6-0.1-1.1-0.2-1.7
					c-0.3-1.8-1.6-1.9-2.1-0.4c-0.2,0.2-0.4,0.5-0.5,0.9c-0.4,1.1-0.2,2.5-0.2,3.8c0,0.8-1.4,1.7-1.4,2.5c-1.1-0.9-2,1.3-1.7,3.8
					c0.2,1.8-3.6,3.5-3.1,5.2c0,0.2,0,0.4,0,0.7c-0.1,0.9-0.1,1.8-0.1,2.7c-0.1,0.1-0.2,0.3-0.2,0.5c-0.1-0.2-0.3-0.4-0.5-0.5
					c-0.6-1.8-1.8-1.8-1.9,1c-0.1,2.2,0.4,4.7,0.7,6.8c0.3,2.2,0.7,4.5,1.2,6.6c0.1,0.4,0.2,0.7,0.3,0.9c0,3.6,0.1,7.2,0.4,10.6
					c0.1,0.9,0.3,1.9,0.6,2.6c0,0.1-0.1,0.3-0.1,0.5c-0.4,2.8-0.2,5.8-0.2,8.7c0,2.9,0.1,5.8,0.2,8.7c0.1,2.5,1,3.2,1.6,2.1
					c0.1,0.6,0.3,1.1,0.5,1.5c0.4,4.1,1.2,8,2.5,11.1c0.4,1,1.3,1.9,1.9,1c0.1-0.2,0.2-0.4,0.3-0.7c0.1,0.7,0.2,1.4,0.4,2.1
					c-0.1,0.5-0.2,1-0.3,1.6c-0.4,1.8-1,3.2-1.5,4.9c-0.6,1.9-0.5,5.4,0.8,5.9c0.9,0.3,1.9-2.2,2.4-3.6c0.5-1.5,1-3.3,1.3-5.1
					c0.1,1.1,0.2,2.2,0.5,3.2c0.4,1.5,1.4,1.6,1.6-0.3c0.1-0.9,0.1-1.7,0.1-2.6c0.2,0.1,0.4,0.1,0.6,0c0.3-0.2,0.5-0.5,0.6-1
					c0.4-0.2,0.7-0.6,0.9-1.3c0.4,0.4,0.8,0.9,1.2,1.1c0.2,0.1,0.4,0.1,0.5,0c0.1,0.3,0.3,0.5,0.4,0.7c0.3,0.3,0.5,0.4,0.8,0.2
					c0.1,0.2,0.1,0.4,0.2,0.6c0.4,1,2.5,2.5,3.1,2.7c0.6,0.2,0.9-0.8,0.9-1.8c0.4-0.2,0.6-1,0.7-1.8c0.1,0,0.2,0,0.3-0.1
					c0.1,0.1,0.1,0.2,0.2,0.3c0.1,0.1,0.2,0.1,0.3,0.1c0.1,0,0.2,0,0.3-0.1c0.1-0.1,0.2-0.2,0.3-0.3c0.1-0.1,0.2-0.3,0.3-0.6
					c0,0.1,0.1,0.2,0.1,0.3c0.1,0.2,0.2,0.3,0.3,0.5c0.1,0.1,0.2,0.2,0.3,0.2c0.1,0,0.1,0,0.2,0c0,0,0.1,0,0.1,0
					c0.2,0.6,0.4,1.1,0.8,1.2c0.2,0,0.4-0.1,0.6-0.4c0.2-0.3,0.3-0.6,0.4-0.9c0.5,1,1,1.9,1.6,2.7c0.3,0.5,1,0.5,1.3-0.1
					c0.3-0.6,0.2-1.7,0-2.4c-0.6-1.6-1.4-2.8-2.2-4.1c0.1,0,0.2,0,0.3-0.1c0.8-0.4,0.9-2.5,0.8-3.9c0-0.3-0.1-0.7-0.1-1
					c0-1.3-0.1-2.7-0.2-4.1c-0.1-1.6-0.2-3.1-0.4-4.7c0.9,0.1,1.7-1.3,1.8-3.8c0-0.6,0-1.3,0-1.9c0-0.2,0-0.5,0-0.8
					c0-4.8,0.1-9.6,0.2-14.4c0.1-2.3,0.2-4.6,0.3-6.8C89.3,19.4,89.5,16.7,89.2,14.1z M83.7,60.3c0-0.2,0-0.4,0-0.6c0,0,0-0.1,0-0.1
					c0.1,0.1,0.2,0.1,0.3,0.1c0,0.2,0,0.3,0,0.5C83.9,60.1,83.8,60.2,83.7,60.3z"/>
				<path class="st23" d="M108,115.3c1.5-0.2,3.6-1,2.8-1.9c3.4,0,6.8-0.1,10-0.5c1.7-0.2,3.7-0.6,5.4-1.2c0.7-0.1,1.4-0.2,2.1-0.3
					c2.1-0.4,5.5-0.9,6.2-2.3c0-0.1,0.1-0.2,0.1-0.2c1.2-0.1,3.1-0.4,3.2-1.2c1.1-0.1,2-0.2,2.8-0.6c0.6-0.3,0.8-0.6,0.6-1
					c1-0.4,1.7-1.4,0.4-1.9c1-0.3,1.9-0.7,2.2-1.4c0.5-1-1.2-1.6-2.6-1.2c-0.1,0-0.3,0.1-0.4,0.1c0,0,0,0-0.1,0
					c-0.2,0-0.3,0-0.5,0.1c0,0-0.1,0-0.2,0c-0.1,0-0.3,0-0.5,0c-0.1,0-0.1,0-0.1,0c0,0,0,0,0,0c-0.4,0-0.8-0.1-1.3-0.1
					c-0.6,0-1.2,0.1-1.7,0.4c-0.4-0.1-0.8-0.1-1.2-0.1c-0.3-0.2-0.6-0.4-1.1-0.4c-1.1-0.1-2.3-0.2-3.4-0.3c2.7-0.4,5.4-0.7,8.1-1.1
					c1.5-0.2,2.9-0.9,2.8-1.9c-0.1-0.9-1.7-1.5-3.1-1.3c0,0,0,0,0,0c0,0,0,0,0-0.1c0.1-0.2,0-0.5-0.2-0.7c0.5-0.1,1-0.1,1.5-0.2
					c1.2-0.2,2.4-0.8,2.5-1.6c0.1-0.7-0.7-1.3-1.9-1.2c-0.9,0-1.8,0.1-2.7,0.1c1.4-1,1.2-2.9-1.4-2.9c-0.1,0-0.1,0-0.2,0
					c-0.7-0.1-1.2,0-1.7,0.1c1.3-0.5,2.8-1,2.8-2.1c0-0.3-0.3-0.6-0.8-0.7c0.5,0,1,0,1.5-0.1c1.6-0.3,1.8-1.8,0.5-2.4
					c-0.2-0.2-0.5-0.5-0.8-0.6c-1-0.4-2.2-0.3-3.4-0.4c-0.7,0-1.5-0.1-2.2-0.1c0.8-1.2-3.9-2.3-6.1-2c-1.6,0.2-0.4,0.7-1.9,1.2
					c-0.2,0-0.4,0-0.6-0.1c-0.8-0.1-4.3-0.2-5.1-0.3c-0.1-0.1-0.3-0.2-0.5-0.3c0.2-0.2,0.3-0.3,0.5-0.5c1.6-0.7,1.7-2-0.8-2.2
					c-2-0.2-4.2,0.3-6.1,0.6c-2,0.3-4,0.6-5.9,1.1c-0.3,0.1-0.6,0.2-0.8,0.3c-3.2-0.1-6.4-0.1-9.4,0.1c-0.8,0.1-1.7,0.2-2.3,0.6
					c-0.1,0-0.3-0.1-0.4-0.1c-2.5-0.5-5.1-0.5-7.7-0.5c-2.6-0.1-6.8-0.1-9.4-0.1c-2.2,0-0.1,1,0.8,1.7c-0.5,0.1-0.9,0.3-1.3,0.5
					c-3.7,0.4-5.5,1.1-8.3,2.4c-0.9,0.4-1.7,1.4-0.9,2.1c0.2,0.2,0.4,0.3,0.6,0.4c-0.6,0.1-1.3,0.2-1.9,0.3
					c-0.5-0.1-0.9-0.2-1.4-0.4c-1.6-0.5-2.8-1.2-4.3-1.8c-1.7-0.7-4.8-0.8-5.2,0.7c-0.3,1,1.9,2.2,3.1,2.9c1.3,0.7,2.9,1.2,4.4,1.6
					c-1,0.1-1.9,0.2-2.9,0.4c-1.4,0.4-1.4,1.5,0.2,1.8c0.8,0.1,1.5,0.2,2.3,0.2c-0.1,0.2-0.1,0.4,0,0.7c0.2,0.3,0.5,0.5,0.8,0.7
					c0.2,0.5,0.5,0.9,1.1,1.1c-0.4,0.4-0.8,0.8-1,1.3c-0.1,0.2-0.1,0.4,0,0.6c-0.2,0.1-0.4,0.3-0.6,0.5c-0.3,0.3-0.3,0.6-0.2,0.9
					c-0.2,0.1-0.4,0.1-0.6,0.2c-0.9,0.4-2.2,0.9-2.5,1.5c-0.2,0.6,0.6,1,1.6,1.1c0.2,0.4,0.9,0.7,1.6,0.9c0,0.1,0,0.3,0.1,0.4
					c-0.1,0.1-0.2,0.2-0.3,0.2c-0.1,0.1-0.1,0.2-0.1,0.3c0,0.1,0,0.3,0.1,0.4c0,0.1,0.1,0.2,0.2,0.4c0.1,0.1,0.3,0.2,0.5,0.4
					c-0.1,0-0.2,0.1-0.2,0.1c-0.2,0.1-0.3,0.2-0.4,0.3c-0.1,0.1-0.2,0.2-0.2,0.4c0,0.1,0,0.2,0,0.3c0,0.1,0,0.1,0,0.2
					c-0.6,0.2-1,0.4-1.1,0.8c0,0.2,0.1,0.5,0.3,0.7c0.2,0.2,0.5,0.3,0.8,0.4c-0.9,0.5-1.8,1.1-2.5,1.7c-0.4,0.4-0.5,1.1,0.1,1.4
					c0.6,0.4,1.5,0.3,2.1,0.1c1.4-0.6,2.6-1.5,3.7-2.3c0,0.1,0,0.2,0,0.3c0.3,0.9,2.2,1.1,3.4,1c0.3,0,0.6-0.1,0.9-0.1
					c1.2,0.1,2.4,0,3.7,0c1.4-0.1,2.8-0.2,4.2-0.3c-0.1,1,1.1,2,3.3,2.1c0.6,0,1.1,0.1,1.7,0.1c0.2,0,0.4,0.1,0.7,0.1
					c4.3,0.2,8.5,0.4,12.8,0.8c2,0.2,4,0.3,6,0.5C103.4,115.2,105.8,115.6,108,115.3z M67.3,107.5c0.2,0,0.4,0,0.5,0
					c0,0,0.1,0,0.1,0c-0.1,0.1-0.1,0.2-0.1,0.3c-0.1,0-0.3,0-0.4,0C67.4,107.7,67.4,107.6,67.3,107.5z"/>
				<path class="st23" d="M-7.2,19.7c1.5-0.2,3.6-1,2.8-1.9c3.4,0,6.8-0.1,10-0.5C7.3,17,6.5,16.6,8.3,16C9,16,8,15.9,8.7,15.7
					c2.1-0.4,4.2-0.9,4.8-2.3c0-0.1,0.1-0.2,0.1-0.2c1.2-0.1,3.1-0.4,3.2-1.2c1.1-0.1,2-0.2,2.8-0.6c0.6-0.3,0.8-0.6,0.6-1
					c1-0.4,1.7-1.4,0.4-1.9c1-0.3,1.9-0.7,2.2-1.4c0.5-1-1.2-1.6-2.6-1.2c-0.1,0-0.3,0.1-0.4,0.1c0,0,0,0-0.1,0
					c-0.2,0-0.3,0-0.5,0.1c0,0-0.1,0-0.2,0c-0.1,0-0.3,0-0.5,0c-0.1,0-0.1,0-0.1,0c0,0,0,0,0,0c-0.4,0-0.8-0.1-1.3-0.1
					c-0.6,0-1.2,0.1-1.7,0.4c-0.4-0.1-0.8-0.1-1.2-0.1c-0.3-0.2-0.6-0.4-1.1-0.4C12,6,10.9,5.9,9.7,5.8c2.7-0.4,5.4-0.7,8.1-1.1
					c1.5-0.2,2.9-0.9,2.8-1.9c-0.1-0.9-1.7-1.5-3.1-1.3c0,0,0,0,0,0c0,0,0,0,0-0.1c0.1-0.2,0-0.5-0.2-0.7c0.5-0.1,1-0.1,1.5-0.2
					c1.2-0.2,2.4-0.8,2.5-1.6c0.1-0.7-0.7-1.3-1.9-1.2c-0.9,0-1.8,0.1-2.7,0.1c1.4-1,1.2-2.9-1.4-2.9c-0.1,0-0.1,0-0.2,0
					c-0.7-0.1-1.2,0-1.7,0.1C14.9-5.4,19-5.9,19-7c0-0.3,1.3-0.6,0.9-0.7c0.5,0,1,0,1.5-0.1c1.6-0.3,1.8-1.8,0.5-2.4
					c-0.2-0.2-0.5-0.5-0.8-0.6c-1-0.4-2.2-0.3-3.4-0.4c-0.7,0-1.5-0.1-2.2-0.1c0.8-1.2,0.3-2.3-2-2c-3,0.3-4.4,1.1-4.7,1.2
					c-0.2,0-0.4,0-0.6-0.1c-0.8-0.1-1.6-0.2-2.4-0.3c-0.1-0.1-0.3-0.2-0.5-0.3c0.2-0.2,0.3-0.3,0.5-0.5c1.6-0.7,1.7-2-0.8-2.2
					c-2-0.2-4.2,0.3-6.1,0.6c-2,0.3-4,0.6-5.9,1.1c-0.3,0.1-0.6,0.2-0.8,0.3c-3.2-0.1-6.4-0.1-9.4,0.1c-0.8,0.1-1.7,0.2-2.3,0.6
					c-0.1,0-0.3-0.1-0.4-0.1c-2.5-0.5-5.1-0.5-7.7-0.5c-2.6-0.1-5.2-0.1-7.8-0.1c-2.2,0-2.8,1-1.9,1.7c-0.5,0.1-0.9,0.3-1.3,0.5
					c-3.7,0.4-7.2,1.1-9.9,2.4c-0.9,0.4-1.7,1.4-0.9,2.1c0.2,0.2,0.4,0.3,0.6,0.4c-0.6,0.1-1.3,0.2-1.9,0.3
					c-0.5-0.1-0.9-0.2-1.4-0.4c-1.6-0.5-2.8-1.2-4.3-1.8C-58-9-61.1-9.1-61.5-7.7c-0.3,1,1.9,2.2,3.1,2.9c1.3,0.7,2.9,1.2,4.4,1.6
					c-1,0.1-1.9,0.2-2.9,0.4c-1.4,0.4-1.4,1.5,0.2,1.8c0.8,0.1,1.5,0.2,2.3,0.2c-0.1,0.2-0.1,0.4,0,0.7c0.2,0.3,0.5,0.5,0.8,0.7
					c0.2,0.5,0.5,0.9,1.1,1.1c-0.4,0.4-0.8,0.8-1,1.3c-0.1,0.2-0.1,0.4,0,0.6C-53.6,3.8-53.8,4-54,4.2c-0.3,0.3-0.3,0.6-0.2,0.9
					c-0.2,0.1-0.4,0.1-0.6,0.2c-0.9,0.4-2.2,0.9-2.5,1.5c-0.2,0.6,0.6,1,1.6,1.1c0.2,0.4,0.9,0.7,1.6,0.9c0,0.1,0,0.3,0.1,0.4
					c-0.1,0.1-0.2,0.2-0.3,0.2c-0.1,0.1-0.1,0.2-0.1,0.3c0,0.1,0,0.3,0.1,0.4c0,0.1,0.1,0.2,0.2,0.4c0.1,0.1,0.3,0.2,0.5,0.4
					c-0.1,0-0.2,0.1-0.2,0.1c-0.2,0.1-0.3,0.2-0.4,0.3c-0.1,0.1-0.2,0.2-0.2,0.4c0,0.1,0,0.2,0,0.3c0,0.1,0,0.1,0,0.2
					c-0.6,0.2-1,0.4-1.1,0.8c0,0.2,0.1,0.5,0.3,0.7c0.2,0.2,0.5,0.3,0.8,0.4c-0.9,0.5-1.8,1.1-2.5,1.7c-0.4,0.4-0.5,1.1,0.1,1.4
					c0.6,0.4,1.5,0.3,2.1,0.1c1.4-0.6,2.6-1.5,3.7-2.3c0,0.1,0,0.2,0,0.3c0.3,0.9,2.2,1.1,3.4,1c0.3,0,0.6-0.1,0.9-0.1
					c1.2,0.1,2.4,0,3.7,0c1.4-0.1,2.8-0.2,4.2-0.3c-0.1,1,1.1,2,3.3,2.1c0.6,0,1.1,0.1,1.7,0.1c0.2,0,0.4,0.1,0.7,0.1
					c4.3,0.2,8.5,0.4,12.8,0.8c2,0.2,4,0.3,6,0.5C-11.9,19.5-9.4,19.9-7.2,19.7z M-47.9,11.8c0.2,0,0.4,0,0.5,0c0,0,0.1,0,0.1,0
					c-0.1,0.1-0.1,0.2-0.1,0.3c-0.1,0-0.3,0-0.4,0C-47.8,12-47.8,11.9-47.9,11.8z"/>
				<path class="st19" d="M8.3,33.4c-0.1-0.8,1.1-1.9,0.7-1.5C9,30,8.9,28.2,8.6,26.4c-0.2-0.9-0.4-2-0.7-2.9
					c-0.1-0.4-0.1-0.8-0.2-1.2c-0.2-1.1-0.6-3-1.2-3.4c0,0-0.1,0-0.1,0c-0.1-0.6-0.3-1.7-0.6-1.7c0-0.6-0.1-1.1-0.3-1.5
					c-0.1-0.3-0.3-0.4-0.5-0.3c-0.2-0.5-0.7-0.9-0.9-0.2c-0.1-0.6-0.4-1-0.7-1.2c-0.5-0.2-0.7,0.7-0.5,1.5c0,0.1,0,0.1,0.1,0.2
					c0,0,0,0,0,0c0,0.1,0,0.2,0,0.3c0,0,0,0.1,0,0.1c0,0,0,0.2,0,0.3c0,0,0,0.1,0,0c0,0,0,0,0,0c0,0.2,0,0.5,0,0.7
					c0,0.3,0.1,0.7,0.2,0.9c0,0.2,0,0.4,0,0.7C3,18.8,2.9,19,2.9,19.3c0,0.6-0.1,1.3-0.1,1.9c-0.2-1.5-0.4-3-0.7-4.5
					c-0.1-0.8-0.5-1.6-1-1.5c-0.4,0.1-0.7,0.9-0.6,1.7c0,0,0,0,0,0c0,0,0,0,0,0c-0.1-0.1-0.2,0-0.3,0.1c0-0.3-0.1-0.6-0.1-0.8
					c-0.1-0.7-0.4-1.3-0.8-1.4c-0.3-0.1-0.6,0.4-0.6,1.1c0,0.5,0.1,1,0.1,1.5c-0.5-0.7-1.4-0.6-1.4,0.8c0,0,0,0.1,0,0.1
					c0,0.4,0,0.6,0.1,0.9c-0.3-0.7-0.5-1.5-1.1-1.5c-0.1,0-0.3,0.2-0.3,0.4c0-0.3,0-0.6-0.1-0.8c-0.2-0.9-0.9-0.9-1.2-0.2
					c-0.1,0.1-0.2,0.3-0.3,0.5c-0.2,0.5-0.1,1.2-0.1,1.9c0,0.4,0,0.8,0,1.2c-0.6-0.4-1.1,0.7-0.9,1.9c0.1,0.9,0.4,1.7,0.7,2.5
					c0,0.1,0,0.2,0,0.3c0,0.4-0.1,0.9-0.1,1.3c0,0.1-0.1,0.2-0.1,0.3c-0.1-0.1-0.2-0.2-0.3-0.2c-0.3-0.9-1-0.9-1,0.5
					c0,1.1,0.2,2.3,0.4,3.3c0.2,1.1,0.4,2.2,0.7,3.2c0,0.2,0.1,0.3,0.2,0.4c0,1.8,0.1,3.5,0.2,5.2c0,0.4,0.2,0.9,0.3,1.3
					c0,0.1,0,0.1,0,0.2c-0.2,1.4-0.1,2.8-0.1,4.2c0,1.4,0.1,2.8,0.1,4.3c0,1.2,0.6,1.5,0.9,1c0.1,0.3,0.1,0.5,0.3,0.7
					c0.2,2,0.7,3.9,1.4,5.4c0.2,0.5,0.7,0.9,1,0.5c0.1-0.1,0.1-0.2,0.2-0.3c0.1,0.3,0.1,0.7,0.2,1c0,0.3-0.1,0.5-0.2,0.8
					C-2,59.3-2.4,60-2.6,60.9c-0.3,0.9-0.3,2.7,0.4,2.9c0.5,0.1,1-1.1,1.3-1.8c0.3-0.7,0.5-1.6,0.7-2.5c0.1,0.5,0.1,1.1,0.3,1.6
					c0.2,0.7,0.8,0.8,0.9-0.2C1,60.5,1,60.1,1,59.6c0.1,0.1,0.2,0.1,0.3,0c0.1-0.1,0.3-0.3,0.3-0.5c0.2-0.1,0.4-0.3,0.5-0.6
					c0.2,0.2,0.4,0.4,0.7,0.5c0.1,0,0.2,0,0.3,0c0.1,0.1,0.1,0.2,0.2,0.3c0.1,0.2,0.3,0.2,0.4,0.1c0,0.1,0.1,0.2,0.1,0.3
					c0.2,0.5,0.5,1.2,0.8,1.3c0.3,0.1,0.5-0.4,0.5-0.9c0.2-0.1,0.3-0.5,0.4-0.9c0.1,0,0.1,0,0.2-0.1c0,0.1,0.1,0.1,0.1,0.1
					c0,0,0.1,0.1,0.2,0.1c0.1,0,0.1,0,0.2,0c0.1,0,0.1-0.1,0.2-0.1c0.1-0.1,0.1-0.2,0.2-0.3c0,0,0,0.1,0.1,0.1
					c0,0.1,0.1,0.2,0.2,0.2c0.1,0.1,0.1,0.1,0.2,0.1c0,0,0.1,0,0.1,0c0,0,0,0,0.1,0c0.1,0.3,0.2,0.5,0.4,0.6c0.1,0,0.2-0.1,0.3-0.2
					c0.1-0.1,0.1-0.3,0.2-0.5c0.3,0.5,0.6,1,0.9,1.3C9.2,61,7.8,61,8,60.7c0.2-0.3,0.1-0.8,0-1.2c-0.3-0.8,0.9-1.4,0.5-2
					c0,0,0.1,0,0.2,0C9,57.3,9.1,56.3,9,55.6c0-0.2,0-0.3-0.1-0.5c0-0.7,0-1.3-0.1-2c-0.1-0.8-0.1-1.5-0.2-2.3
					c0.5,0-0.7-0.7-0.7-1.9c0-0.3,0-0.6,0-0.9c0-0.1,0-0.2,0-0.4c0-2.3,0-4.7,0.1-7c0-1.1,0.1-2.2,0.1-3.3C8.4,36,8.5,34.6,8.3,33.4
					z M7,55.9c0-0.1,0-0.2,0-0.3c0,0,0,0,0-0.1c0.1,0,0.1,0,0.2,0c0,0.1,0,0.2,0,0.2C7.1,55.8,7,55.9,7,55.9z"/>
				<path class="st20" d="M8,69.7c-0.3-0.1,0.4-0.2-0.2-0.2c-5,0-5.5,0.1-10.5,0.1c-4.9,0-9.9,0.1-14.8,0.1
					c-0.1-0.1-0.5-0.2-0.9-0.2c-1.6-0.1-3.6-0.1-5.2-0.1c-1.7,0-3.5,0-5.2,0c-3.4,0-6.8,0-10.2-0.1c-6.9,0-13.8-0.1-20.6-0.1
					c-1.1,0-1.1,0.4,0,0.4c1.3,0,2.6,0,3.9,0.1c-0.9,0-1.8,0-2.8,0c-1.1,0-2.2,0-3.4,0c-0.3,0-0.6,0-0.7,0c-0.3,0-0.5,0-0.8,0
					c-0.5,0-0.8,0.1-0.7,0.2c0,0,0,0,0.1,0c-1.3,0-0.7,0.5,1.3,0.5c0.7,0,1.4,0,2.1,0c0.1,0,0.3,0,0.5,0c1.1,0,2.1,0,3.2,0
					c-0.7,0-1.3,0.3-0.3,0.3c1.6,0.1,3.4,0.1,5.1,0.1c1.7,0,3.5,0,5.2,0c2.2,0,4.4,0,6.6,0c0,0.1,0.3,0.2,1,0.2
					c4.7,0.1,9.5-0.8,14.2-0.7c2.3,0,4.7,1,7,1c2.3,0,4.9,0,7.1,0c0.6,0,0.9-0.1,0.9-0.2c0,0,0.1,0,0.1,0c1.9,0,4,0.1,5.9,0
					c0.9,0,1.5-0.4,0.4-0.4c2.1,0,4.3,0,6.4,0c2.6,0,5.1-0.5,3.7-0.5c0,0,0,0,0,0c0.6,0,1.1-0.1,0.9-0.2C7.2,70.1,6.6,70,6.1,70
					C8.5,70,8.2,69.7,8,69.7z"/>
				<path class="st20" d="M-50.9,77.6c4.9,0,9.9-0.1,14.8-0.1c0.1,0.1,0.5,0.2,0.9,0.2c1.6,0.1,3.6,0.1,5.2,0.1c1.7,0,3.5,0,5.2,0
					c3.4,0,6.8,0,10.2,0.1c6.9,0,13.8,0.1,20.6,0.1c1.1,0,1.1-0.4,0-0.4c-1.3,0-2.6,0-3.9-0.1c0.9,0,1.8,0,2.8,0c1.1,0,2.2,0,3.4,0
					c0.3,0,0.6,0,0.7,0c-1.4,0,0.5-0.7,0.1-0.7c-0.7,0-1.4,0-2.1,0c-0.1,0-0.3,0-0.5,0c-1.1,0-2.1,0-3.2,0c0.7,0,1.3-0.3,0.3-0.3
					c-1.6-0.1-3.4-0.1-5.1-0.1c-1.7,0-3.5,0-5.2,0c-2.2,0-4.4,0-6.6,0c0-0.1-0.3-0.2-1-0.2c-4.7-0.1-9.5-0.2-14.2-0.2
					c-2.3,0-4.7,0-7,0c-2.3,0-4.9,0-7.1,0c-0.6,0-0.9,0.1-0.9,0.2c0,0-0.1,0-0.1,0c-1.9,0-4-0.1-5.9,0c-0.9,0-1.5,0.4-0.4,0.4
					c-2.1,0-4.3,0-6.4,0c-2.6,0-5.1,0.5-3.7,0.5c0,0,0,0,0,0c-0.6,0-1.1,0.1-0.9,0.2c0.2,0.1,0.7,0.1,1.3,0.2
					C-62.1,77.2-55.8,77.6-50.9,77.6z"/>
				<path class="st20" d="M2.1,83.3c-4.9,0-9.9,0.1-14.8,0.1c-0.1-0.1-0.5-0.2-0.9-0.2c-1.6-0.1-3.6-0.1-5.2-0.1c-1.7,0-3.5,0-5.2,0
					c-3.4,0-6.8,0-10.2-0.1c-6.9,0-13.8-0.1-20.6-0.1c-1.1,0-1.1,0.4,0,0.4c1.3,0,2.6,0,3.9,0.1c-0.9,0-1.8,0-2.8,0
					c-1.1,0-2.2,0-3.4,0c-0.3,0-0.6,0-0.7,0c-0.3,0-0.5,0-0.8,0c-0.5,0-0.8,0.1-0.7,0.2c0,0,0,0,0.1,0c-1.3,0-2.7,0-3.9-0.1
					c-0.4,0,3.1,0.6,5.2,0.6c0.7,0,1.4,0,2.1,0c0.1,0,0.3,0,0.5,0c1.1,0,2.1,0,3.2,0c-0.7,0-1.3,0.3-0.3,0.3
					c1.6,0.1,3.4,0.1,5.1,0.1c1.7,0,3.5,0,5.2,0c2.2,0,4.4-0.5,6.6-0.4c0,0.1,0.3,0.2,1,0.2c4.7,0.1,9.5,0.6,14.2,0.7
					c2.3,0,4.7,0,7,0c2.3,0,4.9,0,7.1,0c0.6,0,0.9-0.1,0.9-0.2c0,0,0.1,0,0.1,0c1.9,0,4,0.1,5.9,0c0.9,0,1.5-0.3,0.4-0.4
					c2.1,0,4.3,0,6.4,0c2.6,0,3.4-0.4,2-0.4c0,0,0,0,0,0c0.6,0,1.1-0.1,0.9-0.2c-0.2-0.1-0.7-0.1-1.3-0.2
					C11.6,83.7,7.1,83.3,2.1,83.3z"/>
				<path class="st20" d="M-69.9,90.9c5,0,9.9-0.1,14.9-0.1c4.9,0,9.9-0.1,14.8-0.1c0.1,0.1,0.5,0.2,0.9,0.2C-37.7,91-35.7,91-34,91
					c1.7,0,3.5,0,5.2,0c3.4,0,6.8,0,10.2,0.1c6.9,0,13.8,0.1,20.6,0.1c1.1,0,1.1-0.4,0-0.4c-1.3,0-2.6,0-3.9-0.1c0.9,0,1.8,0,2.8,0
					c1.1,0,2.2,0,3.4,0c0.3,0,0.6,0,0.7,0c0.3,0,0.5,0,0.8,0c0.5,0,0.6-0.2,0.6-0.2c1.3,0,0.7-0.4-1.3-0.5c-0.7,0-1.4,0-2.1,0
					c-0.1,0-0.3,0-0.5,0c-1.1,0-2.1,0-3.2,0c0.7,0,1.3-0.3,0.3-0.3c-1.6-0.1-3.4-0.1-5.1-0.1c-1.7,0-3.5,0-5.2,0c-2.2,0-4.4,0-6.6,0
					c0-0.1-0.3-0.2-1-0.2c-4.7-0.1-9.5-0.2-14.2-0.2c-2.3,0-4.7,0-7,0c-2.3,0-4.9,0-7.1,0c-0.6,0-0.9,0.1-0.9,0.2c0,0-0.1,0-0.1,0
					c-1.9,0-4-0.1-5.9,0c-0.9,0-1.5,0.3-0.4,0.4c-2.1,0-4.3,0-6.4,0c-2.6,0-5.3,0-7.9,0c-1.2,0-1.1,0.4,0.1,0.4c1.4,0,2.7,0,4.1,0
					c0,0,0,0,0,0c-0.6,0-1.1,0.1-0.9,0.2c0.2,0.1,0.7,0.1,1.3,0.2C-66.2,90.5-70.5,90.9-69.9,90.9z"/>
				<path class="st20" d="M36.1,74.5c-0.2-0.7-0.9-1.3-1.6-1.3c-0.6,0-1,0.6-0.8,1.3c0.2,0.7,0.9,1.3,1.6,1.3
					C35.9,75.7,36.3,75.1,36.1,74.5z"/>
				<path class="st20" d="M39.8,69.4c-0.3-0.7-0.9-1.2-1.6-1.2c-0.7,0-0.8,0.9-0.6,1.5c0.3,0.7,0.9,1.2,1.6,1.2
					C39.8,70.8,40,69.9,39.8,69.4z"/>
				<path class="st20" d="M42.1,77.1c-0.1-0.7-0.9-1.3-1.5-1.3c-0.6,0-1.2,0.5-1,1.2c0.1,0.7,0.9,1.3,1.5,1.3
					C41.7,78.3,42.2,77.8,42.1,77.1z"/>
				<path class="st20" d="M46.1,69.6c-1.3,0-1.3,3.1,0,3.1C47.4,72.7,47.4,69.6,46.1,69.6z"/>
				<path class="st20" d="M47.5,83.7c-1.6,0,0.7,2.9,2,2.9C51.1,86.6,48.8,83.7,47.5,83.7z"/>
				<path class="st20" d="M52.1,81.7c-0.2-0.7-0.8-1.1-1.5-1.2c0.4-0.2,0.7-0.6,0.6-1.1c-0.1-0.8-1-1-1.6-1c-0.6,0-1.2,0.5-1.1,1.3
					c0.1,0.8,1,1,1.6,1c-0.4,0.3,0.9,0.9,1.1,1.4c0.3,0.8,0.9,1.2,1.6,1.2C53.4,83.2,52.2,82.3,52.1,81.7z"/>
				<path class="st20" d="M54.1,74.3c-0.1-0.7-0.9-1.2-1.6-1.2c-0.6,0-1.1,0.4-1,1.1c0.1,0.7,0.9,1.2,1.6,1.2
					C53.7,75.4,54.3,75,54.1,74.3z"/>
				<path class="st20" d="M42.6,84.9c-1.5,0-1,3,0.3,3C44.4,87.9,43.9,84.9,42.6,84.9z"/>
				<path class="st20" d="M33.1,82c-0.7,0-1.2,0.5-1.2,1.3c0,0.7,4.9,1.6,5.6,1.6c0.7,0-0.5-0.5-0.5-1.3C37,83,33.8,82,33.1,82z"/>
				<path class="st20" d="M42.7,66.6c-1.7,0-1.1,2.8,0.4,2.8C44.8,69.5,44.2,66.6,42.7,66.6z"/>
				<path class="st20" d="M31.2,66.3c-0.2-0.8-0.9-1.2-1.6-1.2c-0.7,0-1.2,0.8-1,1.5c0.2,0.8,0.9,1.2,1.6,1.2
					C30.8,67.7,31.3,67,31.2,66.3z"/>
				<path class="st20" d="M45.6,59.2c-1.4,0-1.2,3.1,0.2,3.1C47.2,62.2,47,59.2,45.6,59.2z"/>
				<path class="st20" d="M55.8,66.3c-1.3,0-1.5,3-0.1,3C57,69.3,57.3,66.3,55.8,66.3z"/>
				<path class="st20" d="M38.8,61.6c-0.1-0.8-0.8-1.3-1.5-1.3c-0.7,0-1.2,0.6-1.1,1.4c0.1,0.8,0.8,1.3,1.5,1.3
					C38.3,63,38.9,62.4,38.8,61.6z"/>
				<path class="st20" d="M30.4,73.4c-1.4,0-1.2,3.1,0.2,3.1C32,76.5,31.8,73.4,30.4,73.4z"/>
				<path class="st20" d="M38.7,80.6c-0.2-0.8-1-1.2-1.6-1.2c-0.6,0-1.1,0.6-1,1.3c0.2,0.8,2.3,1.2,3,1.2
					C39.7,81.9,38.9,81.3,38.7,80.6z"/>
				<path class="st20" d="M47.4,75.4c-1.3,0-1.9,3-0.5,3C48.2,78.3,48.8,75.4,47.4,75.4z"/>
				<path class="st20" d="M32,59.2c-1.3,0-1.5,3,0,3C33.3,62.2,33.5,59.2,32,59.2z"/>
				<path class="st20" d="M42.2,57.1c-0.7,0-1.2,0.6-1.4,1.3C40.7,59,40.8,60,41.5,60c0.7,0,1.2-0.6,1.4-1.3
					C43,58.1,42.9,57.1,42.2,57.1z"/>
				<path class="st20" d="M55.2,58c-1.5,0-0.9,3,0.4,3C57,61,56.5,58,55.2,58z"/>
				<path class="st20" d="M37.3,53.5c-1.7,0-1.2,3,0.3,3C39.2,56.5,38.8,53.5,37.3,53.5z"/>
				<path class="st20" d="M25.5,69c-0.1-0.8-0.9-1.1-1.5-1.1c-0.6,0-1.3,0.5-1.2,1.3c0.1,0.8,0.9,1.1,1.5,1.1
					C24.9,70.2,25.6,69.7,25.5,69z"/>
				<path class="st20" d="M25.6,76.1C24,76.1,24.5,79,26,79C27.7,79,27.1,76.1,25.6,76.1z"/>
				<path class="st20" d="M26.7,59.4c-1.6,0-1.1,3,0.4,3C28.7,62.4,28.2,59.4,26.7,59.4z"/>
				<path class="st20" d="M32.6,54.5c-0.2-0.7-0.8-1.3-1.5-1.3c-0.7,0-0.9,0.8-0.7,1.4c0.2,0.7,0.8,1.3,1.5,1.3
					C32.6,55.9,32.8,55.1,32.6,54.5z"/>
				<path class="st20" d="M46,51.8c-1.5,0-0.8,3,0.5,3C48,54.8,47.4,51.8,46,51.8z"/>
				<path class="st20" d="M40.6,50.3c-0.2-0.7-1-1.2-1.6-1.2c-0.6,0-1.1,0.4-1,1.1c0.2,0.7,1,1.2,1.6,1.2
					C40.2,51.4,40.8,51,40.6,50.3z"/>
				<path class="st20" d="M32.4,48.1c-1.6,0-1,2.9,0.4,2.9C34.4,51,33.8,48.1,32.4,48.1z"/>
				<path class="st20" d="M25.3,54.2c-1.4,0-0.5,2.9,0.7,2.9C27.3,57.2,26.5,54.2,25.3,54.2z"/>
				<path class="st20" d="M22.4,63.3c-1.8,0-0.9,2.4,0.5,2.4C24.7,65.7,23.8,63.3,22.4,63.3z"/>
				<path class="st20" d="M21.4,74.3c-1.7,0-1,2.8,0.4,2.8C23.6,77,22.8,74.3,21.4,74.3z"/>
				<path class="st20" d="M31.6,84.3c-0.3-0.8-3.7-1.1-4.4-1.1c-0.7,0,1.8,0.8,2,1.4c0.3,0.8,2.6,1.1,3.3,1.1
					C33.1,85.7,31.8,84.9,31.6,84.3z"/>
				<path class="st23" d="M10.4,87.9c-0.2-0.7-0.9-1.3-1.6-1.3c-0.6,0-1,0.6-0.8,1.3c0.2,0.7,0.9,1.3,1.6,1.3
					C10.2,89.2,10.6,88.6,10.4,87.9z"/>
				<path class="st23" d="M9.7,82.8c-0.3-0.7-0.9-1.2-1.6-1.2c-0.7,0,0.8,0.9,1,1.5c0.3,0.7,2,1.2,2.7,1.2
					C12.5,84.3,9.9,83.4,9.7,82.8z"/>
				<path class="st23" d="M16.4,90.5c-0.1-0.7-0.9-1.3-1.5-1.3c-0.6,0-1.2,0.5-1,1.2c0.1,0.7,0.9,1.3,1.5,1.3
					C16,91.8,16.6,91.3,16.4,90.5z"/>
				<path class="st23" d="M16,83.1c-1.3,0,3.1,3.1,4.4,3.1C21.8,86.1,17.3,83.1,16,83.1z"/>
				<path class="st23" d="M17.7,97.2c-1.6,0-1,2.9,0.4,2.9C19.7,100.1,19,97.2,17.7,97.2z"/>
				<path class="st23" d="M26.4,95.1c-0.2-0.7-0.8-1.1-1.5-1.2c0.4-0.2,0.7-0.6,0.6-1.1c-0.1-0.8-1-1-1.6-1c-0.6,0-1.2,0.5-1.1,1.3
					c0.1,0.8,1,1,1.6,1c-0.4,0.3-0.4,0.9-0.3,1.4c0.3,0.8,0.9,1.2,1.6,1.2C26.4,96.6,26.6,95.7,26.4,95.1z"/>
				<path class="st23" d="M28.4,87.7c-0.1-0.7-0.9-1.2-1.6-1.2c-0.6,0-1.1,0.4-1,1.1c0.1,0.7,0.9,1.2,1.6,1.2
					C28,88.9,28.6,88.5,28.4,87.7z"/>
				<path class="st23" d="M11.2,98.3c-1.5,0-1,3,0.3,3C13,101.3,12.5,98.3,11.2,98.3z"/>
				<path class="st23" d="M6,95.5c-0.7,0-1.2,0.5-1.2,1.3c0,0.7,0.5,1.6,1.2,1.6c0.7,0,1.2-0.5,1.2-1.3C7.2,96.4,6.7,95.5,6,95.5z"
					/>
				<path class="st23" d="M11.3,80.1c-1.7,0,0.2,2.8,1.7,2.8C14.8,82.9,12.8,80.1,11.3,80.1z"/>
				<path class="st23" d="M5.5,79.7c-0.2-0.8-0.9-1.2-1.6-1.2c-0.7,0-1.2,0.8-1,1.5c0.2,0.8,0.9,1.2,1.6,1.2
					C5.1,81.2,5.6,80.4,5.5,79.7z"/>
				<path class="st23" d="M14.1,72.6c-1.4,0-1.2,3.1,0.2,3.1C15.7,75.7,15.6,72.6,14.1,72.6z"/>
				<path class="st23" d="M24.4,79.8c-1.3,0-0.2,3,1.3,3C26.9,82.8,25.8,79.8,24.4,79.8z"/>
				<path class="st23" d="M8.7,75.1c-0.1-0.8,0.8-1.3,0.1-1.3c-0.7,0-1.2,0.6-1.1,1.4c0.1,0.8,0.8,1.3,1.5,1.3
					C9.9,76.4,8.8,75.8,8.7,75.1z"/>
				<path class="st23" d="M4.7,86.9c-1.4,0-1.2,3.1,0.2,3.1C6.3,89.9,6.1,86.9,4.7,86.9z"/>
				<path class="st23" d="M13,94c-0.2-0.8-1-1.2-1.6-1.2c-0.6,0-1.1,0.6-1,1.3c0.2,0.8,1,1.2,1.6,1.2C12.7,95.3,13.2,94.7,13,94z"/>
				<path class="st23" d="M20.7,80.2c-0.2-0.8-0.9-1.2-1.6-1.2c-0.7,0-1,0.7-0.8,1.4c0.2,0.8,0.9,1.2,1.6,1.2
					C20.5,81.6,20.9,80.9,20.7,80.2z"/>
				<path class="st23" d="M21.7,88.8c-1.3,0-1.9,3-0.5,3C22.5,91.8,23.1,88.8,21.7,88.8z"/>
				<path class="st23" d="M6.3,72.6c-1.3,0-1.5,3,0,3C7.6,75.7,7.8,72.6,6.3,72.6z"/>
				<path class="st23" d="M10.8,70.5c-0.7,0-1.2,0.6-1.4,1.3c-0.1,0.5-0.1,1.6,0.6,1.6c0.7,0,1.2-0.6,1.4-1.3
					C11.6,71.6,11.5,70.5,10.8,70.5z"/>
				<path class="st23" d="M23.7,71.5c-1.5,0-0.9,3,0.4,3C25.6,74.4,25,71.5,23.7,71.5z"/>
				<path class="st23" d="M8.9,67c-1.7,0-1.2,3,0.3,3C9.2,69.9,8.7,67,8.9,67z"/>
				<path class="st23" d="M0,89.5c-1.7,0-1.1,2.9,0.4,2.9C2,92.5,1.4,89.5,0,89.5z"/>
				<path class="st23" d="M1,72.9c-1.6,0-1.1,3,0.4,3C3,75.9,2.5,72.9,1,72.9z"/>
				<path class="st23" d="M6.9,67.9c-0.2-0.7-0.8-1.3-1.5-1.3c-0.7,0-0.9,0.8-0.7,1.4c0.2,0.7,0.8,1.3,1.5,1.3
					C6.9,69.3,7.1,68.5,6.9,67.9z"/>
				<path class="st23" d="M14.6,65.3c-1.5,0-0.8,3,0.5,3C16.6,68.3,15.9,65.3,14.6,65.3z"/>
				<path class="st23" d="M22,72c-0.1-0.8-0.8-1.4-1.5-1.4c-0.7,0-1.2,0.7-1,1.4c0.1,0.8,0.8,1.4,1.5,1.4C21.7,73.4,22.1,72.7,22,72
					z"/>
				<path class="st23" d="M9.2,63.7C9,63,9.6,62.5,9,62.5c-0.6,0-1.1,0.4-1,1.1c0.2,0.7-0.4,1.2,0.2,1.2C8.8,64.9,9.3,64.4,9.2,63.7
					z"/>
				<path class="st23" d="M6.7,61.5c-1.6,0-1,2.9,0.4,2.9C8.7,64.4,8.1,61.5,6.7,61.5z"/>
				<path class="st23" d="M-0.4,67.7c-1.4,0-0.5,2.9,0.7,2.9C1.6,70.6,0.8,67.7-0.4,67.7z"/>
				<path class="st23" d="M1.8,97.7c-0.3-0.8-1-1.1-1.7-1.1c-0.7,0-1,0.8-0.8,1.4c0.3,0.8,1,1.1,1.7,1.1C1.7,99.2,2,98.4,1.8,97.7z"
					/>
				<path class="st21" d="M34.4,16.2c-0.2-0.7-0.9-1.3-1.6-1.3c-0.6,0-1,0.6-0.8,1.3c0.2,0.7,0.9,1.3,1.6,1.3
					C34.2,17.5,34.5,16.8,34.4,16.2z"/>
				<path class="st21" d="M38.1,11.1c-0.3-0.7-0.9-1.2-1.6-1.2c-0.7,0-0.8,0.9-0.6,1.5c0.3,0.7,0.9,1.2,1.6,1.2
					C38.1,12.6,38.2,11.6,38.1,11.1z"/>
				<path class="st21" d="M40.4,18.8c-0.1-0.7-0.9-1.3-1.5-1.3c-0.6,0-1.2,0.5-1,1.2c0.1,0.7,0.9,1.3,1.5,1.3
					C39.9,20.1,40.5,19.6,40.4,18.8z"/>
				<path class="st21" d="M44.3,11.3c-1.3,0-1.3,3.1,0,3.1C45.7,14.4,45.7,11.3,44.3,11.3z"/>
				<path class="st21" d="M41.6,25.4c-1.6,0-1,2.9,0.4,2.9C43.6,28.3,43,25.4,41.6,25.4z"/>
				<path class="st21" d="M50.3,23.4c-0.2-0.7-0.8-1.1-1.5-1.2c0.4-0.2,0.7-0.6,0.6-1.1c-0.1-0.8-1-1-1.6-1c-0.6,0-1.2,0.5-1.1,1.3
					c0.1,0.8,1,1,1.6,1c-0.4,0.3-0.4,0.9-0.3,1.4c0.3,0.8,0.9,1.2,1.6,1.2C50.3,24.9,50.5,24,50.3,23.4z"/>
				<path class="st21" d="M52.4,16c-0.1-0.7-0.9-1.2-1.6-1.2c-0.6,0-1.1,0.4-1,1.1c0.1,0.7,0.9,1.2,1.6,1.2
					C51.9,17.1,52.5,16.8,52.4,16z"/>
				<path class="st21" d="M35.1,26.6c-1.5,0-1,3,0.3,3C36.9,29.6,36.4,26.6,35.1,26.6z"/>
				<path class="st21" d="M30,23.7c-0.7,0-1.2,0.5-1.2,1.3c0,0.7,0.5,1.6,1.2,1.6c0.7,0,1.2-0.5,1.2-1.3
					C31.2,24.7,30.6,23.7,30,23.7z"/>
				<path class="st21" d="M41,8.4c-1.7,0-1.1,2.8,0.4,2.8C43.1,11.2,42.5,8.4,41,8.4z"/>
				<path class="st21" d="M29.4,8c-0.2-0.8-0.9-1.2-1.6-1.2c-0.7,0-1.2,0.8-1,1.5c0.2,0.8,0.9,1.2,1.6,1.2C29.1,9.4,29.6,8.7,29.4,8
					z"/>
				<path class="st21" d="M43.8,0.9C42.4,0.9,42.6,4,44,4C45.4,4,45.3,0.9,43.8,0.9z"/>
				<path class="st21" d="M54.1,8c-1.3,0-1.5,3-0.1,3C55.3,11.1,55.5,8,54.1,8z"/>
				<path class="st21" d="M37,3.4C36.9,2.6,36.2,2,35.5,2c-0.7,0-1.2,0.6-1.1,1.4c0.1,0.8,0.8,1.3,1.5,1.3C36.5,4.7,37.1,4.1,37,3.4
					z"/>
				<path class="st21" d="M28.6,15.1c-1.4,0-1.2,3.1,0.2,3.1C30.3,18.2,30.1,15.1,28.6,15.1z"/>
				<path class="st21" d="M37,22.3c-0.2-0.8-1-1.2-1.6-1.2c-0.6,0-1.1,0.6-1,1.3c0.2,0.8,1,1.2,1.6,1.2C36.6,23.6,37.2,23,37,22.3z"
					/>
				<path class="st21" d="M50.4,8.5c-0.2-0.8-0.9-1.2-1.6-1.2c-0.7,0-1,0.7-0.8,1.4c0.2,0.8,0.9,1.2,1.6,1.2
					C50.2,9.9,50.6,9.2,50.4,8.5z"/>
				<path class="st21" d="M45.6,17.1c-1.3,0-1.9,3-0.5,3C46.4,20.1,47.1,17.1,45.6,17.1z"/>
				<path class="st21" d="M30.2,0.9c-1.3,0-1.5,3,0,3C31.5,3.9,31.7,0.9,30.2,0.9z"/>
				<path class="st21" d="M40.5-1.2c-0.7,0-1.2,0.6-1.4,1.3c-0.1,0.5-0.1,1.6,0.6,1.6c0.7,0,1.2-0.6,1.4-1.3
					C41.3-0.1,41.2-1.2,40.5-1.2z"/>
				<path class="st21" d="M53.4-0.3c-1.5,0-0.9,3,0.4,3C55.3,2.7,54.7-0.3,53.4-0.3z"/>
				<path class="st21" d="M23.8,10.7c-0.1-0.8-0.9-1.1-1.5-1.1c-0.6,0-1.3,0.5-1.2,1.3c0.1,0.8,0.9,1.1,1.5,1.1
					C23.2,11.9,23.9,11.4,23.8,10.7z"/>
				<path class="st21" d="M23.9,17.8c-1.7,0-1.1,2.9,0.4,2.9C26,20.8,25.4,17.8,23.9,17.8z"/>
				<path class="st21" d="M25,1.1c-1.6,0-1.1,3,0.4,3C26.9,4.2,26.4,1.1,25,1.1z"/>
				<path class="st21" d="M51.7,0.3c-0.1-0.8-0.8-1.4-1.5-1.4c-0.7,0-1.2,0.7-1,1.4c0.1,0.8,0.8,1.4,1.5,1.4
					C51.4,1.7,51.8,1,51.7,0.3z"/>
				<path class="st21" d="M20.7,5c-1.8,0-0.9,2.4,0.5,2.4C22.9,7.4,22.1,5,20.7,5z"/>
				<path class="st21" d="M19.7,16c-1.7,0-1,2.8,0.4,2.8C21.8,18.8,21.1,16,19.7,16z"/>
				<path class="st21" d="M25.7,26c-0.3-0.8-1-1.1-1.7-1.1c-0.7,0-1,0.8-0.8,1.4c0.3,0.8,1,1.1,1.7,1.1C25.6,27.5,25.9,26.6,25.7,26
					z"/>
				<path class="st20" d="M83.7,38.4c-0.4,0-0.8,0.2-1.2,0.3c-0.3,0.1-0.7,0.1-1.1,0c-0.7-0.2-1.4-0.6-1.7-1.4
					c-0.3-0.6-0.3-1.4,0.1-2c0.4-0.6,1.2-0.9,1.8-0.6c0.5,0.3,0.8-0.9,0.4-1.1c-0.9-0.6-2-0.4-2.8,0.3c-0.9,0.9-1.2,2.4-0.8,3.6
					c0.4,1.3,1.2,2.4,2.3,2.9c1,0.5,2.7,0.6,3.5-0.5C84.6,39.6,84.5,38.4,83.7,38.4z"/>
				<path class="st23" d="M36,34.6c0.2,0,0.4,0,0.6,0c0.6-0.1,0.9-0.5,0.9-0.9c0.4-0.5,0.8-1.1,0-1.5c-0.1-0.1-0.3-0.1-0.4-0.2
					C36.9,32,36.7,32,36.6,32c-0.1,0-0.2,0-0.3,0c-0.3,0-0.7,0.1-1,0.2c0,0,0,0,0,0c0,0-0.1-0.1-0.1-0.1c-0.1,0-0.1-0.1-0.2-0.1
					c-0.1,0-0.2-0.1-0.3-0.1c0,0,0,0,0,0c-0.2-0.2-0.8-0.1-1,0.1c-0.3,0.3-0.4,0.7-0.3,1.1c0,0-0.1,0.1-0.1,0.1c0,0,0,0.1,0,0.1
					c-0.1,0.3-0.1,0.5,0.1,0.8c0.3,0.4,0.9,0.7,1.6,0.7C35.5,34.8,35.8,34.8,36,34.6z"/>
				<path class="st23" d="M28,34.7c0.5-0.4,0.6-0.9,0.5-1.3c0-0.2,0-0.3-0.1-0.5c0.1-0.1,0.1-0.2,0.1-0.3c-0.1-0.2-0.3-0.3-0.5-0.3
					c0,0-0.1-0.1-0.1-0.1c-0.5-0.4-1.6-0.3-2,0.1c0,0-0.1,0-0.1,0c-0.3,0-0.5,0.1-0.6,0.3c0,0,0,0,0,0c-0.2,0-0.4,0.1-0.5,0.1
					c-0.7,0.3-1,0.9-0.3,1.2c0.3,0.1,0.7,0.2,1,0.1c0,0,0,0.1,0.1,0.1c0,0,0,0.1-0.1,0.1c-0.1,0.1,0.2,0.3,0.4,0.3
					c0,0,0.1,0.1,0.1,0.1C26.4,35.2,27.5,35.1,28,34.7z"/>
				<path class="st23" d="M18.6,34.4c0,0,0.1,0,0.1,0c0.6,0.2,1.3-0.1,1-0.5c0-0.1,0-0.2,0-0.2c0,0,0.1,0,0.1,0
					c0.3-0.2,0.5-0.4,0.4-0.6c-0.1-0.2-0.4-0.3-0.7-0.4c0,0-0.1-0.1-0.2-0.1c-0.1-0.2-0.5-0.4-0.9-0.4c-0.3-0.1-0.6-0.1-0.9-0.1
					c-0.2,0-0.4,0.1-0.6,0.1c-0.4,0-0.8,0.1-1,0.3c-0.5,0.3-0.5,0.8,0,1.1c0,0,0.1,0.1,0.1,0.1c0.1,0.2,0.2,0.4,0.4,0.6
					C16.9,34.6,17.8,34.6,18.6,34.4z"/>
				<path class="st23" d="M9.8,34.6c0.2-0.1,0.4-0.3,0.5-0.5c0,0,0.1-0.1,0.1-0.1c0.1-0.1,0.1-0.2,0.1-0.3c0.1-0.1,0.1-0.2,0.1-0.3
					c0.1-0.3,0.3-0.8-0.5-0.9c0,0-0.1,0-0.1,0c-0.2-0.1-0.5-0.2-0.7-0.3c0.3-0.1,0.4-0.3,0-0.4c-0.7-0.1,0.3,0.2,0,0.5
					c-0.1,0.1-0.5,0.2-0.6,0.2c-0.2,0.1-0.4,0.1-0.5,0.3c-0.4,0.4-0.4,1,0.1,1.3c0.3,0.2-0.7,0.3-0.2,0.3c0.1,0.1,0.3,0.3,0.6,0.3
					C9.1,34.8,9.5,34.7,9.8,34.6z"/>
				<path class="st23" d="M7.4,34.4c0.5-0.3,0.5-0.6,0.2-0.9c0.4-0.4,0-1-0.9-1.2c-0.4-0.1-0.8-0.1-1.2-0.1c0,0-0.1,0-0.1-0.1
					c-0.1,0-0.1,0-0.2,0c-0.1,0-0.2,0-0.3,0c-0.1,0-0.1,0-0.2,0c-0.1,0-0.2,0-0.3,0.1c0,0-0.1,0-0.1,0.1c-0.1,0.1-0.1,0.1-0.1,0.2
					c0,0.1,0,0.2,0.1,0.2c0,0,0,0,0.1,0.1c0,0-0.1,0-0.1,0.1c-0.5,0.4-1,1.1-0.2,1.5c0.4,0.3,1,0.3,1.6,0.3c0.1,0,0.3,0,0.5,0.1
					C6.5,34.7,7,34.6,7.4,34.4z"/>
				<path class="st23" d="M-1.2,34.4C-1.2,34.4-1.2,34.5-1.2,34.4c0.2,0,0.3,0,0.4,0c0.2,0,0.3,0,0.4-0.1c0.2,0,0.3,0,0.4-0.1
					c0.2-0.1,0.4-0.2,0.4-0.3c0-0.1,0-0.1,0-0.1c0,0,0,0,0,0c0.1-0.1,0.1-0.1,0.1-0.2c0-0.1,0-0.1,0-0.2c0,0,0-0.1-0.1-0.1
					c0,0,0,0,0,0c0.1,0,0.2-0.1,0.2-0.2c0.2-0.3,0.2-0.8-0.6-0.9c-0.2,0-0.4,0-0.6,0c0,0-0.1,0-0.1-0.1C-1.2,32-2,31.9-2.6,32.2
					c-0.3,0-0.7,0.1-0.8,0.2c-0.1,0-0.2,0.1-0.2,0.1c0,0-0.1,0-0.1,0.1c0,0,0,0,0,0c0,0,0,0,0,0c0,0,0,0,0,0c-0.1,0.1-0.1,0.1,0,0.2
					c0,0,0.1,0.1,0.1,0.1c0,0,0.1,0,0.1,0.1c0,0,0,0,0,0c0,0,0,0-0.1,0.1c-0.4,0.5-0.2,1,0.3,1.5C-2.8,35-1.6,34.9-1.2,34.4z"/>
				<path class="st23" d="M2,35.7C1.6,36,1.5,36.5,1.5,37c0,0.2,0,0.3,0.1,0.5c-0.1,0.1-0.1,0.2-0.1,0.3C1.6,37.9,1.8,38,2,38.1
					c0,0,0.1,0.1,0.1,0.1c0.5,0.4,1.6,0.3,2-0.1c0,0,0.1,0,0.1,0c0.3,0,0.5-0.1,0.6-0.3c0,0,0,0,0,0c0.2,0,0.4-0.1,0.5-0.1
					c0.7-0.3,1-0.9,0.3-1.2c-0.3-0.1-0.7-0.2-1-0.1c0,0,0-0.1-0.1-0.1c0,0,0-0.1,0.1-0.1c0.1-0.1-0.2-0.3-0.4-0.3
					c0,0-0.1-0.1-0.1-0.1C3.7,35.2,2.6,35.3,2,35.7z"/>
				<path class="st23" d="M8.8,36c0,0-0.1,0-0.1,0c-0.6-0.2-1.3,0.1-1,0.5c0,0.1,0,0.2,0,0.2c0,0-0.1,0-0.1,0
					c-0.3,0.2,0.6,0.4,0.7,0.6c0.1,0.2-0.7,0.3-0.4,0.4c0,0,0.1,0.1,0.2,0.1c0.1,0.2,0.5,0.4,0.9,0.4c0.3,0.1-1,0.1-0.7,0.1
					c0.2,0,0.4-0.1,0.6-0.1c0.4,0-0.6-0.1-0.3-0.3c0.5-0.3,0.5-0.8,0.1-1.1c0,0-0.1-0.1-0.1-0.1c-0.1-0.2-0.2-0.4-0.4-0.6
					C7.5,35.8,9.5,35.8,8.8,36z"/>
				<path class="st23" d="M14.5,35.8c-0.2,0.1-0.4,0.3-0.5,0.5c0,0-0.1,0.1-0.1,0.1c-0.1,0.1-0.1,0.2-0.1,0.3
					c-0.1,0.1-0.1,0.2-0.1,0.3c-0.1,0.3-0.3,0.8,0.5,0.9c0,0,0.1,0,0.1,0c0.2,0.1,0.5,0.2,0.7,0.3c-0.3,0.1-0.4,0.3-0.1,0.4
					c0.7,0.2,1.3-0.2,1.7-0.5c0.1-0.1,0.2-0.2,0.3-0.2c0.2-0.1,0.4-0.1,0.5-0.3c0.4-0.4,0.4-1-0.1-1.3C17,36.1,16.6,36,16.2,36
					c-0.1-0.1-0.3-0.3-0.6-0.3C15.2,35.6,14.8,35.7,14.5,35.8z"/>
				<path class="st23" d="M22.7,36.1c-0.5,0.3-0.5,0.6-0.2,0.9c-0.4,0.4,0,1,0.9,1.2c0.4,0.1,0.8,0.1,1.2,0.1c0,0,0.1,0,0.1,0.1
					c0.1,0,0.1,0,0.2,0c0.1,0,0.2,0,0.3,0c0.1,0,0.1,0,0.2,0c0.1,0,0.2,0,0.3-0.1c0,0,0.1,0,0.1-0.1c0.1-0.1,0.1-0.1,0.1-0.2
					c0-0.1,0-0.2-0.1-0.2c0,0,0,0-0.1-0.1c0,0,0.1,0,0.1-0.1c0.5-0.4,1-1.1,0.2-1.5c-0.4-0.3-1-0.3-1.6-0.3c-0.1,0-0.3-0.1-0.5-0.1
					C23.6,35.8,23,35.9,22.7,36.1z"/>
				<path class="st23" d="M31.3,36C31.3,36,31.2,36,31.3,36c-0.2,0-0.3,0-0.4,0c-0.2,0-0.3,0-0.4,0.1c-0.2,0-0.3,0-0.4,0.1
					c-0.2,0.1-0.4,0.2-0.4,0.3c0,0.1,0,0.1,0,0.1c0,0,0,0,0,0c-0.1,0.1-0.1,0.1-0.1,0.2c0,0.1,0,0.1,0,0.2c0,0,0,0.1,0.1,0.1
					c0,0,0,0,0,0c-0.1,0-0.2,0.1-0.2,0.2c-0.2,0.3-0.2,0.8,0.6,0.9c0.2,0,0.4,0,0.6,0c0,0,0.1,0,0.1,0.1c0.5,0.3,1.3,0.4,1.9,0.1
					c0.3,0,0.7-0.1,0.8-0.2c0.1,0,0.2-0.1,0.2-0.1c0,0,0.1,0,0.1-0.1c0,0,0,0,0,0c0,0,0,0,0,0c0,0,0,0,0,0c0.1-0.1,0.1-0.1,0.1-0.2
					c0,0-0.1-0.1-0.1-0.1c0,0-0.1,0-0.1-0.1c0,0,0,0,0,0c0,0,0,0,0.1-0.1c0.4-0.5,0.2-1-0.3-1.5C32.9,35.5,31.7,35.5,31.3,36z"/>
				<path class="st21" d="M81.3,93c0.4-0.2,0.7-0.5,0.9-0.8c0.1-0.1,0.1-0.1,0.2-0.2c0.1-0.1,0.2-0.3,0.2-0.5
					c0.1-0.2,0.2-0.4,0.2-0.6c0.2-0.6,0.5-1.4-0.8-1.6c-0.1,0-0.1,0-0.2,0c-0.3-0.2-0.8-0.4-1.3-0.5c0.5-0.2,0.7-0.6,0.1-0.8
					c-1.3-0.3-2.3,0.3-3,0.8c-0.2,0.1-0.3,0.3-0.5,0.4c-0.4,0.1-0.7,0.3-0.9,0.5c-0.8,0.6-0.6,1.8,0.2,2.4c0.5,0.4,1.3,0.5,2,0.5
					c0.3,0.3,0.6,0.5,1.1,0.6C80.1,93.4,80.8,93.2,81.3,93z"/>
				<path class="st21" d="M66.6,92.5c0.8-0.5,0.9-1.1,0.4-1.6c0.7-0.8-0.1-1.8-1.6-2.2c-0.7-0.2-1.5-0.2-2.1-0.1
					c-0.1,0-0.1-0.1-0.2-0.1c-0.1,0-0.2-0.1-0.3-0.1c-0.2,0-0.4-0.1-0.6,0c-0.1,0-0.3,0-0.4,0c-0.2,0-0.3,0.1-0.5,0.1
					c-0.1,0-0.2,0.1-0.3,0.1c-0.1,0.1-0.2,0.2-0.3,0.3c-0.1,0.2,0,0.3,0.1,0.4c0,0,0.1,0.1,0.1,0.1c-0.1,0-0.1,0.1-0.2,0.1
					c-0.9,0.8-1.7,1.9-0.4,2.8c0.8,0.5,1.8,0.6,2.8,0.5c0.2,0.1,0.5,0.1,0.8,0.1C65,93.1,66,92.9,66.6,92.5z"/>
				<path class="st21" d="M51.2,92.7C51.2,92.7,51.2,92.7,51.2,92.7c0.3,0.1,0.5,0,0.7,0c0.3,0,0.6,0,0.8-0.1c0.3,0,0.5,0,0.8-0.1
					c0.4-0.1,0.7-0.3,0.7-0.5c0-0.1,0-0.2-0.1-0.3c0,0,0,0,0,0c0.1-0.1,0.1-0.2,0.2-0.3c0-0.1,0-0.2,0-0.3c0-0.1-0.1-0.1-0.1-0.2
					c0,0,0,0,0,0c0.2-0.1,0.3-0.2,0.3-0.3c0.3-0.6,0.3-1.5-1.1-1.7c-0.4-0.1-0.8,0-1.1,0c0,0-0.1-0.1-0.1-0.1
					c-0.9-0.6-2.3-0.7-3.4-0.2c-0.5,0-1.3,0.1-1.5,0.4c-0.2,0-0.3,0.1-0.4,0.2c-0.1,0-0.1,0.1-0.2,0.1c0,0,0,0-0.1,0.1c0,0,0,0,0,0
					c0,0,0,0,0,0c-0.1,0.1-0.2,0.3-0.1,0.4c0.1,0.1,0.1,0.2,0.2,0.2c0.1,0,0.2,0.1,0.2,0.1c0,0,0.1,0,0.1,0c0,0-0.1,0.1-0.1,0.1
					c-0.7,0.8-0.3,1.9,0.5,2.6C48.3,93.7,50.5,93.5,51.2,92.7z"/>
				<path class="st21" d="M42.7,95.7c-0.4,0-0.7,0-1.1,0.1c-1.1,0.2-1.6,0.9-1.7,1.5c-0.8,0.8-1.4,1.9,0,2.6
					c0.2,0.1,0.5,0.2,0.8,0.3c0.2,0.2,0.6,0.2,0.9,0.2c0.2,0,0.3,0,0.5,0c0.6,0,1.3-0.1,1.8-0.3c0,0,0,0,0,0c0,0.1,0.1,0.1,0.2,0.1
					c0.1,0.1,0.2,0.1,0.4,0.2c0.2,0.1,0.3,0.1,0.5,0.1c0,0,0,0,0,0c0.3,0.3,1.4,0.2,1.8-0.2c0.6-0.6,0.7-1.3,0.5-2
					c0.1-0.1,0.1-0.2,0.1-0.3c0-0.1,0-0.1,0-0.2c0.2-0.5,0.1-1-0.2-1.4c-0.5-0.6-1.5-1.3-2.9-1.3C43.6,95.3,43.1,95.5,42.7,95.7z"/>
				<path class="st21" d="M57,94.9c-0.8,0.6-1,1.5-1,2.3c0,0.3,0.1,0.6,0.2,0.9c-0.1,0.2-0.2,0.3-0.1,0.5c0.1,0.3,0.4,0.5,0.9,0.6
					c0.1,0.1,0.2,0.2,0.3,0.2c1,0.7,2.8,0.5,3.7-0.2c0.1,0,0.2,0,0.2,0c0.6,0,0.9-0.2,1.1-0.5c0,0,0,0,0,0c0.3,0,0.6-0.1,1-0.2
					c1.2-0.5,1.7-1.6,0.5-2.2c-0.5-0.2-1.2-0.3-1.8-0.3c0-0.1-0.1-0.2-0.1-0.3c0-0.1,0.1-0.2,0.1-0.2c0.1-0.3-0.4-0.5-0.8-0.6
					c-0.1-0.1-0.1-0.1-0.2-0.2C59.9,94,58,94.2,57,94.9z"/>
				<path class="st21" d="M74,95.5c-0.1,0-0.1-0.1-0.2-0.1c-1.1-0.4-2.4,0.2-1.7,0.8c0,0.1,0,0.3,0,0.4c-0.1,0-0.1,0-0.2,0.1
					c-0.6,0.3-0.9,0.7-0.7,1.1c0.1,0.4,0.6,0.6,1.3,0.7c0.1,0.1,0.2,0.1,0.3,0.1c0.1,0.4,0.8,0.7,1.6,0.7c0.5,0.2,1.1,0.2,1.7,0.2
					c0.4,0,0.8-0.1,1.1-0.2c0.7,0,1.4-0.2,1.9-0.5c1-0.5,0.9-1.4,0.1-2c-0.1,0-0.1-0.1-0.2-0.1c-0.1-0.4-0.4-0.8-0.7-1
					C77.1,95.1,75.3,95.1,74,95.5z"/>
				<path class="st20" d="M9,66.9C9,66.9,9,66.9,9,66.9C9.1,67,9.1,67,9.1,67L9,66.9z"/>
				<path class="st20" d="M6.7,69.1C6.7,69.1,6.7,69.1,6.7,69.1C6.7,69.1,6.7,69.1,6.7,69.1z"/>
				<path class="st20" d="M3.5,58.9C3.6,58.9,3.6,58.9,3.5,58.9C3.6,58.9,3.6,58.9,3.5,58.9z"/>
				<path class="st20" d="M3.4,68.9C3.4,68.9,3.4,68.9,3.4,68.9C3.4,68.9,3.4,68.9,3.4,68.9L3.4,68.9z"/>
				<path class="st20" d="M0.7,68.9L0.7,68.9C0.6,68.9,0.7,68.9,0.7,68.9z"/>
				<path class="st18" d="M-9.3,30.4c2.2-2.2,5.1-3.5,8-3.7c2.9-0.2,5.9,0.7,8.3,2.6C1.5,31.3-3.7,31.2-9.3,30.4z"/>
				<path class="st18" d="M-6.6,32.8c6.1-0.9,9.9-0.2,15.6,2.6C2.4,37.4-0.8,36.9-6.6,32.8L-6.6,32.8z"/>
				<path class="st18" d="M7.9,48.6c-2.7-6.3-6.1-11.2-12-13.4C-1.1,41.4,2.1,46,7.9,48.6z"/>
				<path class="st18" d="M4.2,93.7c-3.9,1.7-8.6,1.1-12-1.6C-3.9,91.3,0.4,92.2,4.2,93.7z"/>
				<path class="st18" d="M3.2,90.8c-2.9,0.5-5.9-0.1-8.5-1.7s-4.6-4.2-5.8-7.2C-5.5,83.5-1.2,86.7,3.2,90.8z"/>
				<path class="st18" d="M2.1,87.1c-5.6-3-10.7-7.5-14.2-13.3C-5.7,76.1-0.9,80.1,2.1,87.1L2.1,87.1z"/>
				<path class="st18" d="M4.1,93.8c4.1-1.1,7.6-4.6,9-9.1C9.5,86.6,6.4,90.1,4.1,93.8z"/>
				<path class="st18" d="M3.4,90.7c2.6-1.5,3.1-3.9,4.4-6.9c1.3-3,0.6-6.4,0-9.6C4.1,79.1,4.9,84.5,3.4,90.7z"/>
				<path class="st18" d="M2.5,87c3.1-6.1,5-13.1,4.9-20C3.3,73,1.4,79.3,2.5,86.8L2.5,87z"/>
				<path class="st18" d="M-3.9,64C-4.7,71-2.8,78.2,1.2,83.6C1.5,76.6-0.3,69.7-3.9,64z"/>
				<path class="st18" d="M76-0.6c5.7,2.3,11.9,8,13.3,14.6C84.3,10.7,78.7,5.1,76-0.6z"/>
				<path class="st18" d="M74.5,3.6c3.5,2.6,7.9,6.5,9.4,11c1.4,4.5,1.5,9.5,0.2,14C79.5,20.9,75.9,12.8,74.5,3.6z"/>
				<path class="st18" d="M72.7,8.9c3.6,9.2,7,19.6,5.9,29.6C73.5,29.1,70,19.6,72.7,9L72.7,8.9z"/>
				<path class="st18" d="M76.1-0.6C70.7-3.7,64-3.7,58.7-0.4C64.2,1.6,70.5,1,76.1-0.6z"/>
				<path class="st18" d="M74.3,3.6c-4.1-1.2-8.5-0.8-12.4,1c-3.9,1.8-7.2,5.2-9.3,9.3C60.8,12.4,67.4,8.6,74.3,3.6z"/>
				<path class="st18" d="M72.7,9.4c-8.4,3.3-16.4,8.9-22.2,16.5c9.6-2.2,17.1-7,22.2-16.4L72.7,9.4z"/>
				<path class="st18" d="M59.8,40.4c6.6-6.8,10.7-16.7,10.9-26.8C64.4,20.9,60.7,30.3,59.8,40.4z"/>
			</g>
		</g>
		<path class="st12" d="M40.4,15.5h-4.2c2.2,1.2,0.9,4.7,1.2,6.4c0.1,0.9,1.4,2.1,2.8,2.1c1.4,0,2.5-1.2,2.6-2.1
			c0.2-1.8-1.1-5.2,1.1-6.4H40.4z"/>
		<path class="st4" d="M46.5,9.8c0,5.3-3.9,9.6-6.5,9.6c-2.5,0-6.5-4.3-6.5-9.6s3.2-7.3,7-7.3C44.2,2.5,46.5,4.5,46.5,9.8z"/>
		<ellipse class="st52" cx="37.8" cy="11.3" rx="0.8" ry="0.8"/>
		<path class="st52" d="M43.1,11.3c0,0.5-0.3,0.8-0.7,0.9c-0.4,0-0.8-0.3-0.8-0.8c0-0.5,0.3-0.8,0.7-0.9
			C42.7,10.5,43,10.8,43.1,11.3z"/>
		<path class="st10" d="M47.2,45.3C47.6,44.1,55,4,42.3,1.6c-0.9-0.2-3.1-0.1-3.8,0c-9.1,1.7-9.5,23.7-9.1,34
			c0.2,4.9,0.5,7.6,1,10.4c0,0.2,3.8-1.1,3.6-3.8c-0.2-3.4-0.5-12.6-0.6-16.8c-0.2-8.2,3.5-20.8,9-19.9c1.7,2.6,3,4.5,3.2,10.1
			c0.4,10.7-1.3,26.1-1.1,27.3C44.7,44.1,47.2,45.3,47.2,45.3z"/>
		<path class="st54" d="M31.8,34.8c0.1-4.6-0.1-26.1,6.5-30.8C30.2,7.6,31.9,30.1,31.8,34.8z"/>
		<path class="st54" d="M29.8,23.2c0.4-3.2,2.5-16.9,7.4-19.8C31.4,5.5,30.2,20,29.8,23.2z"/>
		<g class="st56">
			<path class="st64" d="M42.1,15c0,0.1-1,1.5-2.1,1.5c-1.2,0-2.1-1.4-2.1-1.5H42.1z"/>
		</g>
	</g>
</g>
</svg>
