<?xml version="1.0" encoding="utf-8"?>
<!-- Generator: Adobe Illustrator 21.0.0, SVG Export Plug-In . SVG Version: 6.00 Build 0)  -->
<svg version="1.1" xmlns="http://www.w3.org/2000/svg" xmlns:xlink="http://www.w3.org/1999/xlink" x="0px" y="0px"
	 viewBox="0 0 80 140" style="enable-background:new 0 0 80 140;" xml:space="preserve">
<style type="text/css">
	.st0{fill:#2A2C29;}
	.st1{fill:#334656;}
	.st2{fill:#202120;}
	.st3{fill:#363835;}
	.st4{fill:#FFC197;}
	.st5{fill:#F4F4F4;}
	.st6{fill:#B4C7E2;}
	.st7{display:none;}
	.st8{display:inline;}
	.st9{fill-rule:evenodd;clip-rule:evenodd;fill:#FFC197;}
	.st10{fill:#C17614;}
	.st11{fill:#AA6511;}
	.st12{fill:#F7B68B;}
	.st13{fill:#202020;}
	.st14{fill:#4CF2C3;}
	.st15{fill:#183666;}
	.st16{fill:#50E3C2;}
	.st17{clip-path:url(#SVGID_2_);}
	.st18{clip-path:url(#SVGID_4_);fill:#4CF2C3;}
	.st19{clip-path:url(#SVGID_4_);fill:#F389B8;}
	.st20{clip-path:url(#SVGID_4_);fill:#202020;}
	.st21{clip-path:url(#SVGID_4_);fill:#FFFFFF;}
	.st22{clip-path:url(#SVGID_4_);fill:#71CAFF;}
	.st23{clip-path:url(#SVGID_4_);fill:#A158DF;}
	.st24{clip-path:url(#SVGID_6_);}
	.st25{clip-path:url(#SVGID_8_);fill:#4CF2C3;}
	.st26{clip-path:url(#SVGID_8_);fill:#F389B8;}
	.st27{clip-path:url(#SVGID_8_);fill:#202020;}
	.st28{clip-path:url(#SVGID_8_);fill:#FFFFFF;}
	.st29{clip-path:url(#SVGID_8_);fill:#71CAFF;}
	.st30{clip-path:url(#SVGID_8_);fill:#A158DF;}
	.st31{clip-path:url(#SVGID_10_);}
	.st32{clip-path:url(#SVGID_12_);fill:#4CF2C3;}
	.st33{clip-path:url(#SVGID_12_);fill:#F389B8;}
	.st34{clip-path:url(#SVGID_12_);fill:#202020;}
	.st35{clip-path:url(#SVGID_12_);fill:#FFFFFF;}
	.st36{clip-path:url(#SVGID_12_);fill:#71CAFF;}
	.st37{clip-path:url(#SVGID_12_);fill:#A158DF;}
	.st38{clip-path:url(#SVGID_14_);}
	.st39{clip-path:url(#SVGID_16_);fill:#4CF2C3;}
	.st40{clip-path:url(#SVGID_16_);fill:#F389B8;}
	.st41{clip-path:url(#SVGID_16_);fill:#202020;}
	.st42{clip-path:url(#SVGID_16_);fill:#FFFFFF;}
	.st43{clip-path:url(#SVGID_16_);fill:#71CAFF;}
	.st44{clip-path:url(#SVGID_16_);fill:#A158DF;}
	.st45{clip-path:url(#SVGID_18_);}
	.st46{clip-path:url(#SVGID_20_);fill:#4CF2C3;}
	.st47{clip-path:url(#SVGID_20_);fill:#F389B8;}
	.st48{clip-path:url(#SVGID_20_);fill:#202020;}
	.st49{clip-path:url(#SVGID_20_);fill:#FFFFFF;}
	.st50{clip-path:url(#SVGID_20_);fill:#71CAFF;}
	.st51{clip-path:url(#SVGID_20_);fill:#A158DF;}
	.st52{fill:#305489;}
	.st53{fill:#FFFFFF;}
	.st54{fill:#C48233;}
	.st55{fill:#F3889A;}
	.st56{opacity:0.22;}
	.st57{clip-path:url(#SVGID_22_);}
	.st58{clip-path:url(#SVGID_24_);fill:#4CF2C3;}
	.st59{clip-path:url(#SVGID_24_);fill:#F389B8;}
	.st60{clip-path:url(#SVGID_24_);fill:#202020;}
	.st61{clip-path:url(#SVGID_24_);fill:#FFFFFF;}
	.st62{clip-path:url(#SVGID_24_);fill:#71CAFF;}
	.st63{clip-path:url(#SVGID_24_);fill:#A158DF;}
	.st64{fill:#F41414;}
</style>
<g id="Layer_35">
</g>
<g id="Layer_97">
	<g id="shadow">
		<g id="Layer_34">
		</g>
	</g>
</g>
<g id="Layer_96">
	<g id="right_leg">
		<g id="Layer_33">
		</g>
	</g>
</g>
<g id="Layer_95">
	<g id="right_shoes">
		<g id="Layer_32">
		</g>
	</g>
</g>
<g id="Layer_94">
	<g id="right_shoe_base">
		<g id="Layer_31">
		</g>
	</g>
</g>
<g id="Layer_93">
	<g id="left_leg">
		<g id="Layer_30">
		</g>
	</g>
</g>
<g id="Layer_92">
	<g id="left_shoes">
		<g id="Layer_29">
		</g>
	</g>
</g>
<g id="Layer_91">
	<g id="left_shoe_base">
		<g id="Layer_28">
		</g>
	</g>
</g>
<g id="Layer_90">
	<g id="hand">
		<g id="Layer_27">
		</g>
	</g>
</g>
<g id="Layer_89">
	<g id="Layer_60" class="st7">
		<g id="Layer_26" class="st8">
		</g>
	</g>
</g>
<g id="hand_1_">
</g>
<g id="shoulder">
</g>
<g id="palm">
	<g id="hand_bone">
		<g id="Layer_22">
		</g>
	</g>
	<g id="Layer_21">
	</g>
</g>
<g id="Layer_20">
</g>
<g id="Layer_82">
	<g id="finger_2">
		<g id="Layer_19">
		</g>
	</g>
</g>
<g id="Layer_81">
	<g id="finger">
		<g id="Layer_18">
		</g>
	</g>
</g>
<g id="Layer_80">
	<g id="left_hand">
		<g id="Layer_17">
		</g>
	</g>
</g>
<g id="Layer_79">
	<g id="pants">
		<g id="Layer_16">
		</g>
	</g>
</g>
<g id="Layer_78">
	<g id="brscelet">
		<g id="Layer_15">
		</g>
	</g>
</g>
<g id="Layer_77">
	<g id="tee">
		<g id="Layer_14">
		</g>
	</g>
</g>
<g id="Layer_99">
	<g id="tee_design">
		<g id="Layer_13">
		</g>
	</g>
</g>
<g id="Layer_75">
	<g id="Layer_46">
		<g id="Layer_12">
		</g>
	</g>
</g>
<g id="Layer_45">
	<g id="Layer_11">
	</g>
</g>
<g id="Layer_72">
	<g id="left_eye">
		<g id="Layer_9">
		</g>
	</g>
</g>
<g id="Layer_71">
	<g id="left_pupil">
		<g id="Layer_8">
		</g>
	</g>
</g>
<g id="Layer_70">
	<g id="right_eye">
		<g id="Layer_7">
		</g>
	</g>
</g>
<g id="Layer_68">
	<g id="right_pupil">
		<g id="Layer_6">
		</g>
	</g>
</g>
<g id="fridge">
	<g id="Layer_5">
	</g>
</g>
<g id="Layer_66">
	<g id="lips">
		<g id="Layer_4">
		</g>
	</g>
	<g>
		<ellipse class="st2" cx="40" cy="135.4" rx="37.6" ry="3.1"/>
		<rect x="45.9" y="113.7" class="st4" width="3.5" height="19.9"/>
		<path class="st5" d="M45.2,131.6v3.5h13.9c0,0-4.5-1.6-7.8-3.6c-0.1-0.1-1.9-0.1-2,0c-1.5,1.5-1.5,1.4-2.1,1.4
			C46.1,132.9,46.2,131.5,45.2,131.6z"/>
		
			<rect x="45.2" y="135.2" transform="matrix(-1 -4.508939e-11 4.508939e-11 -1 104.3655 271.3986)" class="st6" width="14" height="1.1"/>
		<polygon class="st4" points="28.5,112.7 28,132.8 31.5,132.8 31.5,113 		"/>
		<path class="st5" d="M32.2,131v3.5H18.3c0,0,4.5-1.6,7.8-3.6c0.1-0.1,1.9-0.1,2,0c1.5,1.5,1.5,1.4,2.1,1.4
			C31.3,132.2,31.3,130.8,32.2,131z"/>
		<rect x="18.3" y="134.5" class="st6" width="14" height="1.1"/>
		<path class="st11" d="M47.9,17.3c0.2-17.4-7.4-13-7.4-13l0-0.3c0,0-7.3-4-7.3,12.7l0.5,9.4h13.3"/>
		<path class="st4" d="M50.8,61.6c-1.4,4.3-2,8.9-2,13.4c0,0.4,0.2,1,0.5,0.7c1.2-2.3,1.5-4.9,2.3-7.4c0.9-2.8,2.2-5.6,3.4-8.3
			c1.2-2.4,2.4-4.9,2.7-7.7c0.2-1.6,0-3.2-0.2-4.8c-0.5-3.9-0.9-7.9-1.8-11.7c-0.4-2-0.9-3.9-1.7-5.7c-0.1-0.2-1.8-3.1-1.8-2.9
			c-0.4,3.3-1.5,7.1-0.8,10.2c0.3,1.3,0.6,2.6,1,3.9c0.9,3.3,1.8,6.5,1.3,10.5C53.2,55.2,51.8,58.3,50.8,61.6z"/>
		<path class="st4" d="M31.4,38.5c0,3.5-0.7,7.1-1,10.5c-0.5,5.7-0.9,11.3-1.4,17c-0.2,2.7-0.6,5.4-0.6,8.1c0,2.6-0.3,5.3-1.1,7.7
			c-0.5,0.2-0.9-0.3-1.2-0.8c-1.3-2.5-1.3-5-1.2-7.7c0.4-7.1,0.5-14.2,0.8-21.3c0.3-6.9,0.5-13.9,0.8-20.8c0-1.3,0.7-2.6,1.7-3.5
			l2.8-1.6L31.4,38.5z"/>
		<polygon class="st13" points="49.8,68.3 50.4,125.7 45.5,125.7 40,72.4 38.1,72.4 31.6,125.5 26.8,125.7 28.1,72.4 		"/>
		<g>
			<defs>
				<path id="SVGID_21_" d="M50.7,35.3l5.7-0.2l-0.6-4c-0.4-1.8-1.7-3.4-3.4-4.2l-9.5-4.4l-5.5,0l-9.9,5.4c-0.5,0.3-0.9,0.9-1,1.6
					c0,0,0,0,0,0l-0.8,5.3l4.2,0.1l-0.2,2.6l-0.2,3l-0.1,1.6L29,46.2l-0.3,4.6L28.4,55l-0.3,4.6l-0.6,12.9L50.9,72"/>
			</defs>
			<clipPath id="SVGID_2_">
				<use xlink:href="#SVGID_21_"  style="overflow:visible;"/>
			</clipPath>
			<g id="XMLID_76_" class="st17">
				<defs>
					<polygon id="SVGID_23_" points="-15.4,21.7 -14,82.8 102.5,82.8 101.1,21.7 					"/>
				</defs>
				<clipPath id="SVGID_4_">
					<use xlink:href="#SVGID_23_"  style="overflow:visible;"/>
				</clipPath>
				<polygon class="st18" points="-44.7,11.3 -41.6,94 130.4,94 124.6,11.3 				"/>
				<path class="st19" d="M69.6,48.5c-0.2-1.5-1-3.6-1.7-2.8c-0.1-3.4-0.3-6.9-0.8-10.1c-0.3-1.7-0.6-3.7-1.2-5.4
					c-0.1-0.7-0.2-1.4-0.3-2.1c-0.4-2.1-1-5.6-2.1-6.2c-0.1,0-0.1-0.1-0.2-0.1c-0.1-1.2-0.4-3.2-1.1-3.2c-0.1-1.1-0.3-2.1-0.6-2.8
					c-0.2-0.6-0.6-0.7-0.8-0.6c-0.4-1-1.2-1.7-1.6-0.4c-0.3-1-0.7-1.9-1.2-2.2c-0.8-0.4-1.3,1.2-0.9,2.7c0,0.1,0.1,0.3,0.1,0.4
					c0,0,0,0,0,0.1c0,0.2,0,0.3,0.1,0.5c0,0,0,0.1,0,0.2c0,0.1,0,0.3,0,0.5c0,0.1,0,0.1,0,0.1c0,0,0,0,0,0c0,0.4,0,0.9-0.1,1.3
					c0,0.6,0.1,1.2,0.4,1.7c0,0.4-0.1,0.8-0.1,1.3c-0.2,0.3-0.3,0.7-0.3,1.2c0,1.2-0.1,2.3-0.1,3.5c-0.4-2.8-0.8-5.5-1.2-8.2
					c-0.2-1.5-0.9-2.9-1.7-2.8c-0.8,0.1-1.2,1.7-1,3.2c0,0,0,0,0,0c0,0,0,0-0.1,0c-0.2-0.1-0.4,0-0.6,0.2c-0.1-0.5-0.1-1-0.2-1.6
					c-0.2-1.2-0.8-2.4-1.4-2.5c-0.6-0.1-1.1,0.8-1,2c0.1,0.9,0.1,1.8,0.2,2.7c-0.9-1.4-2.5-1.1-2.4,1.5c0,0.1,0,0.1,0,0.2
					c0,0.7,0,1.2,0.2,1.7c-0.5-1.4-1-2.8-1.9-2.8c-0.3,0-0.5,0.4-0.6,0.8c0-0.5-0.1-1-0.2-1.6c-0.3-1.6-1.6-1.7-2-0.4
					c-0.2,0.2-0.4,0.5-0.5,0.8c-0.3,1-0.2,2.3-0.2,3.4c0,0.7-0.6,0.6-0.7,1.4c-1-0.8-1.2,2.1-1,4.4c0.2,1.6,0.7,3.2,1.2,4.7
					c0,0.2,0,0.4,0,0.6c-0.1,0.8-0.1,1.6-0.1,2.4c-0.1,0.1-0.2,0.3-0.2,0.5c-0.1-0.2-0.3-0.3-0.5-0.5c-0.6-1.6-1.7-1.6-1.8,0.9
					c-0.1,2,0.4,4.3,0.7,6.2c0.3,2,0.7,4.1,1.1,6c0.1,0.3,0.2,0.6,0.3,0.8c0,3.2,0.1,6.5,0.4,9.6c0.1,0.8,0.3,1.7,0.5,2.3
					c0,0.1-0.1,0.3-0.1,0.4c-0.4,2.5-0.2,5.2-0.2,7.8c0,2.6,0.1,5.3,0.2,7.9c0.1,2.3,1,2.9,1.5,1.9c0.1,0.5,0.3,0.9,0.4,1.3
					c0.4,3.7,6.9,7.2,8.1,10c0.4,0.9,1.2,1.7,1.8,0.9c0.1-0.2,0.2-0.4,0.3-0.6c0.1,0.6,0.2,1.3,0.4,1.9c-0.1,0.5-0.2,0.9-0.3,1.4
					c-0.4,1.6-0.9,2.9-1.4,4.4c-0.5,1.8-0.5,4.9,0.7,5.3c0.9,0.3,1.8-2,2.3-3.3c0.5-1.4,0.9-3,1.2-4.6c0.1,1,0.2,2,0.5,2.9
					c0.4,1.4,1.3,1.4,1.5-0.3c0.1-0.8,0.1-1.6,0.1-2.3c0.2,0.1,0.4,0.1,0.6,0c0.2-0.2,0.4-0.5,0.6-0.9c0.4-0.2,0.7-0.6,0.9-1.2
					c0.4,0.4,0.7,0.8,1.2,1c0.2,0.1,0.3,0.1,0.5,0c0.1,0.2,0.3,0.4,0.4,0.6c0.3,0.3,0.5,0.3,0.7,0.2c0.1,0.2,0.1,0.4,0.2,0.6
					c0.3,0.9,0.8,2.2,1.4,2.4c0.5,0.2,0.8-0.7,0.9-1.6c0.4-0.2,0.6-0.9,0.7-1.6c0.1,0,0.2,0,0.3-0.1c0.1,0.1,0.1,0.2,0.2,0.3
					c0.1,0.1,0.2,0.1,0.3,0.1c0.1,0,0.2,0,0.3-0.1c0.1-0.1,0.2-0.2,0.3-0.3c0.1-0.1,0.2-0.3,0.3-0.5c0,0.1,0.1,0.2,0.1,0.2
					c0.1,0.2,0.2,0.3,0.3,0.4c0.1,0.1,0.2,0.2,0.3,0.2c0.1,0,0.1,0,0.2,0c0,0,0.1,0,0.1,0c0.1,0.6,0.4,1,0.7,1
					c0.2,0,0.4-0.1,0.6-0.3c0.1-0.2,0.3-0.5,0.3-0.9c0.5,0.9,1,1.8,1.5,2.5c0.3,0.4,0.9,0.5,1.2-0.1c0.3-0.6,0.2-1.6,0-2.2
					c-0.6-1.4-1.4-2.5-2.1-3.7c0.1,0,0.2,0,0.3-0.1c0.7-0.4,0.9-2.3,0.7-3.5c0-0.3-0.1-0.6-0.1-0.9c0-1.2-0.1-2.4-0.2-3.7
					c-0.1-1.4-6-2.8-6.1-4.2c0.8,0.1,1.6-1.2,1.7-3.5c0-0.6,0-1.2,0-1.7c0-0.2,0-0.5,0-0.7c0-4.3,0.1-8.7,0.2-13
					c0.1-2.1,0.1-4.1,0.2-6.2C69.7,53.2,69.9,50.8,69.6,48.5z M70.1,90.1c0-0.2,0-0.4,0-0.6c0,0,0-0.1,0-0.1
					c0.1,0.1,0.2,0.1,0.3,0.1c0,0.1,0,0.3,0,0.4C70.3,90,70.2,90,70.1,90.1z"/>
				<path class="st20" d="M13.1,18.6c0.1,0.2,0.1,0.4,0.1,0.4c0,0.1-0.1,0-0.3-0.2c0.2,0.3,0.3,0.3,0.4,0.4c0.1,0.1,0.1,0.2,0.3,0.5
					c0,0.1-0.1,0-0.2-0.1c0.3,0.6,0.3,0.4,0.5,0.8c0.2,0.1,0.4,0.2,0.5,0.3l-0.1-0.2c0.1,0.1,0.1,0.2,0.2,0.3c0,0,0.1,0.1,0.1,0.1
					c0,0,0.1,0.1,0.1,0.1c0.1,0.1,0.2,0.3,0.2,0.4l0,0l0.2,0.3l0,0.1l0.3,0.4l0-0.1c0.1,0.1,0.3,0.4,0.4,0.6l0,0
					c0.2,0.6,0.6,1,1,1.6l-0.1,0c0.1,0.3,0.1,0,0.3,0.3l-0.1,0.1c0.2,0.1,0.2,0.3,0.2,0.5l0.1-0.2l0.2,0.3c0.2,0.4,0,0.3-0.1,0.3
					l0.2,0.2L17.3,26c0.2,0.1,0.1,0.2,0.3,0.4c0,0.1-0.1,0,0,0.1c0,0,0.1,0.1,0.2,0.2c0.1,0.1,0.1,0.1,0.2,0.1c0,0,0.1,0.1,0.1,0.1
					s-0.1-0.1-0.1-0.1c-0.1-0.1-0.1-0.1-0.1-0.1l0.1-0.1c0.2,0.1,0.2,0.2,0.3,0.3c0.1,0.1,0.1,0.2,0.2,0.3c0,0,0,0-0.1,0
					c0,0-0.1-0.1-0.1-0.1c0.1,0.1,0.2,0.2,0.3,0.3c0,0.1,0.1,0.1,0.1,0.2c0-0.1-0.1-0.2,0.1-0.1c0.1,0.1,0,0.1,0.1,0.2
					c0,0,0.1,0,0.2,0.1c0.1,0.1,0.2,0.2,0.3,0.3c0,0,0,0,0,0c0.1,0,0.1,0,0.2,0.1l-0.1,0l0.2,0.1c0.1,0.1,0.3,0.2,0.2,0.3l-0.1,0
					c0,0,0.2,0.2,0.4,0.4c0.2,0.2,0.4,0.4,0.4,0.4l-0.1,0.1c0.2,0,0.4,0.5,0.4,0.3c0,0.1,0.2,0.2,0.3,0.4c0.1,0.1,0.2,0.2,0.1,0.2
					c0,0.1,0.1,0.1,0.1,0.2c0,0.1,0.1,0.1,0.1,0.2c0.1,0.1,0.2,0.2,0.2,0.3c0.2,0.2,0.3,0.5,0.4,0.9c0,0.1,0,0.2,0,0.4
					c0,0.1,0.1,0.3,0.1,0.5c0.1,0.4,0.2,0.7,0.3,1c0.2,0.6,0.5,1.1,0.7,1.5c0.2,0.5,0.5,0.9,0.9,1.5c0.1,0.2,0.1,0.4,0.2,0.6
					c0.1,0.2,0.2,0.4,0.4,0.6c0.1,0.2,0.3,0.4,0.4,0.6c0,0,0.1,0.1,0.1,0.1c0,0.1,0.1,0.2,0.1,0.2c0.1,0.2,0.2,0.3,0.3,0.5
					c0,0,0.1,0.1,0.1,0.1c0.1,0.1,0.1,0.1,0.1,0.1c0.1,0.2,0.2,0.5,0.4,0.7c0.1,0.1,0.2,0.2,0.2,0.4c0,0,0,0.1,0.1,0.1l0,0l0,0
					c0,0,0,0,0,0l0,0c0.1-0.1,0.1-0.1,0.2-0.2c0.4-0.5,0.9-1,1.3-1.5c0.1-0.1,0.2-0.3,0.2-0.3c0-0.1,0.1-0.1,0.1-0.1c0,0,0,0-0.1,0
					c0,0,0,0,0,0c0,0,0,0,0,0c0,0,0,0,0,0c0,0,0,0,0,0c0,0,0-0.1,0.1-0.1c0-0.1,0.1-0.1,0.1-0.2c0.1-0.1,0.2-0.2,0.2-0.1l0,0.1
					c0,0.1,0.1-0.1,0.2-0.3c0.1-0.2,0.2-0.4,0.3-0.5l-0.2,0l0.3-0.3l0,0.1c0.2-0.4,0.4-0.8,0.6-1.1c0-0.1,0.1-0.2,0.1-0.2l0-0.1l0,0
					c0,0,0,0,0,0c0,0,0,0,0,0l0,0c0.1-0.1,0.2-0.3,0.4-0.4c0.5-0.5,0.9-1.1,1.2-2c0,0.3,0.1-0.4,0.2-0.3c0.4-0.3,0.3-0.8,0.4-1.2
					c0,0,0,0,0,0c0,0,0.1-0.1,0.1-0.3c0.1-0.1,0.1-0.3,0.1-0.3c0,0.4,0-0.5,0-0.1c0.4-0.8,0.7-1.6,1-2.5c0-0.1,0.1-0.2,0.1-0.3
					l0.1-0.2l0-0.1l0-0.1c0.1-0.2,0.1-0.4,0.2-0.5c0.2-0.4,0.5-0.7,0.8-1l-0.1,0c0.1-0.2,0.3-0.3,0.5-0.5c0.2-0.2,0.4-0.3,0.5-0.4
					c0.3-0.2,0.5-0.7,0.6-0.8c0.2-0.3,0.5-0.5,0.5-0.4c0.1-0.2,0.2-0.4,0.3-0.6c0.1-0.1,0.1-0.2,0.2-0.3c0.1-0.1,0.2-0.2,0.3-0.4
					c0.1,0,0.3-0.4,0.5-0.8c0.2-0.3,0.3-0.7,0.4-0.6l0,0c0.5-0.6,0.7-1.3,1.2-1.9c0,0,0,0,0,0l0.3-1.1c0,0,0,0,0,0c0,0,0,0,0,0
					l0.1-0.6l-0.1,0c0,0,0,0,0-0.1c-1.3,0-2.5,0-3.7,0c-0.5-0.1-1.1-0.2-1.3-0.2c-0.3-0.1-0.7,0-1.1,0c-0.6,0-0.3-0.1-0.6-0.2
					c-0.1,0-0.1,0-0.1,0c0,0,0,0,0,0c0,0,0,0,0,0c0,0,0.1,0.1,0,0.1c0,0-0.1,0-0.2-0.1c-0.1,0-0.2-0.1-0.2-0.1c0.3,0,0.1,0,0.1-0.1
					c-0.4-0.1-1.1-0.3-1.2-0.2c-0.6-0.1-0.6-0.2-0.8-0.2c0.1,0,0.2,0.1,0.2,0.1c-0.2-0.1-0.1,0,0,0c-0.1,0-0.2,0-0.4,0
					c-0.2,0-0.4-0.1-0.6-0.1c-0.2,0-0.4-0.1-0.6-0.1c-0.2,0-0.3,0-0.3,0l0,0c-0.1,0.1,0,0.2-0.2,0.3l-0.2,0c0,0-0.1,0-0.1,0
					c-0.1,0-0.1,0-0.1,0c-0.2,0-0.1-0.1-0.1-0.1c-0.2,0-0.4,0-0.7,0.1c-0.2,0-0.5,0-0.7,0c0,0,0.1,0.1,0.3,0.1
					c0.1,0.1,0.3,0.1,0.3,0.1c-0.4,0-1.1-0.1-1.2,0L26,17.8c-0.8-0.1-0.5,0.2-0.9,0.2l-0.4,0l0.4-0.1c-0.4,0-0.6,0-0.9,0
					c0,0,0,0,0,0c0,0,0,0,0,0l-0.1,0c0,0.1-0.2,0.1-0.5,0.2c-0.4,0.1-0.7,0.2-1.3,0.2l-0.1,0.1l-0.5,0l0-0.1
					c0.4-0.1,1.3-0.3,1.9-0.4l0,0c-0.3,0.1-0.7,0.2-1,0.2c-0.1,0-0.3,0-0.2-0.1l-0.2,0.1c-0.1,0-0.3,0-0.4,0.1c-0.1,0-0.1,0-0.2,0
					c0,0,0,0-0.1,0c0,0,0,0,0,0c-0.1,0-0.2,0-0.2,0c-0.1,0-0.1,0-0.2,0c-0.3,0-0.6,0-1.2,0l0.1,0c-0.2,0-0.5,0.1-0.5,0
					c-0.7,0-1.4,0-1.9-0.1l-0.1,0.1c-0.1,0-0.4-0.2-0.4,0l-0.3,0c-0.2,0-0.3,0.1-0.5,0v0c0,0,0,0,0,0c0,0,0,0,0,0c0,0,0,0,0,0
					c0,0-0.1,0-0.2,0c-0.1,0-0.1,0-0.1,0c0,0-0.1,0-0.1,0c0,0,0,0-0.1,0c-0.1,0-0.2,0-0.4,0c-0.2,0-0.2,0-0.3,0
					c-0.1,0-0.2,0.1-0.4,0.1c0,0-0.1,0-0.3-0.1c-0.1,0-0.3-0.1-0.3-0.1c-0.4,0-0.6,0-0.8,0c-0.2,0-0.4,0-0.7,0.1
					C12.9,18.3,13,18.5,13.1,18.6z"/>
				<path class="st21" d="M47,76.5c-0.1-1.5-0.5-3-0.8-3c-0.1-0.6-0.1-0.8,0-0.8c0.1,0,0.2,0.1,0.3,0.4c0.3,0.5,0.6,1.5,0.8,1.9
					c-0.3-1.1-0.4-1.7-0.6-2.3c0-0.1-0.1-0.3-0.2-0.4c-0.1-0.1-0.1-0.3-0.2-0.5c-0.1-0.2-0.2-0.3-0.3-0.5c-0.1-0.2-0.2-0.4-0.4-0.6
					c0,0,0-0.1-0.1-0.4c0-0.2-0.1-0.5-0.2-0.8c-0.1-0.3-0.2-0.6-0.3-0.8c-0.1-0.2-0.1-0.3-0.1-0.3s-0.2-0.3-0.6-0.7
					c-0.2-0.2-0.4-0.4-0.7-0.6c-0.1-0.1-0.3-0.2-0.4-0.3c-0.1-0.1-0.3-0.2-0.4-0.3c-0.6-0.4-1.2-0.8-1.6-1.1
					c-0.2-0.1-0.4-0.2-0.5-0.3c-0.1-0.1-0.2-0.1-0.2-0.1c0.3,0.1,0-0.1,0.2,0c-0.3-0.1-0.6-0.2-1-0.4c-0.2-0.2-0.4-0.4-0.5-0.5
					c0.2,0,0.3,0,0.5-0.1c0.1,0,0.1,0.1,0.2,0.1c0-0.1-0.1-0.1-0.1-0.1c0.1,0,0.1,0,0.2-0.1c-0.1-0.1-0.3-0.2-0.4-0.3
					c-0.5-0.8-1.1-1.3-1.6-1.8c-0.3-0.3-0.7-0.5-1.1-0.8c-0.4-0.3-0.8-0.6-1.3-0.9c0,0,0,0,0.1,0c0.1,0.1,0.2,0.2,0.3,0.3
					c0.1,0.1,0.2,0.2,0.3,0.3c0.1,0.1,0.1,0.1,0.1,0.1c-0.5-0.2-1.2-0.4-1.9-0.7c0.3,0.1,0.5,0.1,0.7,0.2c0.2,0,0.3,0.1,0.4,0.1
					c0.1,0,0.1,0,0.1,0c-1.1-0.7-2.5-1.2-3.9-1.4c-0.2,0-0.3,0-0.5,0c0.1,0,0.1,0,0.2-0.1L31.4,59c-1.2-0.1-2.5,0.1-3.6,0.4
					c-0.5,0.1-0.9,0.3-1.3,0.5c-0.1,0-0.1,0-0.2,0c-0.5,0-0.7,0.1-0.9,0.2c-0.1,0.1-0.2,0.2-0.4,0.3l0-0.4c-0.5,0.1-1,0.3-1.4,0.4
					c0,0,0.1,0,0.1-0.1c0.2-0.1,0.4-0.2,0.5-0.3c0.1-0.1,0.2-0.1,0.2-0.1c-0.9,0.1-1.5,0.3-1.8,0.4c-0.3,0.1-0.4,0.2-0.5,0.3
					c-0.1,0.1-0.2,0.1-0.5,0.3c-0.2,0.1-0.4,0.1-0.6,0.2c-0.3,0.1-0.6,0.3-1.1,0.5c0.5-0.3,0-0.2-0.2-0.2c-0.1,0-0.2,0-0.2,0
					c0,0,0.1-0.1,0.2-0.2c0.1-0.1,0.3-0.2,0.6-0.3c-0.6,0.2-1.1,0.4-1.5,0.6c-0.4,0.2-0.8,0.4-1.1,0.6c-0.3,0.2-0.5,0.4-0.8,0.5
					c-0.1,0.1-0.2,0.1-0.3,0.2c-0.1,0.1-0.2,0.2-0.3,0.2c-0.4,0.3-0.7,0.6-1.1,1c-0.4,0.4-1,1-1.7,1.9c0,0,0.1,0.2,0.2,0.4
					c0.1,0.2,0.2,0.4,0.2,0.4c-0.4,0.6-0.7,1-1,1.3c-0.3,0.3-0.5,0.4-0.7,0.6c0.3-0.6,0.8-1.3,0.7-1.3c-0.4,0.3-0.6,0.6-0.8,0.9
					c-0.2,0.3-0.3,0.7-0.5,1c-0.1,0.4-0.3,0.7-0.4,1.1c-0.1,0.2-0.2,0.4-0.3,0.6c-0.1,0.2-0.3,0.4-0.4,0.6c0.2-0.2,0.4-0.4,0.5-0.3
					c0,0,0.1,0.1,0,0.3c0,0.1,0,0.2-0.1,0.3c-0.1,0.2-0.2,0.4-0.2,0.6c-0.1-0.3-0.5,0.3-0.8,1c-0.3,0.6-0.5,1.3-0.6,1.5
					c0.2-0.2,0,0.7-0.2,1.8C9.1,77.1,9,77.6,9,78c-0.1,0.5-0.2,1.1-0.2,1.6c0-0.4,0-0.9-0.1-1c0.1,0.3,0.1,0.7,0.1,1.2
					c0,0.3,0,0.6-0.1,0.9c0,0.8,1.4,1.5,1.6,2.1c0,0.1,0,0.1,0,0.2c-0.1-0.2,2.6,0.2,2.6,0.9c0,0.8,1.8,1.9,1.9,2.7
					c0.2,0,0.4,0.2,0.4,0.4c0.5,1.1,1.3,2.7,2.5,4c-0.1,0-0.2,0.1-0.3,0.1c-0.1-0.1-0.2-0.3-0.3-0.4c-0.1-0.1-0.1-0.1-0.2-0.2
					c-0.1-0.1-0.1-0.1-0.2-0.2c-0.1-0.1-0.2-0.3-0.3-0.4c-0.2-0.2-0.4-0.5-0.5-0.6c-0.1-0.1-0.2-0.1-0.1,0.1c0.5,0.6,1,1.2,1.5,1.7
					c-0.3,0.1-0.3,0.4,0.7,1.3c0.1,0,0.2,0,0.4,0c0.4,0.9,0.9,1.7,1.3,2.4c0,0,0-0.2,0-0.3c0-0.2,0.1-0.3,0.1-0.3s0.1,0.1,0.2,0.2
					c0.1,0.1,0.3,0.3,0.4,0.4c0.4,0.3,0.9,0.8,1.5,1.1c0.3,0.2,0.6,0.3,0.9,0.5c0.1,0.1,0.3,0.1,0.4,0.2c0.1,0.1,0.3,0.1,0.4,0.1
					c0.2,0.1,0.4,0.2,0.5,0.2c0.1,0,0.1,0,0.2,0c0,0,0.1,0,0.1,0s0,0-0.1,0c-0.1,0-0.2,0-0.3-0.1c-0.1,0-0.3-0.1-0.5-0.1
					c-0.1,0-0.2,0-0.3,0c-0.1,0-0.2-0.1-0.3-0.1c-0.2-0.1-0.4-0.1-0.6-0.2c-0.1,0-0.2-0.1-0.3-0.1c-0.1,0-0.2-0.1-0.2-0.1
					c-0.3-0.1-0.5-0.2-0.5-0.2c0.4,0.2,1.2,0.6,2.2,0.9c0.5,0.2,1,0.2,1.5,0.3c0.1,0,0.2,0,0.3,0c0,0,0,0,0.1,0.1
					c0.1,0.1,0.2,0.1,0.4,0.2c0.2,0.1,0.4,0.1,0.7,0.1c0,0.1,0.1,0.2,0.1,0.2c0.1,0,0.2,0,0.3,0c0.1,0,0.2,0,0.4,0.1
					c0.3,0.1,0.6,0.2,1,0.3c0.4,0.1,0.8,0.3,1.2,0.4c0.2,0.1,0.4,0.1,0.7,0.2c0.2,0,0.5,0.1,0.7,0.1c0,0-0.2,0.1-0.4,0.3
					c-0.2,0.1-0.4,0.3-0.4,0.3s-0.1,0-0.2-0.1c-0.1,0-0.3-0.1-0.4-0.2c-0.2-0.1-0.3-0.1-0.4-0.2c-0.1,0-0.2-0.1-0.2-0.1
					c0.1,0.2,0.3,0.4,0.6,0.5c0.2,0.1,0.5,0.2,0.9,0.2c0.3,0,0.7,0,1,0c0.3,0,0.7,0,1,0c0.7-0.1,0.9-0.3,1-0.4c0,0,0-0.1,0-0.1
					c0.1,0.1,0.2,0.2,0.4,0.2c-0.1-0.1-0.2-0.2-0.4-0.3c0.1-0.1,0.1-0.2,0.4-0.3c0.1,0,0.2,0,0.3,0c0.2,0.1,0.4,0.2,0.7,0.2
					c0,0-0.2-0.1-0.4-0.3c0,0,0.1,0,0.1,0c0.3,0,0.5-0.1,0.7,0c0.6,0,0.6,0.2,0.5,0.5c0,0,0,0,0,0.1c0,0,0,0,0,0c0,0,0,0,0,0
					c-0.1,0.1-0.2,0.2-0.3,0.3c-0.1,0.1-0.3,0.2-0.3,0.3c0.2-0.2,0.4-0.3,0.6-0.5c0,0,0.1,0,0.1-0.1c0.1,0.1,0.3,0.1,0.5,0.1
					c-0.2,0.1-0.3,0.2-0.4,0.3c0.2-0.1,0.4-0.2,0.5-0.2c0,0,0.1,0,0.2-0.1c0,0,0,0,0,0c0,0,0,0,0,0c0.1-0.1,0.3-0.1,0.4-0.2
					c0,0,0,0,0,0c0,0,0.1,0,0.1,0c-0.1,0.1-0.3,0.1-0.5,0.1c0.3,0.1,0.6,0.2,0.9,0.3c0.3,0.1,0.6,0.2,1,0.2c0.7,0.1,1.4,0.1,2.2-0.3
					l-0.1,0.1c0.7-0.2,1-0.4,1.1-0.6c0.1-0.1,0-0.2-0.1-0.3c-0.1-0.1-0.2-0.2,0-0.3c0.1-0.1,0.5-0.3,1.2-0.8c0.3-0.1,0.4,0,0.5,0.1
					c0.1,0.1,0.2,0.3,0.2,0.4c0.1,0.1,0.2,0.2,0.5,0.1c0.2-0.1,0.6-0.3,1.1-1c-0.3,0.2-0.4,0.1-0.4-0.1c0-0.1,0.1-0.2,0.1-0.4
					c0.1-0.2,0.2-0.3,0.3-0.5c0.1-0.2,0.2-0.4,0.3-0.6c0.1-0.2,0.2-0.4,0.3-0.7c0.1-0.2,0.2-0.5,0.2-0.7c0.1-0.2,0.1-0.4,0.2-0.6
					c0,0,0,0.1,0,0.3c0,0.2,0,0.4,0,0.7c0,0.5-0.1,1-0.1,1c0.2-0.3,0.4-0.7,0.5-1.1c0.1-0.4,0.2-0.8,0.3-0.9l-0.2,0
					c-0.4-0.1-0.2-0.5,0.1-1.2c0.1-0.1,0.1-0.3,0.2-0.5c0,0,0,0,0,0c0.3,0,0.7,0.1,0.6,0.5c0.1-0.1,0.2-0.2,0.3-0.3
					c0.1,0.2,0.3,0.3,0.7,0.5c-0.1-0.4-0.2-0.8-0.2-1.3c0.1-0.2,0.1-0.4,0-0.6c-0.1-0.3-0.2-0.6,0.1-1.4c0,0,0,0,0-0.1c0,0,0,0,0,0
					c0,0,0,0.1,0,0.1c0,0.1,0.1,0.3,0.1,0.4c0.1,0.3,0.1,0.6,0.1,0.6c0.2-0.5,0.3-0.8,0.3-1c0-0.2,0-0.3,0-0.4c0-0.1,0-0.2,0-0.4
					c0.3-0.3,0.5-0.6,0.6-0.8c-0.2,0.2-0.3,0.3-0.4,0.3c0-0.1,0.1-0.1,0.1-0.2c0.1,0.3,0.5-0.7,0.3,0.4c0.2-0.3,0.3-0.6,0.4-0.8
					c0.1-0.2,0.2-0.4,0.3-0.6c0.1-0.2,0.1-0.3,0.2-0.5c0,0,0.1-0.1,0.1-0.1c0.4-0.4,0.8-0.8,1-1.3c0.1-0.3-0.1-0.2-0.3-0.1
					c-0.1,0-0.1,0-0.2-0.1c0.1-0.2,0.1-0.4,0.2-0.7L51,84.5c0,0,0.1-0.1,0.1-0.2c0,0-1.7-0.1-1.7-0.3c0,0,0,0,0-0.1
					c0-0.1,0.1-0.2,0.1-0.3c0,0,0.1,0.1,0.1,0.2c0.1,0.2,1.8,0.6,2,0.6c0.1-0.6-4.2-1.2-4.3-1.7c0.1,0,0.1,0,0.2,0
					c0.2-0.1,0.4-0.1,0.4-0.1s0.1-0.2,0.1-0.6c0.1-0.4-1.2-0.9-1.1-1.3c0.1-0.5,0.1-1,0.1-1.4c0-0.4,0-0.6,0-0.6
					C46.8,79.2,47.1,77.9,47,76.5z M36.3,99.5c-0.2-0.1-0.4-0.1-0.5-0.1c0.1-0.1,0.3-0.2,0.5-0.2c0,0,0,0,0,0
					c0.2,0.1,0.3,0.2,0.5,0.2C36.6,99.4,36.4,99.5,36.3,99.5z"/>
				<path class="st18" d="M43.8,87.4c-0.1-0.2-0.4-0.4-0.6-0.4c-0.3,0.1-0.3,0.3-0.3,0.6c0,0.4,0.1,0.6-0.1,1
					c-0.1,0.3-0.3,0.6-0.6,0.8c-0.6,0.5-1.5,0.5-2.2,0.2c0,0-0.2-0.1-0.3-0.2c0-0.1,0-0.1,0-0.1c0.1-0.4,0.3-0.7,0.5-1
					c0.5-0.6,1.1-0.9,1.8-1c0.5-0.1,0.1-0.9-0.2-0.9c-0.8-0.1-1.5,0.2-2.1,0.8c-0.6,0.6-1.1,1.5-1,2.4c0.2,1.1,1.3,1.5,2.2,1.6
					c0.9,0.1,1.8-0.1,2.4-0.8C43.9,89.7,44.3,88.4,43.8,87.4z"/>
				<path class="st18" d="M38.9,92.1c-0.5-0.8-1.3-1.2-2.1-1.2c-0.7,0-2.1,0.4-1.8,1.4c0.1,0.3,0.6,0.6,0.7,0.2
					c0.1-0.2,0.5-0.2,0.7-0.3c0.3,0,0.7-0.1,1,0c0.1,0,0.2,0.1,0.3,0.1c0.1,0,0.1,0.1,0.2,0.1c0,0,0,0.1,0.1,0.1c0,0,0,0.1,0.1,0.1
					c0,0,0,0,0,0c0,0,0,0,0,0.1c0,0,0,0.2,0,0.3c-0.2,0.5-0.7,0.8-1.2,1c-0.3,0.2-0.7,0.3-1,0.4c-0.2,0-0.3,0.1-0.5,0.1
					c0,0,0,0-0.1,0c0,0-0.2,0-0.1,0c-0.2-0.1-0.4-0.1-0.5,0.1c0,0,0,0,0,0.1c-0.1,0.2-0.1,0.5,0,0.6c0.6,0.9,1.6,0.6,2.4,0.3
					c0.7-0.3,1.5-0.6,1.9-1.3C39.4,93.8,39.4,92.8,38.9,92.1z"/>
				<path class="st18" d="M45.7,95.7c-0.2,0-0.3-0.1-0.6,0c-0.2,0.1-0.3,0.1-0.5,0.1c-0.3,0-0.6,0.1-0.9,0c-0.3,0-0.6-0.1-0.8-0.2
					c0,0,0,0,0,0c0-0.2,0-0.3,0-0.4c0.1-0.6,0.4-1.1,0.9-1.4c0.3-0.2,0.5-0.3,0.8-0.3c0.3-0.1,0.6,0,0.9,0c0.4,0,0.3-0.4,0.1-0.6
					c-0.7-0.5-1.8-0.4-2.5,0c-0.7,0.5-1.2,1.3-1.4,2.2c-0.1,0.6,0,1.1,0.4,1.5c0.4,0.4,0.9,0.5,1.4,0.6c0.4,0.1,0.9,0.1,1.3,0.1
					c0.2,0,0.4-0.1,0.6-0.2c0.3-0.1,0.5-0.2,0.6-0.5C46.3,96.2,46,95.8,45.7,95.7z"/>
				<path class="st18" d="M44.3,83.1c-0.8-0.4-1.6-0.5-2.4-0.5c-0.6,0.1,0.7,0.3,1,1.3c0.1,0.3,0.5,0.7,0.8,0.4
					c0.2-0.2,0.4-0.3,0.7-0.4c0.3-0.1,0.7-0.1,1-0.1c0.6,0,3,0.2,3.4,0.6c0,0,0.1,0.1,0.1,0.1c0,0.1-0.1,0.2-0.1,0.3
					c-0.2,0.3-0.5,0.5-0.7,0.7c-0.3,0.2-0.6,0.4-0.9,0.5c-0.3,0.1-0.9,0.1-1.1,0.4c-0.2,0.4,0,0.7,0.3,0.9c0.4,0.3,0.9,0.2,1.3,0
					c0.4-0.1,0.7-0.3,1.1-0.5c0.6-0.4,1.4-1,1.4-1.9C50.3,84.1,45,83.4,44.3,83.1z"/>
				<path class="st18" d="M38.8,82.4c-0.1-0.3-0.4-0.4-0.6-0.1c-0.1,0.1-0.1,0.2-0.2,0.3c0,0-0.1,0.1-0.1,0.1
					c-0.1,0.1-0.2,0.2-0.3,0.2c-0.3,0.1-0.6,0.2-0.9,0.2c-0.7,0.1-1.7,0-2.3-0.4C34.2,82.6,34,82.3,34,82c0-0.3-1.2-0.6-1-0.8
					c0.4-0.6,1-0.9,1.7-1c0.3-0.1,0.4-0.8,0.1-0.8c-1.6-0.2-1.7,1.5-1.7,3.2c0,2.1,7.1,2.2,8.4,1.9c0.4-0.1-0.9-0.3-0.6-0.5
					C41.3,83.6,39,83,38.8,82.4z"/>
				<path class="st18" d="M36.6,85.9c-0.4-0.9-1.3-1.4-2.2-1.3c-0.4,0.1-0.9,0.2-1.3,0.5c-0.4,0.3-0.6,0.8-0.5,1.3
					c0.1,0.5,0.6,0.2,0.7-0.1c0,0,0,0,0.1,0c0.1,0,0.2-0.1,0.3-0.1c0.3-0.1,0.6-0.1,0.9-0.1c0.4,0,0.9,0.3,1,0.8c0,0,0,0.1,0,0.1
					c0,0,0,0,0,0c0,0-0.1,0.1-0.1,0.1c-0.1,0.2-0.3,0.3-0.5,0.4c-0.6,0.3-1.5,0-2,0.5c-0.2,0.2-0.2,0.5-0.1,0.8
					c0.2,0.5,1,0.5,1.4,0.4c0.5-0.1,0.9-0.2,1.3-0.5C36.5,88.1,37,86.9,36.6,85.9z"/>
				<path class="st18" d="M51.1,92.4c-0.3,0-0.5,0.2-0.8,0.2c-0.2,0-0.5,0-0.7,0c-0.5-0.1-0.9-0.4-1.1-0.9c-0.2-0.4-0.2-0.9,0.1-1.3
					c0.3-0.4,0.8-0.6,1.2-0.4c0.4,0.2,0.6-0.6,0.3-0.7c-0.6-0.4-1.3-0.3-1.8,0.2c-0.6,0.6-0.8,1.5-0.6,2.3c0.2,0.9,0.8,1.5,1.5,1.8
					c0.7,0.3,1.8,0.4,2.3-0.3C51.6,93.1,51.6,92.4,51.1,92.4z"/>
				<path class="st18" d="M33.4,93.3c-0.3,0-0.5,0.2-0.8,0.2c-0.2,0-0.5,0-0.7,0c-0.5-0.1-0.9-0.4-1.1-0.9c-0.2-0.4-0.2-0.9,0.1-1.3
					c0.3-0.4,0.8-0.6,1.2-0.4c0.4,0.2,0.6-0.6,0.3-0.7c-0.6-0.4-1.3-0.3-1.8,0.2c-0.6,0.6-0.8,1.5-0.6,2.3c0.2,0.9,0.8,1.5,1.5,1.8
					c0.7,0.3,1.8,0.4,2.3-0.3C33.9,94,33.9,93.3,33.4,93.3z"/>
				<path class="st18" d="M40.9,99.3c-0.1-0.9-0.5-1.8-1.3-2.1c-0.7-0.4-1.7-0.3-2.4,0.2c-0.7,0.4-1.2,1.6-0.7,2.4
					c0.2,0.4,0.6,0.1,0.5-0.3c0-0.2,0-0.4,0.1-0.5c0.2-0.2,0.4-0.3,0.6-0.3c0.5-0.2,1-0.3,1.5,0c0.2,0.1,0.3,0.2,0.4,0.4
					c0.1,0.1,0.1,0.3,0.1,0.4c0,0.1,0,0.3-0.1,0.5c-0.1,0.2-0.3,0.4-0.4,0.6c-0.4,0.4-0.1,1.5,0.5,1.2
					C40.6,101.2,40.9,100.2,40.9,99.3z"/>
				<path class="st22" d="M8.5,49.2C7.1,49.4,8,50.3,8.7,51c-3.1,0.1-6.3,0.3-9.2,0.9c-1.6,0.3-3.4,0.7-5,1.3
					c-0.7,0.1-1.3,0.2-2,0.4c-1.9,0.4-5.1,1.1-5.7,2.3c0,0.1,0,0.1-0.1,0.2c-1.1,0.1-2.9,0.5-2.9,1.2c-1,0.1-1.9,0.3-2.6,0.6
					c-0.6,0.3-0.7,0.6-0.5,0.9c-0.9,0.4-1.5,1.4-0.3,1.8c-1,0.3-1.7,0.7-2,1.3c-0.4,0.9,1.1,1.4,2.5,1c0.1,0,0.2-0.1,0.4-0.1
					c0,0,0,0,0,0c0.2,0,0.3,0,0.5-0.1c0,0,0.1,0,0.2,0c0.1,0,0.3,0,0.5,0c0.1,0,0.1,0,0.1,0c0,0,0,0,0,0c0.4,0,0.8,0,1.2,0.1
					c0.5,0,1.1-0.2,1.6-0.4c0.4,0,0.8,0.1,1.1,0.1c0.3,0.2,0.6,0.3,1,0.3c1.1,0,2.1,0.1,3.2,0.2c-2.5,0.4-5,0.9-7.5,1.3
					c-1.4,0.2-2.7,1-2.5,1.9c0.1,0.8,1.6,1.3,2.9,1.1c0,0,0,0,0,0c0,0,0,0,0,0.1c-0.1,0.2,0,0.4,0.2,0.7c-0.5,0.1-0.9,0.2-1.4,0.2
					c-1.1,0.2-2.2,0.8-2.3,1.5c-0.1,0.6,0.7,1.2,1.8,1.1c0.8-0.1,1.7-0.1,2.5-0.2c-1.2,1-1,2.7,1.4,2.6c0.1,0,0.1,0,0.2,0
					c0.6,0,1.1-0.1,1.5-0.2c-1.2,0.5-2.6,1.1-2.5,2c0,0.3,0.3,0.5,0.8,0.7c-0.5,0-0.9,0.1-1.4,0.2c-1.5,0.3-1.6,1.7-0.4,2.2
					c0.2,0.2,0.4,0.4,0.8,0.6c0.9,0.4,2.1,0.2,3.1,0.2c0.7,0,1.4,0,2,0C-10.9,80-9,81-7,80.7c1.5-0.2,2.9-0.8,4.3-1.3
					c0.2,0,0.4,0,0.5,0c0.7,0.1,1.5,0.1,2.2,0.2c0.1,0.1,0.3,0.2,0.4,0.3C0.3,80,0.1,80.1,0,80.3c-1.4,0.7-1.5,1.9,0.8,2
					c1.8,0.1,3.9-0.4,5.6-0.8c1.8-0.4,1-0.7,2.7-1.3C9.4,80.2,8,80.1,8.2,80c3,0,4.5-0.1,7.3-0.4c0.8-0.1,1.5-0.3,2.1-0.6
					c0.1,0,0.3,0.1,0.4,0.1c2.3,0.4,4.8,0.2,7.1,0.2c2.4,0,4.8-0.1,7.2-0.2c2.1-0.1,2.6-1.1,1.7-1.7c0.5-0.1,0.9-0.3,1.2-0.5
					c3.4-0.5,6.6-1.3,9.1-2.6c0.8-0.4,0.7-1.9,1-1c0.3,0.9,1,0.3,0.7,0.2c0.6-0.1,0-0.4,0.6-0.5c0.4,0.1,0.7,0.1,1.1,0.2
					c1.5,0.4,2.5-0.3,3.9,0.2c1.6,0.6,4.5,0.6,4.8-0.8c0.2-1-1.8-2-3-2.5c-1.2-0.6-2.7-1-4.2-1.3c0.9-0.1,1.8-0.2,2.6-0.5
					c1.3-0.4,1.3-1.5-0.3-1.7c-0.7-0.1-1.4-0.1-2.1-0.1c0.1-0.2,0.1-0.4,0-0.6c-0.2-0.3-0.4-0.5-0.8-0.7c-0.2-0.4-0.5-0.8-1.1-1
					c0.4-0.4,0.7-0.8,0.9-1.3c0.1-0.2,0.1-0.4,0-0.5c0.2-0.1,0.4-0.3,0.6-0.5c0.3-0.3,0.3-0.6,0.2-0.8c0.2-0.1,0.3-0.2,0.5-0.2
					c0.8-0.4,2-0.9,2.2-1.5c0.2-0.6-0.6-0.9-1.5-1c-0.2-0.4-0.8-0.7-1.5-0.8c0-0.1,0-0.2-0.1-0.3c0.1-0.1,0.2-0.1,0.2-0.2
					c0.1-0.1,0.1-0.2,0.1-0.3c0-0.1,0-0.2-0.1-0.3c0-0.1-0.1-0.2-0.2-0.3c-0.1-0.1-0.3-0.2-0.5-0.3c0.1,0,0.1-0.1,0.2-0.1
					c0.1-0.1,0.3-0.2,0.4-0.3c0.1-0.1,0.2-0.2,0.2-0.4c0-0.1,0-0.2,0-0.2c0,0,0-0.1,0-0.1c0.5-0.2,0.9-0.4,0.9-0.8
					c0-0.2-0.1-0.4-0.3-0.6c-0.2-0.2-0.5-0.3-0.8-0.4c0.8-0.5,1.6-1.1,2.2-1.7c0.4-0.4,0.4-1-0.1-1.3c-0.5-0.3-1.4-0.3-2,0
					c-1.3,0.7-2.3,1.5-3.4,2.3c0-0.1,0-0.2-0.1-0.3c-0.3-0.8-2.1-1-3.2-0.8c-0.3,0-0.5,0.1-0.8,0.1c-1.1,0-2.2,0.1-3.4,0.2
					c-1.3,0.1-2.6,0.3-3.9,0.4c0.1-0.9-1.1-1.8-3.2-1.8c-0.5,0-1.1,0-1.6,0c-0.2,0-0.4-0.1-0.6-0.1c-3.9,0-7.9-0.1-11.8-0.2
					c-1.9-0.1-3.7-0.2-5.6-0.3C9.8,49.1,10.6,48.9,8.5,49.2z M43.4,55c-0.2,0-0.3,0-0.5,0c0,0-0.1,0-0.1,0c0-0.1,0.1-0.2,0.1-0.3
					c0.1,0,0.3,0,0.4,0C43.3,54.8,43.3,54.9,43.4,55z"/>
				<path class="st22" d="M-18.7,29.5c-1.5,0.2-3.5,1.1-2.8,1.9c-3.4,0.1-6.8,0.3-9.9,0.9c-1.7,0.3-3.7,0.7-5.3,1.4
					c-0.7,0.1-1.4,0.2-2.1,0.4c-2.1,0.4-5.5,1.1-6.1,2.4c0,0.1-0.1,0.2-0.1,0.2c-1.2,0.1-3.1,0.5-3.1,1.3c-1,0.1-2,0.3-2.8,0.6
					c-0.6,0.3-0.7,0.6-0.6,1c-1,0.4-1.7,1.4-0.4,1.9c-1,0.3-1.9,0.8-2.1,1.4c-0.4,1,1.2,1.5,2.7,1.1c0.1,0,0.3-0.1,0.4-0.1
					c0,0,0,0,0.1,0c0.2,0,0.3,0,0.5-0.1c0,0,0.1,0,0.2,0c0.1,0,0.3,0,0.5,0c0.1,0,0.1,0,0.1,0c0,0,0,0,0,0c0.4,0,0.8,0,1.3,0.1
					c0.6,0,1.2-0.2,1.7-0.5c0.4,0,0.8,0.1,1.2,0.1c0.3,0.2,0.7,0.3,1.1,0.3c1.2,0,2.3,0.1,3.5,0.2c-2.7,0.4-5.4,0.9-8.1,1.4
					c-1.5,0.3-2.9,1-2.7,2c0.1,0.9,1.7,1.4,3.1,1.2c0,0,0,0,0,0c0,0,0,0,0,0.1c-0.1,0.2,0,0.5,0.2,0.7c-0.5,0.1-1,0.2-1.5,0.2
					c-1.2,0.2-2.4,0.9-2.5,1.6c-0.1,0.6,0.7,1.2,2,1.1c0.9-0.1,1.8-0.2,2.7-0.2c-1.3,1.1-1.1,2.9,1.5,2.7c0.1,0,0.1,0,0.2,0
					c0.7,0,1.2-0.1,1.7-0.2c-1.3,0.6-2.8,1.1-2.7,2.1c0,0.3,0.4,0.6,0.8,0.7c-0.5,0-1,0.1-1.5,0.2c-1.6,0.4-1.7,1.8-0.4,2.3
					c0.2,0.2,0.5,0.4,0.8,0.6c1,0.4,2.2,0.2,3.4,0.2c0.7,0,1.5,0,2.2,0c-0.8,1.2,1.2,2.2,3.4,1.9c1.6-0.2,3.1-0.8,4.6-1.4
					c0.2,0,0.4,0,0.6,0c0.8,0.1,1.6,0.1,2.4,0.2c0.1,0.1,0.3,0.2,0.5,0.3c-0.2,0.2-0.3,0.3-0.4,0.5c-1.6,0.7-1.6,2,0.9,2.1
					c2,0.1,4.2-0.4,6.1-0.8c2-0.4,4-0.8,5.9-1.3c0.3-0.1,0.6-0.2,0.8-0.4c3.2,0,6.4-0.1,9.4-0.5c0.8-0.1,1.7-0.3,2.3-0.6
					c0.1,0,0.3,0.1,0.4,0.1C-2.6,61.1,0,61,2.6,61c2.6,0,2.4-0.1,5-0.2c-2,0.1,2.6-1.2,1.8-1.8c-1.1,0.3-1.7,0.5-0.1-0.5
					c3.6-0.5,5.5-1.3,8.2-2.7c0.9-0.5,1.7-1.4,0.9-2.1c-0.2-0.1-0.4-0.3-0.6-0.4c0.6-0.1,1.3-0.3,1.9-0.4c0.5,0.1,0.9,0.2,1.4,0.3
					c1.6,0.4,2.9,1.1,4.4,1.6c1.7,0.6,4.8,0.6,5.2-0.8c0.3-1-1.9-2.1-3.2-2.7c-1.3-0.6-2.9-1.1-4.5-1.4c1-0.1,1.9-0.3,2.8-0.5
					c1.4-0.4,1.4-1.5-0.3-1.7c-0.8-0.1-1.5-0.1-2.3-0.1c0.1-0.2,0.1-0.4,0-0.7c-0.2-0.3-0.5-0.5-0.9-0.7c-0.2-0.4-0.6-0.8-1.2-1
					c0.4-0.4,0.8-0.9,1-1.3c0.1-0.2,0.1-0.4,0-0.6c0.2-0.1,0.4-0.3,0.6-0.5c0.3-0.3,0.3-0.6,0.2-0.8c0.2-0.1,0.4-0.2,0.6-0.2
					c0.9-0.4,2.2-1,2.4-1.6c0.2-0.6-0.7-1-1.6-1c-0.2-0.4-0.9-0.7-1.6-0.8c0-0.1,0-0.2-0.1-0.4c0.1-0.1,0.2-0.2,0.3-0.2
					c0.1-0.1,0.1-0.2,0.1-0.3c0-0.1,0-0.2-0.1-0.4c-0.1-0.1-0.2-0.2-0.3-0.3c-0.1-0.1-0.3-0.2-0.5-0.3c0.1,0,0.2-0.1,0.2-0.1
					c0.2-0.1,0.3-0.2,0.4-0.3c0.1-0.1,0.2-0.2,0.2-0.4c0-0.1,0-0.2,0-0.2c0-0.1,0-0.1,0-0.1c0.6-0.2,1-0.5,1-0.8
					c0-0.2-0.1-0.5-0.3-0.6c-0.2-0.2-0.5-0.3-0.8-0.4c0.9-0.6,1.7-1.1,2.4-1.7c0.4-0.4,0.4-1-0.1-1.4c-0.6-0.3-1.5-0.3-2.1,0
					c-1.4,0.7-2.5,1.6-3.7,2.4c0-0.1,0-0.2-0.1-0.3c-0.4-0.8-2.2-1-3.5-0.8c-0.3,0-0.6,0.1-0.9,0.1c-1.2,0-2.4,0.1-3.6,0.2
					c-1.4,0.1-1.4,0.3-2.8,0.4c0.1-0.8-2.1-2-0.7-1.9c-0.6,0,0.5,0-0.1,0c-0.2,0-0.5-0.1-0.7-0.1c-4.3,0-8.5-0.1-12.8-0.3
					c-2-0.1-4-0.2-6.1-0.3C-14,29.4-16.5,29.2-18.7,29.5z M16.5,35.5c-0.2,0-0.4,0-0.5,0c0,0-0.1,0-0.1,0c0.1-0.1,0.1-0.2,0.1-0.3
					c0.1,0,0.3,0,0.4,0C16.3,35.3,16.4,35.4,16.5,35.5z"/>
				<path class="st21" d="M4.5,25.9c-0.1-2.1-0.7-4.2-1.2-4.2c-0.1-0.8-0.2-1.1-0.1-1.1c0.1,0,0.3,0.2,0.5,0.6
					c0.4,0.8,0.9,2.1,1.2,2.7c-0.4-1.6-0.6-2.4-0.9-3.3c-0.1-0.2-0.1-0.4-0.2-0.6c-0.1-0.2-0.2-0.4-0.3-0.6
					c-0.1-0.2-0.2-0.5-0.4-0.7c-0.2-0.3-0.3-0.5-0.6-0.8c0,0,0-0.2-0.1-0.5c-0.1-0.3-0.2-0.7-0.3-1.1c-0.1-0.4-0.3-0.8-0.4-1.1
					c-0.1-0.3-0.2-0.5-0.2-0.5s-0.4-0.4-0.9-1c-0.3-0.3-0.6-0.6-1-0.9c-0.2-0.2-0.4-0.3-0.5-0.5c-0.2-0.1-0.4-0.3-0.6-0.4
					c-0.8-0.6-1.6-1.1-2.2-1.5c-0.3-0.2-0.6-0.3-0.8-0.4c-0.2-0.1-0.3-0.1-0.3-0.1c0.4,0.1,0-0.2,0.3-0.1c-0.6-0.2-1.2-0.5-1.9-0.8
					C-5.9,8.9-5.6,9-5.4,9C-5.2,9.1-5,9.1-5,9.1C-5.3,8.8-5.6,8.6-6,8.4c0.2,0,0.4-0.1,0.7-0.2C-5.6,8-6,7.8-6.3,7.5
					c-0.3-0.2-0.7-0.5-1-0.7c-0.4-0.2-0.7-0.5-1.1-0.7C-8.8,6-9.2,5.7-9.6,5.5c0,0,0,0-0.1,0c-0.3-0.7-0.7-1.4-1.2-1.7
					c-0.4-0.2-0.3,0.2-0.3,0.4c0,0.2-0.1,0.4-0.7,0.2c-0.1,0-0.2-0.1-0.2-0.1c-0.1-0.1-0.1-0.3-0.3-0.4c0,0-0.2,0-0.4,0
					c0,0-0.1,0-0.1,0c-0.1,0-0.2-0.1-0.3-0.1c0,0,0,0,0,0c0.2,0,0.3,0.1,0.5,0.1c-0.2-0.1-0.3-0.2-0.5-0.2c0.1-0.1,0.2-0.1,0.4-0.2
					c0.3-0.1,0.6-0.1,0.7-0.2c0.1,0,0.1,0,0.2,0c0.2,0.1,0.4,0.1,0.5,0.1c0.1,0,0.2,0.1,0.2,0.1c-1.6-1-3.5-1.7-5.4-2
					c-1.1-0.1-2.2-0.1-3.3,0c-0.1,0-0.3-0.1-0.4-0.1c-0.4-0.1-0.9-0.2-1.3-0.2c-0.2,0-0.4,0-0.5,0.1c-0.1,0-0.2,0.1-0.3,0.2
					C-23.1,1-23,0.9-22.6,0.8c0.2,0,0.4-0.1,0.6-0.1c0.2,0,0.4-0.1,0.4-0.1c-0.4,0.1-0.9,0.2-1.5,0.2c-0.3,0-0.6,0-1,0
					c-0.3,0-0.7,0-1,0c-0.6,0-1.3,0.1-1.8,0.1c-0.1,0-0.3,0-0.4,0.1c-0.1,0-0.2,0.1-0.3,0.1c-0.2,0.1-0.4,0.2-0.5,0.2
					c0-0.1-0.1-0.1-0.1-0.1c-0.4,0.2-0.8,0.4-1.3,0.6c-0.5,0.3-1,0.5-1.5,0.8c-0.7,0.4-1.5,0.9-2.3,1.6c-0.2,0.1-0.5,0.2-0.7,0.3
					C-34,4.1-33.9,4-33.9,4c-0.6,0.3-1,0.6-1.3,0.8c-0.6,0.3-1.1,0.6-1.5,0.8C-37,5.8-37.3,6-37.5,6.2c-0.2-0.2,0.3-0.5,0.8-0.7
					c-0.8-0.1-1.5-0.1-2.1,0c-0.6,0.1-1.3,0.3-1.9,0.5c-0.6,0.2-1.2,0.5-1.9,0.9c-0.3,0.2-0.7,0.4-1.1,0.7c-0.2,0.1-0.4,0.3-0.6,0.4
					c-0.1,0.1-0.2,0.2-0.3,0.2c-0.1,0.1-0.2,0.1-0.3,0.2c0,0,0.1-0.1,0.2-0.2c0.1-0.1,0.4-0.3,0.6-0.4c0.2-0.2,0.5-0.3,0.6-0.4
					c0.2-0.1,0.3-0.1,0.3-0.1C-43.5,7.7-43.8,8-44,8.3c-0.1,0.2-0.3,0.3-0.4,0.5c-0.1,0.2-0.2,0.3-0.3,0.5c-0.2,0.3-0.5,0.6-0.7,1
					c-0.2,0.4-0.5,0.7-0.6,1.1c-0.2,0.4-0.4,0.7-0.6,1.1c-0.2,0.4-0.4,0.7-0.5,1c-0.3,0.7-0.7,1.3-0.9,1.7c0,0,0-0.2,0-0.4
					c0-0.2,0-0.4,0-0.4c-0.1,1.2-0.5,2.6-0.7,3.9c-0.1,0.6-0.2,1.2-0.3,1.7c0,0.5,0,0.9,0.1,1.1c0.3-0.9,0.5,0,0.8-1.3
					c0,0,0.1,1.4,0.3,2.6c0,0.1,0,0.1,0,0.2c-0.2,0.5-0.3,0.9-0.4,1.1c0.2-0.2-0.1,1-0.3,2.5c-0.1,0.6-0.1,1.2-0.2,1.7
					c-0.1,0.8-0.3,1.5-0.3,2.2c0-0.6-0.1-1.3-0.2-1.4c0.1,0.4,0.1,1,0.2,1.7c0,0.4-0.1,0.8-0.1,1.2c0,1.1,0.1,2.1,0.3,3
					c0,0.1,0,0.2,0,0.2c-0.1-0.2-0.2,0.3-0.2,1.2c0,1.1,0.2,2.6,0.4,3.8c0.2-0.1,0.6,0.3,0.6,0.5c0.7,1.6,1.9,4,3.8,5.9
					c0.1,0.3,0.2,0.6,0.3,0.9c0.6,1.6,1.5,3.1,2.3,4.3c0,0,0-0.2,0.1-0.5c0-0.2,0.1-0.5,0.1-0.5s0.1,0.1,0.2,0.2
					c0.1,0.1,0.4,0.4,0.6,0.6c0.5,0.5,1.3,1.1,2.1,1.6c0.4,0.3,0.8,0.5,1.2,0.7c0.2,0.1,0.4,0.2,0.6,0.3c0.2,0.1,0.4,0.1,0.5,0.2
					c0.3,0.1,0.6,0.2,0.8,0.3c0.1,0,0.2,0.1,0.2,0.1c0.1,0,0.1,0,0.1,0s-0.1,0-0.2,0c-0.1,0-0.3,0-0.5-0.1c-0.2,0-0.4-0.1-0.7-0.1
					c-0.1,0-0.3,0-0.4-0.1c-0.1,0-0.3-0.1-0.4-0.1c-0.3-0.1-0.5-0.2-0.8-0.2c-0.1,0-0.2-0.1-0.4-0.1c-0.1,0-0.2-0.1-0.3-0.1
					c-0.4-0.2-0.7-0.3-0.7-0.3c0.6,0.3,1.7,0.9,3.1,1.3c0.7,0.2,1.4,0.3,2.1,0.5c0.3,0.1,0.7,0.1,1,0.1c0.3,0,0.6,0,0.9,0
					c1.8,0.1,3,0,3.8,0.1c0.8,0,1.3,0.1,1.7,0.2c0.4,0.1,0.8,0.2,1.4,0.1c0.3-0.1,0.7-0.2,1.1-0.3c0.3-0.1,0.6-0.3,0.9-0.4
					c0.4-0.1,0.7-0.1,1.1-0.2c-0.1,0.1-0.2,0.2-0.3,0.4c0.5-0.2,0.6-0.4,0.6-0.4c0.3-0.1,0.7-0.2,1-0.3c0.1,0.3-0.5,0.6-0.8,0.8
					c-0.1,0.1-0.1,0.1,0.1,0.2c0.2,0,0.7,0,1.6-0.1c-0.4-0.1-0.7-0.2-0.6-0.5c0.1-0.2,0.6-0.5,1.8-1c-0.5,0.5,0,0.5,0.9,0.1
					c0.1,0,0.2-0.1,0.3-0.2c1.5,0,3-0.3,4.2-0.4l-0.5-0.6c0,0,0.2-0.1,0.5-0.3c0.3-0.2,0.7-0.4,1.1-0.7c0.4-0.3,0.8-0.5,1-0.7
					c0.3-0.2,0.4-0.4,0.4-0.4s-0.1,0.1-0.2,0.3c-0.1,0.2-0.3,0.4-0.5,0.7c-0.4,0.5-0.7,1-0.7,1c0.2-0.3,0.7-0.7,1.2-1.2
					c0.5-0.6,1.1-1.1,1.4-1.6c0.2-0.2,0.3-0.3,0.4-0.4c0.4-0.1,0.7-0.2,1-0.3c0,0-0.2,0.2-0.4,0.4c-0.2,0.2-0.5,0.4-0.5,0.4
					c1.6-1.1,3.7-2.3,5.5-3.6c1.8-1.3,3.2-2.8,3.6-3.6c-0.6,0.5-0.7,0.4-0.9,0.4c-0.2,0-0.4,0.1-1.3,0.8c0,0,0.1-0.1,0.3-0.3
					c0.2-0.2,0.4-0.5,0.7-0.9c0.6-0.7,1.3-1.8,1.9-2.9c0.6-1.1,1.1-2.3,1.5-3.1C2.4,35.6,2.6,35,2.6,35s0.3-0.1,0.6-0.2
					c0.3-0.1,0.6-0.2,0.6-0.2s0.1-0.3,0.2-0.9c0.1-0.5,0.2-1.2,0.3-1.9c0.1-0.7,0.2-1.4,0.2-1.9c0-0.5,0-0.9,0-0.9
					C4.3,29.8,4.6,27.9,4.5,25.9z M-33.6,4.3c-0.2,0.1-0.3,0.3-0.5,0.4c-0.1,0-0.1,0,0-0.1c0,0,0.1-0.1,0.3-0.2
					C-33.7,4.4-33.7,4.3-33.6,4.3z"/>
				<path class="st22" d="M8.9,69.5c0-1.3-0.5-2.7-0.7-2.6c-0.1-0.5-0.1-0.7,0-0.7c0.1,0,0.2,0.1,0.3,0.4C8.7,67,9,67.9,9.2,68.2
					c-0.2-1-0.4-1.6-0.5-2.1c0-0.1-0.1-0.3-0.1-0.4c-0.1-0.1-0.1-0.3-0.2-0.4c-0.1-0.1-0.1-0.3-0.3-0.5c-0.1-0.2-0.2-0.3-0.4-0.5
					c0,0,0-0.1-0.1-0.3c0-0.2-0.1-0.4-0.2-0.7c-0.1-0.3-0.2-0.5-0.2-0.7c-0.1-0.2-0.1-0.3-0.1-0.3s-0.2-0.2-0.6-0.6
					c-0.2-0.2-0.4-0.4-0.6-0.6c-0.1-0.1-0.2-0.2-0.3-0.3c-0.1-0.1-0.3-0.2-0.4-0.3c-0.5-0.4-1-0.7-1.4-0.9c-0.2-0.1-0.4-0.2-0.5-0.3
					c-0.1-0.1-0.2-0.1-0.2-0.1c0.2,0.1,0-0.1,0.2,0c-0.4-0.1-0.8-0.3-1.2-0.5c0.2,0,0.4,0,0.5,0.1c0.1,0,0.2,0,0.2,0
					c-0.2-0.2-0.4-0.3-0.6-0.4c0.1,0,0.3-0.1,0.4-0.1C2.5,58.1,2.3,58,2,57.8c-0.2-0.1-0.4-0.3-0.7-0.4c-0.2-0.1-0.5-0.3-0.7-0.4
					c-0.2-0.1-0.5-0.3-0.8-0.4c0,0,0,0,0,0c-0.2-0.5-0.4-0.9-0.8-1.1c-0.2-0.1-0.2,0.1-0.2,0.3c0,0.1-0.1,0.2-0.4,0.1
					c0,0-0.1,0-0.2-0.1c-0.1-0.1-0.1-0.2-0.2-0.3c0,0-0.1,0-0.2,0c0,0-0.1,0-0.1,0c-0.1,0-0.1-0.1-0.2-0.1c0,0,0,0,0,0
					c0.1,0,0.2,0,0.3,0.1c-0.1-0.1-0.2-0.1-0.3-0.2c0,0,0.1-0.1,0.2-0.1c0.2,0,0.4-0.1,0.5-0.1c0,0,0.1,0,0.1,0
					c0.1,0,0.3,0.1,0.3,0.1c0.1,0,0.1,0,0.1,0c-1-0.7-2.2-1.1-3.4-1.3c-0.7-0.1-1.4-0.1-2.1,0c-0.1,0-0.2,0-0.2-0.1
					c-0.3-0.1-0.6-0.1-0.8-0.1c-0.1,0-0.2,0-0.3,0c-0.1,0-0.1,0.1-0.2,0.1c-0.5-0.2-0.4-0.3-0.2-0.4c0.1,0,0.3,0,0.4-0.1
					c0.1,0,0.2,0,0.3-0.1c-0.2,0.1-0.6,0.1-1,0.1c-0.2,0-0.4,0-0.6,0c-0.2,0-0.4,0-0.6,0c-0.4,0-0.8,0.1-1.2,0.1c-0.1,0-0.2,0-0.2,0
					c-0.1,0-0.2,0-0.2,0.1c-0.1,0-0.2,0.1-0.3,0.2c0,0-0.1-0.1-0.1-0.1c-0.2,0.1-0.5,0.3-0.8,0.4c-0.3,0.2-0.6,0.3-1,0.5
					c-0.5,0.3-1,0.6-1.5,1c-0.2,0.1-0.3,0.1-0.4,0.2c0.1-0.1,0.1-0.2,0.1-0.2c-0.4,0.2-0.7,0.4-0.8,0.5c-0.4,0.2-0.7,0.4-0.9,0.5
					c-0.2,0.1-0.4,0.3-0.6,0.4c-0.2-0.2,0.2-0.3,0.5-0.4c-0.5-0.1-0.9-0.1-1.3,0c-0.4,0.1-0.8,0.2-1.2,0.3c-0.4,0.1-0.8,0.3-1.2,0.6
					c-0.2,0.1-0.5,0.3-0.7,0.4c-0.1,0.1-0.3,0.2-0.4,0.3c-0.1,0.1-0.1,0.1-0.2,0.2c-0.1,0-0.1,0.1-0.2,0.1c0,0,0.1,0,0.1-0.1
					c0.1-0.1,0.2-0.2,0.4-0.3c0.1-0.1,0.3-0.2,0.4-0.2c0.1-0.1,0.2-0.1,0.2-0.1c-0.2,0.2-0.3,0.4-0.5,0.6c-0.1,0.1-0.2,0.2-0.2,0.3
					c-0.1,0.1-0.1,0.2-0.2,0.3c-0.1,0.2-0.3,0.4-0.4,0.6c-0.1,0.2-0.3,0.4-0.4,0.7c-0.1,0.2-0.3,0.5-0.4,0.7
					c-0.1,0.2-0.2,0.4-0.3,0.7c-0.2,0.4-0.4,0.8-0.6,1.1c0,0,0-0.1,0-0.2c0-0.1,0-0.2,0-0.2c0,0.8-0.3,1.6-0.5,2.5
					c-0.1,0.4-0.1,0.8-0.2,1.1c0,0.3,0,0.6,0.1,0.7c0.2-0.6,0.3,0,0.5-0.8c0,0,0.1,0.9,0.2,1.7c0,0,0,0.1,0,0.1
					c-0.1,0.3-0.2,0.6-0.3,0.7c0.1-0.2,0,0.6-0.2,1.6c-0.1,0.4-0.1,0.8-0.1,1.1c-0.1,0.5-0.2,1-0.2,1.4c0-0.4,0-0.8-0.1-0.9
					c0.1,0.3,0.1,0.6,0.1,1.1c0,0.3,0,0.5,0,0.8c0,0.7,0,1.3,0.2,1.9c0,0.1,0,0.1,0,0.2c-0.1-0.1-0.1,0.2-0.1,0.8
					c0,0.7,0.1,1.7,0.3,2.4c0.1,0,0.4,0.2,0.4,0.3c0.4,1,1.2,2.6,2.4,3.8c0.1,0.2,0.1,0.4,0.2,0.5c0.4,1,0.9,2,1.4,2.7
					c0,0,0-0.2,0-0.3c0-0.1,0-0.3,0-0.3s0,0.1,0.1,0.2c0.1,0.1,0.2,0.2,0.4,0.4c0.3,0.3,0.8,0.7,1.3,1c0.2,0.2,0.5,0.3,0.8,0.4
					c0.1,0.1,0.2,0.1,0.4,0.2c0.1,0,0.2,0.1,0.3,0.1c0.2,0.1,0.4,0.1,0.5,0.2c0.1,0,0.1,0,0.1,0c0,0,0,0,0,0s0,0-0.1,0
					c-0.1,0-0.2,0-0.3,0c-0.1,0-0.3,0-0.4-0.1c-0.1,0-0.2,0-0.2,0c-0.1,0-0.2,0-0.2-0.1c-0.2,0-0.3-0.1-0.5-0.1
					c-0.1,0-0.2,0-0.2-0.1c-0.1,0-0.1-0.1-0.2-0.1c-0.3-0.1-0.4-0.2-0.4-0.2c0.4,0.2,1.1,0.6,2,0.8c0.4,0.1,0.9,0.2,1.3,0.3
					c0.2,0,0.4,0,0.7,0.1c0.2,0,0.4,0,0.6,0c1.2,0.1,1.9,0,2.4,0c0.5,0,0.8,0.1,1.1,0.2c0.3,0.1,0.5,0.1,0.9,0.1
					c0.2,0,0.4-0.1,0.7-0.2c0.2-0.1,0.4-0.2,0.6-0.3c0.2,0,0.5-0.1,0.7-0.1c-0.1,0.1-0.1,0.2-0.2,0.2c0.3-0.2,0.4-0.2,0.4-0.3
					c0.2-0.1,0.4-0.1,0.6-0.2c0.1,0.2-0.3,0.4-0.5,0.5c-0.1,0.1-0.1,0.1,0.1,0.1c0.2,0,0.5,0,1-0.1c-0.2,0-0.5-0.2-0.4-0.3
					c0.1-0.2,0.4-0.3,1.1-0.6c-0.3,0.3,0,0.3,0.6,0.1c0.1,0,0.1-0.1,0.2-0.1c1,0,1.9-0.2,2.7-0.2l-0.3-0.4c0,0,0.1-0.1,0.3-0.2
					c0.2-0.1,0.5-0.2,0.7-0.4c0.2-0.2,0.5-0.3,0.7-0.5c0.2-0.1,0.3-0.2,0.3-0.2s0,0.1-0.1,0.2c-0.1,0.1-0.2,0.3-0.3,0.4
					c-0.2,0.3-0.5,0.6-0.5,0.6c0.1-0.2,0.4-0.5,0.8-0.8c0.3-0.4,0.7-0.7,0.9-1c0.1-0.1,0.2-0.2,0.3-0.3c0.2-0.1,0.5-0.1,0.7-0.2
					c0,0-0.1,0.1-0.3,0.2c-0.1,0.1-0.3,0.2-0.3,0.2c1-0.7,2.4-1.4,3.5-2.3c1.1-0.8,2.1-1.8,2.3-2.3c-0.4,0.3-0.5,0.3-0.5,0.3
					c-0.1,0-0.2,0-0.8,0.5c0,0,0.1-0.1,0.2-0.2c0.1-0.1,0.3-0.3,0.4-0.6c0.4-0.5,0.8-1.1,1.2-1.8c0.4-0.7,0.7-1.4,0.9-2
					c0.2-0.6,0.3-1,0.3-1s0.2-0.1,0.4-0.1c0.2-0.1,0.4-0.1,0.4-0.1s0.1-0.2,0.1-0.5c0.1-0.3,0.2-0.8,0.2-1.2
					c0.1-0.4,0.1-0.9,0.1-1.2c0-0.3,0-0.6,0-0.6C8.8,72,9,70.8,8.9,69.5z M-15.3,55.8c-0.1,0.1-0.2,0.2-0.3,0.3c0,0-0.1,0,0,0
					c0,0,0.1-0.1,0.2-0.2C-15.4,55.8-15.4,55.8-15.3,55.8z"/>
				<path class="st22" d="M89.2,15.6c-0.2-1.6-1-3.9-1.8-3c-0.1-3.7-0.3-7.4-0.8-10.9c-0.3-1.9,2.1-4,1.5-5.9
					C88-5,87.9-5.8,87.8-6.6c-0.4-2.3,0.4-6-0.9-6.7c-0.1,0-0.1-0.1-0.2-0.1c-0.1-1.3-0.5-3.4-1.1-3.5C85.5-18,85.3-19,85-19.9
					c-0.3-0.7-0.6-0.8-0.9-0.6c-0.4-1.1-1.3-1.8-1.7-0.4c-0.3-1.1-0.7-2-1.3-2.4c-0.9-0.5-1.3,1.3-1,2.9c0,0.1,0.1,0.3,0.1,0.4
					c0,0,0,0,0,0.1c0,0.2,0,0.4,0.1,0.5c0,0,0,0.1,0,0.2c0,0.1,0,0.4,0,0.5c0,0.1,0,0.1,0,0.1c0,0,0,0,0,0c0,0.5,0,0.9-0.1,1.4
					c0,0.6,0.2,1.3,0.4,1.8c0,0.4-0.1,0.9-0.1,1.4c-0.2,0.3-0.3,0.7-0.3,1.2c0,1.3-1.5,2.5-1.5,3.8c-0.4-3,0.5-5.9,0.1-8.9
					c-0.2-1.6-0.9-3.1-1.8-3c-0.8,0.1-1.3,1.9-1.1,3.5c0,0,0,0,0,0c0,0,0,0-0.1,0c-0.2-0.1-0.4,0-0.6,0.2c-0.1-0.6-0.1-1.1-0.2-1.7
					c-0.2-1.3-0.8-2.6-1.5-2.7c-0.6-0.1-1.1,0.8-1,2.2c0.1,1,0.1,2,0.2,3c-1-1.5-2.6-1.2-2.5,1.7c0,0.1,0,0.1,0,0.2
					c0,0.7,0,1.3,0.2,1.8c-0.5-1.5-1-3-1.9-3c-0.3,0-0.5,0.4-0.6,0.9c0-0.6-0.1-1.1-0.2-1.7c-0.3-1.7-1.6-1.9-2.1-0.4
					c-0.2,0.2-0.4,0.5-0.5,0.9c-0.4,1.1-0.2,2.5-0.2,3.7c0,0.8-1.4,1.6-1.4,2.4c-1.1-0.9-2,1.3-1.7,3.7c0.2,1.8-3.6,3.4-3.1,5.1
					c0,0.2,0,0.4,0,0.6c-0.1,0.9-0.1,1.8-0.1,2.6c-0.1,0.1-0.2,0.3-0.2,0.5c-0.1-0.2-0.3-0.4-0.5-0.5c-0.6-1.7-1.8-1.7-1.9,1
					c-0.1,2.2,0.4,4.6,0.7,6.6c0.3,2.2,0.7,4.4,1.2,6.4c0.1,0.4,0.2,0.6,0.3,0.9c0,3.5,0.1,7,0.4,10.3c0.1,0.9,0.3,1.8,0.6,2.5
					c0,0.1-0.1,0.3-0.1,0.5c-0.4,2.7-0.2,5.7-0.2,8.5c0,2.8,0.1,5.7,0.2,8.5c0.1,2.5,1,3.1,1.6,2c0.1,0.5,0.3,1,0.5,1.4
					c0.4,4,1.2,7.8,2.5,10.8c0.4,1,1.3,1.8,1.9,1c0.1-0.2,0.2-0.4,0.3-0.7c0.1,0.7,0.2,1.4,0.4,2.1c-0.1,0.5-0.2,1-0.3,1.5
					c-0.4,1.7-1,3.2-1.5,4.8c-0.6,1.9-0.5,5.3,0.8,5.7c0.9,0.3,1.9-2.1,2.4-3.5c0.5-1.5,1-3.2,1.3-4.9c0.1,1.1,0.2,2.1,0.5,3.1
					c0.4,1.5,1.4,1.5,1.6-0.3c0.1-0.8,0.1-1.7,0.1-2.5c0.2,0.1,0.4,0.1,0.6,0c0.3-0.2,0.5-0.5,0.6-0.9c0.4-0.2,0.7-0.6,0.9-1.3
					c0.4,0.4,0.8,0.9,1.2,1.1c0.2,0.1,0.4,0.1,0.5,0c0.1,0.3,0.3,0.5,0.4,0.7c0.3,0.3,0.5,0.4,0.8,0.2c0.1,0.2,0.1,0.4,0.2,0.6
					c0.4,0.9,2.5,2.4,3.1,2.6c0.6,0.2,0.9-0.7,0.9-1.8c0.4-0.2,0.6-1,0.7-1.8c0.1,0,0.2,0,0.3-0.1c0.1,0.1,0.1,0.2,0.2,0.3
					c0.1,0.1,0.2,0.1,0.3,0.1c0.1,0,0.2,0,0.3-0.1c0.1-0.1,0.2-0.2,0.3-0.3c0.1-0.1,0.2-0.3,0.3-0.5c0,0.1,0.1,0.2,0.1,0.3
					c0.1,0.2,0.2,0.3,0.3,0.5c0.1,0.1,0.2,0.2,0.3,0.2c0.1,0,0.1,0,0.2,0c0,0,0.1,0,0.1,0c0.2,0.6,0.4,1.1,0.8,1.1
					c0.2,0,0.4-0.1,0.6-0.4c0.2-0.2,0.3-0.6,0.4-0.9c0.5,1,1,1.9,1.6,2.7c0.3,0.5,1,0.5,1.3-0.1c0.3-0.6,0.2-1.7,0-2.3
					c-0.6-1.5-1.4-2.7-2.2-4c0.1,0,0.2,0,0.3-0.1c0.8-0.4,0.9-2.5,0.8-3.8c0-0.3-0.1-0.7-0.1-1c0-1.3-0.1-2.6-0.2-4
					c-0.1-1.5-0.2-3.1-0.4-4.6c0.9,0.1,1.7-1.3,1.8-3.7c0-0.6,0-1.3,0-1.9c0-0.2,0-0.5,0-0.8c0-4.7,0.1-9.4,0.2-14
					c0.1-2.2,0.2-4.4,0.3-6.7C89.3,20.7,89.5,18.1,89.2,15.6z M83.7,60.6c0-0.2,0-0.4,0-0.6c0,0,0-0.1,0-0.1
					c0.1,0.1,0.2,0.1,0.3,0.1c0,0.2,0,0.3,0,0.5C83.9,60.4,83.8,60.5,83.7,60.6z"/>
				<path class="st23" d="M108,114.2c1.5-0.2,3.6-1,2.8-1.8c3.4,0,6.8-0.1,10-0.5c1.7-0.2,3.7-0.6,5.4-1.2c0.7-0.1,1.4-0.2,2.1-0.3
					c2.1-0.4,5.5-0.9,6.2-2.2c0-0.1,0.1-0.2,0.1-0.2c1.2-0.1,3.1-0.4,3.2-1.1c1.1-0.1,2-0.2,2.8-0.5c0.6-0.3,0.8-0.6,0.6-0.9
					c1-0.4,1.7-1.4,0.4-1.9c1-0.3,1.9-0.7,2.2-1.3c0.5-0.9-1.2-1.5-2.6-1.2c-0.1,0-0.3,0.1-0.4,0.1c0,0,0,0-0.1,0
					c-0.2,0-0.3,0-0.5,0.1c0,0-0.1,0-0.2,0c-0.1,0-0.3,0-0.5,0c-0.1,0-0.1,0-0.1,0c0,0,0,0,0,0c-0.4,0-0.8-0.1-1.3-0.1
					c-0.6,0-1.2,0.1-1.7,0.4c-0.4-0.1-0.8-0.1-1.2-0.1c-0.3-0.2-0.6-0.3-1.1-0.4c-1.1-0.1-2.3-0.2-3.4-0.3c2.7-0.3,5.4-0.7,8.1-1.1
					c1.5-0.2,2.9-0.9,2.8-1.9c-0.1-0.9-1.7-1.5-3.1-1.3c0,0,0,0,0,0c0,0,0,0,0-0.1c0.1-0.2,0-0.5-0.2-0.7c0.5-0.1,1-0.1,1.5-0.2
					c1.2-0.1,2.4-0.8,2.5-1.5c0.1-0.6-0.7-1.3-1.9-1.2c-0.9,0-1.8,0.1-2.7,0.1c1.4-1,1.2-2.8-1.4-2.8c-0.1,0-0.1,0-0.2,0
					c-0.7-0.1-1.2,0-1.7,0.1c1.3-0.5,2.8-1,2.8-2c0-0.3-0.3-0.6-0.8-0.7c0.5,0,1,0,1.5-0.1c1.6-0.3,1.8-1.7,0.5-2.3
					c-0.2-0.2-0.5-0.5-0.8-0.6c-1-0.4-2.2-0.3-3.4-0.4c-0.7,0-1.5-0.1-2.2-0.1c0.8-1.2-3.9-2.2-6.1-2c-1.6,0.2-0.4,0.7-1.9,1.2
					c-0.2,0-0.4,0-0.6-0.1c-0.8-0.1-4.3-0.2-5.1-0.3c-0.1-0.1-0.3-0.2-0.5-0.3c0.2-0.2,0.3-0.3,0.5-0.5c1.6-0.6,1.7-1.9-0.8-2.1
					c-2-0.2-4.2,0.3-6.1,0.6c-2,0.3-4,0.6-5.9,1.1c-0.3,0.1-0.6,0.2-0.8,0.3c-3.2-0.1-6.4-0.1-9.4,0.1c-0.8,0.1-1.7,0.2-2.3,0.5
					c-0.1,0-0.3-0.1-0.4-0.1C90.2,82,87.6,82.1,85,82c-2.6-0.1-6.8-0.1-9.4-0.1c-2.2,0-0.1,1,0.8,1.7c-0.5,0.1-0.9,0.3-1.3,0.5
					c-3.7,0.3-5.5,1.1-8.3,2.4c-0.9,0.4-1.7,1.4-0.9,2c0.2,0.2,0.4,0.3,0.6,0.4c-0.6,0.1-1.3,0.2-1.9,0.3c-0.5-0.1-0.9-0.2-1.4-0.4
					c-1.6-0.5-2.8-1.2-4.3-1.8c-1.7-0.7-4.8-0.8-5.2,0.6c-0.3,1,1.9,2.2,3.1,2.8c1.3,0.6,2.9,1.2,4.4,1.6c-1,0.1-1.9,0.2-2.9,0.4
					c-1.4,0.4-1.4,1.5,0.2,1.8c0.8,0.1,1.5,0.2,2.3,0.2c-0.1,0.2-0.1,0.4,0,0.7c0.2,0.3,0.5,0.5,0.8,0.7c0.2,0.4,0.5,0.8,1.1,1.1
					c-0.4,0.4-0.8,0.8-1,1.3c-0.1,0.2-0.1,0.4,0,0.6c-0.2,0.1-0.4,0.3-0.6,0.5c-0.3,0.3-0.3,0.6-0.2,0.8c-0.2,0.1-0.4,0.1-0.6,0.2
					c-0.9,0.4-2.2,0.9-2.5,1.5c-0.2,0.6,0.6,1,1.6,1.1c0.2,0.4,0.9,0.7,1.6,0.9c0,0.1,0,0.2,0.1,0.4c-0.1,0.1-0.2,0.1-0.3,0.2
					c-0.1,0.1-0.1,0.2-0.1,0.3c0,0.1,0,0.2,0.1,0.4c0,0.1,0.1,0.2,0.2,0.3c0.1,0.1,0.3,0.2,0.5,0.3c-0.1,0-0.2,0.1-0.2,0.1
					c-0.2,0.1-0.3,0.2-0.4,0.3c-0.1,0.1-0.2,0.2-0.2,0.4c0,0.1,0,0.2,0,0.2c0,0.1,0,0.1,0,0.1c-0.6,0.1-1,0.4-1.1,0.8
					c0,0.2,0.1,0.5,0.3,0.6c0.2,0.2,0.5,0.3,0.8,0.4c-0.9,0.5-1.8,1.1-2.5,1.7c-0.4,0.4-0.5,1,0.1,1.4c0.6,0.4,1.5,0.3,2.1,0.1
					c1.4-0.6,2.6-1.5,3.7-2.2c0,0.1,0,0.2,0,0.3c0.3,0.9,2.2,1.1,3.4,1c0.3,0,0.6-0.1,0.9-0.1c1.2,0.1,2.4,0,3.7,0
					c1.4-0.1,2.8-0.2,4.2-0.3c-0.1,0.9,1.1,1.9,3.3,2.1c0.6,0,1.1,0.1,1.7,0.1c0.2,0,0.4,0.1,0.7,0.1c4.3,0.2,8.5,0.4,12.8,0.7
					c2,0.2,4,0.3,6,0.5C103.4,114.1,105.8,114.5,108,114.2z M67.3,106.6c0.2,0,0.4,0,0.5,0c0,0,0.1,0,0.1,0
					c-0.1,0.1-0.1,0.2-0.1,0.3c-0.1,0-0.3,0-0.4,0C67.4,106.8,67.4,106.7,67.3,106.6z"/>
				<path class="st23" d="M-7.2,21c1.5-0.2,3.6-1,2.8-1.8c3.4,0,6.8-0.1,10-0.5c1.7-0.2,0.9-0.6,2.6-1.2C9,17.4,8,17.3,8.7,17.2
					c2.1-0.4,4.2-0.9,4.8-2.2c0-0.1,0.1-0.2,0.1-0.2c1.2-0.1,3.1-0.4,3.2-1.1c1.1-0.1,2-0.2,2.8-0.5c0.6-0.3,0.8-0.6,0.6-0.9
					c1-0.4,1.7-1.4,0.4-1.9c1-0.3,1.9-0.7,2.2-1.3c0.5-0.9-1.2-1.5-2.6-1.2c-0.1,0-0.3,0.1-0.4,0.1c0,0,0,0-0.1,0
					c-0.2,0-0.3,0-0.5,0.1c0,0-0.1,0-0.2,0c-0.1,0-0.3,0-0.5,0c-0.1,0-0.1,0-0.1,0c0,0,0,0,0,0c-0.4,0-0.8-0.1-1.3-0.1
					c-0.6,0-1.2,0.1-1.7,0.4c-0.4-0.1-0.8-0.1-1.2-0.1c-0.3-0.2-0.6-0.3-1.1-0.4C12,7.6,10.9,7.5,9.7,7.4c2.7-0.3,5.4-0.7,8.1-1.1
					c1.5-0.2,2.9-0.9,2.8-1.9c-0.1-0.9-1.7-1.5-3.1-1.3c0,0,0,0,0,0c0,0,0,0,0-0.1c0.1-0.2,0-0.5-0.2-0.7c0.5-0.1,1-0.1,1.5-0.2
					c1.2-0.1,2.4-0.8,2.5-1.5c0.1-0.6-0.7-1.3-1.9-1.2c-0.9,0-1.8,0.1-2.7,0.1c1.4-1,1.2-2.8-1.4-2.8c-0.1,0-0.1,0-0.2,0
					c-0.7-0.1-1.2,0-1.7,0.1C14.9-3.5,19-4,19-5c0-0.3,1.3-0.6,0.9-0.7c0.5,0,1,0,1.5-0.1c1.6-0.3,1.8-1.7,0.5-2.3
					c-0.2-0.2-0.5-0.5-0.8-0.6c-1-0.4-2.2-0.3-3.4-0.4c-0.7,0-1.5-0.1-2.2-0.1c0.8-1.2,0.3-2.2-2-2c-3,0.3-4.4,1.1-4.7,1.2
					c-0.2,0-0.4,0-0.6-0.1c-0.8-0.1-1.6-0.2-2.4-0.3c-0.1-0.1-0.3-0.2-0.5-0.3c0.2-0.2,0.3-0.3,0.5-0.5c1.6-0.6,1.7-1.9-0.8-2.1
					c-2-0.2-4.2,0.3-6.1,0.6c-2,0.3-4,0.6-5.9,1.1c-0.3,0.1-0.6,0.2-0.8,0.3c-3.2-0.1-6.4-0.1-9.4,0.1c-0.8,0.1-1.7,0.2-2.3,0.5
					c-0.1,0-0.3-0.1-0.4-0.1c-2.5-0.5-5.1-0.5-7.7-0.5c-2.6-0.1-5.2-0.1-7.8-0.1c-2.2,0-2.8,1-1.9,1.7c-0.5,0.1-0.9,0.3-1.3,0.5
					c-3.7,0.3-7.2,1.1-9.9,2.4c-0.9,0.4-1.7,1.4-0.9,2c0.2,0.2,0.4,0.3,0.6,0.4c-0.6,0.1-1.3,0.2-1.9,0.3c-0.5-0.1-0.9-0.2-1.4-0.4
					c-1.6-0.5-2.8-1.2-4.3-1.8C-58-7-61.1-7.1-61.5-5.6c-0.3,1,1.9,2.2,3.1,2.8c1.3,0.6,2.9,1.2,4.4,1.6c-1,0.1-1.9,0.2-2.9,0.4
					c-1.4,0.4-1.4,1.5,0.2,1.8c0.8,0.1,1.5,0.2,2.3,0.2c-0.1,0.2-0.1,0.4,0,0.7c0.2,0.3,0.5,0.5,0.8,0.7c0.2,0.4,0.5,0.8,1.1,1.1
					c-0.4,0.4-0.8,0.8-1,1.3c-0.1,0.2-0.1,0.4,0,0.6c-0.2,0.1-0.4,0.3-0.6,0.5c-0.3,0.3-0.3,0.6-0.2,0.8c-0.2,0.1-0.4,0.1-0.6,0.2
					c-0.9,0.4-2.2,0.9-2.5,1.5c-0.2,0.6,0.6,1,1.6,1.1c0.2,0.4,0.9,0.7,1.6,0.9c0,0.1,0,0.2,0.1,0.4c-0.1,0.1-0.2,0.1-0.3,0.2
					c-0.1,0.1-0.1,0.2-0.1,0.3c0,0.1,0,0.2,0.1,0.4c0,0.1,0.1,0.2,0.2,0.3c0.1,0.1,0.3,0.2,0.5,0.3c-0.1,0-0.2,0.1-0.2,0.1
					c-0.2,0.1-0.3,0.2-0.4,0.3c-0.1,0.1-0.2,0.2-0.2,0.4c0,0.1,0,0.2,0,0.2c0,0.1,0,0.1,0,0.1c-0.6,0.1-1,0.4-1.1,0.8
					c0,0.2,0.1,0.5,0.3,0.6c0.2,0.2,0.5,0.3,0.8,0.4c-0.9,0.5-1.8,1.1-2.5,1.7c-0.4,0.4-0.5,1,0.1,1.4c0.6,0.4,1.5,0.3,2.1,0.1
					c1.4-0.6,2.6-1.5,3.7-2.2c0,0.1,0,0.2,0,0.3c0.3,0.9,2.2,1.1,3.4,1c0.3,0,0.6-0.1,0.9-0.1c1.2,0.1,2.4,0,3.7,0
					c1.4-0.1,2.8-0.2,4.2-0.3c-0.1,0.9,1.1,1.9,3.3,2.1c0.6,0,1.1,0.1,1.7,0.1c0.2,0,0.4,0.1,0.7,0.1c4.3,0.2,8.5,0.4,12.8,0.7
					c2,0.2,4,0.3,6,0.5C-11.9,20.9-9.4,21.2-7.2,21z M-47.9,13.4c0.2,0,0.4,0,0.5,0c0,0,0.1,0,0.1,0c-0.1,0.1-0.1,0.2-0.1,0.3
					c-0.1,0-0.3,0-0.4,0C-47.8,13.6-47.8,13.5-47.9,13.4z"/>
				<path class="st19" d="M8.3,34.4c-0.1-0.8,1.1-1.9,0.7-1.5c-0.1-1.8-0.2-3.6-0.5-5.3c-0.2-0.9-0.4-2-0.7-2.9
					c-0.1-0.4-0.1-0.8-0.2-1.1c-0.2-1.1-0.6-3-1.2-3.3c0,0-0.1,0-0.1,0c-0.1-0.6-0.3-1.7-0.6-1.7c0-0.6-0.1-1.1-0.3-1.5
					c-0.1-0.3-0.3-0.4-0.5-0.3c-0.2-0.5-0.7-0.9-0.9-0.2c-0.1-0.6-0.4-1-0.7-1.2c-0.5-0.2-0.7,0.7-0.5,1.4c0,0.1,0,0.1,0.1,0.2
					c0,0,0,0,0,0c0,0.1,0,0.2,0,0.3c0,0,0,0.1,0,0.1c0,0,0,0.2,0,0.3c0,0,0,0.1,0,0c0,0,0,0,0,0c0,0.2,0,0.5,0,0.7
					c0,0.3,0.1,0.7,0.2,0.9c0,0.2,0,0.4,0,0.7c-0.1,0.2-0.2,0.4-0.2,0.6c0,0.6-0.1,1.2-0.1,1.9c-0.2-1.5-0.4-2.9-0.7-4.3
					c-0.1-0.8-0.5-1.5-1-1.5c-0.4,0.1-0.7,0.9-0.6,1.7c0,0,0,0,0,0c0,0,0,0,0,0c-0.1-0.1-0.2,0-0.3,0.1c0-0.3-0.1-0.5-0.1-0.8
					C0,17-0.3,16.3-0.7,16.3c-0.3-0.1-0.6,0.4-0.6,1.1c0,0.5,0.1,1,0.1,1.4c-0.5-0.7-1.4-0.6-1.4,0.8c0,0,0,0.1,0,0.1
					c0,0.4,0,0.6,0.1,0.9c-0.3-0.7-0.5-1.5-1.1-1.5c-0.1,0-0.3,0.2-0.3,0.4c0-0.3,0-0.5-0.1-0.8c-0.2-0.8-0.9-0.9-1.2-0.2
					c-0.1,0.1-0.2,0.3-0.3,0.4c-0.2,0.5-0.1,1.2-0.1,1.8c0,0.4,0,0.8,0,1.2c-0.6-0.4-1.1,0.6-0.9,1.8c0.1,0.9,0.4,1.7,0.7,2.5
					c0,0.1,0,0.2,0,0.3c0,0.4-0.1,0.9-0.1,1.3c0,0.1-0.1,0.2-0.1,0.2C-6,28-6.1,28-6.2,27.9c-0.3-0.8-1-0.9-1,0.5
					c0,1.1,0.2,2.2,0.4,3.2c0.2,1.1,0.4,2.2,0.7,3.1c0,0.2,0.1,0.3,0.2,0.4c0,1.7,0.1,3.4,0.2,5c0,0.4,0.2,0.9,0.3,1.2
					c0,0.1,0,0.1,0,0.2c-0.2,1.3-0.1,2.8-0.1,4.1c0,1.4,0.1,2.8,0.1,4.2c0,1.2,0.6,1.5,0.9,1c0.1,0.3,0.1,0.5,0.3,0.7
					c0.2,2,0.7,3.8,1.4,5.3c0.2,0.5,0.7,0.9,1,0.5c0.1-0.1,0.1-0.2,0.2-0.3c0.1,0.3,0.1,0.7,0.2,1c0,0.3-0.1,0.5-0.2,0.7
					c-0.2,0.8-0.5,1.5-0.8,2.3c-0.3,0.9-0.3,2.6,0.4,2.8c0.5,0.1,1-1,1.3-1.7c0.3-0.7,0.5-1.6,0.7-2.4c0.1,0.5,0.1,1,0.3,1.5
					c0.2,0.7,0.8,0.7,0.9-0.2C1,60.8,1,60.4,1,60c0.1,0.1,0.2,0.1,0.3,0c0.1-0.1,0.3-0.3,0.3-0.5c0.2-0.1,0.4-0.3,0.5-0.6
					c0.2,0.2,0.4,0.4,0.7,0.5c0.1,0,0.2,0,0.3,0c0.1,0.1,0.1,0.2,0.2,0.3c0.1,0.2,0.3,0.2,0.4,0.1c0,0.1,0.1,0.2,0.1,0.3
					c0.2,0.5,0.5,1.2,0.8,1.3C5,61.5,5.2,61,5.2,60.5c0.2-0.1,0.3-0.5,0.4-0.9c0.1,0,0.1,0,0.2,0c0,0.1,0.1,0.1,0.1,0.1
					c0,0,0.1,0.1,0.2,0.1c0.1,0,0.1,0,0.2,0c0.1,0,0.1-0.1,0.2-0.1c0.1-0.1,0.1-0.2,0.2-0.3c0,0,0,0.1,0.1,0.1
					c0,0.1,0.1,0.2,0.2,0.2c0.1,0.1,0.1,0.1,0.2,0.1c0,0,0.1,0,0.1,0c0,0,0,0,0.1,0c0.1,0.3,0.2,0.5,0.4,0.6c0.1,0,0.2-0.1,0.3-0.2
					c0.1-0.1,0.1-0.3,0.2-0.4c0.3,0.5,0.6,0.9,0.9,1.3c0.2,0.2-1.1,0.2-1-0.1c0.2-0.3,0.1-0.8,0-1.1c-0.3-0.7,0.9-1.3,0.5-2
					c0,0,0.1,0,0.2,0C9,57.7,9.1,56.7,9,56c0-0.2,0-0.3-0.1-0.5c0-0.6,0-1.3-0.1-2c-0.1-0.7-0.1-1.5-0.2-2.2c0.5,0-0.7-0.6-0.7-1.8
					c0-0.3,0-0.6,0-0.9c0-0.1,0-0.2,0-0.4c0-2.3,0-4.6,0.1-6.9c0-1.1,0.1-2.2,0.1-3.2C8.4,36.9,8.5,35.6,8.3,34.4z M7,56.3
					c0-0.1,0-0.2,0-0.3c0,0,0,0,0,0c0.1,0,0.1,0,0.2,0c0,0.1,0,0.2,0,0.2C7.1,56.3,7,56.3,7,56.3z"/>
				<path class="st20" d="M8,69.7c-0.3-0.1,0.4-0.2-0.2-0.2c-5,0-5.5,0.1-10.5,0.1c-4.9,0-9.9,0.1-14.8,0.1
					c-0.1-0.1-0.5-0.2-0.9-0.2c-1.6-0.1-3.6-0.1-5.2-0.1c-1.7,0-3.5,0-5.2,0c-3.4,0-6.8,0-10.2-0.1c-6.9,0-13.8-0.1-20.6-0.1
					c-1.1,0-1.1,0.4,0,0.4c1.3,0,2.6,0,3.9,0.1c-0.9,0-1.8,0-2.8,0c-1.1,0-2.2,0-3.4,0c-0.3,0-0.6,0-0.7,0c-0.3,0-0.5,0-0.8,0
					c-0.5,0-0.8,0.1-0.7,0.2c0,0,0,0,0.1,0c-1.3,0-0.7,0.5,1.3,0.5c0.7,0,1.4,0,2.1,0c0.1,0,0.3,0,0.5,0c1.1,0,2.1,0,3.2,0
					c-0.7,0-1.3,0.3-0.3,0.3c1.6,0.1,3.4,0.1,5.1,0.1c1.7,0,3.5,0,5.2,0c2.2,0,4.4,0,6.6,0c0,0.1,0.3,0.2,1,0.2
					c4.7,0.1,9.5-0.8,14.2-0.7c2.3,0,4.7,1,7,1c2.3,0,4.9,0,7.1,0c0.6,0,0.9-0.1,0.9-0.2c0,0,0.1,0,0.1,0c1.9,0,4,0.1,5.9,0
					c0.9,0,1.5-0.3,0.4-0.4c2.1,0,4.3,0,6.4,0c2.6,0,5.1-0.4,3.7-0.4c0,0,0,0,0,0c0.6,0,1.1-0.1,0.9-0.2c-0.2-0.1-0.7-0.1-1.3-0.2
					C8.5,70,8.2,69.8,8,69.7z"/>
				<path class="st20" d="M-50.9,77.4c4.9,0,9.9-0.1,14.8-0.1c0.1,0.1,0.5,0.2,0.9,0.2c1.6,0.1,3.6,0.1,5.2,0.1c1.7,0,3.5,0,5.2,0
					c3.4,0,6.8,0,10.2,0.1c6.9,0,13.8,0.1,20.6,0.1c1.1,0,1.1-0.4,0-0.4c-1.3,0-2.6,0-3.9-0.1c0.9,0,1.8,0,2.8,0c1.1,0,2.2,0,3.4,0
					c0.3,0,0.6,0,0.7,0c-1.4,0,0.5-0.7,0.1-0.7c-0.7,0-1.4,0-2.1,0c-0.1,0-0.3,0-0.5,0c-1.1,0-2.1,0-3.2,0c0.7,0,1.3-0.3,0.3-0.3
					c-1.6-0.1-3.4-0.1-5.1-0.1c-1.7,0-3.5,0-5.2,0c-2.2,0-4.4,0-6.6,0c0-0.1-0.3-0.2-1-0.2c-4.7-0.1-9.5-0.2-14.2-0.2
					c-2.3,0-4.7,0-7,0c-2.3,0-4.9,0-7.1,0c-0.6,0-0.9,0.1-0.9,0.2c0,0-0.1,0-0.1,0c-1.9,0-4-0.1-5.9,0c-0.9,0-1.5,0.3-0.4,0.4
					c-2.1,0-4.3,0-6.4,0c-2.6,0-5.1,0.4-3.7,0.4c0,0,0,0,0,0c-0.6,0-1.1,0.1-0.9,0.2c0.2,0.1,0.7,0.1,1.3,0.2
					C-62.1,77.1-55.8,77.5-50.9,77.4z"/>
				<path class="st20" d="M2.1,83c-4.9,0-9.9,0.1-14.8,0.1c-0.1-0.1-0.5-0.2-0.9-0.2c-1.6-0.1-3.6-0.1-5.2-0.1c-1.7,0-3.5,0-5.2,0
					c-3.4,0-6.8,0-10.2-0.1c-6.9,0-13.8-0.1-20.6-0.1c-1.1,0-1.1,0.4,0,0.4c1.3,0,2.6,0,3.9,0.1c-0.9,0-1.8,0-2.8,0
					c-1.1,0-2.2,0-3.4,0c-0.3,0-0.6,0-0.7,0c-0.3,0-0.5,0-0.8,0c-0.5,0-0.8,0.1-0.7,0.2c0,0,0,0,0.1,0c-1.3,0-2.7,0-3.9-0.1
					c-0.4,0,3.1,0.6,5.2,0.6c0.7,0,1.4,0,2.1,0c0.1,0,0.3,0,0.5,0c1.1,0,2.1,0,3.2,0c-0.7,0-1.3,0.3-0.3,0.3
					c1.6,0.1,3.4,0.1,5.1,0.1c1.7,0,3.5,0,5.2,0c2.2,0,4.4-0.4,6.6-0.4c0,0.1,0.3,0.2,1,0.2c4.7,0.1,9.5,0.6,14.2,0.7
					c2.3,0,4.7,0,7,0c2.3,0,4.9,0,7.1,0c0.6,0,0.9-0.1,0.9-0.2c0,0,0.1,0,0.1,0c1.9,0,4,0.1,5.9,0c0.9,0,1.5-0.3,0.4-0.4
					c2.1,0,4.3,0,6.4,0c2.6,0,3.4-0.4,2-0.4c0,0,0,0,0,0c0.6,0,1.1-0.1,0.9-0.2c-0.2-0.1-0.7-0.1-1.3-0.1C11.6,83.4,7.1,83,2.1,83z"
					/>
				<path class="st20" d="M-69.9,90.5c5,0,9.9-0.1,14.9-0.1c4.9,0,9.9-0.1,14.8-0.1c0.1,0.1,0.5,0.2,0.9,0.2
					c1.6,0.1,3.6,0.1,5.2,0.1c1.7,0,3.5,0,5.2,0c3.4,0,6.8,0,10.2,0.1c6.9,0,13.8,0.1,20.6,0.1c1.1,0,1.1-0.4,0-0.4
					c-1.3,0-2.6,0-3.9-0.1c0.9,0,1.8,0,2.8,0c1.1,0,2.2,0,3.4,0c0.3,0,0.6,0,0.7,0c0.3,0,0.5,0,0.8,0c0.5,0,0.6-0.2,0.6-0.2
					c1.3,0,0.7-0.4-1.3-0.4c-0.7,0-1.4,0-2.1,0c-0.1,0-0.3,0-0.5,0c-1.1,0-2.1,0-3.2,0c0.7,0,1.3-0.3,0.3-0.3
					c-1.6-0.1-3.4-0.1-5.1-0.1c-1.7,0-3.5,0-5.2,0c-2.2,0-4.4,0-6.6,0c0-0.1-0.3-0.2-1-0.2c-4.7-0.1-9.5-0.2-14.2-0.2
					c-2.3,0-4.7,0-7,0c-2.3,0-4.9,0-7.1,0c-0.6,0-0.9,0.1-0.9,0.2c0,0-0.1,0-0.1,0c-1.9,0-4-0.1-5.9,0c-0.9,0-1.5,0.3-0.4,0.4
					c-2.1,0-4.3,0-6.4,0c-2.6,0-5.3,0-7.9,0c-1.2,0-1.1,0.4,0.1,0.4c1.4,0,2.7,0,4.1,0c0,0,0,0,0,0c-0.6,0-1.1,0.1-0.9,0.2
					c0.2,0.1,0.7,0.1,1.3,0.1C-66.2,90-70.5,90.5-69.9,90.5z"/>
				<path class="st20" d="M36.1,74.4c-0.2-0.7-0.9-1.2-1.6-1.2c-0.6,0-1,0.6-0.8,1.2c0.2,0.7,0.9,1.2,1.6,1.2
					C35.9,75.7,36.3,75.1,36.1,74.4z"/>
				<path class="st20" d="M39.8,69.4c-0.3-0.7-0.9-1.2-1.6-1.2c-0.7,0-0.8,0.9-0.6,1.4c0.3,0.7,0.9,1.2,1.6,1.2
					C39.8,70.9,40,70,39.8,69.4z"/>
				<path class="st20" d="M42.1,77c-0.1-0.7-0.9-1.2-1.5-1.2c-0.6,0-1.2,0.5-1,1.2c0.1,0.7,0.9,1.2,1.5,1.2
					C41.7,78.2,42.2,77.7,42.1,77z"/>
				<path class="st20" d="M46.1,69.7c-1.3,0-1.3,3,0,3C47.4,72.7,47.4,69.7,46.1,69.7z"/>
				<path class="st20" d="M47.5,83.4c-1.6,0,0.7,2.8,2,2.8C51.1,86.3,48.8,83.4,47.5,83.4z"/>
				<path class="st20" d="M52.1,81.5c-0.2-0.7-0.8-1.1-1.5-1.2c0.4-0.2,0.7-0.6,0.6-1.1c-0.1-0.8-1-1-1.6-1c-0.6,0-1.2,0.5-1.1,1.2
					c0.1,0.8,1,1,1.6,1c-0.4,0.3,0.9,0.9,1.1,1.4c0.3,0.7,0.9,1.2,1.6,1.2C53.4,82.9,52.2,82,52.1,81.5z"/>
				<path class="st20" d="M54.1,74.3c-0.1-0.7-0.9-1.2-1.6-1.2c-0.6,0-1.1,0.4-1,1.1c0.1,0.7,0.9,1.2,1.6,1.2
					C53.7,75.3,54.3,75,54.1,74.3z"/>
				<path class="st20" d="M42.6,84.5c-1.5,0-1,2.9,0.3,2.9C44.4,87.5,43.9,84.5,42.6,84.5z"/>
				<path class="st20" d="M33.1,81.8c-0.7,0-1.2,0.5-1.2,1.3c0,0.7,4.9,1.6,5.6,1.6c0.7,0-0.5-0.5-0.5-1.3
					C37,82.7,33.8,81.8,33.1,81.8z"/>
				<path class="st20" d="M42.7,66.8c-1.7,0-1.1,2.8,0.4,2.8C44.8,69.6,44.2,66.8,42.7,66.8z"/>
				<path class="st20" d="M31.2,66.4c-0.2-0.8-0.9-1.2-1.6-1.2c-0.7,0-1.2,0.7-1,1.4c0.2,0.8,0.9,1.2,1.6,1.2
					C30.8,67.8,31.3,67.1,31.2,66.4z"/>
				<path class="st20" d="M45.6,59.5c-1.4,0-1.2,3,0.2,3C47.2,62.5,47,59.5,45.6,59.5z"/>
				<path class="st20" d="M55.8,66.5c-1.3,0-1.5,3-0.1,3C57,69.4,57.3,66.5,55.8,66.5z"/>
				<path class="st20" d="M38.8,61.9c-0.1-0.8-0.8-1.3-1.5-1.3c-0.7,0-1.2,0.6-1.1,1.3c0.1,0.8,0.8,1.3,1.5,1.3
					C38.3,63.2,38.9,62.6,38.8,61.9z"/>
				<path class="st20" d="M30.4,73.4c-1.4,0-1.2,3,0.2,3C32,76.4,31.8,73.4,30.4,73.4z"/>
				<path class="st20" d="M38.7,80.4c-0.2-0.7-1-1.1-1.6-1.1c-0.6,0-1.1,0.6-1,1.2c0.2,0.7,2.3,1.1,3,1.1
					C39.7,81.6,38.9,81.1,38.7,80.4z"/>
				<path class="st20" d="M47.4,75.3c-1.3,0-1.9,2.9-0.5,2.9C48.2,78.2,48.8,75.3,47.4,75.3z"/>
				<path class="st20" d="M32,59.5c-1.3,0-1.5,3,0,3C33.3,62.5,33.5,59.5,32,59.5z"/>
				<path class="st20" d="M42.2,57.5c-0.7,0-1.2,0.6-1.4,1.3c-0.1,0.5-0.1,1.5,0.6,1.5c0.7,0,1.2-0.6,1.4-1.3
					C43,58.5,42.9,57.5,42.2,57.5z"/>
				<path class="st20" d="M55.2,58.4c-1.5,0-0.9,2.9,0.4,2.9C57,61.3,56.5,58.4,55.2,58.4z"/>
				<path class="st20" d="M37.3,54c-1.7,0-1.2,2.9,0.3,2.9C39.2,56.9,38.8,54,37.3,54z"/>
				<path class="st20" d="M25.5,69c-0.1-0.8-0.9-1.1-1.5-1.1c-0.6,0-1.3,0.5-1.2,1.2c0.1,0.8,0.9,1.1,1.5,1.1
					C24.9,70.3,25.6,69.8,25.5,69z"/>
				<path class="st20" d="M25.6,76c-1.7,0-1.1,2.9,0.4,2.9C27.7,78.9,27.1,76,25.6,76z"/>
				<path class="st20" d="M26.7,59.8c-1.6,0-1.1,2.9,0.4,2.9C28.7,62.7,28.2,59.8,26.7,59.8z"/>
				<path class="st20" d="M32.6,54.9c-0.2-0.7-0.8-1.3-1.5-1.3c-0.7,0-0.9,0.8-0.7,1.4c0.2,0.7,0.8,1.3,1.5,1.3
					C32.6,56.3,32.8,55.5,32.6,54.9z"/>
				<path class="st20" d="M46,52.4c-1.5,0-0.8,2.9,0.5,2.9C48,55.3,47.4,52.4,46,52.4z"/>
				<path class="st20" d="M40.6,50.8c-0.2-0.7-1-1.2-1.6-1.2c-0.6,0-1.1,0.4-1,1.1c0.2,0.7,1,1.2,1.6,1.2
					C40.2,51.9,40.8,51.5,40.6,50.8z"/>
				<path class="st20" d="M32.4,48.7c-1.6,0-1,2.8,0.4,2.8C34.4,51.5,33.8,48.7,32.4,48.7z"/>
				<path class="st20" d="M25.3,54.7c-1.4,0-0.5,2.8,0.7,2.8C27.3,57.6,26.5,54.7,25.3,54.7z"/>
				<path class="st20" d="M22.4,63.5c-1.8,0-0.9,2.3,0.5,2.3C24.7,65.9,23.8,63.5,22.4,63.5z"/>
				<path class="st20" d="M21.4,74.2c-1.7,0-1,2.7,0.4,2.7C23.6,76.9,22.8,74.2,21.4,74.2z"/>
				<path class="st20" d="M31.6,84c-0.3-0.8-3.7-1.1-4.4-1.1c-0.7,0,1.8,0.8,2,1.4c0.3,0.8,2.6,1.1,3.3,1.1
					C33.1,85.4,31.8,84.6,31.6,84z"/>
				<path class="st23" d="M10.4,87.5c-0.2-0.7-0.9-1.2-1.6-1.2c-0.6,0-1,0.6-0.8,1.2c0.2,0.7,0.9,1.2,1.6,1.2
					C10.2,88.8,10.6,88.2,10.4,87.5z"/>
				<path class="st23" d="M9.7,82.5c-0.3-0.7-0.9-1.2-1.6-1.2c-0.7,0,0.8,0.9,1,1.4c0.3,0.7,2,1.2,2.7,1.2
					C12.5,84,9.9,83.1,9.7,82.5z"/>
				<path class="st23" d="M16.4,90.1c-0.1-0.7-0.9-1.2-1.5-1.2c-0.6,0-1.2,0.5-1,1.2c0.1,0.7,0.9,1.2,1.5,1.2
					C16,91.3,16.6,90.8,16.4,90.1z"/>
				<path class="st23" d="M16,82.8c-1.3,0,3.1,3,4.4,3C21.8,85.8,17.3,82.8,16,82.8z"/>
				<path class="st23" d="M17.7,96.5c-1.6,0-1,2.8,0.4,2.8C19.7,99.4,19,96.5,17.7,96.5z"/>
				<path class="st23" d="M26.4,94.6c-0.2-0.7-0.8-1.1-1.5-1.2c0.4-0.2,0.7-0.6,0.6-1.1c-0.1-0.8-1-1-1.6-1c-0.6,0-1.2,0.5-1.1,1.2
					c0.1,0.8,1,1,1.6,1c-0.4,0.3-0.4,0.9-0.3,1.4c0.3,0.7,0.9,1.2,1.6,1.2C26.4,96,26.6,95.1,26.4,94.6z"/>
				<path class="st23" d="M28.4,87.4c-0.1-0.7-0.9-1.2-1.6-1.2c-0.6,0-1.1,0.4-1,1.1c0.1,0.7,0.9,1.2,1.6,1.2
					C28,88.4,28.6,88.1,28.4,87.4z"/>
				<path class="st23" d="M11.2,97.6c-1.5,0-1,2.9,0.3,2.9C13,100.6,12.5,97.6,11.2,97.6z"/>
				<path class="st23" d="M6,94.9c-0.7,0-1.2,0.5-1.2,1.3c0,0.7,0.5,1.6,1.2,1.6c0.7,0,1.2-0.5,1.2-1.3C7.2,95.8,6.7,94.9,6,94.9z"
					/>
				<path class="st23" d="M11.3,79.9c-1.7,0,0.2,2.8,1.7,2.8C14.8,82.7,12.8,79.9,11.3,79.9z"/>
				<path class="st23" d="M5.5,79.5c-0.2-0.8-0.9-1.2-1.6-1.2c-0.7,0-1.2,0.7-1,1.4C3,80.6,3.8,81,4.4,81C5.1,81,5.6,80.2,5.5,79.5z
					"/>
				<path class="st23" d="M14.1,72.6c-1.4,0-1.2,3,0.2,3C15.7,75.6,15.6,72.6,14.1,72.6z"/>
				<path class="st23" d="M24.4,79.6c-1.3,0-0.2,3,1.3,3C26.9,82.5,25.8,79.6,24.4,79.6z"/>
				<path class="st23" d="M8.7,75c-0.1-0.8,0.8-1.3,0.1-1.3c-0.7,0-1.2,0.6-1.1,1.3c0.1,0.8,0.8,1.3,1.5,1.3
					C9.9,76.3,8.8,75.8,8.7,75z"/>
				<path class="st23" d="M4.7,86.5c-1.4,0-1.2,3,0.2,3C6.3,89.5,6.1,86.5,4.7,86.5z"/>
				<path class="st23" d="M13,93.5c-0.2-0.7-1-1.1-1.6-1.1c-0.6,0-1.1,0.6-1,1.2c0.2,0.7,1,1.1,1.6,1.1C12.7,94.7,13.2,94.2,13,93.5
					z"/>
				<path class="st23" d="M20.7,80c-0.2-0.7-0.9-1.2-1.6-1.2c-0.7,0-1,0.7-0.8,1.3c0.2,0.7,0.9,1.2,1.6,1.2
					C20.5,81.4,20.9,80.7,20.7,80z"/>
				<path class="st23" d="M21.7,88.4c-1.3,0-1.9,2.9-0.5,2.9C22.5,91.3,23.1,88.4,21.7,88.4z"/>
				<path class="st23" d="M6.3,72.6c-1.3,0-1.5,3,0,3C7.6,75.6,7.8,72.6,6.3,72.6z"/>
				<path class="st23" d="M10.8,70.6c-0.7,0-1.2,0.6-1.4,1.3c-0.1,0.5-0.1,1.5,0.6,1.5c0.7,0,1.2-0.6,1.4-1.3
					C11.6,71.6,11.5,70.6,10.8,70.6z"/>
				<path class="st23" d="M23.7,71.5c-1.5,0-0.9,2.9,0.4,2.9C25.6,74.4,25,71.5,23.7,71.5z"/>
				<path class="st23" d="M8.9,67.1c-1.7,0-1.2,2.9,0.3,2.9C9.2,70,8.7,67.1,8.9,67.1z"/>
				<path class="st23" d="M0,89.1c-1.7,0-1.1,2.9,0.4,2.9C2,92,1.4,89.1,0,89.1z"/>
				<path class="st23" d="M1,72.9c-1.6,0-1.1,2.9,0.4,2.9C3,75.8,2.5,72.9,1,72.9z"/>
				<path class="st23" d="M6.9,68c-0.2-0.7-0.8-1.3-1.5-1.3c-0.7,0-0.9,0.8-0.7,1.4c0.2,0.7,0.8,1.3,1.5,1.3
					C6.9,69.4,7.1,68.6,6.9,68z"/>
				<path class="st23" d="M14.6,65.5c-1.5,0-0.8,2.9,0.5,2.9C16.6,68.4,15.9,65.5,14.6,65.5z"/>
				<path class="st23" d="M22,72c-0.1-0.8-0.8-1.3-1.5-1.3c-0.7,0-1.2,0.7-1,1.4c0.1,0.8,0.8,1.3,1.5,1.3C21.7,73.4,22.1,72.7,22,72
					z"/>
				<path class="st23" d="M9.2,63.9C9,63.2,9.6,62.8,9,62.8c-0.6,0-1.1,0.4-1,1.1c0.2,0.7-0.4,1.2,0.2,1.2
					C8.8,65.1,9.3,64.6,9.2,63.9z"/>
				<path class="st23" d="M6.7,61.8c-1.6,0-1,2.8,0.4,2.8C8.7,64.6,8.1,61.8,6.7,61.8z"/>
				<path class="st23" d="M-0.4,67.8c-1.4,0-0.5,2.8,0.7,2.8C1.6,70.7,0.8,67.8-0.4,67.8z"/>
				<path class="st23" d="M1.8,97.1c-0.3-0.8-1-1.1-1.7-1.1c-0.7,0-1,0.8-0.8,1.4c0.3,0.8,1,1.1,1.7,1.1C1.7,98.5,2,97.7,1.8,97.1z"
					/>
				<path class="st21" d="M34.4,17.6c-0.2-0.7-0.9-1.2-1.6-1.2c-0.6,0-1,0.6-0.8,1.2c0.2,0.7,0.9,1.2,1.6,1.2
					C34.2,18.8,34.5,18.2,34.4,17.6z"/>
				<path class="st21" d="M38.1,12.6c-0.3-0.7-0.9-1.2-1.6-1.2c-0.7,0-0.8,0.9-0.6,1.4c0.3,0.7,0.9,1.2,1.6,1.2
					C38.1,14.1,38.2,13.2,38.1,12.6z"/>
				<path class="st21" d="M40.4,20.2c-0.1-0.7-0.9-1.2-1.5-1.2c-0.6,0-1.2,0.5-1,1.2c0.1,0.7,0.9,1.2,1.5,1.2
					C39.9,21.4,40.5,20.9,40.4,20.2z"/>
				<path class="st21" d="M44.3,12.9c-1.3,0-1.3,3,0,3C45.7,15.9,45.7,12.9,44.3,12.9z"/>
				<path class="st21" d="M41.6,26.6c-1.6,0-1,2.8,0.4,2.8C43.6,29.4,43,26.6,41.6,26.6z"/>
				<path class="st21" d="M50.3,24.6c-0.2-0.7-0.8-1.1-1.5-1.2c0.4-0.2,0.7-0.6,0.6-1.1c-0.1-0.8-1-1-1.6-1c-0.6,0-1.2,0.5-1.1,1.2
					c0.1,0.8,1,1,1.6,1c-0.4,0.3-0.4,0.9-0.3,1.4c0.3,0.7,0.9,1.2,1.6,1.2C50.3,26.1,50.5,25.2,50.3,24.6z"/>
				<path class="st21" d="M52.4,17.4c-0.1-0.7-0.9-1.2-1.6-1.2c-0.6,0-1.1,0.4-1,1.1c0.1,0.7,0.9,1.2,1.6,1.2
					C51.9,18.5,52.5,18.2,52.4,17.4z"/>
				<path class="st21" d="M35.1,27.7c-1.5,0-1,2.9,0.3,2.9C36.9,30.7,36.4,27.7,35.1,27.7z"/>
				<path class="st21" d="M30,25c-0.7,0-1.2,0.5-1.2,1.3c0,0.7,0.5,1.6,1.2,1.6c0.7,0,1.2-0.5,1.2-1.3C31.2,25.9,30.6,25,30,25z"/>
				<path class="st21" d="M41,10c-1.7,0-1.1,2.8,0.4,2.8C43.1,12.7,42.5,10,41,10z"/>
				<path class="st21" d="M29.4,9.6c-0.2-0.8-0.9-1.2-1.6-1.2c-0.7,0-1.2,0.7-1,1.4c0.2,0.8,0.9,1.2,1.6,1.2
					C29.1,11,29.6,10.3,29.4,9.6z"/>
				<path class="st21" d="M43.8,2.7c-1.4,0-1.2,3,0.2,3C45.4,5.7,45.3,2.7,43.8,2.7z"/>
				<path class="st21" d="M54.1,9.7c-1.3,0-1.5,3-0.1,3C55.3,12.6,55.5,9.7,54.1,9.7z"/>
				<path class="st21" d="M37,5.1c-0.1-0.8-0.8-1.3-1.5-1.3c-0.7,0-1.2,0.6-1.1,1.3c0.1,0.8,0.8,1.3,1.5,1.3
					C36.5,6.4,37.1,5.8,37,5.1z"/>
				<path class="st21" d="M28.6,16.6c-1.4,0-1.2,3,0.2,3C30.3,19.6,30.1,16.6,28.6,16.6z"/>
				<path class="st21" d="M37,23.6c-0.2-0.7-1-1.1-1.6-1.1c-0.6,0-1.1,0.6-1,1.2c0.2,0.7,1,1.1,1.6,1.1C36.6,24.8,37.2,24.3,37,23.6
					z"/>
				<path class="st21" d="M50.4,10.1c-0.2-0.7-0.9-1.2-1.6-1.2c-0.7,0-1,0.7-0.8,1.3c0.2,0.7,0.9,1.2,1.6,1.2
					C50.2,11.5,50.6,10.8,50.4,10.1z"/>
				<path class="st21" d="M45.6,18.5c-1.3,0-1.9,2.9-0.5,2.9C46.4,21.4,47.1,18.5,45.6,18.5z"/>
				<path class="st21" d="M30.2,2.7c-1.3,0-1.5,3,0,3C31.5,5.7,31.7,2.7,30.2,2.7z"/>
				<path class="st21" d="M40.5,0.7c-0.7,0-1.2,0.6-1.4,1.3c-0.1,0.5-0.1,1.5,0.6,1.5c0.7,0,1.2-0.6,1.4-1.3
					C41.3,1.7,41.2,0.7,40.5,0.7z"/>
				<path class="st21" d="M53.4,1.6c-1.5,0-0.9,2.9,0.4,2.9C55.3,4.5,54.7,1.6,53.4,1.6z"/>
				<path class="st21" d="M35.6-2.8c-1.7,0-1.2,2.9,0.3,2.9C37.5,0.1,37-2.8,35.6-2.8z"/>
				<path class="st21" d="M23.8,12.2c-0.1-0.8-0.9-1.1-1.5-1.1c-0.6,0-1.3,0.5-1.2,1.2c0.1,0.8,0.9,1.1,1.5,1.1
					C23.2,13.4,23.9,12.9,23.8,12.2z"/>
				<path class="st21" d="M23.9,19.2c-1.7,0-1.1,2.9,0.4,2.9C26,22.1,25.4,19.2,23.9,19.2z"/>
				<path class="st21" d="M25,2.9c-1.6,0-1.1,2.9,0.4,2.9C26.9,5.9,26.4,2.9,25,2.9z"/>
				<path class="st21" d="M51.7,2.1c-0.1-0.8-0.8-1.3-1.5-1.3c-0.7,0-1.2,0.7-1,1.4c0.1,0.8,0.8,1.3,1.5,1.3
					C51.4,3.5,51.8,2.8,51.7,2.1z"/>
				<path class="st21" d="M23.5-2.1c-1.4,0-0.5,2.8,0.7,2.8C25.6,0.7,24.8-2.1,23.5-2.1z"/>
				<path class="st21" d="M20.7,6.7c-1.8,0-0.9,2.3,0.5,2.3C22.9,9,22.1,6.7,20.7,6.7z"/>
				<path class="st21" d="M19.7,17.4c-1.7,0-1,2.7,0.4,2.7C21.8,20.1,21.1,17.4,19.7,17.4z"/>
				<path class="st21" d="M25.7,27.2c-0.3-0.8-1-1.1-1.7-1.1c-0.7,0-1,0.8-0.8,1.4c0.3,0.8,1,1.1,1.7,1.1
					C25.6,28.6,25.9,27.8,25.7,27.2z"/>
				<path class="st20" d="M83.7,39.3c-0.4,0-0.8,0.2-1.2,0.3c-0.3,0.1-0.7,0.1-1.1,0c-0.7-0.2-1.4-0.6-1.7-1.3
					c-0.3-0.6-0.3-1.3,0.1-1.9c0.4-0.6,1.2-0.8,1.8-0.6c0.5,0.2,0.8-0.8,0.4-1.1c-0.9-0.6-2-0.4-2.8,0.3c-0.9,0.9-1.2,2.3-0.8,3.5
					c0.4,1.3,1.2,2.3,2.3,2.8c1,0.4,2.7,0.6,3.5-0.5C84.6,40.4,84.5,39.2,83.7,39.3z"/>
				<path class="st23" d="M36,35.6c0.2,0,0.4,0,0.6,0c0.6-0.1,0.9-0.5,0.9-0.8c0.4-0.5,0.8-1,0-1.4c-0.1-0.1-0.3-0.1-0.4-0.2
					C36.9,33,36.7,33,36.6,33c-0.1,0-0.2,0-0.3,0c-0.3,0-0.7,0.1-1,0.2c0,0,0,0,0,0c0,0-0.1-0.1-0.1-0.1c-0.1,0-0.1-0.1-0.2-0.1
					c-0.1,0-0.2-0.1-0.3-0.1c0,0,0,0,0,0c-0.2-0.2-0.8-0.1-1,0.1c-0.3,0.3-0.4,0.7-0.3,1.1c0,0-0.1,0.1-0.1,0.1c0,0,0,0.1,0,0.1
					c-0.1,0.3-0.1,0.5,0.1,0.8c0.3,0.3,0.9,0.7,1.6,0.7C35.5,35.8,35.8,35.7,36,35.6z"/>
				<path class="st23" d="M28,35.6c0.5-0.3,0.6-0.8,0.5-1.2c0-0.2,0-0.3-0.1-0.5c0.1-0.1,0.1-0.2,0.1-0.3c-0.1-0.2-0.3-0.3-0.5-0.3
					c0,0-0.1-0.1-0.1-0.1c-0.5-0.4-1.6-0.3-2,0.1c0,0-0.1,0-0.1,0c-0.3,0-0.5,0.1-0.6,0.3c0,0,0,0,0,0c-0.2,0-0.4,0.1-0.5,0.1
					c-0.7,0.3-1,0.9-0.3,1.2c0.3,0.1,0.7,0.2,1,0.1c0,0,0,0.1,0.1,0.1c0,0,0,0.1-0.1,0.1c-0.1,0.1,0.2,0.3,0.4,0.3
					c0,0,0.1,0.1,0.1,0.1C26.4,36.1,27.5,36,28,35.6z"/>
				<path class="st23" d="M18.6,35.3c0,0,0.1,0,0.1,0c0.6,0.2,1.3-0.1,1-0.4c0-0.1,0-0.2,0-0.2c0,0,0.1,0,0.1,0
					c0.3-0.2,0.5-0.4,0.4-0.6c-0.1-0.2-0.4-0.3-0.7-0.4c0,0-0.1-0.1-0.2-0.1c-0.1-0.2-0.5-0.4-0.9-0.4c-0.3-0.1-0.6-0.1-0.9-0.1
					c-0.2,0-0.4,0.1-0.6,0.1c-0.4,0-0.8,0.1-1,0.2c-0.5,0.3-0.5,0.7,0,1.1c0,0,0.1,0.1,0.1,0.1c0.1,0.2,0.2,0.4,0.4,0.6
					C16.9,35.5,17.8,35.6,18.6,35.3z"/>
				<path class="st23" d="M9.8,35.6c0.2-0.1,0.4-0.3,0.5-0.5c0,0,0.1-0.1,0.1-0.1c0.1-0.1,0.1-0.2,0.1-0.2c0.1-0.1,0.1-0.2,0.1-0.3
					c0.1-0.3,0.3-0.8-0.5-0.9c0,0-0.1,0-0.1,0c-0.2-0.1-0.5-0.2-0.7-0.3c0.3-0.1,0.4-0.3,0-0.4c-0.7-0.1,0.3,0.2,0,0.4
					c-0.1,0.1-0.5,0.2-0.6,0.2c-0.2,0.1-0.4,0.1-0.5,0.2c-0.4,0.3-0.4,1,0.1,1.3c0.3,0.2-0.7,0.3-0.2,0.3c0.1,0.1,0.3,0.3,0.6,0.3
					C9.1,35.8,9.5,35.7,9.8,35.6z"/>
				<path class="st23" d="M7.4,35.3c0.5-0.2,0.5-0.6,0.2-0.9c0.4-0.4,0-1-0.9-1.2c-0.4-0.1-0.8-0.1-1.2-0.1c0,0-0.1,0-0.1-0.1
					c-0.1,0-0.1,0-0.2,0c-0.1,0-0.2,0-0.3,0c-0.1,0-0.1,0-0.2,0c-0.1,0-0.2,0-0.3,0.1c0,0-0.1,0-0.1,0.1c-0.1,0.1-0.1,0.1-0.1,0.2
					c0,0.1,0,0.2,0.1,0.2c0,0,0,0,0.1,0c0,0-0.1,0-0.1,0.1c-0.5,0.4-1,1.1-0.2,1.5c0.4,0.3,1,0.3,1.6,0.3c0.1,0,0.3,0,0.5,0.1
					C6.5,35.6,7,35.5,7.4,35.3z"/>
				<path class="st23" d="M-1.2,35.4C-1.2,35.4-1.2,35.4-1.2,35.4c0.2,0,0.3,0,0.4,0c0.2,0,0.3,0,0.4-0.1c0.2,0,0.3,0,0.4-0.1
					c0.2-0.1,0.4-0.2,0.4-0.3c0-0.1,0-0.1,0-0.1c0,0,0,0,0,0c0.1,0,0.1-0.1,0.1-0.2c0-0.1,0-0.1,0-0.2c0,0,0-0.1-0.1-0.1
					c0,0,0,0,0,0c0.1,0,0.2-0.1,0.2-0.2c0.2-0.3,0.2-0.8-0.6-0.9c-0.2,0-0.4,0-0.6,0c0,0-0.1,0-0.1-0.1C-1.2,33-2,32.9-2.6,33.2
					c-0.3,0-0.7,0.1-0.8,0.2c-0.1,0-0.2,0.1-0.2,0.1c0,0-0.1,0-0.1,0.1c0,0,0,0,0,0c0,0,0,0,0,0c0,0,0,0,0,0c-0.1,0.1-0.1,0.1,0,0.2
					c0,0,0.1,0.1,0.1,0.1c0,0,0.1,0,0.1,0.1c0,0,0,0,0,0c0,0,0,0-0.1,0.1c-0.4,0.4-0.2,1,0.3,1.4C-2.8,35.9-1.6,35.9-1.2,35.4z"/>
				<path class="st23" d="M2,36.6c-0.5,0.3-0.6,0.8-0.5,1.2c0,0.2,0,0.3,0.1,0.5c-0.1,0.1-0.1,0.2-0.1,0.3C1.6,38.8,1.8,38.9,2,39
					c0,0,0.1,0.1,0.1,0.1c0.5,0.4,1.6,0.3,2-0.1c0,0,0.1,0,0.1,0c0.3,0,0.5-0.1,0.6-0.3c0,0,0,0,0,0c0.2,0,0.4-0.1,0.5-0.1
					c0.7-0.3,1-0.9,0.3-1.2c-0.3-0.1-0.7-0.2-1-0.1c0,0,0-0.1-0.1-0.1c0,0,0-0.1,0.1-0.1c0.1-0.1-0.2-0.3-0.4-0.3
					c0,0-0.1-0.1-0.1-0.1C3.7,36.1,2.6,36.2,2,36.6z"/>
				<path class="st23" d="M8.8,36.9c0,0-0.1,0-0.1,0c-0.6-0.2-1.3,0.1-1,0.4c0,0.1,0,0.2,0,0.2c0,0-0.1,0-0.1,0
					c-0.3,0.2,0.6,0.4,0.7,0.6c0.1,0.2-0.7,0.3-0.4,0.4c0,0,0.1,0.1,0.2,0.1C8.1,38.8,8.5,39,8.9,39c0.3,0.1-1,0.1-0.7,0.1
					c0.2,0,0.4-0.1,0.6-0.1c0.4,0-0.6-0.1-0.3-0.2c0.5-0.3,0.5-0.7,0.1-1.1c0,0-0.1-0.1-0.1-0.1c-0.1-0.2-0.2-0.4-0.4-0.6
					C7.5,36.7,9.5,36.7,8.8,36.9z"/>
				<path class="st23" d="M14.5,36.7c-0.2,0.1-0.4,0.3-0.5,0.5c0,0-0.1,0.1-0.1,0.1c-0.1,0.1-0.1,0.2-0.1,0.2
					c-0.1,0.1-0.1,0.2-0.1,0.3c-0.1,0.3-0.3,0.8,0.5,0.9c0,0,0.1,0,0.1,0c0.2,0.1,0.5,0.2,0.7,0.3c-0.3,0.1-0.4,0.3-0.1,0.4
					c0.7,0.1,1.3-0.2,1.7-0.4c0.1-0.1,0.2-0.1,0.3-0.2c0.2-0.1,0.4-0.1,0.5-0.2c0.4-0.3,0.4-1-0.1-1.3c-0.3-0.2-0.7-0.3-1.1-0.3
					c-0.1-0.1-0.3-0.3-0.6-0.3C15.2,36.5,14.8,36.6,14.5,36.7z"/>
				<path class="st23" d="M22.7,37c-0.5,0.2-0.5,0.6-0.2,0.9c-0.4,0.4,0,1,0.9,1.2c0.4,0.1,0.8,0.1,1.2,0.1c0,0,0.1,0,0.1,0.1
					c0.1,0,0.1,0,0.2,0c0.1,0,0.2,0,0.3,0c0.1,0,0.1,0,0.2,0c0.1,0,0.2,0,0.3-0.1c0,0,0.1,0,0.1-0.1c0.1-0.1,0.1-0.1,0.1-0.2
					c0-0.1,0-0.2-0.1-0.2c0,0,0,0-0.1,0c0,0,0.1,0,0.1-0.1c0.5-0.4,1-1.1,0.2-1.5c-0.4-0.3-1-0.3-1.6-0.3c-0.1,0-0.3,0-0.5-0.1
					C23.6,36.7,23,36.8,22.7,37z"/>
				<path class="st23" d="M31.3,36.9C31.3,36.9,31.2,36.9,31.3,36.9c-0.2,0-0.3,0-0.4,0c-0.2,0-0.3,0-0.4,0.1c-0.2,0-0.3,0-0.4,0.1
					c-0.2,0.1-0.4,0.2-0.4,0.3c0,0.1,0,0.1,0,0.1c0,0,0,0,0,0c-0.1,0-0.1,0.1-0.1,0.2c0,0.1,0,0.1,0,0.2c0,0,0,0.1,0.1,0.1
					c0,0,0,0,0,0c-0.1,0-0.2,0.1-0.2,0.2c-0.2,0.3-0.2,0.8,0.6,0.9c0.2,0,0.4,0,0.6,0c0,0,0.1,0,0.1,0.1c0.5,0.3,1.3,0.4,1.9,0.1
					c0.3,0,0.7,0,0.8-0.2c0.1,0,0.2-0.1,0.2-0.1c0,0,0.1,0,0.1-0.1c0,0,0,0,0,0c0,0,0,0,0,0c0,0,0,0,0,0c0.1-0.1,0.1-0.1,0.1-0.2
					c0,0-0.1-0.1-0.1-0.1c0,0-0.1,0-0.1-0.1c0,0,0,0,0,0c0,0,0,0,0.1-0.1c0.4-0.4,0.2-1-0.3-1.4C32.9,36.4,31.7,36.4,31.3,36.9z"/>
				<path class="st21" d="M81.3,92.4c0.4-0.2,0.7-0.5,0.9-0.8c0.1-0.1,0.1-0.1,0.2-0.2c0.1-0.1,0.2-0.3,0.2-0.4
					c0.1-0.2,0.2-0.4,0.2-0.5c0.2-0.6,0.5-1.4-0.8-1.6c-0.1,0-0.1,0-0.2,0c-0.3-0.2-0.8-0.4-1.3-0.5c0.5-0.2,0.7-0.6,0.1-0.7
					c-1.3-0.3-2.3,0.3-3,0.8c-0.2,0.1-0.3,0.3-0.5,0.4c-0.4,0.1-0.7,0.3-0.9,0.4c-0.8,0.6-0.6,1.8,0.2,2.4c0.5,0.4,1.3,0.5,2,0.5
					c0.3,0.2,0.6,0.5,1.1,0.6C80.1,92.9,80.8,92.7,81.3,92.4z"/>
				<path class="st21" d="M66.6,92c0.8-0.4,0.9-1,0.4-1.5c0.7-0.8-0.1-1.7-1.6-2.1c-0.7-0.2-1.5-0.2-2.1-0.1c-0.1,0-0.1-0.1-0.2-0.1
					c-0.1,0-0.2-0.1-0.3-0.1c-0.2,0-0.4-0.1-0.6,0c-0.1,0-0.3,0-0.4,0c-0.2,0-0.3,0.1-0.5,0.1c-0.1,0-0.2,0.1-0.3,0.1
					c-0.1,0.1-0.2,0.2-0.3,0.3c-0.1,0.1,0,0.3,0.1,0.4c0,0,0.1,0.1,0.1,0.1c-0.1,0-0.1,0.1-0.2,0.1c-0.9,0.8-1.7,1.9-0.4,2.7
					c0.8,0.5,1.8,0.6,2.8,0.5c0.2,0.1,0.5,0.1,0.8,0.1C65,92.5,66,92.4,66.6,92z"/>
				<path class="st21" d="M51.2,92.2C51.2,92.2,51.2,92.2,51.2,92.2c0.3,0.1,0.5,0,0.7,0c0.3,0,0.6,0,0.8-0.1c0.3,0,0.5,0,0.8-0.1
					c0.4-0.1,0.7-0.3,0.7-0.5c0-0.1,0-0.2-0.1-0.3c0,0,0,0,0,0c0.1-0.1,0.1-0.2,0.2-0.3c0-0.1,0-0.2,0-0.3c0-0.1-0.1-0.1-0.1-0.2
					c0,0,0,0,0,0c0.2-0.1,0.3-0.2,0.3-0.3c0.3-0.6,0.3-1.4-1.1-1.6c-0.4-0.1-0.8,0-1.1,0c0,0-0.1-0.1-0.1-0.1
					c-0.9-0.6-2.3-0.7-3.4-0.2c-0.5,0-1.3,0.1-1.5,0.4c-0.2,0-0.3,0.1-0.4,0.2c-0.1,0-0.1,0.1-0.2,0.1c0,0,0,0-0.1,0.1c0,0,0,0,0,0
					c0,0,0,0,0,0c-0.1,0.1-0.2,0.3-0.1,0.4c0.1,0.1,0.1,0.2,0.2,0.2c0.1,0,0.2,0.1,0.2,0.1c0,0,0.1,0,0.1,0c0,0-0.1,0.1-0.1,0.1
					c-0.7,0.8-0.3,1.8,0.5,2.5C48.3,93.1,50.5,93,51.2,92.2z"/>
				<path class="st21" d="M42.7,95.1c-0.4,0-0.7,0-1.1,0.1c-1.1,0.2-1.6,0.9-1.7,1.5c-0.8,0.8-1.4,1.8,0,2.6
					c0.2,0.1,0.5,0.2,0.8,0.3c0.2,0.2,0.6,0.2,0.9,0.2c0.2,0,0.3,0,0.5,0c0.6,0,1.3-0.1,1.8-0.3c0,0,0,0,0,0c0,0.1,0.1,0.1,0.2,0.1
					c0.1,0.1,0.2,0.1,0.4,0.2c0.2,0.1,0.3,0.1,0.5,0.1c0,0,0,0,0,0c0.3,0.3,1.4,0.2,1.8-0.2c0.6-0.6,0.7-1.3,0.5-1.9
					c0.1-0.1,0.1-0.2,0.1-0.3c0-0.1,0-0.1,0-0.2c0.2-0.5,0.1-0.9-0.2-1.4c-0.5-0.6-1.5-1.2-2.9-1.2C43.6,94.7,43.1,94.9,42.7,95.1z"
					/>
				<path class="st21" d="M57,94.3c-0.8,0.6-1,1.5-1,2.2c0,0.3,0.1,0.6,0.2,0.9c-0.1,0.2-0.2,0.3-0.1,0.5c0.1,0.3,0.4,0.5,0.9,0.6
					c0.1,0.1,0.2,0.2,0.3,0.2c1,0.7,2.8,0.5,3.7-0.2c0.1,0,0.2,0,0.2,0c0.6,0,0.9-0.2,1.1-0.5c0,0,0,0,0,0c0.3,0,0.6-0.1,1-0.2
					c1.2-0.5,1.7-1.6,0.5-2.2c-0.5-0.2-1.2-0.3-1.8-0.3c0-0.1-0.1-0.2-0.1-0.3c0-0.1,0.1-0.2,0.1-0.2c0.1-0.3-0.4-0.5-0.8-0.6
					c-0.1-0.1-0.1-0.1-0.2-0.2C59.9,93.5,58,93.6,57,94.3z"/>
				<path class="st21" d="M74,94.9c-0.1,0-0.1-0.1-0.2-0.1c-1.1-0.4-2.4,0.2-1.7,0.8c0,0.1,0,0.3,0,0.4c-0.1,0-0.1,0-0.2,0.1
					c-0.6,0.3-0.9,0.7-0.7,1.1c0.1,0.3,0.6,0.6,1.3,0.7c0.1,0.1,0.2,0.1,0.3,0.1c0.1,0.4,0.8,0.7,1.6,0.7c0.5,0.2,1.1,0.2,1.7,0.2
					c0.4,0,0.8-0.1,1.1-0.2c0.7,0,1.4-0.2,1.9-0.4c1-0.5,0.9-1.3,0.1-1.9c-0.1,0-0.1-0.1-0.2-0.1c-0.1-0.4-0.4-0.7-0.7-1
					C77.1,94.6,75.3,94.5,74,94.9z"/>
				<path class="st20" d="M9,67C9,67,9,67.1,9,67c0.1,0.1,0.1,0.1,0.1,0.1L9,67z"/>
				<path class="st20" d="M6.7,69.2C6.7,69.2,6.7,69.2,6.7,69.2C6.7,69.2,6.7,69.2,6.7,69.2z"/>
				<path class="st20" d="M3.5,59.3C3.6,59.3,3.6,59.3,3.5,59.3C3.6,59.3,3.6,59.3,3.5,59.3z"/>
				<path class="st20" d="M3.4,69C3.4,69,3.4,69,3.4,69C3.4,69,3.4,69,3.4,69L3.4,69z"/>
				<path class="st20" d="M0.7,69L0.7,69C0.6,69,0.7,69,0.7,69z"/>
				<path class="st18" d="M-9.3,31.5c2.2-2.1,5.1-3.4,8-3.6c2.9-0.2,5.9,0.7,8.3,2.5C1.5,32.3-3.7,32.2-9.3,31.5z"/>
				<path class="st18" d="M-6.6,33.8c6.1-0.8,9.9-0.2,15.6,2.5C2.4,38.2-0.8,37.8-6.6,33.8L-6.6,33.8z"/>
				<path class="st18" d="M7.9,49.2c-2.7-6.1-6.1-11-12-13.1C-1.1,42.1,2.1,46.7,7.9,49.2z"/>
				<path class="st18" d="M4.2,93.2c-3.9,1.7-8.6,1.1-12-1.6C-3.9,90.8,0.4,91.7,4.2,93.2z"/>
				<path class="st18" d="M3.2,90.3c-2.9,0.5-5.9-0.1-8.5-1.7c-2.6-1.6-4.6-4.1-5.8-7C-5.5,83.2-1.2,86.3,3.2,90.3z"/>
				<path class="st18" d="M2.1,86.8c-5.6-2.9-10.7-7.3-14.2-12.9C-5.7,76.1-0.9,79.9,2.1,86.8L2.1,86.8z"/>
				<path class="st18" d="M4.1,93.3c4.1-1.1,7.6-4.5,9-8.8C9.5,86.2,6.4,89.6,4.1,93.3z"/>
				<path class="st18" d="M3.4,90.3c2.6-1.4,3.1-3.8,4.4-6.7c1.3-2.9,0.6-6.2,0-9.4C4.1,79,4.9,84.2,3.4,90.3z"/>
				<path class="st18" d="M2.5,86.6c3.1-5.9,5-12.7,4.9-19.5C3.3,73,1.4,79.1,2.5,86.5L2.5,86.6z"/>
				<path class="st18" d="M-3.9,64.2C-4.7,71-2.8,78.1,1.2,83.3C1.5,76.5-0.3,69.8-3.9,64.2z"/>
				<path class="st18" d="M76,1.2C81.7,3.5,87.9,9,89.3,15.5C84.3,12.3,78.7,6.8,76,1.2z"/>
				<path class="st18" d="M74.5,5.4c3.5,2.5,7.9,6.3,9.4,10.7c1.4,4.4,1.5,9.2,0.2,13.6C79.5,22.2,75.9,14.3,74.5,5.4z"/>
				<path class="st18" d="M72.7,10.5c3.6,9,7,19.1,5.9,28.9C73.5,30.2,70,21,72.7,10.6L72.7,10.5z"/>
				<path class="st18" d="M76.1,1.3c-5.4-3.1-12.1-3-17.5,0.2C64.2,3.3,70.5,2.8,76.1,1.3z"/>
				<path class="st18" d="M74.3,5.3c-4.1-1.2-8.5-0.8-12.4,1c-3.9,1.8-7.2,5-9.3,9.1C60.8,13.9,67.4,10.2,74.3,5.3z"/>
				<path class="st18" d="M72.7,11c-8.4,3.2-16.4,8.6-22.2,16.1c9.6-2.1,17.1-6.8,22.2-16L72.7,11z"/>
				<path class="st18" d="M59.8,41.2c6.6-6.6,10.7-16.3,10.9-26.1C64.4,22.2,60.7,31.4,59.8,41.2z"/>
			</g>
		</g>
		<path class="st12" d="M40.4,17.5h-4.2c2.2,1.2,0.9,4.7,1.2,6.4c0.1,0.9,1.4,2.1,2.8,2.1c1.4,0,2.5-1.2,2.6-2.1
			c0.2-1.8-1.1-5.2,1.1-6.4H40.4z"/>
		<path class="st4" d="M46.5,10.5c0,5.8-3.9,10.5-6.5,10.5c-2.5,0-6.5-4.7-6.5-10.5s3.2-8,7-8C44.2,2.5,46.5,4.7,46.5,10.5z"/>
		<ellipse class="st52" cx="37.8" cy="12.3" rx="0.8" ry="0.8"/>
		<path class="st52" d="M43.1,12.3c0,0.5-0.3,0.8-0.7,0.9c-0.4,0-0.8-0.3-0.8-0.8c0-0.5,0.3-0.8,0.7-0.9
			C42.7,11.5,43,11.8,43.1,12.3z"/>
		<path class="st10" d="M46.2,44.3C46.6,43.1,55,4,42.3,1.6c-0.9-0.2-3.1-0.1-3.8,0C29.5,3.3,29.1,31,32,44.1c0.1,0.2,3.2,0.7,3.1-2
			c-0.2-3.4,0.8-12.6,0.4-16.8c-1-9.6,1.5-19.8,7-18.9c1.7,2.6,2,3.5,2.2,9.1c0.4,10.7-2.3,25.1-2.1,26.3
			C42.7,43.1,46.2,44.3,46.2,44.3z"/>
		<path class="st54" d="M32.8,34.8c0.1-4.6-0.1-26.1,6.5-30.8C31.2,7.6,32.9,30.1,32.8,34.8z"/>
		<path class="st54" d="M30.8,23.2c0.4-3.2,2.5-16.9,7.4-19.8C32.4,5.5,31.2,20,30.8,23.2z"/>
		<g class="st56">
			<path class="st64" d="M42.1,16.7c0,0.1-1,1.5-2.1,1.5c-1.2,0-2.1-1.4-2.1-1.5H42.1z"/>
		</g>
	</g>
</g>
</svg>
