<svg xmlns="http://www.w3.org/2000/svg" xmlns:xlink="http://www.w3.org/1999/xlink" viewBox="0 0 80 140"><defs><style>.cls-1{fill:none;}.cls-2{fill:#202120;}.cls-3{fill:#ffc197;}.cls-4{fill:#f4f4f4;}.cls-5{fill:#b4c7e2;}.cls-6{fill:#aa6511;}.cls-7{fill:#202020;}.cls-8{clip-path:url(#clip-path);}.cls-9{clip-path:url(#clip-path-2);}.cls-10{fill:#4cf2c3;}.cls-11{fill:#f389b8;}.cls-12{fill:#fff;}.cls-13{fill:#71caff;}.cls-14{fill:#a158df;}.cls-15{fill:#f7b68b;}.cls-16{fill:#305489;}.cls-17{fill:#c17614;}.cls-18{fill:#c48233;}.cls-19{opacity:0.22;}.cls-20{fill:#f41414;}</style><clipPath id="clip-path"><path class="cls-1" d="M50.7,35.28,56.4,35l-.64-4a6.06,6.06,0,0,0-3.4-4.21l-9.51-4.4-5.46,0-9.95,5.4a2.15,2.15,0,0,0-1,1.6v0l-.78,5.31,4.24.13-.21,2.56-.25,3-.11,1.59L29,46.21l-.33,4.61L28.4,55l-.33,4.61L27.47,72.5,50.9,72"/></clipPath><clipPath id="clip-path-2"><polygon class="cls-1" points="-15.35 21.72 -13.98 82.79 102.47 82.79 101.1 21.72 -15.35 21.72"/></clipPath></defs><title>agata</title><g id="Layer_66" data-name="Layer 66"><ellipse class="cls-2" cx="40" cy="135.38" rx="37.63" ry="3.09"/><rect class="cls-3" x="45.92" y="113.68" width="3.53" height="19.85"/><path class="cls-4" d="M45.22,131.65v3.52H59.16a52.48,52.48,0,0,1-7.76-3.62,9.93,9.93,0,0,0-2,0c-1.54,1.45-1.51,1.37-2.14,1.37C46.13,132.88,46.17,131.48,45.22,131.65Z"/><rect class="cls-5" x="45.2" y="135.17" width="13.96" height="1.06" transform="translate(104.37 271.4) rotate(-180)"/><polygon class="cls-3" points="28.49 112.72 27.98 132.84 31.51 132.84 31.51 112.99 28.49 112.72"/><path class="cls-4" d="M32.21,131v3.52H18.26A52.48,52.48,0,0,0,26,130.85a9.93,9.93,0,0,1,2,0c1.54,1.45,1.51,1.37,2.14,1.37C31.29,132.18,31.26,130.79,32.21,131Z"/><rect class="cls-5" x="18.26" y="134.47" width="13.96" height="1.06"/><path class="cls-6" d="M47.86,17.31c.18-17.37-7.42-13-7.42-13l0-.26s-7.3-4-7.3,12.72l.48,9.44H46.85"/><path class="cls-3" d="M50.78,61.56a46.82,46.82,0,0,0-2,13.4c0,.4.2,1,.47.74,1.22-2.3,1.49-4.91,2.28-7.37A69.63,69.63,0,0,1,54.95,60c1.15-2.44,2.44-4.92,2.73-7.69a21.89,21.89,0,0,0-.2-4.78A116.44,116.44,0,0,0,55.7,35.84,39.21,39.21,0,0,0,54,30.11a21.07,21.07,0,0,0-1.8-2.85c-.43,3.28-1.46,7.12-.84,10.2.27,1.34.61,2.61,1,3.86.92,3.34,1.83,6.53,1.29,10.51C53.2,55.22,51.82,58.34,50.78,61.56Z"/><path class="cls-3" d="M31.39,38.51c0,3.47-.65,7.06-1,10.51-.52,5.66-.93,11.34-1.43,17-.24,2.71-.6,5.42-.63,8.13A26.43,26.43,0,0,1,27.3,81.9c-.48.16-.92-.34-1.15-.79-1.32-2.49-1.33-5-1.17-7.69.41-7.09.52-14.24.77-21.34l.75-20.79a4.75,4.75,0,0,1,1.68-3.46L31,26.26Z"/><polygon class="cls-7" points="49.85 68.26 50.38 125.66 45.53 125.66 39.99 72.38 38.12 72.38 31.59 125.46 26.85 125.71 28.09 72.38 49.85 68.26"/><g class="cls-8"><g id="_Clip_Group_" data-name="&lt;Clip Group&gt;"><g class="cls-9"><polygon class="cls-10" points="-44.65 11.27 -41.64 94.03 130.35 94.03 124.6 11.27 -44.65 11.27"/><path class="cls-11" d="M69.62,48.48c-.18-1.5-1-3.59-1.68-2.81a85.27,85.27,0,0,0-.79-10.11A38.09,38.09,0,0,0,66,30.12c-.1-.73-.21-1.45-.34-2.14-.39-2.09-1-5.6-2.13-6.25a.48.48,0,0,0-.2-.06c-.11-1.17-.44-3.15-1.1-3.2a10.15,10.15,0,0,0-.56-2.83c-.24-.61-.56-.75-.84-.58-.39-1-1.23-1.69-1.64-.38a3.34,3.34,0,0,0-1.23-2.18c-.84-.44-1.29,1.24-.91,2.71l.1.39v.05c0,.17,0,.34.06.5l0,.22c0,.08,0,.35,0,.5s0,.13,0,.06h0c0,.43,0,.86-.06,1.29a3.63,3.63,0,0,0,.39,1.71,12.33,12.33,0,0,0-.06,1.25,2.5,2.5,0,0,0-.29,1.15q-.06,1.76-.14,3.51-.58-4.13-1.19-8.24c-.22-1.51-.89-2.92-1.71-2.78S53,16.57,53.2,18v0l-.05,0c-.19-.1-.4,0-.6.23q-.1-.78-.21-1.56c-.17-1.25-.76-2.42-1.4-2.53s-1.07.76-1,2c.06.91.14,1.83.21,2.74-.92-1.36-2.49-1.11-2.37,1.54q0,.1,0,.2a6.54,6.54,0,0,0,.15,1.69c-.48-1.35-1-2.8-1.86-2.75-.25,0-.49.36-.6.83a9.09,9.09,0,0,0-.15-1.55c-.31-1.61-1.56-1.73-2-.41a2,2,0,0,0-.5.84,11,11,0,0,0-.2,3.43c0,.75-.64.61-.66,1.36-1-.81-1.24,2.1-1,4.35a27,27,0,0,0,1.18,4.69c0,.2,0,.4,0,.59Q42,35,42,36.18a2.64,2.64,0,0,0-.23.47,2.15,2.15,0,0,0-.45-.45c-.61-1.59-1.72-1.62-1.82.88a31.79,31.79,0,0,0,.69,6.16c.33,2,.66,4.09,1.14,6a3.22,3.22,0,0,0,.31.8A95.82,95.82,0,0,0,42,59.56a8.25,8.25,0,0,0,.55,2.33c0,.13-.06.28-.08.43a55.81,55.81,0,0,0-.21,7.83c0,2.63.11,5.26.17,7.89.05,2.29,1,2.85,1.54,1.88a5,5,0,0,0,.44,1.32c.42,3.71,6.92,7.25,8.13,10,.4.91,1.24,1.69,1.8.88a2.69,2.69,0,0,0,.31-.62q.17,1,.35,1.92c-.09.48-.18.94-.29,1.4-.38,1.61-.94,2.93-1.4,4.43-.53,1.75-.51,4.9.73,5.3.87.27,1.83-2,2.32-3.25a27.76,27.76,0,0,0,1.22-4.57,18.43,18.43,0,0,0,.47,2.9c.37,1.38,1.33,1.42,1.52-.3a19.62,19.62,0,0,0,.1-2.35.49.49,0,0,0,.57,0,2,2,0,0,0,.6-.87,1.75,1.75,0,0,0,.89-1.18,4.82,4.82,0,0,0,1.15,1,.55.55,0,0,0,.49,0,3.53,3.53,0,0,0,.41.62c.26.3.52.34.73.19.07.19.14.38.21.56.35.88.83,2.23,1.39,2.44s.83-.68.89-1.64a2.33,2.33,0,0,0,.7-1.64.73.73,0,0,0,.32-.09,1.11,1.11,0,0,0,.21.27.56.56,0,0,0,.29.13.57.57,0,0,0,.31-.08,1.08,1.08,0,0,0,.29-.26,2.38,2.38,0,0,0,.29-.5,2.47,2.47,0,0,0,.09.24,1.73,1.73,0,0,0,.27.42.89.89,0,0,0,.32.22.42.42,0,0,0,.22,0h.13c.15.56.39,1,.72,1a.62.62,0,0,0,.55-.34,2.84,2.84,0,0,0,.34-.85,19.35,19.35,0,0,0,1.52,2.47A.67.67,0,0,0,74.81,99a2.94,2.94,0,0,0,0-2.16,30.39,30.39,0,0,0-2.06-3.74A.52.52,0,0,0,73,93c.73-.36.88-2.27.74-3.53,0-.3-.07-.6-.11-.9a36.19,36.19,0,0,0-.16-3.71c-.11-1.42-6-2.83-6.12-4.24.82.09,1.62-1.21,1.67-3.46,0-.58,0-1.16,0-1.74a5.56,5.56,0,0,0,0-.7c0-4.34.08-8.68.22-13q.1-3.08.25-6.16A42.81,42.81,0,0,0,69.62,48.48Zm.49,41.65c0-.18,0-.36,0-.56v-.09a.48.48,0,0,0,.28.06c0,.14,0,.29,0,.43A.46.46,0,0,0,70.11,90.13Z"/><path class="cls-7" d="M13.14,18.64c.1.21.14.37.11.42s-.12,0-.32-.2l.37.42.35.49c0,.09-.07,0-.22-.13.27.57.27.36.52.79.19.11.43.19.51.31l-.05-.15.21.28.1.14.09.14a2.29,2.29,0,0,1,.22.42l0,0,.2.28,0,.06.27.41,0-.07a3.84,3.84,0,0,1,.36.62l0,0a8.79,8.79,0,0,0,1,1.57l-.11,0c.07.26.13,0,.25.26l-.07.07c.24.15.15.31.21.49l.06-.15.16.31c.16.35,0,.3-.09.29l.21.16-.06.11c.2.08.08.17.31.42,0,.05-.09,0,0,.11l.24.2.16.13.08.05-.14-.12-.13-.13.15-.07a1,1,0,0,1,.29.31.85.85,0,0,0,.2.27l-.08,0L18.26,27a1.52,1.52,0,0,1,.26.31,2.59,2.59,0,0,0,.14.25c0-.08-.07-.19.06-.09s0,.09.07.19.13,0,.22.06a1,1,0,0,1,.27.27h0a.33.33,0,0,1,.17.14l-.13,0,.24.06c.08.13.29.21.23.26l-.08,0,.38.4.37.39-.06.09c.17,0,.35.46.45.31a1.29,1.29,0,0,0,.27.36c.09.12.16.21.05.23l.14.19.13.17c.09.1.16.21.24.32a2.17,2.17,0,0,1,.38.86,1.28,1.28,0,0,0,0,.36,5,5,0,0,0,.11.49c.09.35.22.73.32,1a15.86,15.86,0,0,0,.71,1.53,14.49,14.49,0,0,0,.89,1.47,2.8,2.8,0,0,0,.25.57c.11.19.23.37.36.57s.27.39.39.58l.09.14.13.22c.09.17.18.34.27.51l.13.13.12.12a5.58,5.58,0,0,0,.38.72l.23.38.06.1,0,0,0,0h0l.16-.18c.43-.5.86-1,1.34-1.48l.22-.34.07-.11-.05,0h-.08l0,0,0,0,.07-.08.14-.17c.09-.11.16-.18.2-.13l0,.05c0,.05.13-.1.24-.28a1.69,1.69,0,0,1,.35-.47l-.18,0,.26-.35,0,.11c.22-.43.41-.79.6-1.1l.14-.23L30,36v0h0l0,0,.35-.4a5.88,5.88,0,0,0,1.17-2c0,.28.1-.36.24-.31.36-.34.31-.79.4-1.15,0,0,0,0,0,0l.13-.3.12-.29c0,.42,0-.48,0-.1.36-.75.67-1.64,1-2.52l.13-.33.07-.18,0-.12,0-.07a3.55,3.55,0,0,1,.25-.54,4.67,4.67,0,0,1,.76-1l-.08,0c.15-.16.31-.34.48-.51a4.25,4.25,0,0,1,.51-.43,2.69,2.69,0,0,0,.59-.79c.19-.32.5-.49.48-.44a5.15,5.15,0,0,0,.33-.56c.06-.11.12-.22.2-.33a4,4,0,0,1,.27-.36c.12,0,.3-.41.46-.76s.32-.67.4-.63h0c.5-.58.68-1.3,1.2-1.94a.19.19,0,0,1,0,0l.25-1.1h0l.13-.59-.11,0,0-.06c-1.28,0-2.51,0-3.7,0-.5-.06-1.12-.19-1.33-.18a9.93,9.93,0,0,0-1.15,0c-.65,0-.32-.1-.64-.15H33s0,0,0,0,.13.06,0,.06a.46.46,0,0,1-.17-.06l-.23-.09c.28,0,.14,0,.1-.06-.41-.1-1.06-.31-1.22-.19-.56-.12-.56-.18-.8-.2.08,0,.24.07.24.09-.22-.08-.11,0,0,0a2.53,2.53,0,0,1-.43,0l-.61-.1c-.21,0-.41-.05-.56-.06s-.26,0-.28,0v0c-.09.12,0,.22-.21.29l-.16,0-.12,0-.12,0c-.16,0-.08-.06-.08-.08a5.26,5.26,0,0,1-.68.06c-.24,0-.5,0-.74,0l.25.13.25.13c-.4,0-1.11-.1-1.19,0L26,17.83c-.8-.09-.55.17-.86.15l-.4,0,.39-.06a8.65,8.65,0,0,1-.87,0h0a1,1,0,0,1-.52.18,6.13,6.13,0,0,1-1.3.17l-.14.14h-.46v-.09c.45-.07,1.29-.25,1.87-.36v0c-.35.06-.74.17-1,.2s-.34,0-.25-.11l-.16.1-.38.07-.16,0h-.54c-.29,0-.59,0-1.17,0l.1,0c-.23,0-.47.07-.53,0A8.5,8.5,0,0,1,17.83,18l-.11.11c-.15,0-.35-.16-.43,0l-.31,0a1.85,1.85,0,0,1-.54,0h-.34s-.05,0-.06,0,0,0-.08,0l-.4,0a.37.37,0,0,0-.3,0,.59.59,0,0,1-.37.07l-.27-.08-.29-.08a4.06,4.06,0,0,0-.79,0c-.2,0-.38,0-.68.05Z"/><path class="cls-12" d="M47,76.46c-.05-1.47-.5-3-.83-3-.08-.55-.11-.78,0-.81s.19.15.34.42c.3.55.64,1.52.82,1.91-.27-1.12-.43-1.74-.61-2.33,0-.15-.1-.29-.15-.44s-.13-.3-.21-.46a4.31,4.31,0,0,0-.28-.51,6.11,6.11,0,0,0-.4-.58l-.08-.36c0-.22-.13-.5-.22-.79l-.25-.8c-.08-.21-.14-.35-.14-.35l-.62-.69c-.19-.2-.43-.41-.68-.64l-.39-.35-.42-.32a14.92,14.92,0,0,0-1.6-1.06c-.22-.13-.42-.22-.55-.29l-.21-.1c.26.09,0-.13.24,0-.31-.11-.64-.25-1-.4a3.55,3.55,0,0,0-.53-.52,1.54,1.54,0,0,0,.51-.05l.17.13-.08-.15.22-.06c-.13-.1-.27-.2-.42-.29A6.63,6.63,0,0,0,38,61.79c-.34-.26-.67-.53-1.07-.81s-.77-.58-1.26-.95l.05,0,.33.29.32.29.14.14c-.54-.19-1.22-.44-1.94-.65l.73.16.37.1.14,0A9.52,9.52,0,0,0,31.91,59l-.47,0,.16-.07-.18.07a10,10,0,0,0-3.62.4,10.92,10.92,0,0,0-1.33.49h-.21a1.7,1.7,0,0,0-.88.24,4.73,4.73,0,0,1-.42.27L25,60a11.76,11.76,0,0,0-1.43.42l.1-.07.52-.34.24-.14a8.09,8.09,0,0,0-1.78.39,2.28,2.28,0,0,0-.53.26,3.61,3.61,0,0,1-.53.27l-.64.24-1.06.45c.46-.29,0-.21-.23-.16s-.24,0-.18,0a1.17,1.17,0,0,1,.23-.18l.59-.3a12.52,12.52,0,0,0-1.54.6c-.43.2-.77.41-1.07.57s-.53.36-.75.5l-.31.22-.27.23a14.56,14.56,0,0,0-1.12,1,20.45,20.45,0,0,0-1.66,1.88l.18.41.19.41a7,7,0,0,1-1,1.28c-.28.26-.5.41-.66.55.29-.55.84-1.35.72-1.33a3,3,0,0,0-.84.9,6.62,6.62,0,0,0-.48,1c-.13.37-.27.73-.44,1.12a6.13,6.13,0,0,1-.74,1.18c.21-.18.44-.36.54-.28s.06.15,0,.35,0,.18-.08.29l-.23.61c-.12-.26-.47.32-.78,1s-.49,1.27-.62,1.54c.16-.17,0,.73-.2,1.78C9.05,77.12,9,77.56,9,78S8.8,79,8.75,79.55a2.65,2.65,0,0,0-.14-1,7.81,7.81,0,0,1,.11,1.21c0,.3,0,.59-.05.88,0,.79,1.42,1.51,1.56,2.11l0,.17c-.1-.16,2.61.24,2.61.87s1.79,1.88,1.94,2.69c.16,0,.42.19.45.38a13.52,13.52,0,0,0,2.54,4,2.57,2.57,0,0,0-.34.1l-.32-.39L17,90.46l-.16-.21-.32-.41c-.22-.25-.36-.5-.48-.61s-.16-.11-.11.09a22.71,22.71,0,0,0,1.51,1.73c-.3.15-.28.42.71,1.29l.36,0a16,16,0,0,0,1.33,2.38l0-.34c0-.17.05-.33.05-.33l.16.17.44.44A10.39,10.39,0,0,0,22,95.84a7.93,7.93,0,0,0,.85.47l.4.2.37.14.55.21.16,0h-.07l-.34-.05-.48-.08-.28,0-.28-.08-.55-.16-.26-.08-.23-.09-.47-.19a13.07,13.07,0,0,0,2.21.9,10,10,0,0,0,1.49.33l.27,0,.07.07a1.33,1.33,0,0,0,.38.21,3.24,3.24,0,0,0,.65.13,1.33,1.33,0,0,1,.11.25,1.24,1.24,0,0,1,.32,0l.39.08c.28.07.6.21,1,.32s.76.27,1.21.38c.22.06.44.12.68.17l.72.11-.4.26-.41.26-.2-.07-.43-.18-.43-.18-.19-.09a1.05,1.05,0,0,0,.57.45,2.6,2.6,0,0,0,.86.16c.32,0,.65,0,1,0a6.07,6.07,0,0,1,1,0c.68-.07.86-.26,1-.45l0-.1a1.11,1.11,0,0,0,.41.2,1.34,1.34,0,0,0-.38-.27.53.53,0,0,1,.38-.32h.35a3.27,3.27,0,0,0,.73.23l-.36-.28h.08a1.37,1.37,0,0,1,.72,0c.57,0,.62.22.49.46l0,.05h0a2,2,0,0,1-.26.31l-.34.3c.24-.19.44-.34.64-.47l.09-.05a1.75,1.75,0,0,0,.51.14,1.16,1.16,0,0,0-.44.3,3.9,3.9,0,0,1,.55-.23l.15-.06h0l.44-.16h0l.11,0a.89.89,0,0,1-.53.12l.89.27a8.87,8.87,0,0,0,1,.21,4.19,4.19,0,0,0,2.19-.27l-.13.08c.75-.23,1-.43,1.13-.56s0-.21-.14-.28-.19-.16,0-.3A10.45,10.45,0,0,1,42.56,98c.26-.09.4,0,.49.07a4.17,4.17,0,0,1,.24.41.36.36,0,0,0,.46.14,2.68,2.68,0,0,0,1.11-1c-.33.16-.44.09-.4-.09a2.18,2.18,0,0,1,.14-.36c.07-.15.17-.31.26-.51s.21-.4.31-.62.2-.45.29-.68.16-.46.24-.68.13-.42.18-.61c0,0,0,.12,0,.29s0,.41,0,.65a8,8,0,0,1-.05,1,4.84,4.84,0,0,0,.5-1.13,5.41,5.41,0,0,1,.33-.92h-.21c-.36-.1-.16-.55.06-1.16.05-.14.11-.29.15-.45h0c.31,0,.69.05.63.46l.3-.35a2.21,2.21,0,0,0,.67.53c-.08-.41-.16-.83-.23-1.26a.85.85,0,0,0,0-.56,1.58,1.58,0,0,1,.13-1.35l0-.07,0,0,0,.13c0,.11.06.26.09.41l.11.6a4.6,4.6,0,0,0,.31-1,1,1,0,0,0,0-.35,1,1,0,0,1,0-.41,3.23,3.23,0,0,0,.59-.85,1.61,1.61,0,0,1-.42.28l.11-.21c.06.29.55-.74.27.39.16-.3.28-.56.38-.78l.26-.57.19-.48.09-.09a2.86,2.86,0,0,0,1-1.33c.05-.3-.13-.17-.3-.13a.16.16,0,0,1-.18-.06c.06-.2.13-.42.21-.69L51,84.54a.53.53,0,0,0,.12-.18,8.19,8.19,0,0,1-1.73-.27l0-.07.1-.28a.85.85,0,0,1,.12.21c.11.23,1.84.55,2,.6.14-.6-4.24-1.15-4.31-1.68l.16,0,.41-.14.15-.61c.08-.37-1.2-.85-1.13-1.35s.12-1,.13-1.36,0-.62,0-.62C46.83,79.23,47.06,77.93,47,76.46ZM36.27,99.54l-.53-.14a3.36,3.36,0,0,1,.47-.22l0,0a4.6,4.6,0,0,0,.5.23A4.6,4.6,0,0,0,36.27,99.54Z"/><path class="cls-10" d="M43.79,87.44a.63.63,0,0,0-.63-.36c-.26.06-.32.34-.31.59a2.08,2.08,0,0,1-.06,1,1.81,1.81,0,0,1-.6.8,2.34,2.34,0,0,1-2.22.21l-.33-.16,0-.15a2.63,2.63,0,0,1,.48-1,2.77,2.77,0,0,1,1.8-1c.48-.08.12-.9-.22-.94a2.64,2.64,0,0,0-2.12.8,3,3,0,0,0-1,2.39c.17,1.09,1.35,1.49,2.21,1.6a2.81,2.81,0,0,0,2.45-.79A2.68,2.68,0,0,0,43.79,87.44Z"/><path class="cls-10" d="M38.94,92.12a2.43,2.43,0,0,0-2.14-1.24c-.67,0-2.13.36-1.84,1.4.08.27.55.64.72.25.09-.22.52-.23.7-.25a2.33,2.33,0,0,1,1,0,.84.84,0,0,1,.26.12l.16.13.07.1.05.1h0l0,.07a.78.78,0,0,1,0,.3,2,2,0,0,1-1.16,1,6.21,6.21,0,0,1-1,.38,3.24,3.24,0,0,1-.48.1h-.06s-.18,0-.13,0a.38.38,0,0,0-.51.14l0,.07a.71.71,0,0,0,0,.65c.57.91,1.55.57,2.36.28a3.94,3.94,0,0,0,1.93-1.29A2.16,2.16,0,0,0,38.94,92.12Z"/><path class="cls-10" d="M45.68,95.75a1.16,1.16,0,0,0-.55,0,3.43,3.43,0,0,1-.49.12,3.17,3.17,0,0,1-.85,0,4.28,4.28,0,0,1-.85-.24v0a2.26,2.26,0,0,1,0-.44,2.19,2.19,0,0,1,.9-1.42,2.38,2.38,0,0,1,.81-.33,3.38,3.38,0,0,1,.89,0c.36,0,.31-.44.09-.61a2.3,2.3,0,0,0-2.49,0A3.08,3.08,0,0,0,41.81,95a1.69,1.69,0,0,0,.38,1.51,2.81,2.81,0,0,0,1.37.61,3.74,3.74,0,0,0,1.34.06,3.45,3.45,0,0,0,.62-.15.77.77,0,0,0,.57-.48A.56.56,0,0,0,45.68,95.75Z"/><path class="cls-10" d="M44.3,83.06a4.35,4.35,0,0,0-2.38-.46c-.61.06.7.35,1,1.34.08.3.53.7.79.38a1.18,1.18,0,0,1,.71-.38,3.46,3.46,0,0,1,1-.11c.61,0,3,.24,3.43.63,0,0,.08.07.07.11a.69.69,0,0,1-.14.33,3.07,3.07,0,0,1-.73.72,3.3,3.3,0,0,1-.89.46c-.3.1-.89.07-1.06.38a.72.72,0,0,0,.32.92,1.45,1.45,0,0,0,1.27,0A4.25,4.25,0,0,0,48.73,87a2.78,2.78,0,0,0,1.45-1.86C50.27,84.15,45,83.42,44.3,83.06Z"/><path class="cls-10" d="M38.84,82.39c-.11-.34-.38-.39-.62-.14a1.66,1.66,0,0,0-.21.29l-.07.12a.88.88,0,0,1-.32.25,2.5,2.5,0,0,1-.9.23,3.64,3.64,0,0,1-2.32-.42A.7.7,0,0,1,34,82c0-.3-1.2-.58-1-.83a2.71,2.71,0,0,1,1.67-1c.3-.06.44-.76.07-.81-1.56-.21-1.71,1.48-1.7,3.17,0,2.07,7.1,2.22,8.44,1.93.38-.08-.88-.25-.57-.52S39,83,38.84,82.39Z"/><path class="cls-10" d="M36.62,85.93a2.06,2.06,0,0,0-2.22-1.27,2.38,2.38,0,0,0-1.27.46,1.3,1.3,0,0,0-.5,1.33c.13.46.55.16.67-.13l.05,0c.09,0,.19-.05.28-.07a3.15,3.15,0,0,1,.94-.06,1.14,1.14,0,0,1,1,.78.36.36,0,0,0,0,.09v0a1,1,0,0,0-.07.12,1.08,1.08,0,0,1-.46.36c-.61.25-1.51,0-2,.55a.73.73,0,0,0-.09.77c.23.49,1,.45,1.42.39a2.69,2.69,0,0,0,1.3-.5A2.52,2.52,0,0,0,36.62,85.93Z"/><path class="cls-10" d="M51.1,92.39a5.83,5.83,0,0,0-.82.21,1.77,1.77,0,0,1-.7,0,1.6,1.6,0,0,1-1.11-.89,1.22,1.22,0,0,1,.08-1.26,1,1,0,0,1,1.18-.37c.36.16.55-.56.25-.74a1.5,1.5,0,0,0-1.85.21,2.37,2.37,0,0,0-.56,2.34,2.76,2.76,0,0,0,1.54,1.85,2,2,0,0,0,2.3-.3C51.64,93.13,51.58,92.37,51.1,92.39Z"/><path class="cls-10" d="M33.4,93.31a5.83,5.83,0,0,0-.82.21,1.77,1.77,0,0,1-.7,0,1.6,1.6,0,0,1-1.11-.89,1.22,1.22,0,0,1,.08-1.26A1,1,0,0,1,32,91c.36.16.55-.56.25-.74a1.5,1.5,0,0,0-1.85.21,2.37,2.37,0,0,0-.56,2.34,2.76,2.76,0,0,0,1.54,1.85,2,2,0,0,0,2.3-.3C33.93,94,33.87,93.29,33.4,93.31Z"/><path class="cls-10" d="M40.87,99.27a2.64,2.64,0,0,0-1.28-2.14,2.41,2.41,0,0,0-2.41.21,1.89,1.89,0,0,0-.66,2.38c.25.37.6.08.54-.32a.48.48,0,0,1,.14-.51,1.66,1.66,0,0,1,.6-.33,1.87,1.87,0,0,1,1.49,0,1.28,1.28,0,0,1,.42.39.76.76,0,0,1,.14.4,1.12,1.12,0,0,1-.12.49,2.37,2.37,0,0,1-.43.58c-.36.38-.06,1.52.52,1.23A2.46,2.46,0,0,0,40.87,99.27Z"/><path class="cls-13" d="M8.48,49.19c-1.36.2-.52,1.06.18,1.84a64.63,64.63,0,0,0-9.2.87,29.66,29.66,0,0,0-5,1.31c-.66.11-1.32.23-2,.37-1.9.42-5.09,1.06-5.69,2.34a.61.61,0,0,0-.05.22c-1.07.12-2.87.48-2.92,1.2a7.88,7.88,0,0,0-2.58.61c-.56.27-.68.61-.52.93-.92.42-1.54,1.35-.35,1.8a3,3,0,0,0-2,1.35c-.4.92,1.13,1.41,2.47,1l.35-.11h0l.46-.07.2,0,.46,0c.06,0,.12,0,.06,0h0l1.17.06a2.85,2.85,0,0,0,1.56-.43,9.32,9.32,0,0,0,1.14.07,2,2,0,0,0,1,.32l3.2.15-7.51,1.3c-1.38.24-2.65,1-2.53,1.88s1.57,1.32,2.91,1.11h0l0,.06a.63.63,0,0,0,.21.66l-1.42.23c-1.13.19-2.2.84-2.3,1.54s.69,1.18,1.84,1.08l2.5-.23c-1.23,1-1,2.73,1.41,2.6h.19A5,5,0,0,0-12.55,73c-1.23.53-2.55,1.05-2.51,2,0,.28.33.54.75.66a6.91,6.91,0,0,0-1.41.17c-1.46.34-1.58,1.71-.37,2.22a1.84,1.84,0,0,0,.76.55,8.37,8.37,0,0,0,3.12.22c.68,0,1.37,0,2,0C-10.89,80-9,81-7,80.66a21.24,21.24,0,0,0,4.27-1.3l.54,0L0,79.56a2.26,2.26,0,0,0,.43.25,2.21,2.21,0,0,0-.41.5c-1.45.67-1.47,1.89.8,2a24.22,24.22,0,0,0,5.61-.76c1.82-.36,1-.72,2.68-1.25.3-.09-1.11-.21-.92-.34a51.31,51.31,0,0,0,7.35-.45,6.46,6.46,0,0,0,2.12-.6l.39.08a42.16,42.16,0,0,0,7.13.23c2.4,0,4.79-.12,7.19-.19C34.46,79,35,78,34.09,77.35a4,4,0,0,0,1.2-.49,28.22,28.22,0,0,0,9.12-2.61c.83-.44.71-1.86,1-1s1,.3.75.21c.59-.13,0-.38.6-.51.43.09.67.1,1.09.22,1.47.42,2.52-.3,3.89.2,1.6.59,4.46.57,4.82-.81.25-1-1.79-2-3-2.54a21.93,21.93,0,0,0-4.16-1.34A14.15,14.15,0,0,0,52,68.19c1.26-.4,1.29-1.46-.28-1.66a14.83,14.83,0,0,0-2.14-.11.63.63,0,0,0,0-.62,1.9,1.9,0,0,0-.79-.65,1.68,1.68,0,0,0-1.07-1,5.14,5.14,0,0,0,.92-1.27.72.72,0,0,0,0-.54,3.23,3.23,0,0,0,.57-.45.65.65,0,0,0,.17-.81l.51-.23c.8-.38,2-.91,2.22-1.53s-.62-.91-1.5-1a2,2,0,0,0-1.49-.77.93.93,0,0,0-.09-.35A1.07,1.07,0,0,0,49.3,57a.68.68,0,0,0,.12-.32.74.74,0,0,0-.07-.34,1.15,1.15,0,0,0-.24-.32,2.11,2.11,0,0,0-.45-.32l.22-.1a1.58,1.58,0,0,0,.38-.3,1,1,0,0,0,.2-.35.55.55,0,0,0,0-.24s0-.1,0-.14c.51-.16.91-.43.95-.79a.72.72,0,0,0-.31-.61,2.36,2.36,0,0,0-.77-.38,17.44,17.44,0,0,0,2.25-1.67.81.81,0,0,0-.11-1.32,2.25,2.25,0,0,0-2,0,26.68,26.68,0,0,0-3.4,2.26.67.67,0,0,0-.05-.3c-.33-.8-2.07-1-3.22-.81l-.82.12a27.35,27.35,0,0,0-3.38.18c-1.29.12-2.58.26-3.86.4.08-.9-1.1-1.77-3.15-1.84l-1.59,0a4.21,4.21,0,0,0-.63-.05c-3.95,0-7.91-.09-11.85-.25q-2.81-.11-5.61-.27C9.81,49.13,10.58,48.88,8.48,49.19ZM43.38,55l-.51,0h-.09a.62.62,0,0,0,.06-.3l.39,0A.54.54,0,0,0,43.38,55Z"/><path class="cls-13" d="M-18.72,29.48c-1.47.21-3.52,1.11-2.76,1.93a71.86,71.86,0,0,0-9.94.91,32.81,32.81,0,0,0-5.35,1.37c-.72.11-1.42.24-2.11.39-2.06.44-5.5,1.12-6.14,2.45a.63.63,0,0,0-.06.23c-1.15.13-3.1.51-3.15,1.26a8.72,8.72,0,0,0-2.78.64c-.6.28-.73.64-.57,1-1,.44-1.66,1.42-.38,1.89a3.23,3.23,0,0,0-2.14,1.41c-.43,1,1.22,1.48,2.67,1.05l.38-.12H-51l.5-.07.22,0,.49,0c.06,0,.13,0,.06,0h0l1.27.06a3.15,3.15,0,0,0,1.68-.45,10.37,10.37,0,0,0,1.23.07,2.18,2.18,0,0,0,1.13.34l3.45.16-8.1,1.37c-1.49.26-2.87,1-2.73,2s1.7,1.39,3.15,1.16h0l0,.06c-.1.22,0,.46.22.69l-1.53.24c-1.23.2-2.38.88-2.49,1.61s.75,1.24,2,1.13l2.7-.24c-1.33,1.05-1.09,2.86,1.52,2.73h.2a5.52,5.52,0,0,0,1.66-.18c-1.33.55-2.76,1.1-2.71,2.14,0,.29.36.56.81.69a7.67,7.67,0,0,0-1.53.18c-1.58.36-1.71,1.79-.4,2.33a2,2,0,0,0,.83.58,9.31,9.31,0,0,0,3.37.23c.74,0,1.48,0,2.21,0-.8,1.2,1.19,2.17,3.4,1.85a23.46,23.46,0,0,0,4.61-1.36l.58,0,2.4.16a2.46,2.46,0,0,0,.46.26,2.33,2.33,0,0,0-.44.52c-1.56.7-1.59,2,.87,2.1a26.9,26.9,0,0,0,6.05-.8A59.93,59.93,0,0,0-18,62.08a2.91,2.91,0,0,0,.78-.36,80.54,80.54,0,0,0,9.41-.47,7.14,7.14,0,0,0,2.29-.63l.42.09a46.9,46.9,0,0,0,7.7.24c2.59,0,2.43-.13,5-.2-2,.05,2.64-1.24,1.84-1.77-1.12.25-1.67.46-.07-.51a21.78,21.78,0,0,0,8.21-2.73c.9-.46,1.66-1.43.87-2.07a2.52,2.52,0,0,0-.61-.36l1.89-.41c.47.1.93.21,1.38.33,1.58.44,2.88,1.08,4.35,1.61,1.72.61,4.82.59,5.21-.85.27-1-1.94-2.11-3.2-2.67A24.2,24.2,0,0,0,23,49.93a15.7,15.7,0,0,0,2.85-.54c1.36-.42,1.39-1.53-.3-1.74a16.49,16.49,0,0,0-2.31-.12.64.64,0,0,0,0-.65,2,2,0,0,0-.85-.69,1.79,1.79,0,0,0-1.16-1,5.39,5.39,0,0,0,1-1.33.73.73,0,0,0,0-.57,3.48,3.48,0,0,0,.61-.48.67.67,0,0,0,.18-.85l.56-.24c.86-.4,2.19-1,2.4-1.6s-.67-1-1.62-1a2.16,2.16,0,0,0-1.61-.81,1,1,0,0,0-.09-.37,1.14,1.14,0,0,0,.26-.25.7.7,0,0,0,.13-.34.75.75,0,0,0-.07-.36,1.2,1.2,0,0,0-.26-.33,2.28,2.28,0,0,0-.49-.33l.23-.1a1.7,1.7,0,0,0,.41-.31,1.05,1.05,0,0,0,.21-.37.56.56,0,0,0,0-.25c0-.05,0-.1,0-.15.55-.17,1-.45,1-.83a.74.74,0,0,0-.33-.64,2.58,2.58,0,0,0-.84-.39,18.8,18.8,0,0,0,2.43-1.75.84.84,0,0,0-.12-1.39,2.5,2.5,0,0,0-2.13,0,28.9,28.9,0,0,0-3.68,2.37.68.68,0,0,0-.06-.32c-.36-.84-2.23-1-3.47-.85l-.89.13a30.42,30.42,0,0,0-3.65.19c-1.39.13-1.41.27-2.8.42.08-.84-2.09-2-.66-1.92-.57,0,.5,0-.07,0a4.68,4.68,0,0,0-.68-.05c-4.26,0-8.54-.09-12.79-.26q-3-.12-6.06-.28A36,36,0,0,0-18.72,29.48Zm35.19,6.06-.55,0h-.09a.64.64,0,0,0,.06-.32l.43,0A.56.56,0,0,0,16.47,35.54Z"/><path class="cls-12" d="M4.47,25.89c-.07-2.06-.71-4.25-1.17-4.15-.11-.77-.15-1.1-.06-1.14s.26.2.48.59c.42.77.9,2.13,1.15,2.68-.38-1.57-.6-2.44-.85-3.27-.07-.21-.13-.41-.21-.62s-.18-.42-.29-.64a6,6,0,0,0-.4-.72,8.57,8.57,0,0,0-.57-.82l-.11-.51c-.06-.31-.18-.7-.31-1.1l-.35-1.12c-.11-.3-.2-.49-.2-.49l-.88-1c-.27-.28-.61-.57-1-.9l-.55-.49-.59-.45A20.92,20.92,0,0,0-3.63,10.3c-.31-.18-.58-.3-.77-.4l-.29-.15c.37.12,0-.18.34-.06-.6-.21-1.22-.49-1.88-.78.3,0,.59.07.81.1l.39.06A8,8,0,0,0-6,8.39a5.32,5.32,0,0,0,.67-.17c-.31-.25-.66-.46-1-.69s-.68-.46-1-.67-.71-.45-1.1-.67L-9.65,5.5l-.06,0a3.6,3.6,0,0,0-1.24-1.72c-.36-.17-.25.15-.26.4s-.11.39-.67.16l-.24-.11c-.15-.14-.15-.3-.32-.43l-.36,0-.14,0-.32-.14h0l.5.12-.47-.24a.72.72,0,0,1,.36-.16,3.54,3.54,0,0,0,.74-.18l.19,0c.21.05.39.09.51.13l.19.06a13.34,13.34,0,0,0-5.42-2,13.47,13.47,0,0,0-3.27,0l-.38-.11a4.75,4.75,0,0,0-1.32-.2,1.68,1.68,0,0,0-.49.05.41.41,0,0,0-.26.21C-23.11,1-23,.87-22.63.79l.6-.1c.2,0,.36-.05.41-.14a5,5,0,0,1-1.53.17c-.31,0-.62,0-1,0s-.68,0-1,0c-.64,0-1.28.08-1.82.15l-.39.05-.34.1a2,2,0,0,0-.51.24c0-.07-.1-.1-.11-.15a13.65,13.65,0,0,1-1.27.62c-.47.25-1,.52-1.54.8a15.76,15.76,0,0,0-2.3,1.56l-.68.25.2-.36a4.31,4.31,0,0,0-1.28.82c-.59.28-1.07.57-1.49.8s-.64.42-.91.6c-.24-.24.29-.47.81-.67a6.87,6.87,0,0,0-2.12,0A8.35,8.35,0,0,0-40.73,6a14.8,14.8,0,0,0-1.95.92c-.35.21-.72.43-1.11.71-.2.13-.4.28-.6.44l-.31.25-.27.23.22-.17.59-.41a6.58,6.58,0,0,1,.62-.36l.29-.15c-.24.28-.53.56-.78.89-.12.16-.28.34-.38.5l-.32.48c-.22.32-.46.64-.66,1s-.46.68-.64,1.05-.42.71-.6,1.07-.36.7-.54,1c-.32.67-.66,1.26-.94,1.73l0-.36c0-.18,0-.37,0-.37a28.93,28.93,0,0,1-.72,3.85A15.31,15.31,0,0,0-49.15,20,2.41,2.41,0,0,0-49,21.15c.32-.89.48,0,.79-1.32,0,0,.11,1.36.33,2.65l0,.16c-.18.47-.34.89-.45,1.11.23-.24-.07,1-.28,2.5-.09.58-.15,1.19-.18,1.75-.15.76-.26,1.51-.34,2.23a3.72,3.72,0,0,0-.19-1.35,11,11,0,0,1,.16,1.69c0,.42-.07.83-.08,1.23a12.36,12.36,0,0,0,.27,3c0,.08,0,.16,0,.24-.14-.23-.18.34-.18,1.22A30,30,0,0,0-48.7,40c.22-.06.58.27.63.54a18.61,18.61,0,0,0,3.83,5.92c.1.29.2.57.31.85a22,22,0,0,0,2.26,4.26l.06-.47c0-.23.07-.47.07-.47s.08.09.23.24l.62.61a14.57,14.57,0,0,0,2.07,1.59,11.13,11.13,0,0,0,1.19.66l.55.28.52.2.77.29.22.07.08,0h-.18l-.47-.07-.67-.11-.39-.07-.39-.11-.78-.23-.36-.11-.32-.13-.66-.27a18.33,18.33,0,0,0,3.1,1.26,14.09,14.09,0,0,0,2.1.46c.35.05.7.06,1,.09a6.58,6.58,0,0,0,.94,0c1.83.1,3,0,3.77.05a7,7,0,0,1,1.71.24,3.5,3.5,0,0,0,1.43.08,6.52,6.52,0,0,0,1.1-.34,8.39,8.39,0,0,0,.88-.44c.36-.06.72-.14,1.09-.23a1.62,1.62,0,0,0-.3.37c.46-.24.6-.37.58-.44.33-.09.66-.19,1-.31.1.34-.53.63-.77.79s-.13.14.11.16a6.69,6.69,0,0,0,1.61-.12c-.39-.07-.71-.24-.62-.47s.59-.51,1.77-1c-.47.55,0,.49.92.1l.35-.16c1.51,0,3-.28,4.16-.38l-.48-.6.5-.29c.3-.18.71-.38,1.08-.65l1-.71.45-.36-.2.32c-.12.2-.29.44-.46.69l-.72,1c.22-.26.7-.71,1.22-1.22a21.69,21.69,0,0,0,1.44-1.64c.15-.16.29-.29.43-.42l1-.33-.44.38-.45.36c1.6-1.1,3.73-2.27,5.52-3.62A11.87,11.87,0,0,0,0,42.48c-.64.53-.71.42-.86.4s-.36.06-1.31.84l.28-.32.7-.88A27,27,0,0,0,.66,39.64,24.76,24.76,0,0,0,2.12,36.5c.33-.89.5-1.5.5-1.5l.58-.17c.29-.09.57-.19.57-.19L4,33.78c.11-.51.24-1.2.34-1.89s.16-1.38.19-1.9,0-.87,0-.87C4.28,29.77,4.6,27.95,4.47,25.89ZM-33.61,4.28l-.47.42c-.06,0-.08,0,0-.07a1.64,1.64,0,0,1,.32-.25Z"/><path class="cls-13" d="M8.91,69.53c0-1.31-.45-2.7-.74-2.64-.07-.49-.1-.7,0-.73s.17.13.3.38c.27.49.57,1.36.73,1.71-.24-1-.38-1.55-.54-2.08l-.13-.39c-.05-.13-.11-.27-.18-.41A3.84,3.84,0,0,0,8,64.9a5.45,5.45,0,0,0-.36-.52l-.07-.32c0-.2-.12-.45-.19-.7l-.22-.71c-.07-.19-.12-.31-.12-.31l-.56-.62c-.17-.18-.39-.36-.61-.57l-.35-.31-.38-.29a13.32,13.32,0,0,0-1.42-.95c-.2-.12-.37-.19-.49-.26l-.19-.09c.23.08,0-.11.22,0-.38-.14-.78-.31-1.2-.5l.51.06.25,0a5.1,5.1,0,0,0-.6-.44,3.38,3.38,0,0,0,.42-.11c-.2-.16-.42-.29-.64-.44s-.44-.29-.67-.43S.92,57.12.68,57l-.75-.44,0,0A2.29,2.29,0,0,0-.9,55.43c-.23-.11-.16.1-.17.26s-.07.25-.43.1l-.15-.07c-.09-.09-.09-.19-.2-.28l-.23,0h-.09l-.21-.09h0l.32.07-.3-.15a.46.46,0,0,1,.23-.1,2.25,2.25,0,0,0,.47-.12l.12,0,.33.08.12,0A8.49,8.49,0,0,0-4.54,54a8.57,8.57,0,0,0-2.08,0l-.24-.07a3,3,0,0,0-.84-.13,1.07,1.07,0,0,0-.31,0,.26.26,0,0,0-.16.13c-.47-.24-.39-.31-.17-.36l.38-.06c.13,0,.23,0,.26-.09a3.15,3.15,0,0,1-1,.11c-.2,0-.4,0-.61,0s-.43,0-.64,0c-.41,0-.81.05-1.16.09l-.25,0-.22.07a1.29,1.29,0,0,0-.33.16s-.07-.07-.07-.1a8.69,8.69,0,0,1-.81.4l-1,.51a10,10,0,0,0-1.47,1l-.43.16.13-.23a2.74,2.74,0,0,0-.82.52c-.38.18-.68.36-.95.51s-.41.27-.58.38c-.15-.15.18-.3.51-.43a4.37,4.37,0,0,0-1.35,0,5.32,5.32,0,0,0-1.19.31,9.42,9.42,0,0,0-1.24.58c-.22.13-.46.27-.71.45s-.25.18-.38.28l-.2.16-.17.14.14-.11.38-.26a4.19,4.19,0,0,1,.4-.23l.18-.09c-.15.18-.34.35-.5.57s-.18.22-.24.32l-.21.3c-.14.2-.29.41-.42.64s-.29.44-.41.67-.26.45-.38.68-.23.45-.35.66c-.2.43-.42.8-.6,1.1l0-.23c0-.12,0-.23,0-.23a18.42,18.42,0,0,1-.46,2.45,9.75,9.75,0,0,0-.17,1.09,1.53,1.53,0,0,0,.07.71c.2-.57.31,0,.5-.84,0,0,.07.86.21,1.68l0,.1c-.12.3-.21.56-.28.71.15-.15,0,.65-.18,1.59-.06.37-.09.75-.11,1.11s-.17,1-.22,1.42a2.37,2.37,0,0,0-.12-.86,7,7,0,0,1,.1,1.08c0,.27,0,.53,0,.78a7.87,7.87,0,0,0,.17,1.88l0,.15c-.09-.14-.11.21-.11.78a19.09,19.09,0,0,0,.26,2.4c.14,0,.37.17.4.34a11.85,11.85,0,0,0,2.44,3.77c.06.18.13.36.2.54a14,14,0,0,0,1.44,2.71l0-.3c0-.15,0-.3,0-.3l.15.15.39.39a9.27,9.27,0,0,0,1.32,1,7.09,7.09,0,0,0,.76.42l.35.18.33.13.49.19.14,0h-.07l-.3,0-.43-.07-.25,0-.25-.07-.49-.14-.23-.07-.2-.08-.42-.17a11.67,11.67,0,0,0,2,.8,9,9,0,0,0,1.33.29c.22,0,.44,0,.65.05a4.19,4.19,0,0,0,.6,0c1.16.06,1.88,0,2.4,0a4.48,4.48,0,0,1,1.09.15,2.23,2.23,0,0,0,.91.05,4.15,4.15,0,0,0,.7-.22A5.34,5.34,0,0,0-8.87,88c.23,0,.46-.09.69-.15a1,1,0,0,0-.19.23c.29-.15.38-.24.37-.28l.64-.2c.06.21-.34.4-.49.5s-.08.09.07.1a4.26,4.26,0,0,0,1-.08c-.25,0-.45-.15-.39-.3s.38-.33,1.12-.65c-.3.35,0,.31.58.06l.22-.1c1,0,1.9-.18,2.65-.24l-.3-.38.32-.18c.19-.12.45-.24.69-.42l.66-.45.29-.23-.12.2c-.07.13-.18.28-.29.44l-.46.63c.14-.16.44-.45.77-.78a13.8,13.8,0,0,0,.92-1l.27-.26.66-.21-.28.24-.29.23c1-.7,2.37-1.45,3.51-2.3a7.56,7.56,0,0,0,2.28-2.31c-.41.34-.45.27-.55.26s-.23,0-.83.53l.18-.2.44-.56a17.16,17.16,0,0,0,1.19-1.83,15.77,15.77,0,0,0,.93-2c.21-.57.32-1,.32-1l.37-.11.36-.12.13-.54c.07-.33.16-.76.21-1.2s.1-.88.12-1.21,0-.55,0-.55C8.78,72,9,70.83,8.91,69.53ZM-15.33,55.77l-.3.27s-.05,0,0,0a1,1,0,0,1,.2-.16Z"/><path class="cls-13" d="M89.21,15.58c-.19-1.62-1-3.87-1.76-3a94.82,94.82,0,0,0-.83-10.92c-.28-1.86,2.06-4,1.49-5.87C88-5,87.89-5.8,87.76-6.55c-.4-2.26.35-6-.86-6.74a.49.49,0,0,0-.21-.06c-.12-1.26-.46-3.41-1.15-3.46A11.25,11.25,0,0,0,85-19.88c-.26-.66-.58-.8-.88-.62-.4-1.1-1.29-1.82-1.72-.41a3.63,3.63,0,0,0-1.28-2.36c-.88-.47-1.35,1.34-1,2.93l.11.42v.06c0,.18,0,.36.06.54l0,.24c0,.08,0,.38,0,.54s0,.14,0,.07h0c0,.47,0,.93-.06,1.39a4,4,0,0,0,.41,1.85c0,.44-.06.89-.07,1.35a2.77,2.77,0,0,0-.31,1.24c0,1.26-1.46,2.53-1.51,3.79-.41-3,.55-5.94.13-8.9-.23-1.64-.93-3.15-1.79-3s-1.26,1.86-1.06,3.45v0l-.06,0c-.2-.11-.42,0-.63.24q-.11-.84-.22-1.68c-.18-1.35-.8-2.61-1.47-2.73s-1.12.82-1,2.18c.07,1,.14,2,.22,3-1-1.46-2.61-1.2-2.48,1.67,0,.07,0,.15,0,.22a7.27,7.27,0,0,0,.16,1.82c-.5-1.46-1-3-1.95-3-.26,0-.51.39-.63.89a10.1,10.1,0,0,0-.16-1.68c-.33-1.73-1.63-1.87-2.12-.44a2.22,2.22,0,0,0-.53.91,12.27,12.27,0,0,0-.21,3.7c0,.81-1.37,1.62-1.39,2.43-1.09-.87-2,1.31-1.68,3.74C62.14-4.26,58.29-2.6,58.78-1c0,.22,0,.43,0,.64Q58.66,1,58.59,2.31a2.89,2.89,0,0,0-.24.51,2.29,2.29,0,0,0-.47-.49C57.24.61,56.08.58,56,3.27a35.33,35.33,0,0,0,.73,6.65c.34,2.16.69,4.41,1.19,6.43a3.54,3.54,0,0,0,.32.86c0,3.51.1,7,.43,10.34a9.13,9.13,0,0,0,.57,2.51c0,.14-.06.3-.08.46A62.09,62.09,0,0,0,58.91,39c0,2.84.12,5.68.18,8.52.05,2.47,1,3.08,1.61,2A5.5,5.5,0,0,0,61.17,51a39.84,39.84,0,0,0,2.49,10.82c.42,1,1.3,1.82,1.88,1a2.94,2.94,0,0,0,.33-.67q.18,1,.37,2.08c-.09.51-.19,1-.3,1.51-.4,1.74-1,3.16-1.47,4.78-.56,1.89-.54,5.29.77,5.72.91.3,1.92-2.13,2.43-3.51a30.7,30.7,0,0,0,1.28-4.93,20.46,20.46,0,0,0,.49,3.13c.39,1.49,1.39,1.53,1.59-.33A21.81,21.81,0,0,0,71.13,68a.5.5,0,0,0,.59,0,2.21,2.21,0,0,0,.62-.94,1.88,1.88,0,0,0,.94-1.27,5.1,5.1,0,0,0,1.21,1.09.56.56,0,0,0,.52,0,3.82,3.82,0,0,0,.43.67c.27.32.54.36.77.2.07.21.14.41.22.61.37.95,2.51,2.4,3.1,2.64s.87-.73.93-1.77a2.55,2.55,0,0,0,.74-1.77.75.75,0,0,0,.33-.1,1.19,1.19,0,0,0,.22.29.58.58,0,0,0,.31.14.59.59,0,0,0,.33-.08,1.15,1.15,0,0,0,.3-.28,2.59,2.59,0,0,0,.3-.54,2.72,2.72,0,0,0,.1.26,1.88,1.88,0,0,0,.28.45.93.93,0,0,0,.34.23.43.43,0,0,0,.23,0h.14c.16.61.41,1.08.75,1.13a.65.65,0,0,0,.58-.37,3.12,3.12,0,0,0,.36-.92,21,21,0,0,0,1.59,2.67.7.7,0,0,0,1.26-.13,3.26,3.26,0,0,0,0-2.34,33.12,33.12,0,0,0-2.16-4,.53.53,0,0,0,.29-.06c.77-.39.92-2.45.77-3.82,0-.33-.08-.65-.12-1,0-1.31-.07-2.64-.17-4-.12-1.53-.25-3.06-.38-4.58.86.1,1.69-1.31,1.75-3.74,0-.63,0-1.25,0-1.88a6.18,6.18,0,0,0,0-.75c0-4.68.09-9.38.23-14q.11-3.33.26-6.65A47.63,47.63,0,0,0,89.21,15.58Zm-5.52,45c0-.19,0-.39,0-.6v-.1a.49.49,0,0,0,.29.07c0,.16,0,.31,0,.47A.48.48,0,0,0,83.69,60.56Z"/><path class="cls-14" d="M108,114.23c1.48-.15,3.56-1,2.82-1.82a71.76,71.76,0,0,0,10-.53,32.67,32.67,0,0,0,5.39-1.17c.72-.09,1.43-.19,2.12-.31,2.07-.37,5.53-.9,6.21-2.21a.62.62,0,0,0,.07-.23c1.15-.09,3.12-.39,3.19-1.14a8.68,8.68,0,0,0,2.8-.54c.61-.26.75-.61.6-.95,1-.41,1.7-1.35.44-1.87a3.2,3.2,0,0,0,2.19-1.33c.46-.95-1.18-1.53-2.63-1.15l-.39.11h-.05l-.5.05-.22,0-.49,0c-.06,0-.13,0-.06,0h0l-1.26-.11a3.14,3.14,0,0,0-1.69.39,10.39,10.39,0,0,0-1.23-.12,2.2,2.2,0,0,0-1.12-.38l-3.45-.29,8.14-1.06c1.5-.2,2.9-.91,2.79-1.87s-1.65-1.45-3.11-1.28h0l0-.06c.11-.21,0-.46-.2-.7l1.54-.18c1.23-.15,2.4-.79,2.54-1.51s-.71-1.26-1.95-1.21l-2.7.13c1.36-1,1.18-2.82-1.43-2.78l-.2,0a5.51,5.51,0,0,0-1.66.11c1.35-.5,2.79-1,2.77-2,0-.29-.34-.58-.79-.72A7.66,7.66,0,0,0,138,87.4c1.59-.3,1.76-1.73.47-2.31a2,2,0,0,0-.81-.61,9.32,9.32,0,0,0-3.36-.36c-.74,0-1.47-.06-2.21-.11.83-1.16-3.86-2.21-6.08-2-1.61.17-.4.7-1.91,1.18l-.58-.06c-.8-.09-4.33-.18-5.13-.26a2.48,2.48,0,0,0-.45-.28,2.31,2.31,0,0,0,.46-.5c1.58-.64,1.65-1.92-.8-2.13a26.84,26.84,0,0,0-6.08.56,59.7,59.7,0,0,0-5.89,1.09,2.89,2.89,0,0,0-.79.33,80.49,80.49,0,0,0-9.42.11,7.11,7.11,0,0,0-2.31.54l-.42-.1A46.94,46.94,0,0,0,85,82c-2.59-.09-6.82-.07-9.41-.1-2.25,0-.1,1,.84,1.7a4.41,4.41,0,0,0-1.31.46,21.64,21.64,0,0,0-8.29,2.35c-.91.43-1.7,1.36-.93,2a2.54,2.54,0,0,0,.6.38l-1.9.33c-.46-.12-.92-.24-1.37-.39-1.57-.5-2.84-1.19-4.3-1.78-1.7-.68-4.8-.78-5.23.65-.3,1,1.87,2.18,3.11,2.79A24.34,24.34,0,0,0,61.27,92a15.65,15.65,0,0,0-2.86.43c-1.37.37-1.44,1.48.24,1.75a16.51,16.51,0,0,0,2.3.21A.64.64,0,0,0,61,95a2.06,2.06,0,0,0,.83.72,1.81,1.81,0,0,0,1.13,1.07,5.34,5.34,0,0,0-1,1.29.73.73,0,0,0,0,.57,3.44,3.44,0,0,0-.63.45A.67.67,0,0,0,61,100l-.56.22c-.87.37-2.22.87-2.45,1.51s.64,1,1.58,1.08a2.18,2.18,0,0,0,1.59.87,1,1,0,0,0,.08.37,1.13,1.13,0,0,0-.27.23.7.7,0,0,0-.14.33.75.75,0,0,0,.06.36,1.21,1.21,0,0,0,.24.34,2.3,2.3,0,0,0,.48.35l-.24.1A1.69,1.69,0,0,0,61,106a1,1,0,0,0-.22.36.56.56,0,0,0,0,.25c0,.05,0,.1,0,.15-.56.15-1,.41-1.05.79a.75.75,0,0,0,.31.65,2.6,2.6,0,0,0,.82.43,18.63,18.63,0,0,0-2.48,1.66.84.84,0,0,0,.08,1.39,2.5,2.5,0,0,0,2.13.05,28.64,28.64,0,0,0,3.75-2.23.69.69,0,0,0,0,.32c.33.86,2.2,1.1,3.44,1l.89-.09a30.4,30.4,0,0,0,3.65,0c1.4-.07,2.79-.16,4.18-.26-.12.94,1.13,1.9,3.34,2.05l1.71.1a4.69,4.69,0,0,0,.68.08c4.26.18,8.53.42,12.77.75q3,.23,6,.51A36,36,0,0,0,108,114.23Zm-40.73-7.62H68a.63.63,0,0,0-.07.32h-.43A.56.56,0,0,0,67.32,106.61Z"/><path class="cls-14" d="M-7.17,21c1.48-.15,3.56-1,2.82-1.82a71.75,71.75,0,0,0,10-.53c1.7-.24.94-.61,2.65-1.17.72-.09-.22-.19.47-.31,2.07-.37,4.16-.9,4.84-2.21a.62.62,0,0,0,.07-.23c1.15-.09,3.12-.39,3.19-1.14a8.68,8.68,0,0,0,2.8-.54c.61-.26.75-.61.6-.95,1-.41,1.7-1.35.44-1.87a3.2,3.2,0,0,0,2.19-1.33c.46-.95-1.18-1.53-2.63-1.15l-.39.11h-.05l-.5.05-.22,0-.49,0c-.06,0-.13,0-.06,0h0l-1.26-.11a3.14,3.14,0,0,0-1.69.39,10.39,10.39,0,0,0-1.23-.12,2.2,2.2,0,0,0-1.12-.38L9.74,7.44l8.14-1.06c1.5-.2,2.9-.91,2.79-1.87S19,3.07,17.57,3.24h0l0-.06c.11-.21,0-.46-.2-.7l1.54-.18c1.23-.15,2.4-.79,2.54-1.51S20.75-.47,19.51-.42l-2.7.13c1.36-1,1.18-2.82-1.43-2.78l-.2,0A5.51,5.51,0,0,0,13.52-3C14.87-3.48,19-4,19-5c0-.29,1.3-.58.85-.72a7.66,7.66,0,0,0,1.53-.12c1.59-.3,1.76-1.73.47-2.31a2,2,0,0,0-.81-.61,9.32,9.32,0,0,0-3.36-.36c-.74,0-1.47-.06-2.21-.11.83-1.16.25-2.21-2-2A14.29,14.29,0,0,0,8.89-10l-.58-.06-2.39-.26a2.48,2.48,0,0,0-.45-.28,2.31,2.31,0,0,0,.46-.5c1.58-.64,1.65-1.92-.8-2.13a26.84,26.84,0,0,0-6.08.56,59.7,59.7,0,0,0-5.89,1.09,2.89,2.89,0,0,0-.79.33,80.5,80.5,0,0,0-9.42.11,7.11,7.11,0,0,0-2.31.54l-.42-.1a46.94,46.94,0,0,0-7.69-.54c-2.59-.09-5.18-.07-7.76-.1-2.25,0-2.84,1-1.9,1.7a4.41,4.41,0,0,0-1.31.46,31,31,0,0,0-9.93,2.35c-.91.43-1.7,1.36-.93,2a2.54,2.54,0,0,0,.6.38l-1.9.33c-.46-.12-.92-.24-1.37-.39-1.57-.5-2.84-1.19-4.3-1.78-1.7-.68-4.8-.78-5.23.65-.3,1,1.87,2.18,3.11,2.79a24.34,24.34,0,0,0,4.44,1.58,15.65,15.65,0,0,0-2.86.43c-1.37.37-1.44,1.48.24,1.75a16.52,16.52,0,0,0,2.3.21.64.64,0,0,0,0,.65,2.06,2.06,0,0,0,.83.72,1.81,1.81,0,0,0,1.13,1.07,5.34,5.34,0,0,0-1,1.29.73.73,0,0,0,0,.57,3.45,3.45,0,0,0-.63.45.67.67,0,0,0-.21.84l-.56.22c-.87.37-2.22.87-2.45,1.51s.64,1,1.58,1.08a2.18,2.18,0,0,0,1.59.87,1,1,0,0,0,.08.37,1.13,1.13,0,0,0-.27.24.7.7,0,0,0-.14.33.75.75,0,0,0,.06.36A1.21,1.21,0,0,0-54,12a2.31,2.31,0,0,0,.48.35l-.24.1a1.68,1.68,0,0,0-.42.29,1,1,0,0,0-.22.36.56.56,0,0,0,0,.25c0,.05,0,.1,0,.15-.56.15-1,.41-1.05.79a.75.75,0,0,0,.31.65,2.6,2.6,0,0,0,.82.43A18.63,18.63,0,0,0-56.87,17a.84.84,0,0,0,.08,1.39,2.5,2.5,0,0,0,2.13.05,28.64,28.64,0,0,0,3.75-2.23.68.68,0,0,0,0,.32c.33.86,2.2,1.1,3.44,1l.89-.09a30.41,30.41,0,0,0,3.65,0c1.4-.07,2.79-.16,4.18-.26-.12.94,1.13,1.9,3.34,2.05l1.71.1a4.69,4.69,0,0,0,.68.08c4.26.18,8.53.42,12.77.75q3,.23,6,.51A36,36,0,0,0-7.17,21ZM-47.9,13.36h.64a.63.63,0,0,0-.07.32h-.43A.56.56,0,0,0-47.9,13.36Z"/><path class="cls-11" d="M8.33,34.37c-.1-.79,1.09-1.89.69-1.48a41.56,41.56,0,0,0-.45-5.33,18.76,18.76,0,0,0-.68-2.87c-.06-.38-.12-.76-.19-1.13-.22-1.1-.55-3-1.22-3.29l-.11,0c-.06-.62-.25-1.66-.63-1.69A5,5,0,0,0,5.42,17c-.14-.32-.32-.39-.48-.3-.22-.53-.7-.89-.94-.2a1.74,1.74,0,0,0-.7-1.15c-.48-.23-.74.66-.52,1.43l.06.21v0c0,.09,0,.18,0,.27l0,.12s0,.18,0,.26,0,.07,0,0h0c0,.23,0,.45,0,.68a1.8,1.8,0,0,0,.23.9,6,6,0,0,0,0,.66,1.24,1.24,0,0,0-.17.61q0,.93-.08,1.85-.33-2.18-.68-4.35c-.13-.8-.51-1.54-1-1.46s-.69.91-.58,1.69h0l0,0c-.11-.05-.23,0-.34.12L.1,17.61C0,17-.33,16.33-.7,16.28s-.61.4-.56,1.06c0,.48.08,1,.12,1.45-.52-.71-1.42-.59-1.35.81,0,0,0,.07,0,.11a3.19,3.19,0,0,0,.09.89c-.27-.71-.55-1.48-1.06-1.45-.14,0-.28.19-.34.44a4.44,4.44,0,0,0-.09-.82c-.18-.85-.89-.91-1.16-.21a1.07,1.07,0,0,0-.29.44,5.38,5.38,0,0,0-.11,1.81c0,.4,0,.79,0,1.19-.59-.43-1.08.64-.92,1.82a13.36,13.36,0,0,0,.68,2.47l0,.31q0,.64-.08,1.28a1.35,1.35,0,0,0-.13.25,1.19,1.19,0,0,0-.26-.24c-.35-.84-1-.85-1,.46a15.53,15.53,0,0,0,.4,3.25c.19,1.05.38,2.15.65,3.14a1.62,1.62,0,0,0,.18.42,46.65,46.65,0,0,0,.23,5,4.07,4.07,0,0,0,.31,1.23c0,.07,0,.15,0,.23a27.17,27.17,0,0,0-.12,4.13c0,1.39.06,2.78.1,4.16,0,1.21.56,1.5.88,1a2.5,2.5,0,0,0,.25.7,17.78,17.78,0,0,0,1.36,5.28c.23.48.71.89,1,.47a1.38,1.38,0,0,0,.18-.33l.2,1c0,.25-.1.5-.17.74-.22.85-.54,1.54-.8,2.33s-.29,2.59.42,2.79c.5.14,1-1,1.32-1.71a13.75,13.75,0,0,0,.7-2.41,9,9,0,0,0,.27,1.53c.21.73.76.75.87-.16A9.55,9.55,0,0,0,1,60a.3.3,0,0,0,.32,0,1.08,1.08,0,0,0,.34-.46.94.94,0,0,0,.51-.62,2.7,2.7,0,0,0,.66.53.34.34,0,0,0,.28,0,1.86,1.86,0,0,0,.24.33.32.32,0,0,0,.42.1l.12.3c.2.46.47,1.17.79,1.29s.47-.36.51-.87a1.19,1.19,0,0,0,.4-.87.44.44,0,0,0,.18,0,.6.6,0,0,0,.12.14.33.33,0,0,0,.17.07.35.35,0,0,0,.18,0,.6.6,0,0,0,.16-.14,1.23,1.23,0,0,0,.16-.26l.05.13a.91.91,0,0,0,.15.22.51.51,0,0,0,.18.11.26.26,0,0,0,.12,0h.07c.08.3.22.53.41.55a.36.36,0,0,0,.32-.18,1.43,1.43,0,0,0,.2-.45A10.11,10.11,0,0,0,9,61.07c.19.23-1.13.24-1-.07a1.44,1.44,0,0,0,0-1.14c-.34-.74.87-1.34.47-2a.32.32,0,0,0,.16,0c.42-.19.5-1.2.42-1.86L9,55.53a17.62,17.62,0,0,0-.09-2c-.06-.75-.13-1.49-.21-2.24.47,0-.72-.64-.69-1.83,0-.31,0-.61,0-.92a2.71,2.71,0,0,0,0-.37c0-2.29,0-4.58.13-6.86q.06-1.63.14-3.25A20.84,20.84,0,0,0,8.33,34.37ZM7,56.33c0-.09,0-.19,0-.29v0a.3.3,0,0,0,.16,0c0,.08,0,.15,0,.23A.27.27,0,0,0,7,56.33Z"/><path class="cls-7" d="M8,69.73c-.28-.1.44-.17-.22-.17-5,0-5.53.08-10.47.12l-14.82.09a2.21,2.21,0,0,0-.89-.2c-1.59-.1-3.57-.08-5.24-.09l-5.25,0L-39,69.39c-6.87,0-13.75-.1-20.61-.06-1.14,0-1.08.39,0,.41l3.89.06h-2.76l-3.36,0a5.29,5.29,0,0,0-.74,0h-.79c-.54,0-.81.08-.66.16l.06,0c-1.34,0-.73.45,1.29.48l2.07,0a2.51,2.51,0,0,0,.5,0l3.15,0c-.68,0-1.33.3-.35.34,1.64.07,3.42.05,5.09.06L-47,71l6.62,0c0,.08.3.17,1,.19,4.73.11,9.46-.76,14.21-.72,2.34,0,4.69,1,7,1s4.86,0,7.14,0c.65,0,.93-.1.91-.17h.15c1.94,0,4,.07,5.92,0,.91,0,1.55-.35.45-.4l6.43,0c2.62,0,5.05-.44,3.69-.45l0,0c.61,0,1.08-.1.86-.2a4.73,4.73,0,0,0-1.29-.16C8.51,70,8.25,69.81,8,69.73Z"/><path class="cls-7" d="M-50.89,77.44l14.82-.09a2.21,2.21,0,0,0,.89.2c1.59.1,3.57.08,5.24.09l5.25,0,10.16.06c6.87,0,13.75.1,20.61.06,1.14,0,1.08-.39,0-.41l-3.89-.06H4.94l3.36,0a5.29,5.29,0,0,0,.74,0c-1.38,0,.48-.65.1-.66l-2.07,0a2.51,2.51,0,0,0-.5,0l-3.15,0c.68,0,1.33-.3.35-.34-1.64-.07-3.42-.05-5.09-.06l-5.25,0-6.62,0c0-.08-.3-.17-1-.19q-7.09-.16-14.21-.21l-7,0c-2.33,0-4.86,0-7.14,0-.65,0-.93.1-.91.17h-.15c-1.94,0-4-.07-5.92,0-.91,0-1.55.35-.45.4l-6.43,0c-2.62,0-5.05.44-3.69.45l0,0c-.61,0-1.08.1-.86.2a4.72,4.72,0,0,0,1.29.16C-62.06,77.08-55.84,77.48-50.89,77.44Z"/><path class="cls-7" d="M2.11,83l-14.82.09a2.32,2.32,0,0,0-.89-.19c-1.59-.1-3.57-.07-5.24-.08l-5.25,0-10.16-.06c-6.87,0-13.75-.09-20.61-.06-1.14,0-1.08.37,0,.39l3.89.06h-2.76l-3.36,0a5.61,5.61,0,0,0-.74,0h-.79c-.54,0-.81.07-.66.15l.06,0c-1.34,0-2.67,0-3.87-.13a37.1,37.1,0,0,0,5.17.58l2.07,0a2.65,2.65,0,0,0,.5,0l3.15,0c-.68,0-1.33.28-.35.32,1.64.06,3.42.05,5.09.06l5.25,0c2.21,0,4.41-.45,6.62-.44,0,.08.3.16,1,.17,4.73.1,9.46.62,14.21.66l7,0c2.33,0,4.86,0,7.14,0,.65,0,.93-.09.91-.16h.15c1.94,0,4,.07,5.92,0,.91,0,1.55-.33.45-.38l6.43,0c2.62,0,3.41-.42,2-.42l0,0c.61,0,1.08-.09.86-.19a5,5,0,0,0-1.29-.15C11.63,83.38,7.06,83,2.11,83Z"/><path class="cls-7" d="M-69.85,90.47c5,0,9.91-.08,14.85-.12l14.82-.09a2.32,2.32,0,0,0,.89.19c1.59.1,3.57.07,5.24.08l5.25,0,10.16.06c6.87,0,13.75.09,20.61.06,1.14,0,1.08-.37,0-.39l-3.89-.06H.84l3.36,0a5.61,5.61,0,0,0,.74,0h.79c.54,0,.63-.17.6-.18,1.34,0,.73-.43-1.29-.45L3,89.61a2.65,2.65,0,0,0-.5,0l-3.15,0c.68,0,1.33-.28.35-.32-1.64-.06-3.42-.05-5.09-.06l-5.25,0-6.62,0c0-.08-.3-.16-1-.17q-7.09-.15-14.21-.2l-7,0c-2.33,0-4.86,0-7.14,0-.65,0-.93.09-.91.16h-.15c-1.94,0-4-.07-5.92,0-.91,0-1.55.33-.45.38l-6.43,0c-2.62,0-5.25,0-7.86,0-1.22,0-1.08.38.08.4,1.36,0,2.73,0,4.1,0l0,0c-.61,0-1.08.09-.86.19a5,5,0,0,0,1.29.15A50.18,50.18,0,0,0-69.85,90.47Z"/><path class="cls-7" d="M36.1,74.41a1.77,1.77,0,0,0-1.58-1.22.9.9,0,0,0-.8,1.25,1.77,1.77,0,0,0,1.58,1.22A.9.9,0,0,0,36.1,74.41Z"/><path class="cls-7" d="M39.8,69.44a1.71,1.71,0,0,0-1.56-1.19c-.67,0-.82.89-.63,1.43a1.71,1.71,0,0,0,1.56,1.19C39.85,70.87,40,70,39.8,69.44Z"/><path class="cls-7" d="M42.11,77a1.64,1.64,0,0,0-1.54-1.23,1,1,0,0,0-1,1.21,1.64,1.64,0,0,0,1.54,1.23A1,1,0,0,0,42.11,77Z"/><path class="cls-7" d="M46.07,69.68c-1.33,0-1.31,3,0,3S47.41,69.68,46.07,69.68Z"/><path class="cls-7" d="M47.47,83.44c-1.61,0,.67,2.82,2,2.82C51.12,86.26,48.83,83.44,47.47,83.44Z"/><path class="cls-7" d="M52.06,81.45a1.66,1.66,0,0,0-1.45-1.17,1,1,0,0,0,.61-1.1c-.15-.76-1-1-1.58-1a1.1,1.1,0,0,0-1.1,1.23c.14.76,1,1,1.56,1-.36.27.94.93,1.08,1.36a1.66,1.66,0,0,0,1.58,1.17C53.44,82.94,52.25,82,52.06,81.45Z"/><path class="cls-7" d="M54.11,74.26a1.71,1.71,0,0,0-1.55-1.21c-.57,0-1.15.36-1,1.08a1.71,1.71,0,0,0,1.55,1.21C53.69,75.34,54.26,75,54.11,74.26Z"/><path class="cls-7" d="M42.6,84.54c-1.47,0-1,2.93.34,2.93S43.93,84.54,42.6,84.54Z"/><path class="cls-7" d="M33.07,81.79a1.15,1.15,0,0,0-1.15,1.28c0,.67,4.93,1.6,5.63,1.6s-.47-.51-.49-1.28S33.77,81.79,33.07,81.79Z"/><path class="cls-7" d="M42.74,66.79c-1.74,0-1.14,2.76.37,2.76C44.85,69.55,44.25,66.79,42.74,66.79Z"/><path class="cls-7" d="M31.16,66.41a1.54,1.54,0,0,0-1.6-1.16,1.17,1.17,0,0,0-1,1.43,1.54,1.54,0,0,0,1.6,1.16A1.17,1.17,0,0,0,31.16,66.41Z"/><path class="cls-7" d="M45.57,59.49c-1.42,0-1.24,3,.2,3S47,59.49,45.57,59.49Z"/><path class="cls-7" d="M55.83,66.47c-1.26,0-1.53,3-.08,3C57,69.42,57.27,66.47,55.83,66.47Z"/><path class="cls-7" d="M38.75,61.9a1.56,1.56,0,0,0-1.51-1.3,1.15,1.15,0,0,0-1.12,1.32,1.56,1.56,0,0,0,1.51,1.3A1.15,1.15,0,0,0,38.75,61.9Z"/><path class="cls-7" d="M30.36,73.4c-1.43,0-1.21,3,.24,3S31.81,73.4,30.36,73.4Z"/><path class="cls-7" d="M38.73,80.39a1.64,1.64,0,0,0-1.61-1.12,1,1,0,0,0-1,1.24c.19.74,2.33,1.12,3,1.12S38.91,81.07,38.73,80.39Z"/><path class="cls-7" d="M47.39,75.29c-1.27,0-1.91,2.9-.49,2.9C48.16,78.2,48.81,75.29,47.39,75.29Z"/><path class="cls-7" d="M32,59.51c-1.32,0-1.51,3,0,3C33.26,62.47,33.46,59.51,32,59.51Z"/><path class="cls-7" d="M42.24,57.49a1.58,1.58,0,0,0-1.37,1.31c-.13.51-.05,1.53.63,1.53A1.58,1.58,0,0,0,42.87,59C43,58.51,42.92,57.49,42.24,57.49Z"/><path class="cls-7" d="M55.16,58.37c-1.46,0-.91,2.92.4,2.92S56.48,58.37,55.16,58.37Z"/><path class="cls-7" d="M37.3,54c-1.67,0-1.21,2.88.28,2.88C39.25,56.87,38.79,54,37.3,54Z"/><path class="cls-7" d="M25.5,69A1.48,1.48,0,0,0,24,67.94a1.13,1.13,0,0,0-1.16,1.22,1.48,1.48,0,0,0,1.53,1.11A1.13,1.13,0,0,0,25.5,69Z"/><path class="cls-7" d="M25.65,76c-1.67,0-1.1,2.87.38,2.87C27.7,78.87,27.13,76,25.65,76Z"/><path class="cls-7" d="M26.7,59.75c-1.58,0-1.09,2.94.4,2.94S28.18,59.75,26.7,59.75Z"/><path class="cls-7" d="M32.63,54.93a1.72,1.72,0,0,0-1.49-1.3c-.66,0-.87.78-.7,1.37a1.72,1.72,0,0,0,1.49,1.3C32.59,56.31,32.8,55.52,32.63,54.93Z"/><path class="cls-7" d="M46,52.36c-1.46,0-.81,2.9.51,2.9S47.37,52.36,46,52.36Z"/><path class="cls-7" d="M40.61,50.84A1.7,1.7,0,0,0,39,49.65a.91.91,0,0,0-1,1.11,1.7,1.7,0,0,0,1.57,1.18A.91.91,0,0,0,40.61,50.84Z"/><path class="cls-7" d="M32.41,48.69c-1.61,0-1,2.82.37,2.82C34.38,51.51,33.76,48.69,32.41,48.69Z"/><path class="cls-7" d="M25.29,54.7c-1.36,0-.54,2.85.68,2.85S26.51,54.7,25.29,54.7Z"/><path class="cls-7" d="M22.44,63.54c-1.78,0-.89,2.31.46,2.31C24.69,65.85,23.8,63.54,22.44,63.54Z"/><path class="cls-7" d="M21.41,74.24c-1.72,0-1,2.69.42,2.69C23.56,76.93,22.84,74.24,21.41,74.24Z"/><path class="cls-7" d="M31.58,84c-.26-.76-3.71-1.1-4.39-1.1s1.76.8,2,1.4c.26.76,2.61,1.1,3.3,1.1S31.79,84.61,31.58,84Z"/><path class="cls-14" d="M10.41,87.52A1.77,1.77,0,0,0,8.83,86.3.9.9,0,0,0,8,87.55a1.77,1.77,0,0,0,1.58,1.22A.9.9,0,0,0,10.41,87.52Z"/><path class="cls-14" d="M9.73,82.55a1.71,1.71,0,0,0-1.56-1.19c-.67,0,.83.89,1,1.43.25.71,2,1.19,2.66,1.19S9.92,83.09,9.73,82.55Z"/><path class="cls-14" d="M16.42,90.09a1.64,1.64,0,0,0-1.54-1.23,1,1,0,0,0-1,1.21,1.64,1.64,0,0,0,1.54,1.23A1,1,0,0,0,16.42,90.09Z"/><path class="cls-14" d="M16,82.79c-1.33,0,3.07,3,4.42,3S17.34,82.79,16,82.79Z"/><path class="cls-14" d="M17.68,96.55c-1.61,0-1,2.82.38,2.82C19.67,99.37,19,96.55,17.68,96.55Z"/><path class="cls-14" d="M26.38,94.56a1.66,1.66,0,0,0-1.45-1.17,1,1,0,0,0,.61-1.1c-.15-.76-1-1-1.58-1a1.1,1.1,0,0,0-1.1,1.23c.14.76,1,1,1.56,1a1.32,1.32,0,0,0-.29,1.36A1.66,1.66,0,0,0,25.71,96C26.39,96,26.56,95.12,26.38,94.56Z"/><path class="cls-14" d="M28.42,87.37a1.71,1.71,0,0,0-1.55-1.21c-.57,0-1.15.36-1,1.08a1.71,1.71,0,0,0,1.55,1.21C28,88.44,28.57,88.08,28.42,87.37Z"/><path class="cls-14" d="M11.16,97.65c-1.47,0-1,2.93.34,2.93S12.49,97.65,11.16,97.65Z"/><path class="cls-14" d="M6,94.89a1.15,1.15,0,0,0-1.15,1.28c0,.67.55,1.6,1.24,1.6A1.15,1.15,0,0,0,7.26,96.5C7.24,95.83,6.71,94.89,6,94.89Z"/><path class="cls-14" d="M11.3,79.9c-1.74,0,.23,2.76,1.74,2.76C14.77,82.66,12.81,79.9,11.3,79.9Z"/><path class="cls-14" d="M5.47,79.52a1.54,1.54,0,0,0-1.6-1.16,1.17,1.17,0,0,0-1,1.43A1.54,1.54,0,0,0,4.45,81,1.17,1.17,0,0,0,5.47,79.52Z"/><path class="cls-14" d="M14.13,72.6c-1.42,0-1.24,3,.2,3S15.56,72.6,14.13,72.6Z"/><path class="cls-14" d="M24.39,79.57c-1.26,0-.16,3,1.29,3C26.93,82.52,25.83,79.57,24.39,79.57Z"/><path class="cls-14" d="M8.68,75c-.11-.77.81-1.3.14-1.3A1.15,1.15,0,0,0,7.7,75a1.56,1.56,0,0,0,1.51,1.3C9.86,76.33,8.79,75.75,8.68,75Z"/><path class="cls-14" d="M4.68,86.5c-1.43,0-1.21,3,.24,3S6.12,86.5,4.68,86.5Z"/><path class="cls-14" d="M13,93.5a1.64,1.64,0,0,0-1.61-1.12,1,1,0,0,0-1,1.24,1.64,1.64,0,0,0,1.61,1.12A1,1,0,0,0,13,93.5Z"/><path class="cls-14" d="M20.71,80a1.69,1.69,0,0,0-1.59-1.2,1,1,0,0,0-.84,1.35,1.69,1.69,0,0,0,1.59,1.2A1,1,0,0,0,20.71,80Z"/><path class="cls-14" d="M21.7,88.4c-1.27,0-1.91,2.9-.49,2.9C22.48,91.3,23.12,88.4,21.7,88.4Z"/><path class="cls-14" d="M6.28,72.62c-1.32,0-1.51,3,0,3C7.58,75.58,7.77,72.62,6.28,72.62Z"/><path class="cls-14" d="M10.8,70.59A1.58,1.58,0,0,0,9.43,71.9c-.13.51-.05,1.53.63,1.53a1.58,1.58,0,0,0,1.37-1.31C11.56,71.61,11.48,70.59,10.8,70.59Z"/><path class="cls-14" d="M23.72,71.48c-1.46,0-.91,2.92.4,2.92S25,71.48,23.72,71.48Z"/><path class="cls-14" d="M8.87,67.1C7.2,67.1,7.67,70,9.15,70A21.34,21.34,0,0,1,8.87,67.1Z"/><path class="cls-14" d="M0,89.11c-1.67,0-1.1,2.87.38,2.87C2,92,1.45,89.11,0,89.11Z"/><path class="cls-14" d="M1,72.86c-1.58,0-1.09,2.94.4,2.94S2.5,72.86,1,72.86Z"/><path class="cls-14" d="M6.94,68a1.72,1.72,0,0,0-1.49-1.3c-.66,0-.87.78-.7,1.37a1.72,1.72,0,0,0,1.49,1.3C6.9,69.41,7.11,68.63,6.94,68Z"/><path class="cls-14" d="M14.6,65.46c-1.46,0-.81,2.9.51,2.9S15.93,65.46,14.6,65.46Z"/><path class="cls-14" d="M22,72a1.59,1.59,0,0,0-1.49-1.35,1.15,1.15,0,0,0-1,1.4A1.59,1.59,0,0,0,21,73.39,1.15,1.15,0,0,0,22,72Z"/><path class="cls-14" d="M9.17,63.94c-.15-.7.42-1.18-.2-1.18a.91.91,0,0,0-1,1.11c.15.7-.42,1.18.2,1.18A.91.91,0,0,0,9.17,63.94Z"/><path class="cls-14" d="M6.72,61.8c-1.61,0-1,2.82.37,2.82C8.7,64.62,8.07,61.8,6.72,61.8Z"/><path class="cls-14" d="M-.4,67.81c-1.36,0-.54,2.85.68,2.85S.83,67.81-.4,67.81Z"/><path class="cls-14" d="M1.79,97.11A1.68,1.68,0,0,0,.13,96c-.66,0-1,.8-.77,1.4A1.68,1.68,0,0,0,1,98.51C1.67,98.51,2,97.71,1.79,97.11Z"/><path class="cls-12" d="M34.35,17.6a1.77,1.77,0,0,0-1.58-1.22.9.9,0,0,0-.8,1.25,1.77,1.77,0,0,0,1.58,1.22A.9.9,0,0,0,34.35,17.6Z"/><path class="cls-12" d="M38.05,12.63a1.71,1.71,0,0,0-1.56-1.19c-.67,0-.82.89-.63,1.43a1.71,1.71,0,0,0,1.56,1.19C38.1,14.06,38.25,13.17,38.05,12.63Z"/><path class="cls-12" d="M40.36,20.17a1.64,1.64,0,0,0-1.54-1.23,1,1,0,0,0-1,1.21,1.64,1.64,0,0,0,1.54,1.23A1,1,0,0,0,40.36,20.17Z"/><path class="cls-12" d="M44.32,12.87c-1.33,0-1.31,3,0,3S45.67,12.87,44.32,12.87Z"/><path class="cls-12" d="M41.62,26.63c-1.61,0-1,2.82.38,2.82C43.61,29.45,43,26.63,41.62,26.63Z"/><path class="cls-12" d="M50.32,24.64a1.66,1.66,0,0,0-1.45-1.17,1,1,0,0,0,.61-1.1c-.15-.76-1-1-1.58-1a1.1,1.1,0,0,0-1.1,1.23c.14.76,1,1,1.56,1A1.32,1.32,0,0,0,48.07,25a1.66,1.66,0,0,0,1.58,1.17C50.33,26.12,50.5,25.2,50.32,24.64Z"/><path class="cls-12" d="M52.36,17.44a1.71,1.71,0,0,0-1.55-1.21c-.57,0-1.15.36-1,1.08a1.71,1.71,0,0,0,1.55,1.21C51.94,18.52,52.51,18.16,52.36,17.44Z"/><path class="cls-12" d="M35.1,27.73c-1.47,0-1,2.93.34,2.93S36.43,27.73,35.1,27.73Z"/><path class="cls-12" d="M30,25a1.15,1.15,0,0,0-1.15,1.28c0,.67.55,1.6,1.24,1.6a1.15,1.15,0,0,0,1.15-1.28C31.18,25.91,30.65,25,30,25Z"/><path class="cls-12" d="M41,10c-1.74,0-1.14,2.76.37,2.76C43.1,12.74,42.5,10,41,10Z"/><path class="cls-12" d="M29.41,9.6a1.54,1.54,0,0,0-1.6-1.16,1.17,1.17,0,0,0-1,1.43A1.54,1.54,0,0,0,28.39,11,1.17,1.17,0,0,0,29.41,9.6Z"/><path class="cls-12" d="M43.82,2.68c-1.42,0-1.24,3,.2,3S45.26,2.68,43.82,2.68Z"/><path class="cls-12" d="M54.08,9.65c-1.26,0-1.53,3-.08,3C55.26,12.6,55.53,9.65,54.08,9.65Z"/><path class="cls-12" d="M37,5.09a1.56,1.56,0,0,0-1.51-1.3,1.15,1.15,0,0,0-1.12,1.32,1.56,1.56,0,0,0,1.51,1.3A1.15,1.15,0,0,0,37,5.09Z"/><path class="cls-12" d="M28.62,16.58c-1.43,0-1.21,3,.24,3S30.06,16.58,28.62,16.58Z"/><path class="cls-12" d="M37,23.57a1.64,1.64,0,0,0-1.61-1.12,1,1,0,0,0-1,1.24A1.64,1.64,0,0,0,36,24.82,1,1,0,0,0,37,23.57Z"/><path class="cls-12" d="M50.41,10.13a1.69,1.69,0,0,0-1.59-1.2A1,1,0,0,0,48,10.27a1.69,1.69,0,0,0,1.59,1.2A1,1,0,0,0,50.41,10.13Z"/><path class="cls-12" d="M45.64,18.48c-1.27,0-1.91,2.9-.49,2.9C46.42,21.38,47.06,18.48,45.64,18.48Z"/><path class="cls-12" d="M30.22,2.7c-1.32,0-1.51,3,0,3C31.52,5.66,31.71,2.7,30.22,2.7Z"/><path class="cls-12" d="M40.49.67A1.58,1.58,0,0,0,39.12,2c-.13.51-.05,1.53.63,1.53A1.58,1.58,0,0,0,41.12,2.2C41.25,1.69,41.17.67,40.49.67Z"/><path class="cls-12" d="M53.42,1.56c-1.46,0-.91,2.92.4,2.92S54.73,1.56,53.42,1.56Z"/><path class="cls-12" d="M35.55-2.82c-1.67,0-1.21,2.88.28,2.88C37.5.06,37-2.82,35.55-2.82Z"/><path class="cls-12" d="M23.75,12.23a1.48,1.48,0,0,0-1.53-1.11,1.13,1.13,0,0,0-1.16,1.22,1.48,1.48,0,0,0,1.53,1.11A1.13,1.13,0,0,0,23.75,12.23Z"/><path class="cls-12" d="M23.9,19.19c-1.67,0-1.1,2.87.38,2.87C26,22.06,25.39,19.19,23.9,19.19Z"/><path class="cls-12" d="M25,2.94c-1.58,0-1.09,2.94.4,2.94S26.44,2.94,25,2.94Z"/><path class="cls-12" d="M51.73,2.06A1.59,1.59,0,0,0,50.23.72a1.15,1.15,0,0,0-1,1.4,1.59,1.59,0,0,0,1.49,1.35A1.15,1.15,0,0,0,51.73,2.06Z"/><path class="cls-12" d="M23.54-2.11c-1.36,0-.54,2.85.68,2.85S24.77-2.11,23.54-2.11Z"/><path class="cls-12" d="M20.7,6.73c-1.78,0-.89,2.31.46,2.31C22.95,9,22.05,6.73,20.7,6.73Z"/><path class="cls-12" d="M19.67,17.43c-1.72,0-1,2.69.42,2.69C21.81,20.12,21.1,17.43,19.67,17.43Z"/><path class="cls-12" d="M25.73,27.19a1.68,1.68,0,0,0-1.65-1.1c-.66,0-1,.8-.77,1.4A1.68,1.68,0,0,0,25,28.59C25.61,28.59,25.94,27.79,25.73,27.19Z"/><path class="cls-7" d="M83.75,39.26a8.84,8.84,0,0,0-1.24.32,2.68,2.68,0,0,1-1.06,0,2.43,2.43,0,0,1-1.68-1.35,1.85,1.85,0,0,1,.11-1.91,1.49,1.49,0,0,1,1.78-.56c.54.24.84-.85.38-1.12a2.28,2.28,0,0,0-2.8.32,3.59,3.59,0,0,0-.84,3.55,4.18,4.18,0,0,0,2.33,2.8c1,.45,2.71.58,3.48-.45C84.56,40.38,84.47,39.23,83.75,39.26Z"/><path class="cls-14" d="M36,35.57a2,2,0,0,0,.62,0,1,1,0,0,0,.92-.84c.44-.45.78-1,0-1.42a2.41,2.41,0,0,0-.43-.15.55.55,0,0,0-.48-.08l-.26,0a2.21,2.21,0,0,0-1,.19h0l-.1-.08A.84.84,0,0,0,35,33,1.22,1.22,0,0,0,34.7,33h0a.93.93,0,0,0-1,.09,1.1,1.1,0,0,0-.29,1.07.21.21,0,0,0-.06.14.18.18,0,0,0,0,.09.73.73,0,0,0,.13.76,2,2,0,0,0,1.62.68A1.48,1.48,0,0,0,36,35.57Z"/><path class="cls-14" d="M28,35.63a1.36,1.36,0,0,0,.53-1.25,1.66,1.66,0,0,0-.12-.49.27.27,0,0,0,.06-.29.63.63,0,0,0-.49-.33l-.15-.12a1.92,1.92,0,0,0-2,.1l-.14,0a.63.63,0,0,0-.59.26v0a1.71,1.71,0,0,0-.53.13c-.67.28-1,.88-.27,1.21a1.93,1.93,0,0,0,1,.14l.06.14-.06.14c-.05.14.2.27.43.32l.11.09A2.05,2.05,0,0,0,28,35.63Z"/><path class="cls-14" d="M18.56,35.35l.12,0c.61.21,1.32-.12,1-.45a.74.74,0,0,1,0-.24l.11,0c.33-.15.47-.37.4-.59s-.36-.34-.7-.39l-.16-.08c-.07-.2-.47-.37-.87-.39a2.32,2.32,0,0,0-.93-.11,2.58,2.58,0,0,0-.6.11,2.45,2.45,0,0,0-1,.25c-.55.29-.47.74,0,1.06l.11.08a1,1,0,0,0,.42.56A2.94,2.94,0,0,0,18.56,35.35Z"/><path class="cls-14" d="M9.78,35.56a1.69,1.69,0,0,0,.52-.46.54.54,0,0,0,.11-.11.62.62,0,0,0,.11-.25,3.17,3.17,0,0,0,.13-.3c.12-.31.29-.78-.47-.89h-.12a2,2,0,0,0-.74-.27c.27-.09.39-.34,0-.41-.72-.15.34.16,0,.45-.1.07-.47.15-.55.23a1.46,1.46,0,0,0-.5.25.83.83,0,0,0,.1,1.31c.27.2-.67.3-.24.3a1.23,1.23,0,0,0,.64.33A1.6,1.6,0,0,0,9.78,35.56Z"/><path class="cls-14" d="M7.37,35.33c.45-.25.48-.58.23-.86.41-.44,0-1-.86-1.17a3.34,3.34,0,0,0-1.19-.07l-.13-.06-.18,0a1.3,1.3,0,0,0-.32,0H4.7a1,1,0,0,0-.27.06l-.14.07a.29.29,0,0,0-.15.18.22.22,0,0,0,.07.24l.07,0-.08.07c-.52.44-1,1.06-.21,1.49a2.58,2.58,0,0,0,1.57.26,2.64,2.64,0,0,0,.46.05A2.76,2.76,0,0,0,7.37,35.33Z"/><path class="cls-14" d="M-1.21,35.4h0a1,1,0,0,0,.32,0,1.13,1.13,0,0,0,.43-.07A1.48,1.48,0,0,0,0,35.28c.2-.06.38-.17.4-.3a.16.16,0,0,0,0-.14l0,0a.27.27,0,0,0,.08-.16.2.2,0,0,0,0-.16l-.06-.09h0a.4.4,0,0,0,.18-.16c.16-.34.17-.8-.63-.9a1.77,1.77,0,0,0-.61,0l-.08-.06a2.24,2.24,0,0,0-1.9-.12c-.3,0-.74.05-.84.2a.81.81,0,0,0-.22.09l-.09.06,0,0,0,0h0c-.07.07-.1.14,0,.22a.37.37,0,0,0,.13.13l.13.07,0,0-.05.06c-.38.44-.17,1,.3,1.42A1.78,1.78,0,0,0-1.21,35.4Z"/><path class="cls-14" d="M2,36.61a1.36,1.36,0,0,0-.54,1.25,1.66,1.66,0,0,0,.11.49.27.27,0,0,0-.07.29A.62.62,0,0,0,2,39l.14.12a1.92,1.92,0,0,0,2-.1l.14,0a.64.64,0,0,0,.59-.26v0a1.72,1.72,0,0,0,.54-.13c.68-.28,1-.88.28-1.21a1.93,1.93,0,0,0-1-.15l-.06-.14L4.77,37c.05-.14-.2-.27-.43-.32l-.11-.09A2.05,2.05,0,0,0,2,36.61Z"/><path class="cls-14" d="M8.76,36.91l-.12,0c-.6-.21-1.32.12-1,.44a.74.74,0,0,1,0,.24l-.11,0c-.33.15.62.37.69.59s-.74.34-.4.39l.16.08c.07.2.47.37.87.39s-1,.13-.71.11a2.59,2.59,0,0,0,.6-.11c.38,0-.61-.1-.33-.25.55-.29.48-.74.06-1.06l-.11-.08A1,1,0,0,0,8,37.1C7.45,36.73,9.49,36.71,8.76,36.91Z"/><path class="cls-14" d="M14.53,36.72a1.71,1.71,0,0,0-.53.46.54.54,0,0,0-.11.11.62.62,0,0,0-.11.24,3.19,3.19,0,0,0-.14.3c-.12.31-.3.78.46.89h.12A1.93,1.93,0,0,0,15,39c-.27.09-.39.34-.05.41A2.1,2.1,0,0,0,16.61,39a3,3,0,0,0,.28-.23,1.47,1.47,0,0,0,.5-.25.83.83,0,0,0-.09-1.31,2,2,0,0,0-1.12-.3,1.22,1.22,0,0,0-.63-.33A1.6,1.6,0,0,0,14.53,36.72Z"/><path class="cls-14" d="M22.7,37c-.45.25-.48.58-.24.86-.41.44,0,1,.85,1.17a3.33,3.33,0,0,0,1.19.07l.13.06.18,0a1.3,1.3,0,0,0,.32,0h.21a1,1,0,0,0,.27-.06l.14-.07a.29.29,0,0,0,.15-.18.22.22,0,0,0-.06-.24l-.07,0,.08-.07c.52-.43,1-1.05.22-1.49a2.58,2.58,0,0,0-1.57-.27,2.63,2.63,0,0,0-.46-.06A2.77,2.77,0,0,0,22.7,37Z"/><path class="cls-14" d="M31.27,36.92h0a1,1,0,0,0-.32,0,1.13,1.13,0,0,0-.43.07A1.48,1.48,0,0,0,30,37c-.2.06-.38.17-.4.3a.16.16,0,0,0,0,.14l0,0a.27.27,0,0,0-.09.16.2.2,0,0,0,0,.16l.06.09h0a.4.4,0,0,0-.18.16c-.16.34-.18.8.63.9a1.77,1.77,0,0,0,.61,0l.08.06a2.24,2.24,0,0,0,1.9.13c.3,0,.74,0,.84-.2a.81.81,0,0,0,.22-.09l.09-.06,0,0,0,0h0c.07-.07.1-.14.05-.22a.36.36,0,0,0-.13-.13l-.13-.07,0,0,.05-.06c.38-.44.18-1-.29-1.42A1.78,1.78,0,0,0,31.27,36.92Z"/><path class="cls-12" d="M81.28,92.45a3,3,0,0,0,.94-.82,1,1,0,0,0,.19-.19,1.11,1.11,0,0,0,.2-.44,5.7,5.7,0,0,0,.24-.55c.21-.55.53-1.41-.85-1.6l-.21,0a3.5,3.5,0,0,0-1.34-.48c.48-.16.7-.61.08-.74a3.75,3.75,0,0,0-3,.81,5.32,5.32,0,0,0-.5.42,2.62,2.62,0,0,0-.9.45,1.49,1.49,0,0,0,.19,2.36,3.62,3.62,0,0,0,2,.53,2.21,2.21,0,0,0,1.15.59A2.87,2.87,0,0,0,81.28,92.45Z"/><path class="cls-12" d="M66.59,92c.81-.45.86-1,.41-1.54.73-.79-.05-1.74-1.55-2.11a6,6,0,0,0-2.13-.13,1.21,1.21,0,0,0-.24-.1l-.33-.09a2.35,2.35,0,0,0-.57,0,1.51,1.51,0,0,0-.37,0,1.8,1.8,0,0,0-.49.11l-.25.12a.53.53,0,0,0-.26.32.39.39,0,0,0,.12.43l.12.09-.15.12c-.94.78-1.73,1.9-.37,2.69a4.65,4.65,0,0,0,2.82.48,4.74,4.74,0,0,0,.82.1A5,5,0,0,0,66.59,92Z"/><path class="cls-12" d="M51.17,92.17l.09,0a1.77,1.77,0,0,0,.58,0,2,2,0,0,0,.77-.13,2.66,2.66,0,0,0,.78-.11c.37-.11.68-.31.72-.54a.28.28,0,0,0-.08-.25l0,0a.48.48,0,0,0,.15-.28.35.35,0,0,0,0-.28l-.1-.17,0,0a.72.72,0,0,0,.33-.3c.29-.6.31-1.43-1.14-1.61a3.18,3.18,0,0,0-1.1,0L52,88.4a4,4,0,0,0-3.42-.22c-.53,0-1.32.09-1.5.37a1.45,1.45,0,0,0-.39.16l-.15.11-.07.06,0,0,0,0c-.12.12-.18.26-.09.39a.66.66,0,0,0,.23.23l.23.13.08,0-.1.1c-.68.79-.31,1.83.54,2.55A3.21,3.21,0,0,0,51.17,92.17Z"/><path class="cls-12" d="M42.73,95.12a3.63,3.63,0,0,0-1.12.06,1.87,1.87,0,0,0-1.66,1.5c-.8.81-1.43,1.85,0,2.56a4.32,4.32,0,0,0,.77.28,1,1,0,0,0,.86.15l.46,0a4,4,0,0,0,1.77-.33h0a.67.67,0,0,0,.18.14,1.49,1.49,0,0,0,.41.17,2.19,2.19,0,0,0,.5.11h0a1.67,1.67,0,0,0,1.75-.16,2,2,0,0,0,.54-1.93.38.38,0,0,0,.11-.26.32.32,0,0,0,0-.16,1.31,1.31,0,0,0-.21-1.37A3.63,3.63,0,0,0,44.2,94.7,2.67,2.67,0,0,0,42.73,95.12Z"/><path class="cls-12" d="M57,94.34a2.45,2.45,0,0,0-1,2.24,3,3,0,0,0,.2.88.48.48,0,0,0-.12.53,1.12,1.12,0,0,0,.87.59l.26.22a3.45,3.45,0,0,0,3.65-.18l.25,0a1.15,1.15,0,0,0,1.07-.47l0,0a3.09,3.09,0,0,0,1-.23c1.22-.5,1.74-1.58.51-2.18a3.47,3.47,0,0,0-1.81-.26,2.28,2.28,0,0,0-.11-.25c0-.08.08-.16.11-.24.1-.25-.36-.49-.77-.58l-.2-.17A3.69,3.69,0,0,0,57,94.34Z"/><path class="cls-12" d="M74,94.88l-.21-.08c-1.09-.38-2.37.21-1.74.8a1.34,1.34,0,0,1,0,.43l-.2.08c-.59.28-.85.66-.74,1.07s.64.61,1.26.7a1.61,1.61,0,0,0,.28.14c.12.36.84.67,1.57.7a4.16,4.16,0,0,0,1.67.2,4.66,4.66,0,0,0,1.08-.2,4.43,4.43,0,0,0,1.86-.44c1-.53.86-1.34.1-1.91l-.2-.14a1.85,1.85,0,0,0-.74-1A5.29,5.29,0,0,0,74,94.88Z"/><path class="cls-7" d="M9,67l0,0,.11.07Z"/><path class="cls-7" d="M6.7,69.2h0S6.67,69.22,6.7,69.2Z"/><path class="cls-7" d="M3.54,59.26l.05,0Z"/><path class="cls-7" d="M3.42,69a.08.08,0,0,0,0,0h0Z"/><path class="cls-7" d="M.66,69l0,0Z"/><path class="cls-10" d="M-9.32,31.5a12.88,12.88,0,0,1,8-3.56A12.62,12.62,0,0,1,7,30.44C1.51,32.32-3.65,32.25-9.32,31.5Z"/><path class="cls-10" d="M-6.57,33.79c6.15-.84,9.88-.15,15.57,2.53-6.55,1.92-9.76,1.5-15.49-2.49Z"/><path class="cls-10" d="M7.87,49.24c-2.71-6.13-6.13-11-12-13.06C-1.11,42.13,2.1,46.67,7.87,49.24Z"/><path class="cls-10" d="M4.21,93.22a12,12,0,0,1-12-1.58C-3.85,90.8.44,91.68,4.21,93.22Z"/><path class="cls-10" d="M3.25,90.31A12.48,12.48,0,0,1-5.22,88.6a14.44,14.44,0,0,1-5.77-7C-5.48,83.22-1.16,86.33,3.25,90.31Z"/><path class="cls-10" d="M2.05,86.75A36.65,36.65,0,0,1-12.15,73.8C-5.69,76.06-.87,79.92,2,86.66Z"/><path class="cls-10" d="M4.11,93.25a13.51,13.51,0,0,0,9-8.84C9.47,86.21,6.4,89.62,4.11,93.25Z"/><path class="cls-10" d="M3.39,90.26C6,88.83,6.52,86.43,7.81,83.55s.57-6.24,0-9.38C4.12,79,4.94,84.23,3.39,90.26Z"/><path class="cls-10" d="M2.52,86.59A42.11,42.11,0,0,0,7.44,67.05C3.31,73,1.36,79.15,2.51,86.49Z"/><path class="cls-10" d="M-3.95,64.23A27.49,27.49,0,0,0,1.2,83.32,32.31,32.31,0,0,0-3.95,64.23Z"/><path class="cls-10" d="M76,1.21C81.67,3.46,87.85,9,89.29,15.46,84.28,12.25,78.73,6.82,76,1.21Z"/><path class="cls-10" d="M74.5,5.38C78,7.88,82.45,11.7,83.87,16.06a23.4,23.4,0,0,1,.21,13.64C79.5,22.18,75.86,14.3,74.5,5.38Z"/><path class="cls-10" d="M72.72,10.49c3.56,9,7,19.14,5.88,28.88C73.53,30.18,70,21,72.7,10.63Z"/><path class="cls-10" d="M76.11,1.28a17.3,17.3,0,0,0-17.45.18C64.2,3.35,70.48,2.83,76.11,1.28Z"/><path class="cls-10" d="M74.31,5.28a17.86,17.86,0,0,0-12.39,1,20.22,20.22,0,0,0-9.29,9.06C60.76,13.93,67.41,10.22,74.31,5.28Z"/><path class="cls-10" d="M72.69,11a51.34,51.34,0,0,0-22.24,16.1C60,25,67.5,20.32,72.61,11.15Z"/><path class="cls-10" d="M59.77,41.21a38.75,38.75,0,0,0,10.92-26.1A45.52,45.52,0,0,0,59.77,41.21Z"/></g></g></g><path class="cls-15" d="M40.37,17.51h-4.2c2.18,1.25.95,4.66,1.16,6.41A3,3,0,0,0,40.11,26a2.81,2.81,0,0,0,2.63-2.11c.21-1.75-1.06-5.17,1.12-6.41Z"/><path class="cls-3" d="M46.53,10.45c0,5.78-3.93,10.47-6.53,10.47s-6.53-4.69-6.53-10.47,3.2-8,7-8S46.53,4.67,46.53,10.45Z"/><circle class="cls-16" cx="37.83" cy="12.34" r="0.83"/><path class="cls-16" d="M43.08,12.3a.77.77,0,0,1-.7.86.82.82,0,0,1-.83-.78.77.77,0,0,1,.7-.86A.82.82,0,0,1,43.08,12.3Z"/><path class="cls-17" d="M47.16,45.3C47.62,44.07,55,4,42.31,1.58a15.1,15.1,0,0,0-3.78,0C29.47,3.3,29,25.26,29.4,35.53a68.69,68.69,0,0,0,1,10.43c0,.25,5.8-1.1,5.62-3.8-.23-3.41-.15-12.57-.58-16.79-1-9.57,1.53-19.85,7-18.92,1.67,2.6,2,3.53,2.21,9.07.43,10.73-2.33,26.08-2.13,27.32S47.16,45.3,47.16,45.3Z"/><path class="cls-18" d="M31.77,34.76c.13-4.61-.06-26.12,6.48-30.81C30.24,7.61,31.9,30.11,31.77,34.76Z"/><path class="cls-18" d="M29.83,23.22c.4-3.22,2.5-16.93,7.39-19.78C31.36,5.48,30.23,20,29.83,23.22Z"/><g class="cls-19"><path class="cls-20" d="M42.12,16.71a2.85,2.85,0,0,1-2.1,1.5,2.65,2.65,0,0,1-2.1-1.5Z"/></g></g></svg>