<?xml version="1.0" encoding="UTF-8"?>
<svg width="49px" height="57px" viewBox="0 0 49 57" version="1.1" xmlns="http://www.w3.org/2000/svg" xmlns:xlink="http://www.w3.org/1999/xlink">
    <!-- Generator: Sketch 43.2 (39069) - http://www.bohemiancoding.com/sketch -->
    <title>ad-logo</title>
    <desc>Created with Sketch.</desc>
    <defs></defs>
    <g id="Page-1" stroke="none" stroke-width="1" fill="none" fill-rule="evenodd">
        <g id="my-website-01" transform="translate(-82.000000, -44.000000)" fill="#FFFFFF">
            <g id="ad-logo" transform="translate(82.000000, 44.000000)">
                <path d="M38.9697987,10.3978274 L38.9697987,11.7142257 C38.9665101,11.7119121 38.9615772,31.3769121 38.9615772,31.3769121 C38.9697987,31.5811637 38.9622349,31.6297479 38.9615772,31.6819675 L38.9615772,32.1767323 C38.5968725,39.9111916 32.2702819,46.0807136 24.493094,46.0807136 C16.4939262,46.0807136 10.0150738,39.5661453 10.0150738,31.5286136 C10.0150738,23.4924039 16.4939262,16.9784966 24.493094,16.9784966 C29.8196242,16.9784966 34.4621275,19.87801 36.976255,24.1844797 L36.976255,10.3978274 C33.3186846,8.20162702 29.061604,6.91695718 24.493094,6.91695718 C10.9664631,6.91695718 0,17.9412553 0,31.5286136 C0,45.1212599 10.9664631,56.140931 24.493094,56.140931 C29.9172953,56.140931 34.9110201,54.3459626 38.9697987,51.343993 L38.9697987,54.9907763 L48.9805973,54.9907763 L48.9805973,0.33033895 C48.9805973,0.33033895 38.9697987,0.33033895 38.9697987,10.3978274 Z" id="Fill-1"></path>
            </g>
        </g>
    </g>
</svg>